<?xml version="1.0" encoding="utf-8"?>
<!-- Generator: Adobe Illustrator 19.0.0, SVG Export Plug-In . SVG Version: 6.00 Build 0)  -->
<svg version="1.1" id="Ebene_1" xmlns="http://www.w3.org/2000/svg" xmlns:xlink="http://www.w3.org/1999/xlink" x="0px" y="0px"
	 viewBox="0 0 500 200" style="enable-background:new 0 0 500 200;" xml:space="preserve">
<style type="text/css">
	.st0{fill:#2D343D;}
	.st1{fill:#478AB8;}
	.st2{fill:#FFFFFF;}
</style>
<rect x="674" y="0" class="st0" width="500" height="200"/>
<g id="aufblau">
	<g>
		<path class="st1" d="M844,119.5h-5l-0.1-0.3c-0.7-1.8-1.4-3.6-2-5.3c-0.6-1.6-1.1-3.1-1.6-4.6h-17.5c-0.6,1.5-1.2,3.1-1.7,4.6
			c-0.6,1.7-1.2,3.4-1.9,5.2l-0.1,0.3h-4.8l0.2-0.6c1.4-3.9,2.7-7.5,4-10.8c1.2-3.3,2.5-6.5,3.7-9.5c1.2-3,2.4-5.8,3.6-8.6
			c1.2-2.8,2.5-5.5,3.8-8.3l0.1-0.3h3.8l0.1,0.3c1.3,2.7,2.6,5.5,3.7,8.3c1.2,2.7,2.4,5.6,3.6,8.6c1.2,3,2.4,6.2,3.7,9.5
			c1.2,3.3,2.6,6.9,4.1,10.8L844,119.5z M819.4,105.3h14.5c-1.3-3.4-2.6-6.7-3.8-9.7c-1.2-2.8-2.3-5.6-3.5-8.4
			c-1.2,2.8-2.4,5.6-3.5,8.4C821.9,98.6,820.6,101.9,819.4,105.3z"/>
	</g>
	<g>
		<path class="st1" d="M853.9,119.5h-4.6V82.3l0.3-0.1c1.3-0.4,2.9-0.6,4.6-0.8c7.8-0.7,13.5,0.2,16.9,2.9c2.7,2.1,4,5.1,4,8.9
			c0,2.2-0.4,4-1.2,5.6c-0.8,1.5-1.9,2.8-3.4,3.8c-1.4,0.9-3.2,1.6-5.3,2c-2,0.4-4.4,0.6-6.9,0.6h-4.6V119.5z M853.9,101.1h4.2
			c1.9,0,3.7-0.1,5.3-0.3c1.5-0.2,2.8-0.6,3.9-1.2c1-0.6,1.9-1.4,2.4-2.4c0.6-1,0.9-2.4,0.9-4c0-1.5-0.3-2.8-0.9-3.8
			c-0.6-1-1.4-1.8-2.5-2.4c-1-0.6-2.2-1-3.6-1.3c-1.4-0.2-2.8-0.4-4.2-0.4c-1.3,0-2.5,0-3.4,0.1c-0.8,0.1-1.4,0.1-2,0.2V101.1z"/>
	</g>
	<g>
		<path class="st1" d="M885.8,119.5h-4.5V82.3l0.3-0.1c1.3-0.4,2.9-0.6,4.6-0.8c7.8-0.7,13.5,0.2,16.9,2.9c2.7,2.1,4,5.1,4,8.9
			c0,2.2-0.4,4-1.2,5.6c-0.8,1.5-1.9,2.8-3.4,3.8c-1.4,0.9-3.2,1.6-5.3,2c-2,0.4-4.4,0.6-6.9,0.6h-4.6V119.5z M885.8,101.1h4.2
			c1.9,0,3.7-0.1,5.3-0.3c1.5-0.2,2.8-0.6,3.9-1.2c1-0.6,1.9-1.4,2.4-2.4c0.6-1,0.9-2.4,0.9-4c0-1.5-0.3-2.8-0.9-3.8
			c-0.6-1-1.4-1.8-2.5-2.4c-1-0.6-2.2-1-3.6-1.3c-1.4-0.2-2.8-0.4-4.2-0.4c-1.3,0-2.5,0-3.4,0.1c-0.8,0.1-1.4,0.1-2,0.2V101.1z"/>
	</g>
	<g>
		<path class="st2" d="M940.6,119.5h-5l-0.1-0.3c-0.7-1.8-1.4-3.6-2-5.3c-0.6-1.6-1.1-3.1-1.6-4.6h-17.5c-0.6,1.5-1.2,3.1-1.7,4.6
			c-0.6,1.7-1.2,3.4-1.9,5.2l-0.1,0.3H906l0.2-0.6c1.4-3.9,2.7-7.5,4-10.8c1.2-3.3,2.5-6.5,3.7-9.5c1.2-3,2.4-5.8,3.6-8.6
			c1.2-2.8,2.5-5.5,3.8-8.3l0.1-0.3h3.8l0.1,0.3c1.3,2.7,2.6,5.5,3.7,8.3c1.2,2.7,2.4,5.6,3.6,8.6c1.2,3,2.4,6.2,3.7,9.5
			c1.2,3.3,2.6,6.9,4.1,10.8L940.6,119.5z M916,105.3h14.5c-1.3-3.4-2.6-6.7-3.8-9.7c-1.2-2.8-2.4-5.7-3.5-8.4
			c-1.2,2.8-2.4,5.6-3.5,8.4C918.5,98.6,917.3,101.9,916,105.3z"/>
	</g>
	<g>
		<path class="st2" d="M974,119.5h-4.9l-0.1-0.2c-0.7-1.4-1.6-2.9-2.4-4.3c-0.9-1.4-1.8-2.8-2.7-4.1c-0.9-1.3-1.8-2.6-2.6-3.7
			l-2.1-2.8c-1.1,0.1-2.2,0.1-3.2,0.1h-5.5v15h-4.5V82.3l0.3-0.1c1.3-0.4,2.9-0.6,4.6-0.8c1.7-0.2,3.4-0.2,4.8-0.2
			c5.2,0,9.2,1,11.8,3c2.7,2,4.1,5,4.1,8.9c0,2.9-0.8,5.2-2.3,6.9c-1.4,1.5-3.2,2.7-5.4,3.4c0.5,0.6,1.1,1.4,1.8,2.4
			c0.9,1.2,1.9,2.6,2.8,4c1,1.4,1.9,3,2.8,4.5c0.9,1.6,1.7,3.1,2.4,4.5L974,119.5z M950.4,100.5h4.6c1.6,0,3.2-0.1,4.7-0.2
			c1.4-0.2,2.7-0.5,3.8-1c1-0.5,1.8-1.3,2.4-2.2c0.6-1,0.9-2.3,0.9-4c0-1.6-0.3-2.8-0.9-3.8c-0.6-1-1.4-1.8-2.4-2.4
			c-1-0.6-2.1-1-3.4-1.2c-1.3-0.2-2.7-0.3-4.1-0.3c-1.3,0-2.5,0-3.5,0.1c-0.8,0.1-1.5,0.1-2.1,0.2V100.5z"/>
	</g>
	<g>
		<path class="st2" d="M1003.4,119.5h-23.7v-38h22.3v4.1h-17.8v12h15.8v4h-15.8v13.9h19.2V119.5z"/>
	</g>
	<g>
		<path class="st2" d="M1039.1,119.5h-3.8l-0.1-0.2c-0.7-1.3-1.6-2.7-2.6-4.4c-1-1.7-2.2-3.5-3.5-5.4c-1.3-1.9-2.6-3.9-4-5.9
			c-1.4-2-2.8-4-4.1-5.9c-1.4-1.9-2.7-3.7-4-5.4c-1-1.2-1.9-2.4-2.7-3.4v30.4h-4.5v-38h3.5l0.1,0.2c1.8,2,3.8,4.4,5.9,7.1
			c2.1,2.6,4.1,5.4,6.1,8.2c2,2.8,3.9,5.5,5.6,8.1c1.3,2,2.5,3.8,3.4,5.5v-29h4.5V119.5z"/>
	</g>
	<g>
		<path class="st2" d="M1078.6,119.5h-5l-0.1-0.3c-0.7-1.8-1.4-3.6-2-5.3c-0.6-1.6-1.1-3.1-1.6-4.6h-17.5c-0.6,1.5-1.2,3.1-1.7,4.6
			c-0.6,1.7-1.2,3.4-1.9,5.2l-0.1,0.3h-4.8l0.2-0.6c1.4-3.9,2.7-7.5,4-10.8c1.2-3.3,2.5-6.5,3.7-9.5c1.2-3,2.4-5.8,3.6-8.6
			c1.2-2.8,2.5-5.5,3.8-8.3l0.1-0.3h3.8l0.1,0.3c1.3,2.7,2.6,5.5,3.7,8.3c1.2,2.7,2.4,5.6,3.6,8.6c1.2,3,2.4,6.2,3.7,9.5
			c1.2,3.3,2.6,6.9,4.1,10.8L1078.6,119.5z M1053.9,105.3h14.5c-1.3-3.4-2.5-6.7-3.8-9.7c-1.2-2.8-2.3-5.6-3.5-8.4
			c-1.2,2.8-2.4,5.6-3.5,8.4C1056.5,98.6,1055.2,101.9,1053.9,105.3z"/>
	</g>
	<g>
		<path class="st1" d="M790.4,81.5c-4.7,0-8.4,3.8-8.4,8.4c0,4.7,3.8,8.4,8.4,8.4c4.7,0,8.4-3.8,8.4-8.4
			C798.9,85.2,795.1,81.5,790.4,81.5z"/>
		<path class="st2" d="M790.4,70.5c-10.7,0-19.4,8.7-19.4,19.4c0,10.7,8.7,19.4,19.4,19.4c10.7,0,19.4-8.7,19.4-19.4
			C809.9,79.2,801.1,70.5,790.4,70.5z M790.4,105.3c-8.5,0-15.4-6.9-15.4-15.4c0-8.5,6.9-15.4,15.4-15.4c8.5,0,15.4,6.9,15.4,15.4
			C805.9,98.4,798.9,105.3,790.4,105.3z"/>
	</g>
</g>
<g id="aufweiss">
	<g>
		<path class="st1" d="M171.3,119h-5l-0.1-0.3c-0.7-1.8-1.4-3.6-2-5.3c-0.6-1.6-1.1-3.1-1.6-4.6h-17.5c-0.6,1.5-1.2,3.1-1.7,4.6
			c-0.6,1.7-1.2,3.4-1.9,5.2l-0.1,0.3h-4.8l0.2-0.6c1.4-3.9,2.7-7.5,4-10.8c1.2-3.3,2.5-6.5,3.7-9.5c1.2-3,2.4-5.8,3.6-8.6
			c1.2-2.8,2.5-5.5,3.8-8.3l0.1-0.3h3.8l0.1,0.3c1.3,2.7,2.6,5.5,3.7,8.3c1.2,2.7,2.4,5.6,3.6,8.6c1.2,3,2.4,6.2,3.7,9.5
			c1.2,3.3,2.6,6.9,4.1,10.8L171.3,119z M146.6,104.8h14.5c-1.3-3.4-2.6-6.7-3.8-9.7c-1.2-2.8-2.3-5.6-3.5-8.4
			c-1.2,2.8-2.4,5.6-3.5,8.4C149.2,98.1,147.9,101.3,146.6,104.8z"/>
	</g>
	<g>
		<path class="st1" d="M180.7,119h-4.5V81.8l0.3-0.1c1.3-0.4,2.9-0.6,4.6-0.8c7.8-0.7,13.5,0.2,16.9,2.9c2.7,2.1,4,5.1,4,8.9
			c0,2.2-0.4,4-1.2,5.6c-0.8,1.5-1.9,2.8-3.4,3.8c-1.4,0.9-3.2,1.6-5.3,2c-2,0.4-4.4,0.6-6.9,0.6h-4.6V119z M180.7,100.6h4.2
			c1.9,0,3.7-0.1,5.3-0.3c1.5-0.2,2.8-0.6,3.9-1.2c1-0.6,1.9-1.4,2.4-2.4c0.6-1,0.9-2.4,0.9-4c0-1.5-0.3-2.8-0.9-3.8
			c-0.6-1-1.4-1.8-2.5-2.4c-1-0.6-2.2-1-3.6-1.3c-1.4-0.2-2.8-0.4-4.2-0.4c-1.3,0-2.5,0-3.4,0.1c-0.8,0.1-1.4,0.1-2,0.2V100.6z"/>
	</g>
	<g>
		<path class="st1" d="M212.1,119h-4.5V81.8l0.3-0.1c1.3-0.4,2.9-0.6,4.6-0.8c7.8-0.7,13.5,0.2,16.9,2.9c2.7,2.1,4,5.1,4,8.9
			c0,2.2-0.4,4-1.2,5.6c-0.8,1.5-1.9,2.8-3.4,3.8c-1.4,0.9-3.2,1.6-5.3,2c-2,0.4-4.4,0.6-6.9,0.6h-4.6V119z M212.1,100.6h4.2
			c1.9,0,3.7-0.1,5.3-0.3c1.5-0.2,2.8-0.6,3.9-1.2c1-0.6,1.9-1.4,2.4-2.4c0.6-1,0.9-2.4,0.9-4c0-1.5-0.3-2.8-0.9-3.8
			c-0.6-1-1.4-1.8-2.5-2.4c-1-0.6-2.2-1-3.6-1.3c-1.4-0.2-2.8-0.4-4.2-0.4c-1.3,0-2.5,0-3.4,0.1c-0.8,0.1-1.4,0.1-2,0.2V100.6z"/>
	</g>
	<g>
		<path class="st0" d="M266.4,119h-5l-0.1-0.3c-0.7-1.8-1.4-3.6-2-5.3c-0.6-1.6-1.1-3.1-1.6-4.6h-17.5c-0.6,1.5-1.1,3.1-1.7,4.6
			c-0.6,1.7-1.2,3.4-1.9,5.2l-0.1,0.3h-4.8l0.2-0.6c1.4-3.9,2.7-7.5,4-10.8c1.2-3.3,2.5-6.5,3.7-9.5c1.2-3,2.4-5.8,3.6-8.6
			c1.2-2.8,2.5-5.5,3.8-8.3l0.1-0.3h3.8l0.1,0.3c1.3,2.7,2.6,5.5,3.7,8.3c1.2,2.7,2.4,5.6,3.6,8.6c1.2,3,2.4,6.2,3.7,9.5
			c1.2,3.3,2.6,6.9,4.1,10.8L266.4,119z M241.7,104.8h14.5c-1.3-3.4-2.6-6.7-3.8-9.7c-1.2-2.8-2.4-5.7-3.5-8.4
			c-1.2,2.8-2.4,5.6-3.5,8.4C244.3,98.1,243,101.3,241.7,104.8z"/>
	</g>
	<g>
		<path class="st0" d="M299.2,119h-4.9l-0.1-0.2c-0.7-1.4-1.6-2.9-2.4-4.3c-0.9-1.4-1.8-2.8-2.7-4.1c-0.9-1.3-1.8-2.6-2.6-3.7
			l-2.1-2.8c-1.1,0.1-2.1,0.1-3.2,0.1h-5.5v15H271V81.8l0.3-0.1c1.3-0.4,2.9-0.6,4.6-0.8c1.7-0.2,3.4-0.2,4.8-0.2
			c5.2,0,9.2,1,11.8,3c2.7,2,4.1,5,4.1,8.9c0,2.9-0.8,5.2-2.3,6.9c-1.4,1.5-3.2,2.7-5.4,3.4c0.5,0.6,1.1,1.4,1.8,2.4
			c0.9,1.2,1.9,2.6,2.8,4c1,1.4,1.9,3,2.9,4.5c0.9,1.6,1.7,3.1,2.4,4.5L299.2,119z M275.6,100h4.6c1.6,0,3.2-0.1,4.7-0.2
			c1.4-0.2,2.7-0.5,3.8-1c1-0.5,1.8-1.3,2.4-2.2c0.6-1,0.9-2.3,0.9-4c0-1.6-0.3-2.8-0.9-3.8c-0.6-1-1.4-1.8-2.4-2.4
			c-1-0.6-2.1-1-3.4-1.2c-1.3-0.2-2.7-0.3-4.1-0.3c-1.3,0-2.5,0-3.5,0.1c-0.8,0.1-1.5,0.1-2.1,0.2V100z"/>
	</g>
	<g>
		<path class="st0" d="M327.7,119H304V81h22.3V85h-17.8v12h15.8v4h-15.8v13.9h19.2V119z"/>
	</g>
	<g>
		<path class="st0" d="M362.5,119h-3.8l-0.1-0.2c-0.7-1.3-1.6-2.7-2.6-4.4c-1-1.7-2.2-3.5-3.5-5.4c-1.3-1.9-2.6-3.9-4-5.9
			c-1.4-2-2.8-4-4.1-5.9c-1.4-1.9-2.7-3.7-4-5.4c-1-1.2-1.9-2.4-2.7-3.4V119h-4.5V81h3.5l0.1,0.2c1.8,2,3.8,4.4,5.9,7.1
			c2.1,2.6,4.1,5.4,6.1,8.2c2,2.8,3.9,5.5,5.6,8.1c1.3,2,2.5,3.8,3.4,5.5V81h4.5V119z"/>
	</g>
	<g>
		<path class="st0" d="M401.7,119h-5l-0.1-0.3c-0.7-1.8-1.4-3.6-2-5.3c-0.6-1.6-1.1-3.1-1.6-4.6h-17.5c-0.6,1.5-1.2,3.1-1.7,4.6
			c-0.6,1.7-1.2,3.4-1.9,5.2l-0.1,0.3h-4.8l0.2-0.6c1.4-3.9,2.7-7.5,4-10.8c1.2-3.3,2.5-6.5,3.7-9.5c1.2-3,2.4-5.8,3.6-8.6
			c1.2-2.8,2.5-5.5,3.8-8.3l0.1-0.3h3.8l0.1,0.3c1.3,2.7,2.6,5.5,3.7,8.3c1.2,2.7,2.4,5.6,3.6,8.6c1.2,3,2.4,6.2,3.7,9.5
			c1.2,3.3,2.6,6.9,4.1,10.8L401.7,119z M377.1,104.8h14.5c-1.3-3.4-2.5-6.7-3.8-9.7c-1.2-2.8-2.3-5.6-3.5-8.4
			c-1.2,2.8-2.4,5.6-3.5,8.4C379.6,98.1,378.4,101.3,377.1,104.8z"/>
	</g>
	<g>
		<path class="st1" d="M117.7,80.9c-4.7,0-8.4,3.8-8.4,8.4c0,4.7,3.8,8.4,8.4,8.4c4.7,0,8.4-3.8,8.4-8.4
			C126.1,84.7,122.4,80.9,117.7,80.9z"/>
		<path class="st0" d="M117.7,69.9c-10.7,0-19.4,8.7-19.4,19.4c0,10.7,8.7,19.4,19.4,19.4c10.7,0,19.4-8.7,19.4-19.4
			C137.1,78.7,128.4,69.9,117.7,69.9z M117.7,104.8c-8.5,0-15.4-6.9-15.4-15.4s6.9-15.4,15.4-15.4c8.5,0,15.4,6.9,15.4,15.4
			S126.2,104.8,117.7,104.8z"/>
	</g>
</g>
</svg>
