<?xml version="1.0" encoding="utf-8"?>
<!-- Generator: Adobe Illustrator 19.0.0, SVG Export Plug-In . SVG Version: 6.00 Build 0)  -->
<svg version="1.1" id="Ebene_1" xmlns="http://www.w3.org/2000/svg" xmlns:xlink="http://www.w3.org/1999/xlink" x="0px" y="0px"
	 viewBox="-239 201.6 384.7 62.3" style="enable-background:new -239 201.6 384.7 62.3;" xml:space="preserve">
<style type="text/css">
	.st0{fill:#498AB8;}
	.st1{fill:#2D343E;}
</style>
<g id="aufweiss">
	<g>
		<path class="st0" d="M-146.4,263.7h-6.3l-0.1-0.4c-0.9-2.3-1.7-4.6-2.5-6.7c-0.7-2-1.4-3.9-2-5.8h-22.2c-0.7,1.9-1.5,3.9-2.2,5.9
			c-0.8,2.1-1.5,4.4-2.4,6.7l-0.1,0.4h-6l0.3-0.8c1.8-4.9,3.5-9.5,5.1-13.7s3.2-8.2,4.7-12c1.5-3.7,3-7.4,4.6-10.9
			c1.5-3.5,3.1-7,4.8-10.5l0.2-0.3h4.8l0.2,0.3c1.7,3.5,3.2,7,4.7,10.5c1.5,3.4,3,7.1,4.5,10.9s3.1,7.8,4.7,12s3.3,8.8,5.2,13.7
			L-146.4,263.7z M-177.7,245.8h18.4c-1.6-4.4-3.2-8.5-4.8-12.2c-1.5-3.6-3-7.1-4.5-10.6c-1.5,3.5-3,7.1-4.4,10.7
			C-174.5,237.3-176.1,241.4-177.7,245.8z"/>
	</g>
	<g>
		<path class="st0" d="M-134.5,263.8h-5.8v-47.2l0.4-0.1c1.7-0.5,3.6-0.8,5.8-1c9.9-0.9,17.1,0.3,21.4,3.6c3.4,2.6,5.1,6.4,5.1,11.2
			c0,2.7-0.5,5.1-1.5,7.1s-2.4,3.6-4.3,4.8c-1.8,1.2-4.1,2.1-6.7,2.6s-5.5,0.8-8.8,0.8h-5.8v18.2H-134.5z M-134.5,240.4h5.3
			c2.5,0,4.7-0.1,6.7-0.4c1.9-0.3,3.6-0.8,5-1.6c1.3-0.7,2.4-1.8,3.1-3.1c0.7-1.3,1.1-3,1.1-5.1c0-2-0.4-3.6-1.2-4.9
			c-0.8-1.3-1.8-2.3-3.1-3c-1.3-0.8-2.8-1.3-4.5-1.6c-1.7-0.3-3.5-0.5-5.3-0.5c-1.7,0-3.1,0.1-4.3,0.2c-1,0.1-1.8,0.2-2.6,0.2v19.8
			H-134.5z"/>
	</g>
	<g>
		<path class="st0" d="M-94.7,263.8h-5.8v-47.2l0.4-0.1c1.7-0.5,3.6-0.8,5.8-1c9.9-0.9,17.1,0.3,21.4,3.6c3.4,2.6,5.1,6.4,5.1,11.2
			c0,2.7-0.5,5.1-1.5,7.1s-2.4,3.6-4.3,4.8c-1.8,1.2-4.1,2.1-6.7,2.6s-5.5,0.8-8.8,0.8h-5.8v18.2H-94.7z M-94.7,240.4h5.3
			c2.5,0,4.7-0.1,6.7-0.4c1.9-0.3,3.6-0.8,5-1.6c1.3-0.7,2.4-1.8,3.1-3.1c0.7-1.3,1.1-3,1.1-5.1c0-2-0.4-3.6-1.2-4.9
			c-0.8-1.3-1.8-2.3-3.1-3c-1.3-0.8-2.8-1.3-4.5-1.6c-1.7-0.3-3.5-0.5-5.3-0.5c-1.7,0-3.1,0.1-4.3,0.2c-1,0.1-1.8,0.2-2.6,0.2v19.8
			H-94.7z"/>
	</g>
	<g>
		<path class="st1" d="M-25.8,263.8h-6.3l-0.2-0.4c-0.9-2.3-1.7-4.5-2.5-6.7c-0.7-2-1.4-3.9-2-5.8H-59c-0.7,1.9-1.5,3.9-2.2,5.9
			c-0.8,2.1-1.5,4.4-2.4,6.7l-0.1,0.4h-6l0.3-0.8c1.8-4.9,3.5-9.5,5.1-13.7c1.6-4.2,3.2-8.2,4.7-12c1.5-3.7,3-7.4,4.6-10.9
			c1.5-3.5,3.1-7,4.8-10.5l0.2-0.3h4.8l0.2,0.3c1.7,3.5,3.2,7,4.7,10.5s3,7.1,4.5,10.9s3.1,7.8,4.7,12c1.6,4.2,3.3,8.8,5.2,13.7
			L-25.8,263.8z M-57.1,245.8h18.4c-1.6-4.3-3.2-8.5-4.8-12.2c-1.5-3.6-3-7.2-4.5-10.6c-1.5,3.5-3,7.1-4.4,10.7
			C-53.9,237.3-55.5,241.4-57.1,245.8z"/>
	</g>
	<g>
		<path class="st1" d="M15.7,263.8H9.5l-0.2-0.3c-0.9-1.8-2-3.6-3.1-5.4s-2.3-3.6-3.4-5.2c-1.1-1.7-2.3-3.2-3.3-4.7l-2.7-3.5
			c-1.4,0.1-2.7,0.2-4.1,0.2h-7v19h-5.8v-47.3l0.4-0.1c1.7-0.5,3.6-0.8,5.8-1s4.3-0.3,6.1-0.3c6.6,0,11.6,1.3,15,3.8
			s5.2,6.4,5.2,11.3c0,3.7-1,6.6-2.9,8.7c-1.8,1.9-4,3.4-6.8,4.3c0.6,0.8,1.4,1.8,2.3,3c1.1,1.5,2.4,3.2,3.6,5.1
			c1.2,1.8,2.4,3.8,3.6,5.8c1.2,2,2.2,3.9,3,5.8L15.7,263.8z M-14.2,239.7h5.8c2.1,0,4.1-0.1,6-0.3c1.8-0.2,3.4-0.6,4.8-1.3
			c1.3-0.6,2.3-1.6,3.1-2.8c0.8-1.2,1.1-2.9,1.1-5.1c0-2-0.4-3.6-1.1-4.9c-0.8-1.3-1.8-2.3-3-3c-1.2-0.8-2.7-1.3-4.3-1.6
			c-1.7-0.3-3.4-0.4-5.2-0.4c-1.7,0-3.2,0.1-4.5,0.2c-1,0.1-1.9,0.2-2.7,0.3L-14.2,239.7L-14.2,239.7z"/>
	</g>
	<g>
		<path class="st1" d="M51.8,263.8H21.7v-48.2H50v5.2H27.5V236h20.1v5.1H27.5v17.6h24.3L51.8,263.8L51.8,263.8z"/>
	</g>
	<g>
		<path class="st1" d="M96,263.8h-4.8l-0.2-0.3c-0.9-1.6-2-3.5-3.3-5.5c-1.3-2.1-2.8-4.4-4.4-6.8s-3.3-4.9-5-7.4s-3.5-5-5.2-7.5
			c-1.7-2.4-3.4-4.7-5.1-6.8c-1.2-1.6-2.4-3-3.4-4.2v38.6h-5.7v-48.3h4.5l0.2,0.2c2.3,2.6,4.8,5.6,7.4,9c2.6,3.3,5.2,6.8,7.8,10.3
			c2.5,3.5,4.9,7,7.1,10.3c1.7,2.6,3.1,4.9,4.4,6.9v-36.7H96V263.8z"/>
	</g>
	<g>
		<path class="st1" d="M145.7,263.8h-6.3l-0.1-0.4c-0.9-2.3-1.7-4.6-2.5-6.7c-0.7-2-1.4-3.9-2-5.8h-22.2c-0.7,1.9-1.5,3.9-2.2,5.9
			c-0.8,2.1-1.5,4.4-2.4,6.7l-0.1,0.4h-6l0.3-0.8c1.8-4.9,3.5-9.5,5.1-13.7s3.2-8.2,4.7-12c1.5-3.7,3-7.4,4.6-10.9
			c1.5-3.5,3.1-7,4.8-10.5l0.2-0.3h4.8l0.2,0.3c1.7,3.5,3.2,7,4.7,10.5c1.5,3.4,3,7.1,4.5,10.9s3.1,7.8,4.7,12
			c1.5,4.1,3.3,8.8,5.2,13.7V263.8z M114.4,245.8h18.4c-1.6-4.3-3.2-8.4-4.8-12.2c-1.5-3.6-3-7.1-4.5-10.6c-1.5,3.5-3,7.1-4.4,10.7
			C117.6,237.3,116.1,241.4,114.4,245.8z"/>
	</g>
	<g>
		<path class="st0" d="M-214.4,215.6c-5.9,0-10.7,4.8-10.7,10.7c0,5.9,4.8,10.7,10.7,10.7s10.7-4.8,10.7-10.7
			S-208.4,215.6-214.4,215.6z"/>
		<path class="st1" d="M-214.4,201.6c-13.6,0-24.6,11.1-24.6,24.6c0,13.6,11.1,24.6,24.6,24.6c13.6,0,24.6-11.1,24.6-24.6
			C-189.7,212.7-200.8,201.6-214.4,201.6z M-214.4,245.8c-10.8,0-19.6-8.8-19.6-19.6c0-10.8,8.8-19.6,19.6-19.6s19.6,8.8,19.6,19.6
			S-203.6,245.8-214.4,245.8z"/>
	</g>
</g>
</svg>
