<svg style="position: absolute; width: 0; height: 0; overflow: hidden;" version="1.1" xmlns="http://www.w3.org/2000/svg" xmlns:xlink="http://www.w3.org/1999/xlink">
<defs>
<symbol id="aa-icon-arrow-right" viewBox="0 0 32 32">
<title>arrow-right</title>
<path class="path1" fill="#777582" d="M31.6 15l-9.467-9.533c-0.533-0.533-1.467-0.533-2 0s-0.533 1.467 0 2l7.067 7.067h-25.8c-0.733 0.067-1.4 0.667-1.4 1.467s0.667 1.4 1.4 1.4h25.8l-7.067 7.133c-0.533 0.533-0.533 1.467 0 2v0c0.533 0.533 1.467 0.533 2 0l9.467-9.467c0.267-0.267 0.4-0.667 0.4-1 0-0.467-0.133-0.8-0.4-1.067z"></path>
</symbol>
<symbol id="aa-icon-arrow-right-circle" viewBox="0 0 32 32">
<title>arrow-right-circle</title>
<path class="path1" fill="#777582" d="M14.333 22c-0.4 0.4-0.4 1.067 0 1.467s1.067 0.4 1.4 0l6.8-6.867c0.2-0.2 0.267-0.467 0.267-0.733s-0.067-0.533-0.267-0.733l-6.733-6.867c-0.4-0.4-1.067-0.4-1.4 0v0c-0.4 0.4-0.4 1.067-0.067 1.467l5.067 5.133h-18.4c-0.533 0-1 0.467-1 1s0.467 1 1 1h18.4l-5.067 5.133z"></path>
<path class="path2" fill="#777582" d="M16.4 0c-7.333 0-13.467 5.333-15.133 12h2c1.6-5.333 6.867-10 13.133-10 7.533 0 13.6 6.2 13.6 13.8s-6.067 14.2-13.6 14.2c-6.333 0-11.667-4.667-13.2-10h-2c1.533 6.667 7.8 12 15.2 12 8.6 0 15.6-7.333 15.6-16s-7-16-15.6-16z"></path>
</symbol>
<symbol id="aa-icon-Neue_Nutzerdaten_generieren_fill" viewBox="0 0 32 32">
<title>Neue_Nutzerdaten_generieren_fill</title>
<path class="path1" fill="#686868" d="M16 26.291c-3.014 0-5.466-2.451-5.466-5.466s2.451-5.466 5.466-5.466 5.466 2.451 5.466 5.466-2.451 5.466-5.466 5.466zM16 15.994c-2.662 0-4.826 2.163-4.826 4.826s2.163 4.826 4.826 4.826c2.662 0 4.826-2.163 4.826-4.826s-2.163-4.826-4.826-4.826z"></path>
<path class="path2" fill="#686868" d="M15.936 24.704c-0.179 0-0.32-0.141-0.32-0.32v-7.232c0-0.179 0.141-0.32 0.32-0.32s0.32 0.141 0.32 0.32v7.232c0 0.179-0.141 0.32-0.32 0.32z"></path>
<path class="path3" fill="#686868" d="M19.776 21.44h-7.296c-0.179 0-0.32-0.141-0.32-0.32s0.141-0.32 0.32-0.32h7.296c0.179 0 0.32 0.141 0.32 0.32s-0.141 0.32-0.32 0.32z"></path>
<path class="path4" fill="#686868" d="M7.712 14.138c-2.394 0-4.346-1.952-4.346-4.346s1.952-4.346 4.346-4.346 4.346 1.952 4.346 4.346c0 2.394-1.946 4.346-4.346 4.346zM7.712 6.086c-2.042 0-3.706 1.664-3.706 3.706s1.664 3.706 3.706 3.706 3.706-1.664 3.706-3.706c0-2.042-1.658-3.706-3.706-3.706z"></path>
<path class="path5" fill="#686868" d="M2.33 20.858c-0.045 0-0.090-0.006-0.134-0.032-0.16-0.077-0.23-0.262-0.154-0.422 1.581-3.437 3.494-5.178 5.677-5.178 1.498 0 2.912 0.89 4.205 2.637 0.102 0.141 0.077 0.346-0.064 0.448s-0.339 0.077-0.448-0.064c-1.165-1.574-2.413-2.374-3.693-2.374-1.914 0-3.622 1.619-5.094 4.806-0.058 0.109-0.173 0.179-0.294 0.179z"></path>
<path class="path6" fill="#686868" d="M15.117 16.070c-0.179 0-0.32-0.141-0.32-0.32v-9.946c0-0.179 0.141-0.32 0.32-0.32s0.32 0.141 0.32 0.32v9.939c0 0.179-0.141 0.326-0.32 0.326z"></path>
<path class="path7" fill="#686868" d="M29.555 21.133h-8.403c-0.179 0-0.32-0.141-0.32-0.32s0.141-0.32 0.32-0.32h8.41c0.179 0 0.32 0.141 0.32 0.32s-0.147 0.32-0.326 0.32z"></path>
<path class="path8" fill="#686868" d="M27.61 21.133h-1.997c-0.179 0-0.32-0.141-0.32-0.32v-7.136c0-0.294 0.237-0.531 0.531-0.531h1.574c0.294 0 0.531 0.237 0.531 0.531v7.136c0 0.179-0.141 0.32-0.32 0.32zM25.933 20.493h1.357v-6.707h-1.357v6.707z"></path>
<path class="path9" fill="#686868" d="M23.514 21.133h-1.997c-0.179 0-0.32-0.141-0.32-0.32v-11.648c0-0.294 0.237-0.531 0.531-0.531h1.574c0.294 0 0.531 0.237 0.531 0.531v11.648c0 0.179-0.141 0.32-0.32 0.32zM21.843 20.493h1.357v-11.219h-1.357v11.219z"></path>
<path class="path10" fill="#686868" d="M19.315 17.203c-0.179 0-0.32-0.141-0.32-0.32v-5.088h-1.357v4.051c0 0.179-0.141 0.32-0.32 0.32s-0.32-0.141-0.32-0.32v-4.16c0-0.294 0.237-0.531 0.531-0.531h1.574c0.294 0 0.531 0.237 0.531 0.531v5.197c0 0.179-0.141 0.32-0.32 0.32z"></path>
</symbol>
<symbol id="aa-icon-aa-analytics" viewBox="0 0 32 32">
<title>aa-analytics</title>
<path class="path1" d="M15.735 0.020c-0.005 0.005-0.283 0.020-0.615 0.040-1.146 0.059-2.326 0.258-3.537 0.595-0.283 0.079-1.339 0.446-1.513 0.526-0.055 0.025-0.268 0.114-0.471 0.203-2.302 0.977-4.425 2.594-6.037 4.593-1.414 1.761-2.465 3.864-3.041 6.101-0.079 0.308-0.154 0.61-0.169 0.67-0.010 0.065-0.055 0.303-0.099 0.536-0.040 0.233-0.089 0.556-0.109 0.719-0.015 0.164-0.035 0.308-0.045 0.322-0.030 0.050-0.084 1.27-0.084 1.786 0.010 0.704 0.059 1.498 0.129 1.91 0.010 0.084 0.035 0.258 0.055 0.397 0.015 0.134 0.084 0.506 0.154 0.818 1.076 4.99 4.251 9.043 8.76 11.181 1.458 0.694 3.224 1.23 4.653 1.419 0.233 0.030 0.476 0.064 0.541 0.074 0.159 0.030 1.31 0.089 1.642 0.089 0.402 0 1.528-0.059 1.786-0.094 1.424-0.189 2.758-0.516 3.993-0.982 0.397-0.149 0.357-0.134 1.121-0.491 4.345-2.034 7.515-5.938 8.671-10.66 0.084-0.337 0.164-0.69 0.179-0.784s0.050-0.288 0.074-0.422c0.025-0.139 0.059-0.362 0.074-0.496 0.020-0.139 0.040-0.303 0.050-0.372 0.045-0.322 0.079-1.076 0.084-1.662 0.005-0.878-0.040-1.374-0.238-2.778-0.084-0.59-0.595-2.416-0.833-2.976-0.035-0.084-0.149-0.352-0.253-0.595-0.665-1.607-1.865-3.438-3.071-4.688-0.898-0.928-1.701-1.602-2.788-2.321-1.677-1.106-4.053-2.073-5.824-2.366-0.094-0.015-0.283-0.050-0.422-0.074-0.134-0.025-0.372-0.059-0.521-0.079-0.149-0.015-0.313-0.040-0.357-0.050-0.149-0.025-1.915-0.109-1.94-0.089zM17.029 3.581c0.198 0.015 0.437 0.040 0.531 0.055 0.357 0.050 0.501 0.074 0.62 0.099 0.069 0.015 0.193 0.040 0.273 0.050 0.863 0.154 2.242 0.635 3.219 1.126 0.635 0.317 1.9 1.136 2.242 1.453 0.030 0.025 0.189 0.169 0.357 0.317 0.908 0.789 1.811 1.88 2.46 2.981 0.625 1.062 1.329 2.907 1.493 3.919 0.015 0.094 0.040 0.208 0.050 0.248 0.015 0.040 0.045 0.243 0.074 0.446 0.174 1.215 0.154 2.738-0.055 3.8-0.025 0.139-0.059 0.317-0.074 0.397s-0.035 0.184-0.050 0.228c-0.015 0.050-0.035 0.144-0.050 0.213-0.010 0.069-0.099 0.387-0.198 0.709-0.441 1.453-1.111 2.758-2.049 4.003-0.456 0.6-1.404 1.577-1.92 1.984-0.203 0.164-0.402 0.322-0.432 0.347-0.159 0.139-0.754 0.536-1.176 0.784-1.091 0.64-2.267 1.111-3.472 1.394-0.506 0.124-0.58 0.139-0.942 0.198-1.83 0.303-3.914 0.139-5.729-0.451-0.868-0.283-1.959-0.769-2.545-1.141-0.144-0.089-0.268-0.164-0.283-0.164-0.050 0-1.136-0.774-1.319-0.942-0.040-0.040-0.253-0.228-0.471-0.422-1.022-0.903-2.059-2.272-2.718-3.591-0.397-0.794-0.933-2.282-1.042-2.907-0.015-0.084-0.040-0.203-0.055-0.273-0.139-0.694-0.159-0.843-0.208-1.439-0.059-0.749-0.025-2.108 0.065-2.639 0.288-1.672 0.665-2.857 1.315-4.107 0.293-0.556 0.263-0.511 0.744-1.24 1.31-1.974 3.259-3.567 5.516-4.509 0.719-0.298 1.721-0.61 2.341-0.724 0.055-0.010 0.169-0.035 0.248-0.050 0.084-0.015 0.248-0.040 0.372-0.055s0.253-0.035 0.288-0.050c0.035-0.010 0.283-0.035 0.546-0.050 0.263-0.020 0.486-0.035 0.491-0.040 0.025-0.020 1.205 0.010 1.543 0.040z"></path>
<path class="path2" d="M15.407 9.028c-0.228 0.020-0.531 0.059-0.67 0.089s-0.308 0.069-0.377 0.079c-0.313 0.059-1.21 0.402-1.637 0.625-1.359 0.709-2.446 1.855-3.090 3.264-0.283 0.615-0.526 1.478-0.61 2.133-0.035 0.313-0.040 1.344-0.005 1.563 0.015 0.079 0.040 0.248 0.059 0.372 0.089 0.595 0.327 1.334 0.625 1.935 0.308 0.62 0.238 0.62 0.878 0l0.561-0.546-0.055-0.283c-0.109-0.506 0.030-0.982 0.387-1.329 0.313-0.308 0.526-0.392 1.002-0.397 0.377 0 0.446 0.015 0.66 0.139 0.268 0.164 0.556 0.476 0.66 0.724 0.040 0.094 0.079 0.313 0.089 0.486 0.005 0.174 0.025 0.322 0.035 0.332 0.035 0.030 0.853 0.486 1.181 0.66 0.174 0.089 0.347 0.189 0.382 0.218 0.045 0.035 0.154 0 0.392-0.129 0.298-0.154 0.372-0.174 0.719-0.174h0.387l0.461-0.709c0.253-0.387 0.476-0.714 0.496-0.729 0.015-0.015 0.059-0.079 0.094-0.149s0.397-0.62 0.799-1.225l0.734-1.106-0.099-0.169c-0.213-0.367-0.263-0.888-0.114-1.25 0.387-0.938 1.577-1.2 2.312-0.511 0.174 0.169 0.377 0.501 0.412 0.675 0.010 0.050 0.020 0.233 0.020 0.412l0.005 0.327 0.313 0.203c0.169 0.109 0.357 0.223 0.412 0.253l0.104 0.055-0.089-0.387c-0.799-3.433-3.963-5.754-7.431-5.452z"></path>
<path class="path3" d="M21.36 15.209c-0.179 0.104-0.298 0.134-0.655 0.149l-0.432 0.020-0.367 0.546c-0.198 0.298-0.382 0.58-0.412 0.625-0.025 0.045-0.263 0.402-0.526 0.799s-0.655 1.002-0.878 1.339l-0.402 0.61 0.104 0.184c0.546 0.947-0.144 2.148-1.21 2.113-0.506-0.020-0.69-0.094-0.997-0.407-0.278-0.273-0.387-0.516-0.417-0.928l-0.030-0.352-0.526-0.298c-0.288-0.159-0.665-0.367-0.838-0.461l-0.308-0.164-0.238 0.144c-0.372 0.228-0.838 0.278-1.25 0.134-0.233-0.079-0.233-0.084-0.546 0.223-0.045 0.040-0.268 0.258-0.506 0.486l-0.427 0.412 0.179 0.203c0.739 0.833 1.637 1.478 2.639 1.89 0.402 0.164 1.062 0.367 1.334 0.412 0.069 0.010 0.208 0.035 0.303 0.050 0.362 0.064 0.437 0.074 1.042 0.074 1.83 0.015 3.661-0.739 4.955-2.044 1.235-1.24 1.93-2.823 2.059-4.683l0.020-0.303-0.352-0.218c-0.193-0.124-0.466-0.298-0.605-0.392-0.461-0.308-0.471-0.308-0.714-0.164z"></path>
</symbol>
</defs>
</svg>
