<?xml version="1.0" encoding="utf-8"?>
<!-- Generator: Adobe Illustrator 21.0.2, SVG Export Plug-In . SVG Version: 6.00 Build 0)  -->
<svg version="1.1" id="Ebene_1" xmlns="http://www.w3.org/2000/svg" xmlns:xlink="http://www.w3.org/1999/xlink" x="0px" y="0px"
	 viewBox="0 0 24 24" style="enable-background:new 0 0 24 24;" xml:space="preserve">
<style type="text/css">
	.st0{fill:#777582;}
</style>
<path class="st0" d="M17.8,8.8l-5.3-5.3c-0.1-0.1-0.2-0.1-0.2-0.2c-0.2-0.1-0.4-0.1-0.6,0c-0.1,0-0.2,0.1-0.2,0.2L6.2,8.7
	C5.9,9,5.9,9.4,6.2,9.7c0.1,0.1,0.3,0.2,0.5,0.2s0.4-0.1,0.5-0.2l3.9-3.9V20c0,0.4,0.3,0.8,0.8,0.8s0.8-0.3,0.8-0.8V5.8l4,4
	c0.1,0.1,0.3,0.2,0.5,0.2s0.4-0.1,0.5-0.2C18.1,9.5,18.1,9.1,17.8,8.8z"/>
</svg>
