<?xml version="1.0" encoding="utf-8"?>
<!-- Generated by IcoMoon.io -->
<!DOCTYPE svg PUBLIC "-//W3C//DTD SVG 1.1//EN" "http://www.w3.org/Graphics/SVG/1.1/DTD/svg11.dtd">
<svg version="1.1" xmlns="http://www.w3.org/2000/svg" xmlns:xlink="http://www.w3.org/1999/xlink" width="32" height="32" viewBox="0 0 32 32">
<path fill="#777582" d="M23.733 11.733l-7.067-7.067c-0.133-0.133-0.267-0.133-0.267-0.267-0.267-0.133-0.533-0.133-0.8 0-0.133 0-0.267 0.133-0.267 0.267l-7.067 6.933c-0.4 0.4-0.4 0.933 0 1.333 0.133 0.133 0.4 0.267 0.667 0.267s0.533-0.133 0.667-0.267l5.2-5.2v18.933c0 0.533 0.4 1.067 1.067 1.067s1.067-0.4 1.067-1.067v-18.933l5.333 5.333c0.133 0.133 0.4 0.267 0.667 0.267s0.533-0.133 0.667-0.267c0.533-0.4 0.533-0.933 0.133-1.333z"></path>
</svg>
