<?xml version="1.0" encoding="utf-8"?>
<!-- Generator: Adobe Illustrator 21.0.2, SVG Export Plug-In . SVG Version: 6.00 Build 0)  -->
<svg version="1.1" id="Ebene_1" xmlns="http://www.w3.org/2000/svg" xmlns:xlink="http://www.w3.org/1999/xlink" x="0px" y="0px"
	 viewBox="0 0 24 24" style="enable-background:new 0 0 24 24;" xml:space="preserve">
<style type="text/css">
	.st0{fill:#777582;}
</style>
<path class="st0" d="M6.2,15.2l5.3,5.3c0.1,0.1,0.2,0.1,0.2,0.2c0.2,0.1,0.4,0.1,0.6,0c0.1,0,0.2-0.1,0.2-0.2l5.2-5.2
	c0.3-0.3,0.3-0.8,0-1.1c-0.1-0.1-0.3-0.2-0.5-0.2s-0.4,0.1-0.5,0.2l-3.9,3.9V4c0-0.4-0.3-0.8-0.8-0.8S11.3,3.6,11.3,4v14.2l-4-4
	C7.1,14,6.9,14,6.7,14S6.4,14,6.2,14.2C5.9,14.5,5.9,14.9,6.2,15.2z"/>
</svg>
