<?xml version="1.0" encoding="utf-8"?>
<!-- Generated by IcoMoon.io -->
<!DOCTYPE svg PUBLIC "-//W3C//DTD SVG 1.1//EN" "http://www.w3.org/Graphics/SVG/1.1/DTD/svg11.dtd">
<svg version="1.1" xmlns="http://www.w3.org/2000/svg" xmlns:xlink="http://www.w3.org/1999/xlink" width="32" height="32" viewBox="0 0 32 32">
<path fill="#777582" d="M11.733 8.267l-7.067 7.067c-0.133 0.133-0.133 0.267-0.267 0.267-0.133 0.267-0.133 0.533 0 0.8 0 0.133 0.133 0.267 0.267 0.267l6.933 6.933c0.4 0.4 1.067 0.4 1.467 0 0.133-0.133 0.267-0.4 0.267-0.667s-0.133-0.533-0.267-0.667l-5.2-5.2h18.8c0.533 0 1.067-0.4 1.067-1.067s-0.4-1.067-1.067-1.067h-18.933l5.333-5.333c0.267-0.133 0.267-0.4 0.267-0.667s0-0.4-0.267-0.667c-0.4-0.4-0.933-0.4-1.333 0z"></path>
</svg>
