<?xml version="1.0" encoding="utf-8"?>
<!-- Generated by IcoMoon.io -->
<!DOCTYPE svg PUBLIC "-//W3C//DTD SVG 1.1//EN" "http://www.w3.org/Graphics/SVG/1.1/DTD/svg11.dtd">
<svg version="1.1" xmlns="http://www.w3.org/2000/svg" xmlns:xlink="http://www.w3.org/1999/xlink" width="32" height="32" viewBox="0 0 32 32">
<path fill="#777582" d="M8.267 20.267l7.067 7.067c0.133 0.133 0.267 0.133 0.267 0.267 0.267 0.133 0.533 0.133 0.8 0 0.133 0 0.267-0.133 0.267-0.267l6.933-6.933c0.4-0.4 0.4-1.067 0-1.467-0.133-0.133-0.4-0.267-0.667-0.267s-0.533 0.133-0.667 0.267l-5.2 5.2v-18.8c0-0.533-0.4-1.067-1.067-1.067s-0.933 0.533-0.933 1.067v18.933l-5.333-5.333c-0.267-0.267-0.533-0.267-0.8-0.267s-0.4 0-0.667 0.267c-0.4 0.4-0.4 0.933 0 1.333z"></path>
</svg>
