<?xml version="1.0" encoding="utf-8"?>
<!-- Generated by IcoMoon.io -->
<!DOCTYPE svg PUBLIC "-//W3C//DTD SVG 1.1//EN" "http://www.w3.org/Graphics/SVG/1.1/DTD/svg11.dtd">
<svg version="1.1" xmlns="http://www.w3.org/2000/svg" xmlns:xlink="http://www.w3.org/1999/xlink" width="32" height="32" viewBox="0 0 32 32">
<path fill="#777582" d="M20.267 23.733l7.067-7.067c0.133-0.133 0.133-0.267 0.267-0.267 0.133-0.267 0.133-0.533 0-0.8 0-0.133-0.133-0.267-0.267-0.267l-6.933-6.933c-0.4-0.4-1.067-0.4-1.467 0-0.133 0.133-0.267 0.4-0.267 0.667s0.133 0.533 0.267 0.667l5.2 5.2h-18.8c-0.533 0-1.067 0.4-1.067 1.067s0.4 1.067 1.067 1.067h18.933l-5.333 5.333c-0.267 0.133-0.267 0.4-0.267 0.667s0.133 0.533 0.267 0.667c0.4 0.4 0.933 0.4 1.333 0z"></path>
</svg>
