<svg xmlns="http://www.w3.org/2000/svg" viewBox="0 0 80 80"><defs><style>.cls-1{fill:#787581;}</style></defs><title>atoms_fl</title><g id="Ebene_2" data-name="Ebene 2"><g id="Ebene_1-2" data-name="Ebene 1"><path class="cls-1" d="M36,36A5.61,5.61,0,1,0,44,36,5.62,5.62,0,0,0,36,36Zm6.9,6.9a4.14,4.14,0,1,1,0-5.86A4.15,4.15,0,0,1,42.93,42.93Z"/><path class="cls-1" d="M80,40c0-3.82-9.27-6.45-21.22-7.78,7.51-9.39,12.2-17.81,9.5-20.5s-11.12,2-20.5,9.5C46.45,9.27,43.82,0,40,0s-6.45,9.26-7.78,21.2c-2.6-2.08-5.1-3.92-7.44-5.46-6.83-4.51-11.23-5.86-13.07-4-2.7,2.7,2,11.12,9.5,20.51C9.27,33.55,0,36.18,0,40s9.27,6.45,21.22,7.78C13.71,57.17,9,65.59,11.71,68.28a3,3,0,0,0,2.23.8c2.35,0,6-1.61,10.84-4.82,2.33-1.54,4.84-3.38,7.44-5.46C33.55,70.74,36.18,80,40,80s6.45-9.27,7.78-21.22c7.56,6.05,14.5,10.27,18.32,10.27a3,3,0,0,0,2.19-.77c2.7-2.7-2-11.12-9.5-20.51C70.73,46.45,80,43.82,80,40ZM67.24,12.76C69,14.49,65.18,22,57.06,32c-2.74-.27-5.59-.47-8.49-.61-.13-2.9-.34-5.76-.61-8.5C58,14.82,65.51,11,67.24,12.76ZM47.29,40c0,1,0,2,0,3-.69.71-1.39,1.43-2.11,2.15S43.72,46.57,43,47.27l-3,0-3,0c-.71-.69-1.43-1.39-2.15-2.11S33.42,43.72,32.73,43c0-1,0-2,0-3s0-2,0-3c.69-.71,1.39-1.43,2.11-2.15s1.44-1.42,2.15-2.11l3,0,3,0c.72.7,1.44,1.39,2.15,2.11s1.42,1.44,2.11,2.15C47.28,38,47.29,39,47.29,40Zm-1.1-6.2-1-1,2,.06q0,1,.06,2Zm-2.58-2.53Q42.35,30,41.08,28.88q2.85-2.6,5.52-4.83c.21,2.3.38,4.75.49,7.32Q45.36,31.3,43.61,31.27Zm-2.17,0h-2.9L40,29.88Zm-5.06,0q-1.74,0-3.48.1c.12-2.56.28-5,.49-7.3q2.71,2.26,5.52,4.82Q37.64,30.06,36.38,31.27Zm-1.55,1.51-1,1-1,1q0-1,.06-2Zm-3.57,3.61q-1.21,1.26-2.39,2.54-2.6-2.85-4.83-5.52c2.3-.21,4.75-.38,7.32-.49Q31.3,34.64,31.27,36.38Zm0,2.16c0,.49,0,1,0,1.46s0,1,0,1.46L29.87,40Zm0,5.07q0,1.74.1,3.48c-2.57-.12-5-.28-7.32-.49q2.22-2.67,4.83-5.52Q30.06,42.36,31.27,43.62Zm1.51,1.55,1,1,1,1-2-.06Q32.8,46.17,32.78,45.16Zm3.61,3.57q1.26,1.21,2.53,2.39-2.8,2.55-5.52,4.82c-.21-2.3-.38-4.74-.49-7.31Q34.64,48.7,36.38,48.73Zm2.16,0h2.9L40,50.12Zm5.07,0q1.75,0,3.48-.1c-.12,2.57-.28,5-.49,7.32q-2.67-2.22-5.52-4.83Q42.35,49.95,43.61,48.73Zm1.54-1.51,1-1,1-1q0,1-.06,2Zm3.58-3.61q1.21-1.26,2.39-2.53,2.6,2.85,4.83,5.52c-2.3.21-4.75.38-7.32.49Q48.7,45.36,48.73,43.62Zm0-2.16c0-.49,0-1,0-1.46s0-1,0-1.46L50.12,40Zm0-5.07q0-1.75-.1-3.48c2.57.12,5,.28,7.32.49q-2.22,2.67-4.83,5.52Q49.94,37.64,48.73,36.38ZM40,1.47c2.46,0,5.11,8,6.44,20.84-2.13,1.74-4.29,3.62-6.43,5.57-2.18-2-4.33-3.86-6.44-5.58C34.89,9.49,37.54,1.47,40,1.47ZM12.76,12.76a1.65,1.65,0,0,1,1.2-.37c1.68,0,4.9,1.2,10,4.58,2.52,1.66,5.24,3.69,8.06,6-.27,2.73-.47,5.58-.61,8.48-2.9.13-5.76.34-8.5.61C14.82,22,11,14.49,12.76,12.76ZM1.47,40c0-2.46,8-5.11,20.84-6.44,1.75,2.13,3.62,4.29,5.58,6.44-2,2.15-3.83,4.31-5.58,6.44C9.5,45.11,1.47,42.46,1.47,40ZM24,63c-6.85,4.53-10.29,5.14-11.22,4.21C11,65.51,14.82,58,22.94,48c2.74.27,5.59.47,8.5.61.13,2.9.34,5.75.61,8.48C29.21,59.34,26.49,61.37,24,63Zm16,15.5c-2.46,0-5.11-8-6.44-20.83,2.1-1.73,4.26-3.59,6.44-5.58,2.15,2,4.31,3.83,6.43,5.58C45.11,70.51,42.46,78.53,40,78.53ZM67.24,67.24C65.5,69,58,65.18,48,57.06c.27-2.74.47-5.59.61-8.5,2.9-.13,5.76-.34,8.49-.61C65.18,58,69,65.51,67.24,67.24ZM57.69,46.44c-1.75-2.13-3.62-4.29-5.58-6.44,2-2.15,3.83-4.31,5.58-6.44,12.81,1.33,20.84,4,20.84,6.44S70.5,45.11,57.69,46.44Z"/></g></g></svg>