<?xml version="1.0" encoding="utf-8"?>
<!-- Generated by IcoMoon.io -->
<!DOCTYPE svg PUBLIC "-//W3C//DTD SVG 1.1//EN" "http://www.w3.org/Graphics/SVG/1.1/DTD/svg11.dtd">
<svg version="1.1" xmlns="http://www.w3.org/2000/svg" xmlns:xlink="http://www.w3.org/1999/xlink" width="32" height="32" viewBox="0 0 32 32">
<path fill="#777582" d="M26.281 29.957h-9.26v-22.332h7.898l-3.132 10.077c-0.136 0.545 0.136 1.089 0.681 1.226 0.136 0 0.136 0 0.272 0 0.409 0 0.817-0.272 0.953-0.681l2.587-8.306 2.587 8.306c0.136 0.409 0.545 0.681 0.953 0.681 0.136 0 0.136 0 0.272 0 0.545-0.136 0.817-0.681 0.681-1.226l-3.132-10.077h1.362c0.545 0 1.089-0.409 1.089-1.089s-0.409-1.089-1.089-1.089h-12.119v-4.357c0-0.545-0.409-1.089-1.089-1.089s-0.817 0.408-0.817 1.089v4.494h-12.119c-0.545 0-1.089 0.409-1.089 1.089s0.409 1.089 1.089 1.089h1.362l-2.996 9.94c-0.136 0.545 0.136 1.089 0.681 1.226 0.136 0 0.136 0 0.272 0 0.409 0 0.817-0.272 0.953-0.681l2.587-8.306 2.587 8.306c0.136 0.545 0.545 0.817 0.953 0.817 0.136 0 0.136 0 0.272 0 0.545-0.136 0.817-0.681 0.681-1.226l-3.132-10.213h7.898v22.332h-9.26c-0.545 0-1.089 0.409-1.089 1.089s0.409 1.089 1.089 1.089h20.562c0.545 0 1.089-0.409 1.089-1.089s-0.545-1.089-1.089-1.089z"></path>
<path fill="#777582" d="M30.911 19.881h-9.396c-0.545 0-1.089 0.409-1.089 1.089s0.409 1.089 1.089 1.089h0.272c0.545 1.77 2.315 2.996 4.357 2.996 2.179 0 3.949-1.226 4.357-2.996h0.272c0.545 0 1.089-0.409 1.089-1.089s-0.272-1.089-0.953-1.089zM26.281 22.877c-0.953 0-1.77-0.409-2.179-0.953h4.357c-0.409 0.545-1.226 0.953-2.179 0.953z"></path>
<path fill="#777582" d="M5.719 24.919c2.179 0 3.949-1.226 4.357-2.996h0.272c0.545 0 1.089-0.409 1.089-1.089s-0.545-0.953-1.089-0.953h-9.26c-0.545 0-1.089 0.409-1.089 1.089s0.408 1.089 1.089 1.089h0.272c0.409 1.498 2.179 2.86 4.357 2.86zM7.898 21.923c-0.409 0.545-1.226 0.953-2.179 0.953s-1.77-0.409-2.179-0.953h4.357z"></path>
</svg>
