<?xml version="1.0" encoding="utf-8"?>
<!-- Generator: Adobe Illustrator 21.0.2, SVG Export Plug-In . SVG Version: 6.00 Build 0)  -->
<svg version="1.1" id="Ebene_1" xmlns="http://www.w3.org/2000/svg" xmlns:xlink="http://www.w3.org/1999/xlink" x="0px" y="0px"
	 viewBox="0 0 24 24" style="enable-background:new 0 0 24 24;" xml:space="preserve">
<style type="text/css">
	.st0{fill:#777582;}
</style>
<g>
	<path class="st0" d="M19.5,22.3h-6.8V5.8h5.8l-2.3,7.4c-0.1,0.4,0.1,0.8,0.5,0.9c0.1,0,0.1,0,0.2,0c0.3,0,0.6-0.2,0.7-0.5l1.9-6.1
		l1.9,6.1c0.1,0.3,0.4,0.5,0.7,0.5c0.1,0,0.1,0,0.2,0c0.4-0.1,0.6-0.5,0.5-0.9l-2.3-7.4h1c0.4,0,0.8-0.3,0.8-0.8S22,4.3,21.6,4.3
		h-8.9V1c0-0.4-0.3-0.8-0.8-0.8S11.3,0.6,11.3,1v3.3H2.4C2,4.3,1.6,4.7,1.6,5.1S2,5.8,2.4,5.8h1l-2.3,7.4c-0.1,0.4,0.1,0.8,0.5,0.9
		c0.1,0,0.1,0,0.2,0c0.3,0,0.6-0.2,0.7-0.5l1.9-6.1l1.9,6.1c0.1,0.3,0.4,0.5,0.7,0.5c0.1,0,0.1,0,0.2,0c0.4-0.1,0.6-0.5,0.5-0.9
		L5.5,5.8h5.8v16.4H4.5c-0.4,0-0.8,0.3-0.8,0.8s0.3,0.8,0.8,0.8h15.1c0.4,0,0.8-0.3,0.8-0.8S19.9,22.3,19.5,22.3z"/>
	<path class="st0" d="M23,14.8h-6.9c-0.4,0-0.8,0.3-0.8,0.8s0.3,0.8,0.8,0.8h0.2c0.4,1.3,1.7,2.2,3.2,2.2s2.9-0.9,3.2-2.2H23
		c0.4,0,0.8-0.3,0.8-0.8S23.4,14.8,23,14.8z M19.6,17c-0.7,0-1.3-0.3-1.6-0.7h3.2C20.8,16.7,20.2,17,19.6,17z"/>
	<path class="st0" d="M4.4,18.5c1.6,0,2.9-0.9,3.2-2.2h0.2c0.4,0,0.8-0.3,0.8-0.8s-0.3-0.8-0.8-0.8H1c-0.4,0-0.8,0.3-0.8,0.8
		s0.3,0.8,0.8,0.8h0.2C1.6,17.6,2.9,18.5,4.4,18.5z M6,16.3C5.7,16.7,5.1,17,4.4,17c-0.7,0-1.3-0.3-1.6-0.7H6z"/>
</g>
</svg>
