<?xml version="1.0" encoding="utf-8"?>
<!-- Generator: Adobe Illustrator 21.0.2, SVG Export Plug-In . SVG Version: 6.00 Build 0)  -->
<svg version="1.1" id="Ebene_1" xmlns="http://www.w3.org/2000/svg" xmlns:xlink="http://www.w3.org/1999/xlink" x="0px" y="0px"
	 viewBox="0 0 24 24" style="enable-background:new 0 0 24 24;" xml:space="preserve">
<style type="text/css">
	.st0{fill:#777582;}
</style>
<g>
	<path class="st0" d="M6.2,20.3h3.1c1,0,1.8-0.8,1.8-1.8V7.5c0-1-0.8-1.8-1.8-1.8H6.2c-1,0-1.8,0.8-1.8,1.8v11.1
		C4.4,19.6,5.2,20.3,6.2,20.3z M5.9,7.5c0-0.1,0.1-0.3,0.3-0.3h3.1c0.1,0,0.3,0.1,0.3,0.3v11.1c0,0.1-0.1,0.3-0.3,0.3H6.2
		c-0.1,0-0.3-0.1-0.3-0.3V7.5z"/>
	<path class="st0" d="M14.7,20.3h3.1c1,0,1.8-0.8,1.8-1.8V2c0-1-0.8-1.8-1.8-1.8h-3.1C13.7,0.3,13,1,13,2v16.6
		C13,19.6,13.7,20.3,14.7,20.3z M14.5,2c0-0.1,0.1-0.3,0.3-0.3h3.1c0.1,0,0.3,0.1,0.3,0.3v16.6c0,0.1-0.1,0.3-0.3,0.3h-3.1
		c-0.1,0-0.3-0.1-0.3-0.3V2z"/>
	<path class="st0" d="M22.2,22.3H1.8C1.4,22.3,1,22.6,1,23s0.3,0.8,0.8,0.8h20.4c0.4,0,0.8-0.3,0.8-0.8S22.6,22.3,22.2,22.3z"/>
</g>
</svg>
