<?xml version="1.0" encoding="utf-8"?>
<!-- Generated by IcoMoon.io -->
<!DOCTYPE svg PUBLIC "-//W3C//DTD SVG 1.1//EN" "http://www.w3.org/Graphics/SVG/1.1/DTD/svg11.dtd">
<svg version="1.1" xmlns="http://www.w3.org/2000/svg" xmlns:xlink="http://www.w3.org/1999/xlink" width="30" height="32" viewBox="0 0 30 32">
<path fill="#777582" d="M11.302 27.37h-4.221c-1.362 0-2.451-1.089-2.451-2.451v-14.979c0-1.362 1.089-2.451 2.451-2.451h4.221c1.362 0 2.451 1.089 2.451 2.451v15.115c-0.136 1.226-1.226 2.315-2.451 2.315zM7.081 9.532c-0.272 0-0.409 0.136-0.409 0.409v15.115c0 0.136 0.136 0.409 0.409 0.409h4.221c0.136 0 0.409-0.136 0.409-0.409v-15.115c-0.136-0.272-0.272-0.409-0.409-0.409h-4.221z"></path>
<path fill="#777582" d="M22.877 27.37h-4.221c-1.362 0-2.451-1.089-2.451-2.451v-22.468c0-1.362 1.089-2.451 2.451-2.451h4.221c1.362 0 2.451 1.089 2.451 2.451v22.604c-0.136 1.226-1.226 2.315-2.451 2.315zM18.655 2.043c-0.136 0-0.409 0.136-0.409 0.409v22.604c0 0.136 0.136 0.409 0.409 0.409h4.221c0.136 0 0.409-0.136 0.409-0.409v-22.604c0-0.136-0.136-0.409-0.409-0.409h-4.221z"></path>
<path fill="#777582" d="M28.868 32h-27.779c-0.545 0-1.089-0.409-1.089-1.089s0.408-0.953 1.089-0.953h27.779c0.545 0 1.089 0.409 1.089 1.089s-0.545 0.953-1.089 0.953z"></path>
</svg>
