<?xml version="1.0" encoding="utf-8"?>
<!-- Generator: Adobe Illustrator 21.0.2, SVG Export Plug-In . SVG Version: 6.00 Build 0)  -->
<svg version="1.1" id="Ebene_1" xmlns="http://www.w3.org/2000/svg" xmlns:xlink="http://www.w3.org/1999/xlink" x="0px" y="0px"
	 viewBox="0 0 32 24" style="enable-background:new 0 0 32 24;" xml:space="preserve">
<style type="text/css">
	.st0{fill:#777582;}
</style>
<g>
	<path class="st0" d="M23.8,17.1c-0.6-1.5-1.4-4.7-2.1-11.5l0-0.4C21.3,2.2,19,0.3,16,0.3c-3.1,0-5.4,2-5.7,4.9l0,0.4
		c-0.7,6.8-1.5,10.1-2.1,11.5c0,0,0,0.1,0,0.1c0,0,0,0.1,0,0.1c0,0,0,0,0,0c0,0,0,0,0,0c0,0.6,0.1,1.4,7.9,1.4
		c7.9,0,7.9-0.9,7.9-1.5c0,0,0-0.1,0-0.1C23.8,17.2,23.8,17.1,23.8,17.1z M16,17.3c-3.4,0-5.4-0.2-6.2-0.4c0.8-2.4,1.4-6.1,2-11.3
		l0-0.4C12,3.2,13.6,1.8,16,1.8s4,1.4,4.2,3.6l0,0.4c0.5,5.1,1.2,8.9,2,11.3C21.3,17.1,19.3,17.3,16,17.3z"/>
	<path class="st0" d="M17.8,20.1h-3.8c-0.3,0-0.6,0.1-0.8,0.4c-0.2,0.3-0.3,0.6-0.2,0.9c0.3,1.4,1.5,2.4,2.9,2.4
		c1.4,0,2.5-0.9,2.9-2.4c0.1-0.3,0-0.7-0.2-0.9C18.4,20.2,18.1,20.1,17.8,20.1z M16,22.3c-0.5,0-0.9-0.2-1.2-0.7h2.4
		C16.9,22,16.5,22.3,16,22.3z"/>
	<path class="st0" d="M3.1,7.1C2.8,6.9,2.3,7,2.1,7.4c-1.3,2.3-2,4.8-2,7.5c0,2.6,0.7,5.2,2,7.5c0.1,0.2,0.4,0.4,0.6,0.4
		c0.1,0,0.3,0,0.4-0.1c0.4-0.2,0.5-0.7,0.3-1c-1.2-2-1.8-4.3-1.8-6.7c0-2.4,0.6-4.7,1.8-6.7C3.6,7.8,3.5,7.3,3.1,7.1z"/>
	<path class="st0" d="M29.9,7.4c-0.2-0.4-0.7-0.5-1-0.3c-0.4,0.2-0.5,0.7-0.3,1c1.2,2,1.8,4.4,1.8,6.7c0,2.4-0.6,4.7-1.8,6.7
		c-0.2,0.4-0.1,0.8,0.3,1c0.1,0.1,0.2,0.1,0.4,0.1c0.3,0,0.5-0.1,0.7-0.4c1.3-2.3,2-4.8,2-7.5C31.9,12.2,31.2,9.6,29.9,7.4z"/>
	<path class="st0" d="M25.3,9.2c-0.4,0.2-0.5,0.7-0.3,1c0.8,1.4,1.2,3,1.2,4.6s-0.4,3.2-1.2,4.6c-0.2,0.4-0.1,0.8,0.3,1
		c0.1,0.1,0.2,0.1,0.4,0.1c0.3,0,0.5-0.1,0.7-0.4c0.9-1.6,1.4-3.5,1.4-5.4c0-1.9-0.5-3.8-1.4-5.4C26.1,9.1,25.6,9,25.3,9.2z"/>
	<path class="st0" d="M5.7,14.8c0-1.6,0.4-3.2,1.2-4.6c0.2-0.4,0.1-0.8-0.3-1C6.4,9,5.9,9.1,5.7,9.5c-0.9,1.6-1.4,3.5-1.4,5.4
		c0,1.9,0.5,3.8,1.4,5.4c0.1,0.2,0.4,0.4,0.6,0.4c0.1,0,0.3,0,0.4-0.1c0.4-0.2,0.5-0.7,0.3-1C6.2,18.1,5.7,16.5,5.7,14.8z"/>
</g>
</svg>
