<?xml version="1.0" encoding="utf-8"?>
<!-- Generated by IcoMoon.io -->
<!DOCTYPE svg PUBLIC "-//W3C//DTD SVG 1.1//EN" "http://www.w3.org/Graphics/SVG/1.1/DTD/svg11.dtd">
<svg version="1.1" xmlns="http://www.w3.org/2000/svg" xmlns:xlink="http://www.w3.org/1999/xlink" width="43" height="32" viewBox="0 0 43 32">
<path fill="#777582" d="M32.272 22.877c-0.817-2.043-1.906-6.4-2.86-15.796v-0.545c-0.545-3.813-3.677-6.536-7.762-6.536-4.221 0-7.353 2.723-7.762 6.672v0.545c-1.089 9.26-2.179 13.617-2.996 15.66 0 0 0 0.136 0 0.136s0 0.136 0 0.136c0 0.817 0 2.043 10.757 2.043s10.757-1.226 10.757-2.043c0 0 0-0.136 0-0.136-0.136 0-0.136 0-0.136-0.136zM13.072 22.74c1.089-3.268 1.906-8.306 2.723-15.387v-0.545c0.408-2.996 2.587-4.902 5.719-4.902s5.447 1.906 5.719 4.902v0.409c0.681 6.945 1.634 12.119 2.723 15.387-1.226 0.272-3.949 0.545-8.443 0.545s-7.217-0.136-8.443-0.409z"></path>
<path fill="#777582" d="M24.238 26.962h-5.174c-0.409 0-0.817 0.136-1.089 0.545s-0.409 0.817-0.272 1.226c0.409 1.906 2.043 3.268 3.949 3.268s3.404-1.226 3.949-3.268c0.136-0.409 0-0.953-0.272-1.226-0.409-0.272-0.817-0.545-1.089-0.545zM21.651 29.957c-0.681 0-1.226-0.272-1.634-0.953h3.132c-0.272 0.681-0.817 0.953-1.498 0.953z"></path>
<path fill="#777582" d="M4.085 9.396c-0.409-0.409-1.089-0.136-1.362 0.272-1.77 3.132-2.723 6.672-2.723 10.213s0.953 7.081 2.723 10.213c0.136 0.272 0.545 0.545 0.953 0.545 0.136 0 0.409 0 0.545-0.136 0.545-0.272 0.681-0.953 0.409-1.362-1.634-2.723-2.451-5.855-2.451-9.123s0.817-6.4 2.451-9.123c0.136-0.681 0-1.226-0.545-1.498z"></path>
<path fill="#777582" d="M40.579 9.668c-0.272-0.545-0.953-0.681-1.362-0.409-0.545 0.272-0.681 0.953-0.408 1.362 1.634 2.723 2.451 5.992 2.451 9.123 0 3.268-0.817 6.4-2.451 9.123-0.272 0.545-0.136 1.089 0.408 1.362 0.136 0.136 0.272 0.136 0.545 0.136 0.408 0 0.681-0.136 0.953-0.545 1.77-3.132 2.723-6.536 2.723-10.213s-1.089-6.809-2.86-9.94z"></path>
<path fill="#777582" d="M34.315 12.119c-0.545 0.272-0.681 0.953-0.408 1.362 1.089 1.906 1.634 4.085 1.634 6.264s-0.545 4.357-1.634 6.264c-0.272 0.545-0.136 1.089 0.408 1.362 0.136 0.136 0.272 0.136 0.545 0.136 0.408 0 0.681-0.136 0.953-0.545 1.226-2.179 1.906-4.766 1.906-7.353s-0.681-5.174-1.906-7.353c-0.408-0.272-0.953-0.409-1.498-0.136z"></path>
<path fill="#777582" d="M7.762 19.881c0-2.179 0.545-4.357 1.634-6.264 0.272-0.545 0.136-1.089-0.409-1.362s-1.089-0.136-1.362 0.409c-1.226 2.179-1.906 4.766-1.906 7.353s0.681 5.174 1.906 7.353c0.136 0.272 0.545 0.545 0.953 0.545 0.136 0 0.409 0 0.545-0.136 0.545-0.272 0.681-0.953 0.409-1.362-1.226-2.179-1.77-4.357-1.77-6.536z"></path>
</svg>
