<?xml version="1.0" encoding="utf-8"?>
<!-- Generated by IcoMoon.io -->
<!DOCTYPE svg PUBLIC "-//W3C//DTD SVG 1.1//EN" "http://www.w3.org/Graphics/SVG/1.1/DTD/svg11.dtd">
<svg version="1.1" xmlns="http://www.w3.org/2000/svg" xmlns:xlink="http://www.w3.org/1999/xlink" width="22" height="32" viewBox="0 0 22 32">
<path fill="#777582" d="M21.914 0.249c-0.374-0.249-0.872-0.374-1.245 0l-16.685 12.451c-0.249 0.124-0.374 0.374-0.374 0.623s0.124 0.498 0.249 0.747l4.358 4.482-8.093 11.953c-0.249 0.374-0.249 0.872 0.124 1.245 0.124 0.125 0.374 0.249 0.623 0.249s0.374-0.125 0.623-0.249l15.689-11.953c0.249-0.125 0.374-0.374 0.374-0.623s0-0.498-0.125-0.747l-3.237-4.233 7.969-12.825c0.125-0.374 0.125-0.872-0.249-1.121zM12.078 13.821c-0.249 0.374-0.124 0.747 0 1.121l3.113 3.984-10.459 7.969 5.354-7.844c0.249-0.374 0.249-0.872-0.124-1.121l-4.109-4.358 11.829-8.84-5.603 9.089z"></path>
</svg>
