<?xml version="1.0" encoding="utf-8"?>
<!-- Generator: Adobe Illustrator 21.0.2, SVG Export Plug-In . SVG Version: 6.00 Build 0)  -->
<svg version="1.1" id="Ebene_1" xmlns="http://www.w3.org/2000/svg" xmlns:xlink="http://www.w3.org/1999/xlink" x="0px" y="0px"
	 viewBox="0 0 24 24" style="enable-background:new 0 0 24 24;" xml:space="preserve">
<style type="text/css">
	.st0{fill:#777582;}
</style>
<path class="st0" d="M20.1,0.2c-0.3-0.2-0.7-0.3-1-0.1L6.7,9.5C6.5,9.6,6.4,9.8,6.4,10c0,0.2,0.1,0.4,0.2,0.6l3.2,3.4l-6,8.9
	c-0.2,0.3-0.2,0.7,0.1,1C4,23.9,4.2,24,4.4,24c0.2,0,0.3-0.1,0.5-0.2l11.7-8.9c0.2-0.1,0.3-0.3,0.3-0.5c0-0.2,0-0.4-0.2-0.6
	l-2.4-3.1l6-9.6C20.4,0.9,20.4,0.4,20.1,0.2z M12.7,10.4c-0.2,0.3-0.2,0.6,0,0.9l2.3,3l-7.4,5.7l3.7-5.6c0.2-0.3,0.2-0.7-0.1-0.9
	l-3-3.2l8.6-6.4L12.7,10.4z"/>
</svg>
