<?xml version="1.0" encoding="utf-8"?>
<!-- Generator: Adobe Illustrator 21.0.2, SVG Export Plug-In . SVG Version: 6.00 Build 0)  -->
<svg version="1.1" id="Ebene_1" xmlns="http://www.w3.org/2000/svg" xmlns:xlink="http://www.w3.org/1999/xlink" x="0px" y="0px"
	 viewBox="0 0 27 24" style="enable-background:new 0 0 27 24;" xml:space="preserve">
<style type="text/css">
	.st0{fill:#777582;}
</style>
<path class="st0" d="M26.4,9.3l-1.7-0.5l1.1-0.9c0.2-0.2,0.3-0.4,0.3-0.6c0-0.2-0.1-0.4-0.3-0.6l-9.1-6.3c-0.3-0.2-0.7-0.2-0.9,0
	l-1.7,1.4l-1.8-1.4c-0.2-0.2-0.6-0.2-0.8-0.1L0.4,6.7C0.2,6.8,0.1,7.1,0.1,7.3c0,0.2,0.1,0.5,0.3,0.6l1.1,0.9L0.7,9.1
	C0.4,9.1,0.2,9.4,0.2,9.7c0,0.3,0.1,0.6,0.3,0.7l1.8,1.3v5c0,0.2,0.1,0.5,0.3,0.6l9.1,6.3c0,0,0,0,0,0c0,0,0,0,0,0c0,0,0,0,0,0
	c0.1,0.1,0.2,0.1,0.3,0.1c0.1,0,0.2,0,0.3-0.1c0,0,0,0,0,0c0,0,0,0,0,0l11.1-6.4c0.2-0.1,0.4-0.4,0.4-0.7v-4.4l2.6-1.5
	c0.3-0.1,0.4-0.4,0.4-0.7C26.9,9.7,26.7,9.4,26.4,9.3z M21.8,9.1l-9.6,5.5L6,10.3L4.5,9.2l9.6-5.5l4.8,3.3L21.8,9.1z M2.7,10.1
	L2.9,10l4.2,2.9l3.3,2.3l-0.3,0.1L2.7,10.1z M16.3,1.9l7.8,5.4l-1,0.8l-3.2-2.2l-4.6-3.2L16.3,1.9z M11.8,1.9l1,0.8L3.1,8.3l-1-0.8
	L11.8,1.9z M3.8,12.7l5.7,4c0.1,0.1,0.3,0.1,0.4,0.1c0.1,0,0.1,0,0.2,0l1.2-0.3v5.1l-7.6-5.3V12.7z M22.5,16.2l-9.6,5.5v-5.2l2,0.6
	c0.1,0,0.2,0,0.2,0c0.1,0,0.3,0,0.4-0.1l7-4V16.2z M15,15.6l-1-0.3l4.5-2.6l4.8-2.7l1,0.3L15,15.6z"/>
</svg>
