<?xml version="1.0" encoding="utf-8"?>
<!-- Generated by IcoMoon.io -->
<!DOCTYPE svg PUBLIC "-//W3C//DTD SVG 1.1//EN" "http://www.w3.org/Graphics/SVG/1.1/DTD/svg11.dtd">
<svg version="1.1" xmlns="http://www.w3.org/2000/svg" xmlns:xlink="http://www.w3.org/1999/xlink" width="37" height="32" viewBox="0 0 37 32">
<path fill="#777582" d="M35.813 12.392l-2.315-0.681 1.498-1.226c0.408-0.272 0.545-0.681 0.545-0.953s-0.136-0.545-0.408-0.817l-12.392-8.579c-0.409-0.272-0.953-0.272-1.226 0l-2.315 1.906-2.451-1.906c-0.272-0.272-0.817-0.272-1.089-0.136l-15.115 8.851c-0.272 0.136-0.545 0.409-0.545 0.817 0 0.272 0.136 0.681 0.408 0.817l1.498 1.226-1.089 0.272c-0.272 0.136-0.681 0.409-0.681 0.817s0.136 0.817 0.408 0.953l2.451 1.77v6.809c0 0.272 0.136 0.681 0.409 0.817l12.392 8.579c0 0 0 0 0 0s0 0 0 0 0 0 0 0c0.136 0.136 0.272 0.136 0.409 0.136s0.272 0 0.409-0.136c0 0 0 0 0 0s0 0 0 0l15.387-8.579c0.272-0.136 0.545-0.545 0.545-0.953v-5.991l3.54-2.043c0.408-0.136 0.545-0.545 0.545-0.953s-0.408-0.681-0.817-0.817zM3.54 13.345l0.409-0.136 10.213 7.081-0.409 0.136-10.213-7.081zM19.064 4.766l10.485 7.353-13.072 7.489-10.485-7.353 9.532-5.447 3.54-2.043zM22.196 2.315l10.621 7.353-1.362 1.089-10.621-7.353 1.362-1.089zM16.068 2.315l1.362 1.089-0.272 0.136-12.936 7.353-1.362-1.089 13.209-7.489zM5.174 17.021l7.762 5.447c0.136 0.136 0.409 0.136 0.545 0.136s0.136 0 0.272 0l1.634-0.409v6.945l-10.349-7.217v-4.902zM30.502 21.651l-13.072 7.489v-7.081l2.723 0.817c0.136 0 0.272 0 0.272 0 0.136 0 0.409 0 0.545-0.136l9.532-5.447v4.357zM20.426 20.97l-1.362-0.409 12.664-7.353 1.362 0.409-12.664 7.353z"></path>
</svg>
