<?xml version="1.0" encoding="utf-8"?>
<!-- Generator: Adobe Illustrator 21.0.0, SVG Export Plug-In . SVG Version: 6.00 Build 0)  -->
<svg version="1.1" id="Ebene_1" xmlns="http://www.w3.org/2000/svg" xmlns:xlink="http://www.w3.org/1999/xlink" x="0px" y="0px"
	 viewBox="0 0 24 24" style="enable-background:new 0 0 24 24;" xml:space="preserve">
<style type="text/css">
	.st0{fill:#777582;}
</style>
<g>
	<path class="st0" d="M21.2,1.2H2.8C1.3,1.2,0,2.4,0,3.9v16.1c0,1.5,1.2,2.8,2.8,2.8h18.5c1.5,0,2.8-1.2,2.8-2.8V3.9
		C24,2.4,22.7,1.2,21.2,1.2z M2.8,2.7h18.5c0.7,0,1.3,0.6,1.3,1.3v2.9h-21V3.9C1.5,3.3,2.1,2.7,2.8,2.7z M21.2,21.3H2.8
		c-0.7,0-1.3-0.6-1.3-1.3V7.8h21v12.3C22.5,20.7,21.9,21.3,21.2,21.3z"/>
	<circle class="st0" cx="3.8" cy="4.8" r="1"/>
	<circle class="st0" cx="6.5" cy="4.8" r="1"/>
	<circle class="st0" cx="9.3" cy="4.8" r="1"/>
</g>
</svg>
