<?xml version="1.0" encoding="utf-8"?>
<!-- Generator: Adobe Illustrator 21.0.2, SVG Export Plug-In . SVG Version: 6.00 Build 0)  -->
<svg version="1.1" id="Ebene_1" xmlns="http://www.w3.org/2000/svg" xmlns:xlink="http://www.w3.org/1999/xlink" x="0px" y="0px"
	 viewBox="0 0 24 24" style="enable-background:new 0 0 24 24;" xml:space="preserve">
<style type="text/css">
	.st0{fill:#777582;}
</style>
<g>
	<path class="st0" d="M23.8,3.8c0-0.1,0-0.2-0.1-0.3c-0.3-1.8-1.9-3.2-3.8-3.2H4.1c-1.9,0-3.5,1.4-3.8,3.2c0,0.1-0.1,0.2-0.1,0.3
		c0,0,0,0.1,0,0.1c0,0.1,0,0.1,0,0.2v15.9c0,2.1,1.7,3.8,3.8,3.8h15.9c2.1,0,3.8-1.7,3.8-3.8V4.1c0-0.1,0-0.1,0-0.2
		C23.7,3.8,23.8,3.8,23.8,3.8z M4.1,1.8h15.9c0.9,0,1.7,0.5,2,1.3H2C2.4,2.3,3.2,1.8,4.1,1.8z M19.9,22.3H4.1c-1.3,0-2.3-1-2.3-2.3
		V4.5h20.5v15.4C22.3,21.2,21.2,22.3,19.9,22.3z"/>
	<path class="st0" d="M6.7,8L6.7,8c-1.4,1.4-2.2,3.3-2.2,5.3c0,2,0.8,3.9,2.2,5.3c1.5,1.4,3.4,2.2,5.3,2.2c1.9,0,3.8-0.7,5.3-2.2
		c1.4-1.4,2.2-3.3,2.2-5.3c0-2-0.8-3.9-2.2-5.3C14.4,5.1,9.6,5.1,6.7,8z M16.2,17.4c-2.3,2.3-6.1,2.3-8.4,0C6.6,16.3,6,14.8,6,13.2
		c0-1.6,0.6-3.1,1.7-4.2v0c2.3-2.3,6.1-2.3,8.4,0c1.1,1.1,1.7,2.6,1.7,4.2C18,14.8,17.4,16.3,16.2,17.4z"/>
	<path class="st0" d="M14.8,12.7h-2.2v-2.2c0-0.3-0.3-0.6-0.6-0.6s-0.6,0.3-0.6,0.6v2.2H9.1c-0.3,0-0.6,0.3-0.6,0.6
		c0,0.3,0.3,0.6,0.6,0.6h2.2v2.2c0,0.3,0.3,0.6,0.6,0.6s0.6-0.3,0.6-0.6v-2.2h2.2c0.3,0,0.6-0.3,0.6-0.6
		C15.4,13,15.1,12.7,14.8,12.7z"/>
</g>
</svg>
