<?xml version="1.0" encoding="utf-8"?>
<!-- Generated by IcoMoon.io -->
<!DOCTYPE svg PUBLIC "-//W3C//DTD SVG 1.1//EN" "http://www.w3.org/Graphics/SVG/1.1/DTD/svg11.dtd">
<svg version="1.1" xmlns="http://www.w3.org/2000/svg" xmlns:xlink="http://www.w3.org/1999/xlink" width="32" height="32" viewBox="0 0 32 32">
<path fill="#777582" d="M28.667 1.6h-25.333c-1.867 0-3.333 1.467-3.333 3.333v22.133c0 1.867 1.467 3.333 3.333 3.333h25.2c1.867 0 3.333-1.467 3.333-3.333v-22.133c0.133-1.867-1.333-3.333-3.2-3.333zM3.333 3.467h25.2c0.8 0 1.6 0.667 1.6 1.6v4.133h-28.267v-4.267c0-0.8 0.667-1.467 1.467-1.467zM28.667 28.533h-25.333c-0.8 0-1.6-0.667-1.6-1.6v-16.667h28.267v16.8c0.133 0.8-0.533 1.467-1.333 1.467z"></path>
<path fill="#777582" d="M6.267 6.267c0 0.736-0.597 1.333-1.333 1.333s-1.333-0.597-1.333-1.333c0-0.736 0.597-1.333 1.333-1.333s1.333 0.597 1.333 1.333z"></path>
<path fill="#777582" d="M10 6.267c0 0.736-0.597 1.333-1.333 1.333s-1.333-0.597-1.333-1.333c0-0.736 0.597-1.333 1.333-1.333s1.333 0.597 1.333 1.333z"></path>
<path fill="#777582" d="M13.733 6.267c0 0.736-0.597 1.333-1.333 1.333s-1.333-0.597-1.333-1.333c0-0.736 0.597-1.333 1.333-1.333s1.333 0.597 1.333 1.333z"></path>
</svg>
