<?xml version="1.0" encoding="utf-8"?>
<!-- Generator: Adobe Illustrator 21.0.2, SVG Export Plug-In . SVG Version: 6.00 Build 0)  -->
<svg version="1.1" id="Ebene_1" xmlns="http://www.w3.org/2000/svg" xmlns:xlink="http://www.w3.org/1999/xlink" x="0px" y="0px"
	 viewBox="0 0 24 24" style="enable-background:new 0 0 24 24;" xml:space="preserve">
<style type="text/css">
	.st0{fill:#777582;}
</style>
<g>
	<path class="st0" d="M3.7,15.3c-0.8,0.8-0.9,2-0.9,2.9c0,0.3,0,0.6-0.1,0.8c-0.3,1.2-1.6,2.7-2.1,3.2c-0.2,0.2-0.2,0.4-0.2,0.6
		c0,0.2,0.1,0.4,0.3,0.5c0.5,0.3,1,0.5,1.5,0.5c2.5,0,5.6-2.9,6.3-3.6c1.6-1.6,1.9-4,0.5-5.4C7.8,13.4,5.3,13.7,3.7,15.3z M7.5,19.1
		c-1.6,1.6-3.6,3-4.9,3.2c0.6-0.7,1.3-1.8,1.6-2.8c0.1-0.3,0.1-0.7,0.1-1.2c0-0.7,0.1-1.5,0.5-1.9c0.6-0.6,1.4-1,2.1-1
		c0.4,0,0.8,0.1,1.1,0.4C8.8,16.6,8.5,18,7.5,19.1z"/>
	<path class="st0" d="M23.4,1.6l-1.2-1.2c-0.3-0.3-0.7-0.3-1,0L8.2,12C8.1,12.2,8,12.4,8,12.6S8,13,8.2,13.1l2.5,2.5
		c0.1,0.1,0.3,0.2,0.5,0.2c0,0,0,0,0,0c0.2,0,0.4-0.1,0.5-0.3l11.6-13C23.7,2.4,23.7,1.9,23.4,1.6z M11.2,14l-1.4-1.4L21.6,2
		l0.2,0.2L11.2,14z"/>
</g>
</svg>
