<?xml version="1.0" encoding="utf-8"?>
<!-- Generated by IcoMoon.io -->
<!DOCTYPE svg PUBLIC "-//W3C//DTD SVG 1.1//EN" "http://www.w3.org/Graphics/SVG/1.1/DTD/svg11.dtd">
<svg version="1.1" xmlns="http://www.w3.org/2000/svg" xmlns:xlink="http://www.w3.org/1999/xlink" width="32" height="32" viewBox="0 0 32 32">
<path fill="#777582" d="M2.451 32c-0.681 0-1.498-0.136-2.043-0.681-0.272-0.136-0.408-0.409-0.408-0.681s0.136-0.545 0.272-0.817c0.681-0.681 2.451-2.723 2.86-4.357 0-0.272 0.136-0.681 0.136-1.089 0-1.226 0.136-2.86 1.226-3.949 2.179-2.179 5.447-2.587 7.353-0.681 1.77 1.77 1.498 5.038-0.681 7.353-1.089 0.953-5.174 4.902-8.715 4.902zM8.851 20.562c-0.953 0-2.043 0.409-2.86 1.362-0.545 0.545-0.681 1.634-0.681 2.587 0 0.545 0 1.089-0.136 1.634-0.409 1.362-1.362 2.86-2.179 3.813 1.77-0.272 4.63-2.179 6.672-4.357 1.362-1.362 1.77-3.404 0.681-4.494-0.409-0.272-0.953-0.545-1.498-0.545z"></path>
<path fill="#777582" d="M14.706 21.243c-0.272 0-0.545-0.136-0.681-0.272l-3.404-3.404c-0.136-0.136-0.272-0.409-0.272-0.817 0-0.272 0.136-0.545 0.272-0.681l17.702-15.796c0.409-0.408 0.953-0.408 1.362 0l1.634 1.634c0.409 0.409 0.409 0.953 0 1.362l-15.796 17.702c-0.272 0.136-0.409 0.272-0.817 0.272 0 0 0 0 0 0zM12.8 16.885l1.906 1.906 14.434-16.204-0.272-0.272-16.068 14.57z"></path>
</svg>
