<?xml version="1.0" encoding="utf-8"?>
<!-- Generator: Adobe Illustrator 21.0.2, SVG Export Plug-In . SVG Version: 6.00 Build 0)  -->
<svg version="1.1" id="Ebene_1" xmlns="http://www.w3.org/2000/svg" xmlns:xlink="http://www.w3.org/1999/xlink" x="0px" y="0px"
	 viewBox="0 0 24 24" style="enable-background:new 0 0 24 24;" xml:space="preserve">
<style type="text/css">
	.st0{fill:#777582;}
</style>
<g>
	<path class="st0" d="M23,3.3h-4.8V1c0-0.4-0.3-0.8-0.8-0.8S16.8,0.6,16.8,1v2.3H7.3V1c0-0.4-0.3-0.8-0.8-0.8S5.8,0.6,5.8,1v2.3H1
		C0.6,3.3,0.3,3.6,0.3,4v6v13c0,0.4,0.3,0.8,0.8,0.8h22c0.4,0,0.8-0.3,0.8-0.8V10V4C23.8,3.6,23.4,3.3,23,3.3z M1.8,4.8h4V6
		c0,0.4,0.3,0.8,0.8,0.8S7.3,6.4,7.3,6V4.8h9.5V6c0,0.4,0.3,0.8,0.8,0.8s0.8-0.3,0.8-0.8V4.8h4v4.5H1.8V4.8z M22.3,22.3H1.8V10.8
		h20.5V22.3z"/>
	<circle class="st0" cx="6.5" cy="16.4" r="0.8"/>
	<circle class="st0" cx="12" cy="16.4" r="0.8"/>
	<circle class="st0" cx="17.5" cy="16.4" r="0.8"/>
</g>
</svg>
