<?xml version="1.0" encoding="utf-8"?>
<!-- Generator: Adobe Illustrator 21.0.2, SVG Export Plug-In . SVG Version: 6.00 Build 0)  -->
<svg version="1.1" id="Ebene_1" xmlns="http://www.w3.org/2000/svg" xmlns:xlink="http://www.w3.org/1999/xlink" x="0px" y="0px"
	 viewBox="0 0 24 24" style="enable-background:new 0 0 24 24;" xml:space="preserve">
<style type="text/css">
	.st0{fill:#777582;}
</style>
<g>
	<path class="st0" d="M23,22.3H1.8V1c0-0.4-0.3-0.8-0.8-0.8S0.3,0.6,0.3,1v22c0,0.4,0.3,0.8,0.8,0.8h22c0.4,0,0.8-0.3,0.8-0.8
		S23.4,22.3,23,22.3z"/>
	<path class="st0" d="M5.3,19.1c0.2,0,0.4-0.1,0.5-0.2l3.6-3.6l2.5,2.5c0.3,0.3,0.8,0.3,1.1,0L23.5,7.3c0.3-0.3,0.3-0.8,0-1.1
		s-0.8-0.3-1.1,0l-10,10L10,13.7c-0.3-0.3-0.8-0.3-1.1,0l-4.1,4.1c-0.3,0.3-0.3,0.8,0,1.1C4.9,19,5.1,19.1,5.3,19.1z"/>
</g>
</svg>
