<?xml version="1.0" encoding="utf-8"?>
<!-- Generated by IcoMoon.io -->
<!DOCTYPE svg PUBLIC "-//W3C//DTD SVG 1.1//EN" "http://www.w3.org/Graphics/SVG/1.1/DTD/svg11.dtd">
<svg version="1.1" xmlns="http://www.w3.org/2000/svg" xmlns:xlink="http://www.w3.org/1999/xlink" width="32" height="32" viewBox="0 0 32 32">
<path fill="#777582" d="M31.047 29.957h-29.004v-28.868c0-0.681-0.409-1.089-0.953-1.089s-1.089 0.408-1.089 1.089v29.957c0 0.545 0.408 1.089 1.089 1.089h29.957c0.545 0 1.089-0.409 1.089-1.089s-0.545-1.089-1.089-1.089z"></path>
<path fill="#777582" d="M6.809 25.6c0.272 0 0.545-0.136 0.681-0.272l5.038-4.902 3.404 3.404c0.136 0.136 0.409 0.272 0.681 0.272s0.545-0.136 0.681-0.272l14.434-14.298c0.408-0.409 0.408-1.089 0-1.498s-1.089-0.409-1.498 0l-13.617 13.617-3.404-3.404c-0.409-0.409-1.089-0.409-1.498 0l-5.583 5.583c-0.409 0.409-0.409 1.089 0 1.498 0.272 0.272 0.409 0.272 0.681 0.272z"></path>
</svg>
