<?xml version="1.0" encoding="utf-8"?>
<!-- Generator: Adobe Illustrator 21.0.2, SVG Export Plug-In . SVG Version: 6.00 Build 0)  -->
<svg version="1.1" id="Ebene_1" xmlns="http://www.w3.org/2000/svg" xmlns:xlink="http://www.w3.org/1999/xlink" x="0px" y="0px"
	 viewBox="0 0 24 24" style="enable-background:new 0 0 24 24;" xml:space="preserve">
<style type="text/css">
	.st0{fill:#777582;}
</style>
<g>
	<path class="st0" d="M12,0.2C5.5,0.2,0.3,5.5,0.3,12S5.5,23.8,12,23.8c6.5,0,11.8-5.3,11.8-11.8S18.5,0.2,12,0.2z M12,22.3
		C6.3,22.3,1.8,17.7,1.8,12S6.3,1.7,12,1.7c5.7,0,10.3,4.6,10.3,10.3S17.7,22.3,12,22.3z"/>
	<path class="st0" d="M13.9,7.3c-0.4-0.4-1-0.4-1.4,0l-4.1,4.1c-0.4,0.4-0.4,1,0,1.4l4.1,4.1c0.4,0.4,1,0.4,1.4,0s0.4-1,0-1.4
		L10.6,12l3.4-3.4C14.3,8.3,14.3,7.6,13.9,7.3z"/>
</g>
</svg>
