<?xml version="1.0" encoding="utf-8"?>
<!-- Generator: Adobe Illustrator 21.0.2, SVG Export Plug-In . SVG Version: 6.00 Build 0)  -->
<svg version="1.1" id="Ebene_1" xmlns="http://www.w3.org/2000/svg" xmlns:xlink="http://www.w3.org/1999/xlink" x="0px" y="0px"
	 viewBox="0 0 24 24" style="enable-background:new 0 0 24 24;" xml:space="preserve">
<style type="text/css">
	.st0{fill:#777582;}
</style>
<g>
	<path class="st0" d="M12,0.2C5.5,0.2,0.3,5.5,0.3,12S5.5,23.8,12,23.8S23.7,18.5,23.7,12S18.5,0.2,12,0.2z M12,22.3
		C6.3,22.3,1.8,17.7,1.8,12S6.3,1.7,12,1.7S22.2,6.3,22.2,12S17.7,22.3,12,22.3z"/>
	<path class="st0" d="M15.4,10.1L12,13.4l-3.4-3.4c-0.4-0.4-1-0.4-1.4,0c-0.4,0.4-0.4,1,0,1.4l4.1,4.1c0.4,0.4,1,0.4,1.4,0l4.1-4.1
		c0.4-0.4,0.4-1,0-1.4S15.7,9.7,15.4,10.1z"/>
</g>
</svg>
