<?xml version="1.0" encoding="utf-8"?>
<!-- Generator: Adobe Illustrator 21.0.2, SVG Export Plug-In . SVG Version: 6.00 Build 0)  -->
<svg version="1.1" id="Ebene_1" xmlns="http://www.w3.org/2000/svg" xmlns:xlink="http://www.w3.org/1999/xlink" x="0px" y="0px"
	 viewBox="0 0 24 24" style="enable-background:new 0 0 24 24;" xml:space="preserve">
<style type="text/css">
	.st0{fill:#777582;}
</style>
<g id="XMLID_859_">
	<path class="st0" d="M12,23.8c-6.7,0-12.1-5.4-12.1-12.1c0-5.1,3.2-9.7,8-11.4c0.4-0.1,0.8,0.1,1,0.5c0.1,0.4-0.1,0.8-0.5,1
		c-4.2,1.5-7,5.5-7,10c0,5.8,4.7,10.6,10.6,10.6c5.8,0,10.6-4.7,10.6-10.6c0-4.5-2.8-8.5-7-10c-0.4-0.1-0.6-0.6-0.5-1
		c0.1-0.4,0.6-0.6,1-0.5c4.8,1.7,8,6.3,8,11.4C24.1,18.3,18.7,23.8,12,23.8z"/>
</g>
</svg>
