<?xml version="1.0" encoding="utf-8"?>
<!-- Generator: Adobe Illustrator 21.0.2, SVG Export Plug-In . SVG Version: 6.00 Build 0)  -->
<svg version="1.1" id="Ebene_1" xmlns="http://www.w3.org/2000/svg" xmlns:xlink="http://www.w3.org/1999/xlink" x="0px" y="0px"
	 viewBox="0 0 24 24" style="enable-background:new 0 0 24 24;" xml:space="preserve">
<style type="text/css">
	.st0{fill:#777582;}
</style>
<g>
	<path class="st0" d="M20.1,3h-3.8V2.3c0-0.4-0.3-0.8-0.8-0.8h-1.6c-0.3-0.8-1-1.3-1.9-1.3s-1.6,0.5-1.9,1.3H8.5
		C8,1.6,7.7,1.9,7.7,2.3V3H3.9C3,3,2.3,3.7,2.3,4.6v17.5c0,0.9,0.7,1.6,1.6,1.6h16.2c0.9,0,1.7-0.7,1.7-1.6V4.6
		C21.8,3.7,21,3,20.1,3z M9.2,3.1h1.5c0.4,0,0.8-0.3,0.8-0.8c0-0.3,0.2-0.6,0.6-0.6s0.6,0.3,0.6,0.6c0,0.4,0.3,0.8,0.8,0.8h1.5v1.9
		H9.2V3.1z M20.3,22.1c0,0.1-0.1,0.1-0.2,0.1H3.9c-0.1,0-0.1-0.1-0.1-0.1V4.6c0-0.1,0.1-0.1,0.1-0.1h3.8v1.2c0,0.4,0.3,0.8,0.8,0.8
		h7.1c0.4,0,0.8-0.3,0.8-0.8V4.5h3.8c0.1,0,0.2,0.1,0.2,0.1V22.1z"/>
	<path class="st0" d="M16.5,9.1h-9c-0.4,0-0.8,0.3-0.8,0.8s0.3,0.8,0.8,0.8h9c0.4,0,0.8-0.3,0.8-0.8S16.9,9.1,16.5,9.1z"/>
	<path class="st0" d="M16.5,13.2h-9c-0.4,0-0.8,0.3-0.8,0.8s0.3,0.8,0.8,0.8h9c0.4,0,0.8-0.3,0.8-0.8S16.9,13.2,16.5,13.2z"/>
	<path class="st0" d="M16.5,17.2h-9c-0.4,0-0.8,0.3-0.8,0.8s0.3,0.8,0.8,0.8h9c0.4,0,0.8-0.3,0.8-0.8S16.9,17.2,16.5,17.2z"/>
</g>
</svg>
