<?xml version="1.0" encoding="utf-8"?>
<!-- Generator: Adobe Illustrator 21.0.2, SVG Export Plug-In . SVG Version: 6.00 Build 0)  -->
<svg version="1.1" id="Ebene_1" xmlns="http://www.w3.org/2000/svg" xmlns:xlink="http://www.w3.org/1999/xlink" x="0px" y="0px"
	 viewBox="0 0 24 24" style="enable-background:new 0 0 24 24;" xml:space="preserve">
<style type="text/css">
	.st0{fill:#777582;}
</style>
<g>
	<path class="st0" d="M12,0.3C5.5,0.3,0.3,5.5,0.3,12c0,6.5,5.3,11.8,11.8,11.8c6.5,0,11.8-5.3,11.8-11.8C23.8,5.5,18.5,0.3,12,0.3z
		 M12,22.3C6.3,22.3,1.8,17.7,1.8,12C1.8,6.3,6.3,1.8,12,1.8c5.7,0,10.3,4.6,10.3,10.3C22.3,17.7,17.7,22.3,12,22.3z"/>
	<path class="st0" d="M15.9,8.2c-0.4-0.4-1-0.4-1.4,0L12,10.8L9.4,8.2c-0.4-0.4-1-0.4-1.4,0s-0.4,1,0,1.4l2.6,2.6l-2.6,2.6
		c-0.4,0.4-0.4,1,0,1.4c0.4,0.4,1,0.4,1.4,0l2.6-2.6l2.6,2.6c0.4,0.4,1,0.4,1.4,0c0.4-0.4,0.4-1,0-1.4l-2.6-2.6l2.6-2.6
		C16.3,9.2,16.3,8.6,15.9,8.2z"/>
</g>
</svg>
