<?xml version="1.0" encoding="utf-8"?>
<!-- Generator: Adobe Illustrator 21.0.2, SVG Export Plug-In . SVG Version: 6.00 Build 0)  -->
<svg version="1.1" id="Ebene_1" xmlns="http://www.w3.org/2000/svg" xmlns:xlink="http://www.w3.org/1999/xlink" x="0px" y="0px"
	 viewBox="0 0 24 24" style="enable-background:new 0 0 24 24;" xml:space="preserve">
<style type="text/css">
	.st0{fill:#777582;}
</style>
<g>
	<path class="st0" d="M18.1,7.3c-0.3,0-0.7,0.1-1.2,0.2c-0.3-3.3-3-5.9-6.4-5.9c-3.4,0-6.1,2.6-6.4,5.9c-2.4,0.3-4,2.4-4,5.2
		c0,2.9,2.4,5.3,5.3,5.3h2.9c0.4,0,0.8-0.3,0.8-0.8s-0.3-0.8-0.8-0.8H5.3c-2.1,0-3.8-1.7-3.8-3.8c0-1.9,1-3.8,3.1-3.8
		c0.2,0,0.5-0.1,0.6-0.3c0.1-0.1,0.2-0.4,0.2-0.6c0-2.7,2.2-4.9,4.9-4.9c2.7,0,4.9,2.2,4.9,4.9c0,0.2,0,0.3,0,0.5
		c0,0.3,0.1,0.5,0.3,0.7c0.2,0.2,0.5,0.2,0.7,0.1c1.1-0.4,1.5-0.5,1.7-0.5c2,0,4.4,1.7,4.4,3.8c0,2.1-1.7,3.8-3.8,3.8h-2.7
		c-0.4,0-0.8,0.3-0.8,0.8s0.3,0.8,0.8,0.8h2.7c2.9,0,5.3-2.4,5.3-5.3C23.9,9.5,20.9,7.3,18.1,7.3z"/>
	<path class="st0" d="M16.3,14.3c0.3-0.3,0.3-0.8,0-1.1l-3.6-3.6c-0.1-0.1-0.2-0.3-0.4-0.3c-0.3-0.1-0.6-0.1-0.8,0.2l-3.8,3.8
		c-0.3,0.3-0.3,0.8,0,1.1c0.3,0.3,0.8,0.3,1.1,0l2.5-2.5v9.8c0,0.4,0.3,0.8,0.8,0.8s0.8-0.3,0.8-0.8v-9.8l2.5,2.5
		C15.5,14.6,16,14.6,16.3,14.3z"/>
</g>
</svg>
