<?xml version="1.0" encoding="utf-8"?>
<!-- Generated by IcoMoon.io -->
<!DOCTYPE svg PUBLIC "-//W3C//DTD SVG 1.1//EN" "http://www.w3.org/Graphics/SVG/1.1/DTD/svg11.dtd">
<svg version="1.1" xmlns="http://www.w3.org/2000/svg" xmlns:xlink="http://www.w3.org/1999/xlink" width="31" height="32" viewBox="0 0 31 32">
<path fill="#777582" d="M29.685 22.196l-2.86-0.409-1.362-2.723c-0.272-0.545-0.817-0.953-1.362-0.953s-1.089 0.409-1.362 0.953l-1.362 2.723-2.86 0.409c-0.545 0.136-1.089 0.545-1.226 1.089s0 1.226 0.409 1.634l2.179 2.179-0.545 3.132c-0.136 0.545 0.136 1.226 0.681 1.498 0.545 0.408 1.089 0.408 1.634 0.136l2.587-1.362 2.587 1.362c0.272 0.136 0.545 0.136 0.681 0.136 0.272 0 0.681-0.136 0.817-0.272 0.545-0.409 0.681-0.953 0.681-1.498l-0.545-3.132 2.179-2.179c0.409-0.409 0.545-1.089 0.409-1.634-0.272-0.545-0.817-0.953-1.362-1.089zM26.826 25.736c-0.409 0.409-0.545 0.817-0.409 1.362l0.409 2.451-2.043-1.089c-0.272-0.136-0.545-0.136-0.681-0.136-0.272 0-0.545 0-0.681 0.136 0 0 0 0 0 0l-2.043 1.089 0.409-2.315c0.136-0.545-0.136-0.953-0.409-1.362l-1.634-1.77 2.315-0.409c0.545-0.136 0.953-0.409 1.226-0.817l0.953-2.043 0.953 2.043c0.272 0.409 0.681 0.817 1.226 0.817l2.315 0.409-1.906 1.634z"></path>
<path fill="#777582" d="M29.004 12.119h-1.634c-0.136-0.409-0.272-0.817-0.545-1.226l1.226-1.362c0.409-0.409 0.545-0.817 0.545-1.362s-0.136-0.953-0.545-1.362l-3.268-3.268c-0.409-0.409-0.817-0.545-1.362-0.545s-0.953 0.136-1.362 0.545l-1.226 1.226c-0.409-0.136-0.817-0.272-1.226-0.409h-0.136v-1.906c0-0.953-0.545-2.451-1.77-2.451h-4.766c-1.226 0-2.179 1.498-2.179 2.451v1.77c-0.409 0.136-0.681 0.272-0.953 0.409v0.136l-1.226-1.362c-0.817-0.681-2.043-0.681-2.723 0l-3.404 3.404c-0.817 0.817-0.817 2.043 0 2.723l1.226 1.226c-0.136 0.409-0.409 0.817-0.409 1.362h-1.77c-0.408 0-0.817 0.136-1.089 0.272-0.408 0.545-0.408 1.089-0.408 1.498v4.766c0 0.545 0 1.226 0.545 1.634 0.272 0.272 0.681 0.409 0.953 0.409h1.77c0.136 0.409 0.272 0.681 0.545 0.953l-1.226 1.226c-0.409 0.409-0.545 0.817-0.545 1.362s0.136 0.953 0.545 1.362l3.268 3.268c0.817 0.817 2.043 0.817 2.723 0l1.226-1.226 0.272 0.136c0.272 0.136 0.409 0.272 0.681 0.272 0 0 0 0 0 0v1.906c0 0.409 0.136 0.681 0.409 0.953 0.409 0.409 0.953 0.409 1.498 0.409 0 0 0.136 0 0.136 0h1.634c0.545 0 0.953-0.409 0.953-0.953s-0.409-0.953-0.953-0.953h-1.634c0 0 0 0 0 0v-1.226c0-0.953-0.409-1.634-1.226-1.906-0.272-0.136-0.409-0.136-0.545-0.272l-0.409-0.136c-0.817-0.409-1.634-0.272-2.179 0.409l-1.089 1.226-3.268-3.268 1.089-1.089c0.545-0.545 0.681-1.498 0.409-2.315-0.136-0.272-0.272-0.545-0.409-0.953-0.272-0.817-0.953-1.226-1.906-1.226h-1.226c0 0 0-0.136 0-0.136v-4.494h1.226c0.817 0 1.498-0.545 1.906-1.362 0-0.409 0.136-0.817 0.272-1.089 0.409-0.817 0.272-1.634-0.409-2.179l-1.089-1.226 3.268-3.268 1.226 1.226c0.545 0.545 1.362 0.681 2.043 0.272h0.136c0.272-0.136 0.545-0.272 0.817-0.409 0.817-0.272 1.226-0.953 1.226-1.77v-1.634c0-0.136 0.272-0.409 0.272-0.545h4.221c0 0.136 0.136 0.272 0.136 0.409v1.77c0 0.817 0.545 1.498 1.498 1.906 0.272 0.136 0.681 0.272 0.953 0.409 0.817 0.409 1.634 0.272 2.179-0.409l1.089-1.226 3.677 3.268-1.226 1.226c-0.545 0.545-0.681 1.498-0.409 2.315 0.136 0.409 0.272 0.681 0.409 1.089 0.272 0.817 1.089 1.362 1.906 1.362h1.77c0.136 0 0.272 0 0.409 0.136v1.634c0 0.545 0.409 0.953 0.953 0.953s0.953-0.409 0.953-0.953v-1.906c0-1.362-1.362-1.906-2.451-1.906z"></path>
<path fill="#777582" d="M15.251 19.336c-1.77 0-3.132-1.362-3.132-3.132s1.362-3.132 3.132-3.132 3.132 1.362 3.132 3.132c0 0.545 0.409 0.953 0.953 0.953s0.953-0.409 0.953-0.953c0-2.86-2.315-5.174-5.174-5.174s-5.174 2.315-5.174 5.174c0 2.86 2.315 5.174 5.174 5.174 0.545 0 0.953-0.409 0.953-0.953s-0.272-1.089-0.817-1.089z"></path>
</svg>
