<?xml version="1.0" encoding="utf-8"?>
<!-- Generator: Adobe Illustrator 21.0.2, SVG Export Plug-In . SVG Version: 6.00 Build 0)  -->
<svg version="1.1" id="Ebene_1" xmlns="http://www.w3.org/2000/svg" xmlns:xlink="http://www.w3.org/1999/xlink" x="0px" y="0px"
	 viewBox="0 0 24 24" style="enable-background:new 0 0 24 24;" xml:space="preserve">
<style type="text/css">
	.st0{fill:#777582;}
</style>
<g>
	<path class="st0" d="M22.3,16.6l-2.1-0.3l-1-2c-0.2-0.4-0.6-0.7-1-0.7c-0.4,0-0.8,0.3-1,0.7l-1,2L14,16.6c-0.4,0.1-0.8,0.4-0.9,0.8
		c-0.1,0.4,0,0.9,0.3,1.2l1.6,1.6l-0.4,2.3c-0.1,0.4,0.1,0.9,0.5,1.1c0.4,0.3,0.8,0.3,1.2,0.1l1.9-1l1.9,1c0.2,0.1,0.4,0.1,0.5,0.1
		c0.2,0,0.5-0.1,0.6-0.2c0.4-0.3,0.5-0.7,0.5-1.1l-0.4-2.3l1.6-1.6c0.3-0.3,0.4-0.8,0.3-1.2C23,16.9,22.7,16.6,22.3,16.6z
		 M20.2,19.2c-0.3,0.3-0.4,0.6-0.3,1l0.3,1.8l-1.5-0.8c-0.2-0.1-0.4-0.1-0.5-0.1c-0.2,0-0.4,0-0.5,0.1L16.1,22l0.3-1.8
		c0.1-0.4-0.1-0.7-0.3-1l-1.2-1.3l1.7-0.3c0.4-0.1,0.7-0.3,0.9-0.6l0.7-1.5l0.7,1.5c0.2,0.3,0.5,0.6,0.9,0.6l1.7,0.3L20.2,19.2z"/>
	<path class="st0" d="M21.8,9.1l-1.2,0c-0.1-0.3-0.2-0.6-0.4-0.9l0.9-0.9c0.3-0.3,0.4-0.6,0.4-1c0-0.4-0.1-0.7-0.4-1l-2.4-2.4
		c-0.6-0.6-1.5-0.6-2,0l-0.9,0.9c-0.3-0.1-0.6-0.2-0.9-0.3l-0.1,0V2.1c0-0.7-0.4-1.8-1.3-1.8H9.9c-0.9,0-1.6,1.1-1.6,1.8l0,1.3
		C8.1,3.4,7.9,3.5,7.6,3.7L6.7,2.8c-0.6-0.6-1.5-0.6-2,0L2.3,5.2C2,5.5,1.9,5.9,1.9,6.2c0,0.4,0.1,0.7,0.4,1l0.9,0.9
		C3,8.4,2.9,8.8,2.8,9.1H1.5c-0.3,0-0.6,0.1-0.8,0.3c-0.3,0.3-0.3,0.7-0.3,1l0,3.5c0,0.4,0,0.9,0.4,1.2c0.2,0.2,0.5,0.3,0.7,0.3
		l1.3,0C2.9,15.8,3,16,3.2,16.2l-0.9,0.9c-0.3,0.3-0.4,0.6-0.4,1c0,0.4,0.1,0.7,0.4,1l2.4,2.4c0.6,0.6,1.5,0.6,2,0l0.9-0.9l0.2,0.1
		C8,20.9,8.1,21,8.3,21c0,0,0,0,0,0v1.3c0,0.3,0.1,0.5,0.3,0.7c0.3,0.3,0.7,0.3,1.1,0.3c0.1,0,0.1,0,0.1,0l1.2,0
		c0.4,0,0.7-0.3,0.7-0.7s-0.3-0.7-0.7-0.7l-1.2,0c0,0,0,0,0,0V21c0-0.7-0.3-1.2-0.9-1.4c-0.2-0.1-0.3-0.1-0.4-0.2l-0.3-0.1
		c-0.6-0.3-1.2-0.2-1.6,0.3l-0.8,0.9l-2.4-2.4l0.9-0.9c0.4-0.4,0.5-1.1,0.3-1.6c-0.1-0.2-0.2-0.5-0.3-0.7C4,14.4,3.5,14,2.8,14H1.9
		c0,0,0-0.1,0-0.1v-3.3h0.9c0.6,0,1.1-0.4,1.4-1C4.3,9.3,4.4,9,4.5,8.8c0.3-0.6,0.2-1.2-0.3-1.6L3.3,6.3l2.4-2.4l0.9,0.9
		C7,5.2,7.6,5.3,8.2,5l0.1,0c0.2-0.1,0.4-0.2,0.6-0.3C9.5,4.5,9.8,4,9.8,3.3l0-1.2C9.8,2,9.9,1.8,10,1.7h3.1c0,0.1,0.1,0.2,0.1,0.3
		v1.3c0,0.6,0.4,1.1,1.1,1.4c0.2,0.1,0.5,0.2,0.7,0.3c0.6,0.3,1.2,0.2,1.6-0.3l0.8-0.9L20,6.2l-0.9,0.9c-0.4,0.4-0.5,1.1-0.3,1.7
		C19,9,19.1,9.3,19.2,9.6c0.2,0.6,0.8,1,1.4,1h1.3c0.1,0,0.2,0,0.3,0.1v1.2c0,0.4,0.3,0.7,0.7,0.7s0.7-0.3,0.7-0.7v-1.4
		C23.6,9.5,22.5,9.1,21.8,9.1z"/>
	<path class="st0" d="M11.7,14.5c-1.3,0-2.3-1-2.3-2.3c0-1.3,1-2.3,2.3-2.3c1.3,0,2.3,1,2.3,2.3c0,0.4,0.3,0.7,0.7,0.7
		s0.7-0.3,0.7-0.7c0-2.1-1.7-3.8-3.8-3.8c-2.1,0-3.8,1.7-3.8,3.8c0,2.1,1.7,3.8,3.8,3.8c0.4,0,0.7-0.3,0.7-0.7S12.1,14.5,11.7,14.5z
		"/>
</g>
</svg>
