<?xml version="1.0" encoding="utf-8"?>
<!-- Generator: Adobe Illustrator 21.0.2, SVG Export Plug-In . SVG Version: 6.00 Build 0)  -->
<svg version="1.1" id="Ebene_1" xmlns="http://www.w3.org/2000/svg" xmlns:xlink="http://www.w3.org/1999/xlink" x="0px" y="0px"
	 viewBox="0 0 24 24" style="enable-background:new 0 0 24 24;" xml:space="preserve">
<style type="text/css">
	.st0{fill:#777582;}
</style>
<g>
	<path class="st0" d="M23,9.6c-0.2-0.2-0.5-0.3-0.8-0.3l-1.3,0c-0.1-0.3-0.2-0.7-0.4-0.9l0.9-0.9c0.3-0.3,0.4-0.6,0.4-1
		c0-0.4-0.2-0.8-0.4-1L19,2.8c-0.6-0.6-1.5-0.6-2.1,0l-0.8,0.9l-0.1,0c-0.2-0.1-0.4-0.2-0.7-0.3c0,0,0,0,0,0V2.1
		c0-0.7-0.8-1.8-1.7-1.8h-1.5h-1.8c-0.9,0-1.7,1.1-1.7,1.8l0,1.3C8.5,3.5,8.3,3.6,8,3.7l0,0.1L7.1,2.8C6.6,2.3,5.6,2.3,5,2.8
		L2.6,5.3C2,5.9,2,6.8,2.6,7.4l0.9,0.9c-0.1,0.3-0.3,0.7-0.3,1H1.8C1.5,9.2,1.2,9.4,1,9.6c-0.3,0.3-0.3,0.7-0.3,1.1v3.6
		c0,0.4,0,0.9,0.4,1.3c0.2,0.2,0.5,0.3,0.8,0.3l1.3,0c0.1,0.3,0.2,0.5,0.4,0.7l-0.9,0.9c-0.3,0.3-0.4,0.6-0.4,1c0,0.4,0.2,0.8,0.4,1
		l2.5,2.5c0.3,0.3,0.6,0.4,1,0.4c0.4,0,0.8-0.2,1-0.4L8,21l0.2,0.1c0.2,0.1,0.3,0.2,0.5,0.2c0,0,0,0,0,0v1.3c0,0.3,0.1,0.6,0.3,0.7
		c0.3,0.3,0.7,0.3,1.1,0.3c0.1,0,0.1,0,0.1,0l2.2,0c0,0,0,0,0,0c0,0,0,0,0,0l1.2,0c0,0,0.1,0,0.1,0c0.3,0,0.8,0,1.1-0.3
		c0.2-0.2,0.3-0.5,0.3-0.7l0-1.3c0.2-0.1,0.3-0.1,0.5-0.2L16,21l0.9,0.9c0.6,0.6,1.5,0.6,2.1,0l2.5-2.5c0.6-0.6,0.6-1.5,0-2.1
		l-0.9-0.9c0.1-0.3,0.2-0.5,0.3-0.8h1.3c0.3,0,0.6-0.1,0.8-0.3c0.4-0.4,0.4-0.9,0.4-1.3v-3.6C23.3,10.3,23.3,9.9,23,9.6z M21.8,14.2
		C21.8,14.2,21.8,14.2,21.8,14.2l-0.9,0.1c-0.7,0-1.2,0.3-1.4,0.9c-0.1,0.3-0.2,0.5-0.3,0.7c-0.3,0.6-0.2,1.2,0.3,1.6l0.9,0.8
		l-2.4,2.5L17,19.9c-0.4-0.4-1.1-0.5-1.7-0.3l-0.3,0.1c-0.1,0.1-0.3,0.1-0.4,0.2c-0.6,0.2-0.9,0.7-0.9,1.4v0.9c0,0,0,0,0,0l-1.2,0
		c0,0,0,0,0,0c0,0,0,0,0,0l-2.2,0c0,0,0,0,0,0v-0.9c0-0.7-0.3-1.2-0.9-1.4c-0.2-0.1-0.3-0.1-0.4-0.2l-0.3-0.1
		c-0.6-0.3-1.2-0.2-1.7,0.3l-0.9,0.9l-2.5-2.4l0.9-0.9c0.4-0.4,0.5-1.1,0.3-1.7c-0.1-0.2-0.2-0.4-0.3-0.7c-0.2-0.6-0.7-0.9-1.4-0.9
		H2.2c0,0,0-0.1,0-0.1v-3.4h0.9c0.6,0,1.2-0.4,1.4-1c0.1-0.3,0.2-0.6,0.3-0.8C5.1,8.3,5,7.7,4.6,7.2L3.6,6.4L6,3.9l0.9,0.9
		C7.4,5.2,8,5.3,8.6,5.1l0.1,0c0.2-0.1,0.4-0.2,0.6-0.3c0.6-0.2,0.9-0.7,0.9-1.4l0-1.3c0-0.1,0.2-0.3,0.3-0.4h1.7h1.4
		c0.1,0.1,0.2,0.3,0.3,0.3v1.3c0,0.7,0.3,1.2,0.9,1.4c0.2,0.1,0.4,0.2,0.7,0.3c0.6,0.3,1.2,0.2,1.6-0.3l0.8-0.9l2.5,2.4l-0.9,0.9
		c-0.4,0.4-0.5,1.1-0.3,1.7c0.1,0.3,0.2,0.6,0.3,0.8c0.2,0.6,0.8,1,1.4,1h0.9V14.2z"/>
	<path class="st0" d="M12,8.1c-2.1,0-3.9,1.7-3.9,3.9c0,2.1,1.7,3.9,3.9,3.9c0.4,0,0.8-0.3,0.8-0.8s-0.3-0.8-0.8-0.8
		c-1.3,0-2.4-1.1-2.4-2.4c0-1.3,1.1-2.4,2.4-2.4c1.3,0,2.4,1.1,2.4,2.4c0,0.4,0.3,0.8,0.8,0.8s0.8-0.3,0.8-0.8
		C15.9,9.9,14.1,8.1,12,8.1z"/>
</g>
</svg>
