<?xml version="1.0" encoding="utf-8"?>
<!-- Generated by IcoMoon.io -->
<!DOCTYPE svg PUBLIC "-//W3C//DTD SVG 1.1//EN" "http://www.w3.org/Graphics/SVG/1.1/DTD/svg11.dtd">
<svg version="1.1" xmlns="http://www.w3.org/2000/svg" xmlns:xlink="http://www.w3.org/1999/xlink" width="32" height="32" viewBox="0 0 32 32">
<path fill="#777582" d="M26.281 0.272c-0.409-0.272-0.953-0.272-1.362 0-0.136 0.136-3.404 2.86-4.902 6.945-0.136 0.545 0 1.089 0.545 1.362s1.089 0 1.362-0.545c0.953-2.587 2.723-4.494 3.677-5.583 1.362 1.362 4.357 4.902 4.357 8.987 0 2.587-1.906 4.766-4.357 4.766-0.272 0-0.545 0-0.817-0.136-0.545-0.136-1.089 0.272-1.226 0.817s0.272 1.089 0.817 1.226c0.409 0.136 0.817 0.136 1.362 0.136 3.54 0 6.4-2.996 6.4-6.809-0.136-6.128-5.719-11.030-5.855-11.166z"></path>
<path fill="#777582" d="M16.749 7.081c-0.409-0.272-0.953-0.272-1.362 0-0.136 0.136-3.404 2.86-4.902 6.945-0.136 0.545 0 1.089 0.545 1.362s1.089 0 1.362-0.545c0.953-2.587 2.723-4.494 3.677-5.583 1.362 1.362 4.357 4.902 4.357 8.987 0 2.587-1.906 4.766-4.357 4.766-0.272 0-0.545 0-0.817-0.136-0.545-0.136-1.089 0.272-1.226 0.817s0.272 1.089 0.817 1.226c0.409 0.136 0.817 0.136 1.362 0.136 3.54 0 6.4-2.996 6.4-6.809 0-6.264-5.583-11.030-5.855-11.166z"></path>
<path fill="#777582" d="M7.081 13.889c-0.409-0.272-0.953-0.272-1.362 0-0.136 0.272-5.719 5.038-5.719 11.302 0 3.813 2.86 6.809 6.4 6.809s6.4-2.996 6.4-6.809c0.136-6.264-5.447-11.030-5.719-11.302zM6.4 29.957c-2.451 0-4.357-2.179-4.357-4.766 0-4.085 2.996-7.626 4.357-8.987 1.362 1.362 4.357 4.902 4.357 8.987 0.136 2.587-1.906 4.766-4.357 4.766z"></path>
</svg>
