<?xml version="1.0" encoding="utf-8"?>
<!-- Generator: Adobe Illustrator 21.0.2, SVG Export Plug-In . SVG Version: 6.00 Build 0)  -->
<svg version="1.1" id="Ebene_1" xmlns="http://www.w3.org/2000/svg" xmlns:xlink="http://www.w3.org/1999/xlink" x="0px" y="0px"
	 viewBox="0 0 24 24" style="enable-background:new 0 0 24 24;" xml:space="preserve">
<style type="text/css">
	.st0{fill:#777582;}
</style>
<g>
	<path class="st0" d="M19.5,0.4c-0.3-0.2-0.7-0.2-1,0c-0.1,0.1-2.5,2.1-3.6,5.1c-0.1,0.4,0,0.8,0.4,1c0.4,0.1,0.8,0,1-0.4
		C17,4.2,18.3,2.8,19,2c1,1,3.2,3.6,3.2,6.6c0,1.9-1.4,3.5-3.2,3.5c-0.2,0-0.4,0-0.6-0.1c-0.4-0.1-0.8,0.2-0.9,0.6s0.2,0.8,0.6,0.9
		c0.3,0.1,0.6,0.1,1,0.1c2.6,0,4.7-2.2,4.7-5C23.8,4.1,19.7,0.6,19.5,0.4z"/>
	<path class="st0" d="M12.6,5.4c-0.3-0.2-0.7-0.2-1,0C11.5,5.5,9.1,7.6,8,10.5c-0.1,0.4,0,0.8,0.4,1c0.4,0.1,0.8,0,1-0.4
		c0.7-1.9,2-3.3,2.7-4.1c1,1,3.2,3.6,3.2,6.6c0,1.9-1.4,3.5-3.2,3.5c-0.2,0-0.4,0-0.6-0.1c-0.4-0.1-0.8,0.2-0.9,0.6
		c-0.1,0.4,0.2,0.8,0.6,0.9c0.3,0.1,0.6,0.1,1,0.1c2.6,0,4.7-2.2,4.7-5C16.8,9.1,12.8,5.6,12.6,5.4z"/>
	<path class="st0" d="M5.5,10.5c-0.3-0.2-0.7-0.2-1,0c-0.2,0.1-4.2,3.7-4.2,8.2c0,2.8,2.1,5,4.7,5s4.7-2.2,4.7-5
		C9.7,14.2,5.6,10.6,5.5,10.5z M5,22.3c-1.8,0-3.2-1.6-3.2-3.5c0-3,2.2-5.6,3.2-6.6c1,1,3.2,3.6,3.2,6.6C8.2,20.7,6.8,22.3,5,22.3z"
		/>
</g>
</svg>
