<svg xmlns="http://www.w3.org/2000/svg" viewBox="0 0 80 80"><defs><style>.cls-1{fill:#777582;}</style></defs><title>colors_l</title><g id="Ebene_2" data-name="Ebene 2"><g id="Ebene_1-2" data-name="Ebene 1"><path class="cls-1" d="M65.05,44.06a14.22,14.22,0,0,1-3-.32.74.74,0,1,1,.31-1.44,12.67,12.67,0,0,0,2.69.29c7.43,0,13.47-6.49,13.47-14.47C78.53,15,67.51,4,65.05,1.73c-1.81,1.68-8.26,8.06-11.52,16.51a.74.74,0,1,1-1.37-.53C56.09,7.52,64.23.47,64.57.18a.74.74,0,0,1,1,0C66.12.68,80,12.74,80,28.11,80,36.91,73.29,44.06,65.05,44.06Z"/><path class="cls-1" d="M40.36,61.84a14.23,14.23,0,0,1-3-.32.74.74,0,0,1-.56-.88.74.74,0,0,1,.88-.56,12.67,12.67,0,0,0,2.69.29c7.43,0,13.48-6.49,13.48-14.47,0-13.13-11-24.11-13.48-26.39C38.56,21.18,32.11,27.56,28.84,36a.74.74,0,0,1-1.37-.53C31.4,25.29,39.54,18.25,39.88,18a.74.74,0,0,1,1,0c.59.51,14.47,12.57,14.47,27.94C55.31,54.68,48.61,61.84,40.36,61.84Z"/><path class="cls-1" d="M14.95,80C6.71,80,0,72.85,0,64.05,0,48.68,13.88,36.62,14.47,36.12a.74.74,0,0,1,1,0C16,36.62,29.9,48.68,29.9,64.05,29.9,72.85,23.19,80,14.95,80Zm0-42.33C12.5,39.95,1.47,50.93,1.47,64.05c0,8,6,14.47,13.48,14.47S28.42,72,28.42,64.05C28.42,50.92,17.4,39.95,14.95,37.67Z"/></g></g></svg>