<svg xmlns="http://www.w3.org/2000/svg" viewBox="0 0 22 22"><defs><style>.cls-1{fill:#777582;}</style></defs><title>color</title><g id="Ebene_2" data-name="Ebene 2"><g id="Ebene_1-2" data-name="Ebene 1"><path class="cls-1" d="M17.57,12.57a4.25,4.25,0,0,1-.89-.1A.7.7,0,0,1,17,11.1a2.77,2.77,0,0,0,.6.06,3.17,3.17,0,0,0,3-3.29c0-2.8-2.08-5.25-3-6.21A11.85,11.85,0,0,0,15,5.47.7.7,0,1,1,13.71,5a13.4,13.4,0,0,1,3.4-4.8.7.7,0,0,1,.91,0c.16.14,4,3.45,4,7.71A4.57,4.57,0,0,1,17.57,12.57Z"/><path class="cls-1" d="M11.1,17.24a4.18,4.18,0,0,1-.9-.1.7.7,0,0,1,.3-1.37,2.8,2.8,0,0,0,.59.06,3.17,3.17,0,0,0,3-3.29c0-2.8-2.08-5.25-3-6.21a11.83,11.83,0,0,0-2.55,3.8.7.7,0,1,1-1.31-.51,13.39,13.39,0,0,1,3.4-4.8.7.7,0,0,1,.91,0c.16.14,4,3.45,4,7.71A4.57,4.57,0,0,1,11.1,17.24Z"/><path class="cls-1" d="M4.43,22A4.57,4.57,0,0,1,0,17.31C0,13,3.81,9.73,4,9.59a.7.7,0,0,1,.91,0c.16.14,4,3.45,4,7.71A4.57,4.57,0,0,1,4.43,22Zm0-10.9c-.95,1-3,3.4-3,6.21a3.17,3.17,0,0,0,3,3.29,3.17,3.17,0,0,0,3-3.29C7.45,14.5,5.37,12.06,4.43,11.1Z"/></g></g></svg>