<?xml version="1.0" encoding="utf-8"?>
<!-- Generator: Adobe Illustrator 21.0.2, SVG Export Plug-In . SVG Version: 6.00 Build 0)  -->
<svg version="1.1" id="Ebene_1" xmlns="http://www.w3.org/2000/svg" xmlns:xlink="http://www.w3.org/1999/xlink" x="0px" y="0px"
	 viewBox="0 0 24 24" style="enable-background:new 0 0 24 24;" xml:space="preserve">
<style type="text/css">
	.st0{fill:#777582;}
</style>
<g>
	<path class="st0" d="M23.3,12.8c-0.3-2.9-1.6-5.7-3.8-8c-2.2-2.2-5.1-3.6-8-3.8c-3-0.3-5.7,0.7-7.6,2.6c-2.7,2.7-3.4,7-1.7,11.1
		l-1.6,5.2c0,0,0,0.1,0,0.1c0,0,0,0.1,0,0.1c0,0,0,0,0,0c0,0.1,0,0.1,0,0.2c0,0,0,0.1,0,0.1c0,0,0.1,0.1,0.1,0.1
		c0,0,0.1,0.1,0.1,0.1c0,0,0.1,0.1,0.1,0.1c0,0,0.1,0.1,0.1,0.1c0,0,0,0,0,0c0,0,0.1,0,0.1,0c0,0,0.1,0,0.1,0l5.7-0.2
		c2.2,1.5,4.7,2.3,7,2.3c2.5,0,4.9-0.9,6.6-2.6C22.7,18.5,23.6,15.8,23.3,12.8z M19.7,19.3c-2.9,2.9-7.9,2.9-11.9,0l0,0
		c-0.1-0.1-0.3-0.2-0.5-0.2l-4.8,0.1l1.3-4.4c0.1-0.2,0-0.3,0-0.5l0,0C2.1,10.9,2.6,7,5,4.7c1.6-1.6,3.9-2.4,6.4-2.2
		c2.6,0.2,5.1,1.4,7,3.4C22.5,10,23,16,19.7,19.3z"/>
	<path class="st0" d="M9.2,9.4c-0.4,0-0.8,0.3-0.8,0.8v6.1c0,0.4,0.3,0.8,0.8,0.8s0.8-0.3,0.8-0.8v-6.1C10,9.7,9.7,9.4,9.2,9.4z"/>
	<path class="st0" d="M12.4,10.8c-0.4,0-0.8,0.3-0.8,0.8v4.7c0,0.4,0.3,0.8,0.8,0.8s0.8-0.3,0.8-0.8v-4.7
		C13.1,11.2,12.8,10.8,12.4,10.8z"/>
	<path class="st0" d="M15.5,8.3c-0.4,0-0.8,0.3-0.8,0.8v7.3c0,0.4,0.3,0.8,0.8,0.8s0.7-0.3,0.7-0.8V9C16.2,8.6,15.9,8.3,15.5,8.3z"
		/>
</g>
</svg>
