<?xml version="1.0" encoding="utf-8"?>
<!-- Generated by IcoMoon.io -->
<!DOCTYPE svg PUBLIC "-//W3C//DTD SVG 1.1//EN" "http://www.w3.org/Graphics/SVG/1.1/DTD/svg11.dtd">
<svg version="1.1" xmlns="http://www.w3.org/2000/svg" xmlns:xlink="http://www.w3.org/1999/xlink" width="33" height="32" viewBox="0 0 33 32">
<path fill="#777582" d="M27.345 5.673c-6.691-6.836-16.873-7.564-22.545-1.891-3.927 3.927-4.945 10.182-2.473 16.145l-2.327 7.564c0 0 0 0.145 0 0.145s0 0.145 0 0.145c0 0 0 0 0 0 0 0.145 0 0.145 0 0.291 0 0 0 0.145 0 0.145s0.145 0.145 0.145 0.145c0 0 0.145 0.145 0.145 0.145s0.145 0.145 0.145 0.145c0 0 0.145 0.145 0.145 0.145s0 0 0 0 0.145 0 0.145 0c0 0 0.145 0 0.145 0l8.291-0.291c3.2 2.182 6.836 3.345 10.182 3.345 3.636 0 7.127-1.309 9.6-3.782 5.964-5.527 5.236-15.709-1.6-22.4zM27.636 26.764c-4.218 4.218-11.491 4.218-17.309 0v0c-0.145-0.145-0.436-0.291-0.727-0.291l-6.982 0.145 1.891-6.255c0.145-0.291 0-0.436 0-0.727v0c-2.327-5.236-1.6-10.909 1.891-14.255 4.945-4.945 13.673-4.073 19.491 1.891 5.818 5.818 6.691 14.545 1.745 19.491z"></path>
<path fill="#777582" d="M12.509 12.218c-0.582 0-1.018 0.436-1.018 1.164v8.873c0 0.582 0.436 1.164 1.018 1.164s1.164-0.436 1.164-1.164v-8.873c0-0.582-0.582-1.164-1.164-1.164z"></path>
<path fill="#777582" d="M17.018 14.4c-0.582 0-1.164 0.436-1.164 1.164v6.836c0 0.582 0.436 1.164 1.164 1.164s1.164-0.436 1.164-1.164v-6.836c0-0.727-0.582-1.164-1.164-1.164z"></path>
<path fill="#777582" d="M21.527 10.618c-0.582 0-1.164 0.436-1.164 1.164v10.618c0 0.582 0.436 1.164 1.164 1.164s1.164-0.436 1.164-1.164v-10.764c0-0.582-0.436-1.018-1.164-1.018z"></path>
</svg>
