<?xml version="1.0" encoding="utf-8"?>
<!-- Generator: Adobe Illustrator 21.0.2, SVG Export Plug-In . SVG Version: 6.00 Build 0)  -->
<svg version="1.1" id="Ebene_1" xmlns="http://www.w3.org/2000/svg" xmlns:xlink="http://www.w3.org/1999/xlink" x="0px" y="0px"
	 viewBox="0 0 24 24" style="enable-background:new 0 0 24 24;" xml:space="preserve">
<style type="text/css">
	.st0{fill:#777582;}
</style>
<path class="st0" d="M19.5,4.9c-2.2-2.2-5.1-3.6-8-3.8c-3-0.3-5.7,0.7-7.6,2.6c-2.7,2.7-3.4,7-1.7,11.1l-1.6,5.2c0,0,0,0.1,0,0.1
	c0,0,0,0.1,0,0.1c0,0,0,0,0,0c0,0.1,0,0.1,0,0.2c0,0,0,0.1,0,0.1c0,0,0.1,0.1,0.1,0.1c0,0,0.1,0.1,0.1,0.1c0,0,0.1,0.1,0.1,0.1
	c0,0,0.1,0.1,0.1,0.1c0,0,0,0,0,0c0,0,0.1,0,0.1,0c0,0,0.1,0,0.1,0l5.7-0.2c2.2,1.5,4.7,2.3,7,2.3c2.5,0,4.9-0.9,6.6-2.6
	C24.7,16.5,24.1,9.5,19.5,4.9z M19.7,19.3c-2.9,2.9-7.9,2.9-11.9,0l0,0c-0.1-0.1-0.3-0.2-0.5-0.2l-4.8,0.1l1.3-4.4
	c0.1-0.2,0-0.3,0-0.5l0,0C2.2,10.9,2.6,7,5,4.7c3.4-3.4,9.4-2.8,13.4,1.3C22.5,10,23,16,19.7,19.3z"/>
</svg>
