<?xml version="1.0" encoding="utf-8"?>
<!-- Generated by IcoMoon.io -->
<!DOCTYPE svg PUBLIC "-//W3C//DTD SVG 1.1//EN" "http://www.w3.org/Graphics/SVG/1.1/DTD/svg11.dtd">
<svg version="1.1" xmlns="http://www.w3.org/2000/svg" xmlns:xlink="http://www.w3.org/1999/xlink" width="33" height="32" viewBox="0 0 33 32">
<path fill="#777582" d="M27.39 5.695c-6.78-6.78-16.814-7.593-22.508-1.898-3.932 3.932-4.881 10.169-2.441 16.136l-2.17 7.458c0 0 0 0.136 0 0.136v0.136c0 0 0 0.136 0 0.136s0 0 0 0.136v0.136c0 0.136 0 0.271 0.136 0.542 0 0 0 0 0 0s0.136 0.136 0.136 0.136c0 0 0.136 0.136 0.136 0.136s0 0 0 0c0.136 0.136 0.271 0.136 0.407 0.271h0.136c0 0 0.136 0 0.136 0s0 0 0.136 0h0.136c0 0 0.136 0 0.136 0l8.136-0.271c3.254 2.169 6.78 3.39 10.17 3.39 3.661 0 7.051-1.22 9.627-3.797 5.153-5.966 4.339-16.136-2.305-22.78zM27.661 26.712c-4.203 4.203-11.39 4.203-17.22 0.136-0.136-0.136-0.407-0.271-0.814-0.271l-7.051 0.271 1.898-6.508c0.136-0.271 0-0.542-0.136-0.814-2.17-5.288-1.356-10.847 2.034-14.237 4.881-4.881 13.559-4.068 19.525 1.898 5.831 5.83 6.644 14.644 1.763 19.525z"></path>
<path fill="#777582" d="M24.271 10.847h-13.831c-0.542 0-0.949 0.542-0.949 1.085s0.407 1.085 1.085 1.085h13.831c0.542 0 1.085-0.407 1.085-1.085s-0.678-1.085-1.22-1.085z"></path>
<path fill="#777582" d="M24.271 15.458h-13.831c-0.542 0-1.085 0.407-1.085 1.085s0.407 1.085 1.085 1.085h13.831c0.542 0 1.085-0.407 1.085-1.085s-0.542-1.085-1.085-1.085z"></path>
<path fill="#777582" d="M18.305 20.068h-7.864c-0.542 0-1.085 0.407-1.085 1.085s0.407 1.085 1.085 1.085h7.864c0.542 0 1.085-0.407 1.085-1.085s-0.542-1.085-1.085-1.085z"></path>
</svg>
