<?xml version="1.0" encoding="utf-8"?>
<!-- Generator: Adobe Illustrator 21.0.2, SVG Export Plug-In . SVG Version: 6.00 Build 0)  -->
<svg version="1.1" id="Ebene_1" xmlns="http://www.w3.org/2000/svg" xmlns:xlink="http://www.w3.org/1999/xlink" x="0px" y="0px"
	 viewBox="0 0 27 24" style="enable-background:new 0 0 27 24;" xml:space="preserve">
<style type="text/css">
	.st0{fill:#777582;}
</style>
<g>
	<circle class="st0" cx="19.1" cy="12.5" r="1.4"/>
	<circle class="st0" cx="9.4" cy="12.5" r="1.4"/>
	<circle class="st0" cx="14.3" cy="12.5" r="1.4"/>
	<path class="st0" d="M21.9,4.4c-2.4-2.4-5.4-3.8-8.5-4.1C10.2,0,7.3,0.9,5.3,3c-2.9,2.9-3.6,7.5-1.8,11.9l-1.6,5.5c0,0,0,0.1,0,0.1
		l0,0.1c0,0,0,0.1,0,0.1c0,0,0,0,0,0.1l0,0.1c0,0.1,0,0.2,0.1,0.4c0,0,0,0,0,0c0,0,0.1,0.1,0.1,0.1c0,0,0.1,0.1,0.1,0.1c0,0,0,0,0,0
		c0.1,0.1,0.2,0.1,0.3,0.2l0.1,0c0,0,0.1,0,0.1,0c0,0,0,0,0.1,0l0.1,0c0,0,0.1,0,0.1,0l6-0.2c2.4,1.6,5,2.5,7.5,2.5
		c2.7,0,5.2-0.9,7.1-2.8C27.5,16.8,26.9,9.3,21.9,4.4z M22.1,19.9C19,23,13.7,23,9.4,19.9c-0.1-0.1-0.3-0.2-0.6-0.2l-5.2,0.2
		l1.4-4.8c0.1-0.2,0-0.4-0.1-0.6C3.4,10.7,3.9,6.6,6.4,4.1c3.6-3.6,10-3,14.4,1.4C25.1,9.8,25.7,16.3,22.1,19.9z"/>
</g>
</svg>
