<?xml version="1.0" encoding="utf-8"?>
<!-- Generator: Adobe Illustrator 21.0.2, SVG Export Plug-In . SVG Version: 6.00 Build 0)  -->
<svg version="1.1" id="Ebene_1" xmlns="http://www.w3.org/2000/svg" xmlns:xlink="http://www.w3.org/1999/xlink" x="0px" y="0px"
	 viewBox="0 0 24 24" style="enable-background:new 0 0 24 24;" xml:space="preserve">
<style type="text/css">
	.st0{fill:#777582;}
</style>
<g>
	<circle class="st0" cx="17.3" cy="12.5" r="1.3"/>
	<circle class="st0" cx="8.1" cy="12.5" r="1.3"/>
	<circle class="st0" cx="12.7" cy="12.5" r="1.3"/>
	<path class="st0" d="M19.9,4.8C15.2,0.1,8.2-0.4,4.2,3.5c-2.8,2.8-3.4,7.1-1.7,11.3L1,19.9c0,0,0,0.1,0,0.1c0,0,0,0.1,0,0.1l0,0
		c0,0,0,0,0,0c0,0.1,0,0.1,0,0.2c0,0,0,0.1,0,0.1c0,0,0.1,0.1,0.1,0.1c0,0,0.1,0.1,0.1,0.1c0,0,0.1,0,0.1,0.1c0,0,0.1,0.1,0.1,0.1
		c0,0,0,0,0,0l0,0c0,0,0.1,0,0.1,0c0,0,0.1,0,0.1,0l5.6-0.2c2.2,1.6,4.7,2.4,7.1,2.4c2.5,0,4.9-0.9,6.7-2.6
		C25.2,16.5,24.6,9.5,19.9,4.8z M20.1,19.3c-2.9,2.9-7.9,2.9-11.9,0l0,0.1c-0.1-0.1-0.3-0.2-0.5-0.2l-4.8,0.1l1.3-4.4
		c0.1-0.2,0-0.3,0-0.5l0.1,0C2.5,10.8,3,7,5.4,4.7c3.3-3.3,9.4-2.8,13.4,1.3C22.8,10,23.4,16,20.1,19.3z"/>
</g>
</svg>
