<?xml version="1.0" encoding="utf-8"?>
<!-- Generator: Adobe Illustrator 21.0.2, SVG Export Plug-In . SVG Version: 6.00 Build 0)  -->
<svg version="1.1" id="Ebene_1" xmlns="http://www.w3.org/2000/svg" xmlns:xlink="http://www.w3.org/1999/xlink" x="0px" y="0px"
	 viewBox="0 0 24 24" style="enable-background:new 0 0 24 24;" xml:space="preserve">
<style type="text/css">
	.st0{fill:#777582;}
</style>
<path class="st0" d="M23,16.3h-5.3V7c0-0.4-0.3-0.8-0.8-0.8H7.8V1c0-0.4-0.3-0.8-0.8-0.8S6.3,0.6,6.3,1v5.3H1C0.6,6.3,0.3,6.6,0.3,7
	S0.6,7.8,1,7.8h5.3V17c0,0.4,0.3,0.8,0.8,0.8h9.3V23c0,0.4,0.3,0.8,0.8,0.8s0.8-0.3,0.8-0.8v-5.3H23c0.4,0,0.8-0.3,0.8-0.8
	S23.4,16.3,23,16.3z M7.8,16.3V7.8h8.5v8.5H7.8z"/>
</svg>
