<?xml version="1.0" encoding="utf-8"?>
<!-- Generator: Adobe Illustrator 21.0.2, SVG Export Plug-In . SVG Version: 6.00 Build 0)  -->
<svg version="1.1" id="Ebene_1" xmlns="http://www.w3.org/2000/svg" xmlns:xlink="http://www.w3.org/1999/xlink" x="0px" y="0px"
	 viewBox="0 0 24 24" style="enable-background:new 0 0 24 24;" xml:space="preserve">
<style type="text/css">
	.st0{fill:#777582;}
</style>
<g>
	<path class="st0" d="M3.9,9.9V5.1c0-0.7,0.6-1.3,1.4-1.3C5.7,3.8,6,3.4,6,3S5.7,2.3,5.3,2.3c-1.6,0-2.9,1.3-2.9,2.8v4.8
		c0,0.7-0.6,1.3-1.4,1.3c-0.4,0-0.8,0.3-0.8,0.8s0.3,0.8,0.8,0.8c0.8,0,1.4,0.6,1.4,1.3v4.8c0,1.6,1.3,2.8,2.9,2.8
		C5.7,21.8,6,21.4,6,21s-0.3-0.8-0.8-0.8c-0.8,0-1.4-0.6-1.4-1.3v-4.8c0-0.8-0.4-1.6-0.9-2.1C3.5,11.5,3.9,10.7,3.9,9.9z"/>
	<path class="st0" d="M23,11.3c-0.8,0-1.4-0.6-1.4-1.3V5.1c0-1.6-1.3-2.8-2.9-2.8C18.3,2.3,18,2.6,18,3s0.3,0.8,0.8,0.8
		c0.8,0,1.4,0.6,1.4,1.3v4.8c0,0.8,0.4,1.6,0.9,2.1c-0.6,0.5-0.9,1.3-0.9,2.1v4.8c0,0.7-0.6,1.3-1.4,1.3c-0.4,0-0.8,0.3-0.8,0.8
		s0.3,0.8,0.8,0.8c1.6,0,2.9-1.3,2.9-2.8v-4.8c0-0.7,0.6-1.3,1.4-1.3c0.4,0,0.8-0.3,0.8-0.8S23.4,11.3,23,11.3z"/>
	<circle class="st0" cx="15.7" cy="12" r="0.8"/>
	<circle class="st0" cx="8.3" cy="12" r="0.8"/>
	<circle class="st0" cx="12" cy="12" r="0.8"/>
</g>
</svg>
