<?xml version="1.0" encoding="utf-8"?>
<!-- Generated by IcoMoon.io -->
<!DOCTYPE svg PUBLIC "-//W3C//DTD SVG 1.1//EN" "http://www.w3.org/Graphics/SVG/1.1/DTD/svg11.dtd">
<svg version="1.1" xmlns="http://www.w3.org/2000/svg" xmlns:xlink="http://www.w3.org/1999/xlink" width="39" height="32" viewBox="0 0 39 32">
<path fill="#777582" d="M5.908 12.636v-8.041c0-1.149 0.985-2.133 2.297-2.133 0.656 0 1.313-0.492 1.313-1.313s-0.492-1.149-1.313-1.149c-2.626 0-4.759 2.133-4.759 4.595v7.877c0 1.313-0.985 2.297-2.133 2.297-0.821 0-1.313 0.492-1.313 1.313s0.492 1.313 1.313 1.313c1.313 0 2.297 0.985 2.297 2.133v7.877c0 2.626 2.133 4.595 4.759 4.595 0.656 0 1.313-0.492 1.313-1.313s-0.656-1.149-1.477-1.149c-1.313 0-2.297-0.985-2.297-2.133v-7.877c0-1.313-0.656-2.626-1.477-3.446 0.985-0.985 1.477-2.133 1.477-3.446z"></path>
<path fill="#777582" d="M37.415 14.769c-1.313 0-2.297-0.985-2.297-2.133v-8.041c0-2.626-2.133-4.595-4.759-4.595-0.656 0-1.313 0.492-1.313 1.313s0.492 1.313 1.313 1.313c1.313 0 2.297 0.985 2.297 2.133v7.877c0 1.313 0.656 2.626 1.477 3.446-0.985 0.82-1.477 2.133-1.477 3.446v7.877c0 1.149-0.985 2.133-2.297 2.133-0.656 0-1.313 0.492-1.313 1.313s0.492 1.313 1.313 1.313c2.626 0 4.759-2.133 4.759-4.595v-7.877c0-1.149 0.985-2.133 2.297-2.133 0.656 0 1.313-0.492 1.313-1.313s-0.656-1.477-1.313-1.477z"></path>
<path fill="#777582" d="M26.749 16.082c0 0.725-0.588 1.313-1.313 1.313s-1.313-0.588-1.313-1.313c0-0.725 0.588-1.313 1.313-1.313s1.313 0.588 1.313 1.313z"></path>
<path fill="#777582" d="M14.441 16.082c0 0.725-0.588 1.313-1.313 1.313s-1.313-0.588-1.313-1.313c0-0.725 0.588-1.313 1.313-1.313s1.313 0.588 1.313 1.313z"></path>
<path fill="#777582" d="M20.677 16.082c0 0.725-0.588 1.313-1.313 1.313s-1.313-0.588-1.313-1.313c0-0.725 0.588-1.313 1.313-1.313s1.313 0.588 1.313 1.313z"></path>
</svg>
