<?xml version="1.0" encoding="utf-8"?>
<!-- Generator: Adobe Illustrator 21.0.2, SVG Export Plug-In . SVG Version: 6.00 Build 0)  -->
<svg version="1.1" id="Ebene_1" xmlns="http://www.w3.org/2000/svg" xmlns:xlink="http://www.w3.org/1999/xlink" x="0px" y="0px"
	 viewBox="0 0 28 24" style="enable-background:new 0 0 28 24;" xml:space="preserve">
<style type="text/css">
	.st0{fill:#777582;}
</style>
<path class="st0" d="M25.9,1.2H2.1C1.2,1.2,0.4,2,0.4,3v14.8c0,1,0.8,1.8,1.8,1.8h11.1v1.7h-3.1c-0.4,0-0.8,0.3-0.8,0.8
	s0.3,0.8,0.8,0.8h7.7c0.4,0,0.8-0.3,0.8-0.8s-0.3-0.8-0.8-0.8h-3.1v-1.7h11.1c1,0,1.8-0.8,1.8-1.8V3C27.6,2,26.8,1.2,25.9,1.2z
	 M26.1,17.8c0,0.1-0.1,0.3-0.3,0.3H2.1c-0.1,0-0.3-0.1-0.3-0.3V3c0-0.1,0.1-0.3,0.3-0.3h23.8c0.1,0,0.3,0.1,0.3,0.3V17.8z"/>
</svg>
