<?xml version="1.0" encoding="utf-8"?>
<!-- Generator: Adobe Illustrator 21.0.2, SVG Export Plug-In . SVG Version: 6.00 Build 0)  -->
<svg version="1.1" id="Ebene_1" xmlns="http://www.w3.org/2000/svg" xmlns:xlink="http://www.w3.org/1999/xlink" x="0px" y="0px"
	 viewBox="0 0 24 24" style="enable-background:new 0 0 24 24;" xml:space="preserve">
<style type="text/css">
	.st0{fill:#777582;}
</style>
<path class="st0" d="M21.7,2.9H2.3c-1,0-1.8,0.8-1.8,1.8v12c0,1,0.8,1.8,1.8,1.8h8.9v1.2H8.8c-0.4,0-0.8,0.3-0.8,0.8
	s0.3,0.8,0.8,0.8h6.4c0.4,0,0.8-0.3,0.8-0.8s-0.3-0.8-0.8-0.8h-2.4v-1.2h8.9c1,0,1.8-0.8,1.8-1.8v-12C23.4,3.7,22.6,2.9,21.7,2.9z
	 M21.9,16.6c0,0.1-0.1,0.3-0.3,0.3H2.3c-0.1,0-0.3-0.1-0.3-0.3v-12c0-0.1,0.1-0.3,0.3-0.3h19.4c0.1,0,0.3,0.1,0.3,0.3V16.6z"/>
</svg>
