<?xml version="1.0" encoding="utf-8"?>
<!-- Generator: Adobe Illustrator 21.0.2, SVG Export Plug-In . SVG Version: 6.00 Build 0)  -->
<svg version="1.1" id="Ebene_1" xmlns="http://www.w3.org/2000/svg" xmlns:xlink="http://www.w3.org/1999/xlink" x="0px" y="0px"
	 viewBox="0 0 24 24" style="enable-background:new 0 0 24 24;" xml:space="preserve">
<style type="text/css">
	.st0{fill:#777582;}
</style>
<g>
	<path class="st0" d="M15.9,8.4c-4.2,0-7.7,3.4-7.7,7.7c0,4.2,3.4,7.7,7.7,7.7c4.2,0,7.7-3.5,7.7-7.7C23.6,11.8,20.1,8.4,15.9,8.4z
		 M15.9,22.3c-0.7,0-1.6-1.3-2-3.4c0.6-0.1,1.3-0.1,2-0.1c0.7,0,1.4,0.1,2,0.1C17.5,21,16.6,22.3,15.9,22.3z M15.9,17.2
		c-0.8,0-1.5,0.1-2.2,0.2c0-0.4-0.1-0.9-0.1-1.3c0-0.5,0-0.9,0.1-1.3c0.7,0.1,1.4,0.1,2.1,0.1c0.8,0,1.6-0.1,2.4-0.2
		c0,0.4,0.1,0.9,0.1,1.4c0,0.5,0,0.9-0.1,1.3C17.4,17.3,16.7,17.2,15.9,17.2z M9.7,16.1c0-0.8,0.2-1.6,0.5-2.3
		c0.6,0.3,1.3,0.5,2,0.7c0,0.5-0.1,1-0.1,1.6c0,0.6,0,1.1,0.1,1.6c-0.8,0.2-1.4,0.5-2,0.8C9.9,17.7,9.7,16.9,9.7,16.1z M15.9,9.9
		c0.7,0,1.5,1.3,2,3.3c-0.7,0.1-1.4,0.2-2.2,0.2c-0.6,0-1.3,0-1.8-0.1C14.3,11.1,15.2,9.9,15.9,9.9z M19.6,14.4
		c0.7-0.2,1.4-0.5,2-0.8c0.3,0.8,0.5,1.6,0.5,2.5c0,0.8-0.2,1.7-0.5,2.4c-0.6-0.3-1.2-0.6-2-0.8c0.1-0.5,0.1-1.1,0.1-1.6
		C19.7,15.5,19.7,14.9,19.6,14.4z M20.8,12.3c-0.4,0.2-0.9,0.4-1.4,0.6c-0.2-0.9-0.5-1.7-0.8-2.4C19.5,10.9,20.2,11.5,20.8,12.3z
		 M13.3,10.5c-0.4,0.7-0.6,1.5-0.8,2.5c-0.6-0.1-1.1-0.3-1.5-0.5C11.5,11.6,12.3,10.9,13.3,10.5z M10.9,19.7
		c0.4-0.2,0.9-0.4,1.5-0.6c0.2,0.9,0.5,1.8,0.8,2.5C12.3,21.2,11.5,20.5,10.9,19.7z M18.6,21.6c0.4-0.7,0.6-1.5,0.8-2.5
		c0.6,0.2,1.1,0.3,1.5,0.6C20.3,20.6,19.5,21.2,18.6,21.6z"/>
	<path class="st0" d="M6.1,12.5H2.4c-0.3,0-0.5-0.2-0.5-0.5V5H14v1c0,0.4,0.3,0.8,0.8,0.8s0.8-0.3,0.8-0.8V2.3c0-1.1-0.9-2-2-2H2.4
		c-1.1,0-2,0.9-2,2V12c0,1.1,0.9,2,2,2h3.7c0.4,0,0.8-0.3,0.8-0.8S6.5,12.5,6.1,12.5z M2.4,1.8h11.1C13.8,1.8,14,2,14,2.3v1.2H1.9
		V2.3C1.9,2,2.1,1.8,2.4,1.8z"/>
	<circle class="st0" cx="3" cy="2.7" r="0.6"/>
	<circle class="st0" cx="4.7" cy="2.7" r="0.6"/>
	<circle class="st0" cx="6.3" cy="2.7" r="0.6"/>
</g>
</svg>
