<?xml version="1.0" encoding="utf-8"?>
<!-- Generated by IcoMoon.io -->
<!DOCTYPE svg PUBLIC "-//W3C//DTD SVG 1.1//EN" "http://www.w3.org/Graphics/SVG/1.1/DTD/svg11.dtd">
<svg version="1.1" xmlns="http://www.w3.org/2000/svg" xmlns:xlink="http://www.w3.org/1999/xlink" width="32" height="32" viewBox="0 0 32 32">
<path fill="#777582" d="M21.106 11.030c-5.719 0-10.485 4.63-10.485 10.485 0 5.719 4.766 10.485 10.485 10.485s10.485-4.766 10.485-10.485c0-5.719-4.766-10.485-10.485-10.485zM21.106 29.957c-0.953 0-2.179-1.77-2.723-4.63 0.817-0.136 1.77-0.136 2.723-0.136s1.906 0.136 2.723 0.136c-0.545 2.86-1.77 4.63-2.723 4.63zM21.106 23.149c-1.089 0-2.043 0.136-2.996 0.272 0-0.545-0.136-1.226-0.136-1.77 0-0.681 0-1.226 0.136-1.77 0.953 0.136 1.906 0.136 2.86 0.136 1.089 0 2.179-0.136 3.268-0.272 0 0.545 0.136 1.226 0.136 1.906s0 1.226-0.136 1.77c-1.089-0.272-2.043-0.272-3.132-0.272zM12.664 21.515c0-1.089 0.272-2.179 0.681-3.132 0.817 0.409 1.77 0.681 2.723 0.953 0 0.681-0.136 1.362-0.136 2.179s0 1.498 0.136 2.179c-1.089 0.272-1.906 0.681-2.723 1.089-0.409-0.953-0.681-2.043-0.681-3.268zM21.106 13.072c0.953 0 2.043 1.77 2.723 4.494-0.953 0.136-1.906 0.272-2.996 0.272-0.817 0-1.77 0-2.451-0.136 0.545-2.86 1.77-4.63 2.723-4.63zM26.145 19.2c0.953-0.272 1.906-0.681 2.723-1.089 0.409 1.089 0.681 2.179 0.681 3.404 0 1.089-0.272 2.315-0.681 3.268-0.817-0.409-1.634-0.817-2.723-1.089 0.136-0.681 0.136-1.498 0.136-2.179 0-0.817 0-1.498-0.136-2.315zM27.779 16.477c-0.545 0.272-1.226 0.545-1.906 0.817-0.272-1.226-0.681-2.315-1.089-3.268 1.226 0.545 2.179 1.362 2.996 2.451zM17.566 13.889c-0.545 0.953-0.817 2.043-1.089 3.404-0.817-0.136-1.498-0.409-2.043-0.681 0.681-1.226 1.77-2.043 3.132-2.723zM14.298 26.553c0.545-0.272 1.226-0.545 2.043-0.817 0.272 1.226 0.681 2.451 1.089 3.404-1.226-0.545-2.315-1.498-3.132-2.587zM24.783 29.14c0.545-0.953 0.817-2.043 1.089-3.404 0.817 0.272 1.498 0.409 2.043 0.817-0.817 1.089-1.906 2.043-3.132 2.587z"></path>
<path fill="#777582" d="M7.762 16.613h-5.038c-0.409 0-0.681-0.272-0.681-0.681v-9.532h16.477v1.362c0 0.545 0.409 1.089 1.089 1.089s1.089-0.409 1.089-1.089v-5.038c0-1.498-1.226-2.723-2.723-2.723h-15.251c-1.498 0-2.723 1.226-2.723 2.723v13.209c0 1.498 1.226 2.723 2.723 2.723h5.038c0.545 0 1.089-0.409 1.089-1.089s-0.545-0.953-1.089-0.953zM2.723 2.043h15.115c0.409 0 0.681 0.272 0.681 0.681v1.634h-16.477v-1.634c0-0.409 0.272-0.681 0.681-0.681z"></path>
<path fill="#777582" d="M4.357 3.268c0 0.451-0.366 0.817-0.817 0.817s-0.817-0.366-0.817-0.817c0-0.451 0.366-0.817 0.817-0.817s0.817 0.366 0.817 0.817z"></path>
<path fill="#777582" d="M6.672 3.268c0 0.451-0.366 0.817-0.817 0.817s-0.817-0.366-0.817-0.817c0-0.451 0.366-0.817 0.817-0.817s0.817 0.366 0.817 0.817z"></path>
<path fill="#777582" d="M8.851 3.268c0 0.451-0.366 0.817-0.817 0.817s-0.817-0.366-0.817-0.817c0-0.451 0.366-0.817 0.817-0.817s0.817 0.366 0.817 0.817z"></path>
</svg>
