<?xml version="1.0" encoding="utf-8"?>
<!-- Generator: Adobe Illustrator 21.0.2, SVG Export Plug-In . SVG Version: 6.00 Build 0)  -->
<svg version="1.1" id="Ebene_1" xmlns="http://www.w3.org/2000/svg" xmlns:xlink="http://www.w3.org/1999/xlink" x="0px" y="0px"
	 viewBox="0 0 24 24" style="enable-background:new 0 0 24 24;" xml:space="preserve">
<style type="text/css">
	.st0{fill:#777582;}
</style>
<g>
	<path class="st0" d="M15.7,3.9c-0.4-0.1-0.8,0-1,0.4c-0.1,0.4,0,0.8,0.4,1c3.4,1.3,5.7,4.7,5.7,8.2c0,4.8-4,8.7-8.8,8.7
		s-8.8-3.9-8.8-8.7c0-3.6,2.3-6.9,5.7-8.2c0.4-0.1,0.6-0.6,0.4-1s-0.6-0.6-1-0.4c-3.9,1.5-6.7,5.4-6.7,9.6c0,5.6,4.6,10.2,10.3,10.2
		s10.3-4.6,10.3-10.2C22.3,9.4,19.6,5.4,15.7,3.9z"/>
	<path class="st0" d="M7.7,10.3c-0.3,0.3-0.3,0.8,0,1.1l3.8,3.8c0,0,0,0,0,0c0,0,0.1,0,0.1,0.1c0,0,0.1,0.1,0.1,0.1
		c0.1,0,0.2,0.1,0.3,0.1c0.1,0,0.2,0,0.3-0.1c0.1,0,0.1-0.1,0.2-0.1c0,0,0,0,0.1,0c0,0,0,0,0,0l3.8-3.8c0.3-0.3,0.3-0.8,0-1.1
		s-0.8-0.3-1.1,0l-2.5,2.5V1c0-0.4-0.3-0.8-0.7-0.8S11.3,0.6,11.3,1v11.8l-2.5-2.5C8.4,10,8,10,7.7,10.3z"/>
</g>
</svg>
