<?xml version="1.0" encoding="utf-8"?>
<!-- Generated by IcoMoon.io -->
<!DOCTYPE svg PUBLIC "-//W3C//DTD SVG 1.1//EN" "http://www.w3.org/Graphics/SVG/1.1/DTD/svg11.dtd">
<svg version="1.1" xmlns="http://www.w3.org/2000/svg" xmlns:xlink="http://www.w3.org/1999/xlink" width="28" height="32" viewBox="0 0 28 32">
<path fill="#777582" d="M19.064 5.038c-0.545-0.136-1.089 0-1.362 0.545-0.136 0.545 0 1.089 0.545 1.362 4.63 1.77 7.762 6.4 7.762 11.166 0 6.536-5.447 11.847-11.983 11.847s-11.983-5.311-11.983-11.847c0-4.902 3.132-9.396 7.762-11.166 0.545-0.136 0.817-0.817 0.545-1.362-0.136-0.545-0.817-0.817-1.226-0.545-5.447 2.043-9.123 7.353-9.123 13.072 0 7.626 6.264 13.889 14.026 13.889s14.026-6.264 14.026-13.889c0.136-5.719-3.677-11.030-8.987-13.072z"></path>
<path fill="#777582" d="M9.668 13.617c-0.409-0.409-1.089-0.409-1.498 0s-0.409 1.089 0 1.498l5.174 5.174c0 0 0 0 0 0s0.136 0 0.136 0.136c0 0 0.136 0 0.136 0 0.136 0 0.272 0.136 0.409 0.136s0.272 0 0.409-0.136c0.136 0 0.136-0.136 0.136-0.136s0.136 0 0.136-0.136l5.174-5.174c0.409-0.409 0.409-1.089 0-1.498s-1.089-0.409-1.498 0l-3.404 3.404v-15.796c0-0.545-0.409-1.089-1.089-1.089s-0.817 0.408-0.817 1.089v16.068l-3.404-3.54z"></path>
</svg>
