<?xml version="1.0" encoding="utf-8"?>
<!-- Generated by IcoMoon.io -->
<!DOCTYPE svg PUBLIC "-//W3C//DTD SVG 1.1//EN" "http://www.w3.org/Graphics/SVG/1.1/DTD/svg11.dtd">
<svg version="1.1" xmlns="http://www.w3.org/2000/svg" xmlns:xlink="http://www.w3.org/1999/xlink" width="37" height="32" viewBox="0 0 37 32">
<path fill="#777582" d="M37.447 16.068c0 1.73-1.402 3.132-3.132 3.132s-3.132-1.402-3.132-3.132c0-1.73 1.402-3.132 3.132-3.132s3.132 1.402 3.132 3.132z"></path>
<path fill="#777582" d="M6.264 16.068c0 1.73-1.402 3.132-3.132 3.132s-3.132-1.402-3.132-3.132c0-1.73 1.402-3.132 3.132-3.132s3.132 1.402 3.132 3.132z"></path>
<path fill="#777582" d="M21.787 16.068c0 1.73-1.402 3.132-3.132 3.132s-3.132-1.402-3.132-3.132c0-1.73 1.402-3.132 3.132-3.132s3.132 1.402 3.132 3.132z"></path>
</svg>
