<?xml version="1.0" encoding="utf-8"?>
<!-- Generated by IcoMoon.io -->
<!DOCTYPE svg PUBLIC "-//W3C//DTD SVG 1.1//EN" "http://www.w3.org/Graphics/SVG/1.1/DTD/svg11.dtd">
<svg version="1.1" xmlns="http://www.w3.org/2000/svg" xmlns:xlink="http://www.w3.org/1999/xlink" width="32" height="32" viewBox="0 0 32 32">
<path fill="#777582" d="M16 32c-8.874 0-16-7.261-16-16s7.126-16 16-16 16 7.126 16 16-7.261 16-16 16zM16 2.017c-7.664 0-13.983 6.319-13.983 13.983s6.319 13.983 13.983 13.983 13.983-6.319 13.983-13.983-6.319-13.983-13.983-13.983z"></path>
<path fill="#777582" d="M14.118 22.185c0-0.538 0.134-1.076 0.538-1.345 0.269-0.269 0.807-0.403 1.345-0.403s1.076 0.134 1.345 0.538c0.269 0.269 0.538 0.807 0.538 1.345s-0.134 1.076-0.538 1.345c-0.269 0.269-0.807 0.538-1.345 0.538s-1.076-0.134-1.345-0.538c-0.403-0.538-0.538-0.941-0.538-1.479zM17.345 18.42h-2.555l-0.538-10.487h3.765l-0.672 10.487z"></path>
</svg>
