<?xml version="1.0" encoding="utf-8"?>
<!-- Generator: Adobe Illustrator 21.0.0, SVG Export Plug-In . SVG Version: 6.00 Build 0)  -->
<svg version="1.1" id="Ebene_1" xmlns="http://www.w3.org/2000/svg" xmlns:xlink="http://www.w3.org/1999/xlink" x="0px" y="0px"
	 viewBox="0 0 24 24" style="enable-background:new 0 0 24 24;" xml:space="preserve">
<style type="text/css">
	.st0{fill:#777582;}
</style>
<g>
	<path class="st0" d="M23.6,11.6c-0.2-0.3-5.2-8-11.6-8c-6.4,0-11.4,7.6-11.6,8L0.1,12l0.3,0.4c0.2,0.3,5.2,8,11.6,8
		c6.4,0,11.4-7.6,11.6-8l0.3-0.4L23.6,11.6z M12,18.9c-4.8,0-9-5.3-10.1-6.9C3,10.5,7.2,5.1,12,5.1c4.8,0,9,5.3,10.1,6.9
		C21,13.5,16.8,18.9,12,18.9z"/>
	<path class="st0" d="M12,6.2c-3.2,0-5.8,2.6-5.8,5.8c0,3.2,2.6,5.8,5.8,5.8s5.8-2.6,5.8-5.8C17.8,8.8,15.2,6.2,12,6.2z M12,16.3
		c-2.4,0-4.3-1.9-4.3-4.3c0-2.4,1.9-4.3,4.3-4.3s4.3,1.9,4.3,4.3C16.3,14.4,14.4,16.3,12,16.3z"/>
</g>
</svg>
