<?xml version="1.0" encoding="utf-8"?>
<!-- Generator: Adobe Illustrator 21.0.2, SVG Export Plug-In . SVG Version: 6.00 Build 0)  -->
<svg version="1.1" id="Ebene_1" xmlns="http://www.w3.org/2000/svg" xmlns:xlink="http://www.w3.org/1999/xlink" x="0px" y="0px"
	 viewBox="0 0 24 24" style="enable-background:new 0 0 24 24;" xml:space="preserve">
<style type="text/css">
	.st0{fill:#777582;}
</style>
<g>
	<path class="st0" d="M9.9,10.1c-1.2,0.1-1.9,0.8-2,2c0,0.5,0,1,0,1.5c0,0.1,0,0.1,0,0.2c-0.5,0-1,0-1.5,0c0,0.6,0,1.2,0,1.8
		c0.5,0,1,0,1.5,0c0,1.5,0,3,0,4.5c0.6,0,1.2,0,1.8,0c0-1.5,0-3,0-4.5c0.1,0,0.2,0,0.2,0c0.4,0,0.8,0,1.1,0c0.1,0,0.2,0,0.2-0.2
		c0-0.2,0.1-0.5,0.1-0.7c0-0.3,0.1-0.6,0.1-0.9c-0.6,0-1.2,0-1.7,0c0-0.5,0-0.9,0-1.4c0-0.4,0.2-0.5,0.6-0.6c0.2,0,0.5,0,0.7,0
		c0.2,0,0.3,0,0.5,0c0-0.5,0-1.1,0-1.6C10.9,10.1,10.4,10.1,9.9,10.1z"/>
	<path class="st0" d="M9,6.3c-4.8,0-8.7,3.9-8.7,8.7c0,4.8,3.9,8.7,8.7,8.7c4.8,0,8.7-3.9,8.7-8.7C17.7,10.2,13.8,6.3,9,6.3z
		 M9,22.3c-4,0-7.2-3.2-7.2-7.2c0-4,3.2-7.2,7.2-7.2s7.2,3.2,7.2,7.2C16.2,19,12.9,22.3,9,22.3z"/>
	<path class="st0" d="M22,0.3H10.6C9.6,0.3,8.8,1,8.8,2v2c0,0.4,0.3,0.8,0.8,0.8s0.8-0.3,0.8-0.8V2c0-0.1,0.1-0.3,0.3-0.3H22
		c0.1,0,0.3,0.1,0.3,0.3v11.4c0,0.1-0.1,0.3-0.3,0.3h-1.9c-0.4,0-0.8,0.3-0.8,0.8s0.3,0.8,0.8,0.8H22c1,0,1.8-0.8,1.8-1.8V2
		C23.8,1,23,0.3,22,0.3z"/>
</g>
</svg>
