<?xml version="1.0" encoding="utf-8"?>
<!-- Generated by IcoMoon.io -->
<!DOCTYPE svg PUBLIC "-//W3C//DTD SVG 1.1//EN" "http://www.w3.org/Graphics/SVG/1.1/DTD/svg11.dtd">
<svg version="1.1" xmlns="http://www.w3.org/2000/svg" xmlns:xlink="http://www.w3.org/1999/xlink" width="17" height="32" viewBox="0 0 17 32">
<path fill="#777582" d="M4.945 32c0-4.8 0-9.745 0-14.545-1.6 0-3.2 0-4.945 0 0-1.891 0-3.782 0-5.673 1.6 0 3.2 0 4.8 0 0-0.291 0-0.436 0-0.727 0-1.6 0-3.055 0.145-4.655 0.291-3.782 2.764-6.255 6.545-6.4 1.6-0.145 3.345 0 5.091 0.145 0 1.745 0 3.491 0 5.236-0.582 0-1.018 0-1.6 0-0.727 0-1.455 0-2.182 0.145-1.309 0-1.891 0.436-1.891 1.745-0.145 1.455 0 2.909 0 4.509 1.891 0 3.636 0 5.527 0-0.145 0.873-0.291 1.745-0.436 2.764-0.145 0.727-0.291 1.6-0.291 2.327 0 0.436-0.145 0.582-0.582 0.582-1.164 0-2.473 0-3.636 0-0.291 0-0.436 0-0.727 0 0 4.945 0 9.745 0 14.545-1.891 0-3.927 0-5.818 0z"></path>
</svg>
