<?xml version="1.0" encoding="utf-8"?>
<!-- Generated by IcoMoon.io -->
<!DOCTYPE svg PUBLIC "-//W3C//DTD SVG 1.1//EN" "http://www.w3.org/Graphics/SVG/1.1/DTD/svg11.dtd">
<svg version="1.1" xmlns="http://www.w3.org/2000/svg" xmlns:xlink="http://www.w3.org/1999/xlink" width="28" height="32" viewBox="0 0 28 32">
<path fill="#777582" d="M27.234 7.898l-7.626-7.626c-0.136-0.136-0.409-0.272-0.681-0.272h-15.115c-2.179 0-3.813 1.634-3.813 3.813v24.511c0 2.043 1.634 3.813 3.813 3.813h20.017c2.043 0 3.813-1.634 3.813-3.813v-19.745c-0.136-0.272-0.272-0.545-0.409-0.681zM19.881 3.54l4.221 4.221h-2.451c-0.953 0-1.77-0.817-1.77-1.77v-2.451zM23.83 29.957h-20.017c-0.953 0-1.77-0.817-1.77-1.77v-24.511c0-0.953 0.817-1.77 1.77-1.77h14.162v3.949c0 2.043 1.634 3.813 3.813 3.813h3.813v18.519c-0.136 0.953-0.817 1.77-1.77 1.77z"></path>
</svg>
