<?xml version="1.0" encoding="utf-8"?>
<!-- Generator: Adobe Illustrator 21.0.2, SVG Export Plug-In . SVG Version: 6.00 Build 0)  -->
<svg version="1.1" id="Ebene_1" xmlns="http://www.w3.org/2000/svg" xmlns:xlink="http://www.w3.org/1999/xlink" x="0px" y="0px"
	 viewBox="0 0 24 24" style="enable-background:new 0 0 24 24;" xml:space="preserve">
<style type="text/css">
	.st0{fill:#777582;}
</style>
<path class="st0" d="M21.9,6l-5.6-5.6c-0.1-0.1-0.3-0.2-0.5-0.2H4.6C3.1,0.3,1.9,1.5,1.9,3v18c0,1.5,1.2,2.8,2.8,2.8h14.7
	c1.5,0,2.8-1.2,2.8-2.8V6.6C22.1,6.4,22,6.2,21.9,6z M16.5,2.8l3.1,3.1h-1.8c-0.7,0-1.3-0.6-1.3-1.3V2.8z M19.4,22.2H4.6
	c-0.7,0-1.3-0.6-1.3-1.3V3c0-0.7,0.6-1.3,1.3-1.3H15v2.9c0,1.5,1.2,2.8,2.8,2.8h2.8V21C20.6,21.7,20,22.2,19.4,22.2z"/>
</svg>
