<?xml version="1.0" encoding="utf-8"?>
<!-- Generator: Adobe Illustrator 21.0.2, SVG Export Plug-In . SVG Version: 6.00 Build 0)  -->
<svg version="1.1" id="Ebene_1" xmlns="http://www.w3.org/2000/svg" xmlns:xlink="http://www.w3.org/1999/xlink" x="0px" y="0px"
	 viewBox="0 0 24 24" style="enable-background:new 0 0 24 24;" xml:space="preserve">
<style type="text/css">
	.st0{fill:#777582;}
</style>
<g>
	<path class="st0" d="M21.9,6l-5.6-5.6c-0.1-0.1-0.3-0.2-0.5-0.2H4.6C3.1,0.3,1.9,1.5,1.9,3v18c0,1.5,1.2,2.8,2.8,2.8h14.7
		c1.5,0,2.8-1.2,2.8-2.8V6.6C22.1,6.4,22,6.2,21.9,6z M16.5,2.8l3.1,3.1h-1.8c-0.7,0-1.3-0.6-1.3-1.3V2.8z M19.4,22.2H4.6
		c-0.7,0-1.3-0.6-1.3-1.3V3c0-0.7,0.6-1.3,1.3-1.3H15v2.9c0,1.5,1.2,2.8,2.8,2.8h2.8V21C20.6,21.7,20,22.2,19.4,22.2z"/>
	<path class="st0" d="M7.5,9.8H6.1v5h0.8V13h0.5c0.6,0,1.1-0.1,1.5-0.4s0.5-0.7,0.5-1.2c0-0.5-0.2-0.9-0.5-1.1
		C8.6,10,8.2,9.8,7.5,9.8z M8.3,12.1c-0.2,0.1-0.5,0.2-0.9,0.2H6.9v-1.8h0.6c0.4,0,0.6,0.1,0.8,0.2s0.3,0.4,0.3,0.6
		C8.6,11.7,8.5,11.9,8.3,12.1z"/>
	<path class="st0" d="M11.9,9.8h-1.5v5h1.4c0.9,0,1.5-0.2,2-0.7c0.5-0.4,0.7-1.1,0.7-1.9c0-0.8-0.2-1.4-0.7-1.8S12.7,9.8,11.9,9.8z
		 M11.8,14.1h-0.6v-3.6h0.7c1.1,0,1.7,0.6,1.7,1.8C13.6,13.5,13,14.1,11.8,14.1z"/>
	<polygon class="st0" points="15.5,14.8 16.4,14.8 16.4,12.8 18.2,12.8 18.2,12.1 16.4,12.1 16.4,10.5 18.4,10.5 18.4,9.8 15.5,9.8 
			"/>
</g>
</svg>
