<?xml version="1.0" encoding="utf-8"?>
<!-- Generated by IcoMoon.io -->
<!DOCTYPE svg PUBLIC "-//W3C//DTD SVG 1.1//EN" "http://www.w3.org/Graphics/SVG/1.1/DTD/svg11.dtd">
<svg version="1.1" xmlns="http://www.w3.org/2000/svg" xmlns:xlink="http://www.w3.org/1999/xlink" width="28" height="32" viewBox="0 0 28 32">
<path fill="#777582" d="M27.234 7.898l-7.626-7.626c-0.136-0.136-0.409-0.272-0.681-0.272h-15.115c-2.179 0-3.813 1.634-3.813 3.813v24.511c0 2.043 1.634 3.813 3.813 3.813h20.017c2.043 0 3.813-1.634 3.813-3.813v-19.745c-0.136-0.272-0.272-0.545-0.409-0.681zM19.881 3.54l4.221 4.221h-2.451c-0.953 0-1.77-0.817-1.77-1.77v-2.451zM23.83 29.957h-20.017c-0.953 0-1.77-0.817-1.77-1.77v-24.511c0-0.953 0.817-1.77 1.77-1.77h14.162v3.949c0 2.043 1.634 3.813 3.813 3.813h3.813v18.519c-0.136 0.953-0.817 1.77-1.77 1.77z"></path>
<path fill="#777582" d="M7.626 13.072h-1.906v6.809h1.089v-2.587h0.681c0.817 0 1.498-0.136 2.043-0.545s0.681-0.953 0.681-1.634c0-0.681-0.272-1.226-0.681-1.498-0.409-0.409-0.953-0.545-1.906-0.545zM8.715 16.068c-0.272 0.272-0.681 0.272-1.226 0.272h-0.681v-2.451h0.817c0.545 0 0.817 0.136 1.089 0.272s0.409 0.545 0.409 0.817c0 0.545-0.136 0.953-0.409 1.089z"></path>
<path fill="#777582" d="M13.753 13.072h-2.179v6.809h1.906c1.226 0 2.043-0.272 2.723-0.953 0.681-0.545 0.953-1.498 0.953-2.587s-0.272-1.906-0.953-2.451-1.362-0.817-2.451-0.817zM13.481 18.928h-0.817v-4.902h0.953c1.498 0 2.315 0.817 2.315 2.451s-0.817 2.451-2.451 2.451z"></path>
<path fill="#777582" d="M18.655 19.881h1.089v-2.86h2.451v-0.953h-2.451v-2.043h2.723v-0.953h-3.813z"></path>
</svg>
