<?xml version="1.0" encoding="utf-8"?>
<!-- Generator: Adobe Illustrator 21.0.2, SVG Export Plug-In . SVG Version: 6.00 Build 0)  -->
<svg version="1.1" id="Ebene_1" xmlns="http://www.w3.org/2000/svg" xmlns:xlink="http://www.w3.org/1999/xlink" x="0px" y="0px"
	 viewBox="0 0 24 24" style="enable-background:new 0 0 24 24;" xml:space="preserve">
<style type="text/css">
	.st0{fill:#777582;}
</style>
<path class="st0" d="M21.1,2.3h-1.5c-0.5-1.2-1.7-2-3-2h-13c-1.8,0-3.3,1.5-3.3,3.3v0V12v11c0,0.4,0.3,0.8,0.8,0.8s0.8-0.3,0.8-0.8
	V12.8h13.5v0c0,1.1,0.9,2,2,2h3.8c1.5,0,2.8-1.2,2.8-2.8V5C23.9,3.5,22.6,2.3,21.1,2.3z M22.4,5v2h-2.5V3.8h1.3
	C21.8,3.8,22.4,4.3,22.4,5z M1.9,3.5c0-1,0.8-1.8,1.8-1.8h13c1,0,1.8,0.8,1.8,1.8V5L1.9,5V3.5L1.9,3.5z M1.9,8L18.4,8v1.5
	c0,1-0.8,1.8-1.8,1.8h-0.5H1.9V8z M21.1,13.3h-3l1.3-1.7c0.3-0.4,0.5-1,0.5-1.6h2.5v2C22.4,12.7,21.8,13.3,21.1,13.3z"/>
</svg>
