<?xml version="1.0" encoding="utf-8"?>
<!-- Generator: Adobe Illustrator 21.0.2, SVG Export Plug-In . SVG Version: 6.00 Build 0)  -->
<svg version="1.1" id="Ebene_1" xmlns="http://www.w3.org/2000/svg" xmlns:xlink="http://www.w3.org/1999/xlink" x="0px" y="0px"
	 viewBox="0 0 24 24" style="enable-background:new 0 0 24 24;" xml:space="preserve">
<style type="text/css">
	.st0{fill:#777582;}
</style>
<path class="st0" d="M21.8,2.8h-2c-0.3-1.5-1.6-2.5-3.2-2.5H3.5c-1.6,0-2.9,1.1-3.2,2.6c0,0.1-0.1,0.2-0.1,0.3v0.3v8.8V23
	c0,0.4,0.3,0.8,0.8,0.8s0.8-0.3,0.8-0.8V13H15v0.6c0,0.6,0.3,1.1,0.7,1.5c0,0,0,0,0,0c0,0,0,0,0,0c0.3,0.3,0.8,0.4,1.2,0.4h4.8
	c1.1,0,2-0.9,2-2V4.8C23.8,3.7,22.9,2.8,21.8,2.8z M1.8,3.5c0-1,0.8-1.8,1.8-1.8h13.1c1,0,1.8,0.8,1.8,1.8v0v6.2
	c0,1-0.8,1.8-1.8,1.8h-0.8h-14V3.5z M16.6,13h0.1l-0.2,0.2L16.6,13L16.6,13z M22.3,13.6c0,0.3-0.2,0.5-0.5,0.5h-4.1l1.5-1.6
	c0,0,0.1-0.1,0.1-0.1l0,0c0,0,0,0,0,0c0.3-0.3,0.5-0.8,0.5-1.3V9.7V4.3h2c0.3,0,0.5,0.2,0.5,0.5V13.6z"/>
</svg>
