<?xml version="1.0" encoding="utf-8"?>
<!-- Generated by IcoMoon.io -->
<!DOCTYPE svg PUBLIC "-//W3C//DTD SVG 1.1//EN" "http://www.w3.org/Graphics/SVG/1.1/DTD/svg11.dtd">
<svg version="1.1" xmlns="http://www.w3.org/2000/svg" xmlns:xlink="http://www.w3.org/1999/xlink" width="32" height="32" viewBox="0 0 32 32">
<path fill="#777582" d="M28.187 2.723h-2.043c-0.681-1.634-2.315-2.723-4.085-2.723h-17.702c-2.315 0-4.357 2.043-4.357 4.494v0 26.553c0 0.545 0.408 1.089 1.089 1.089s1.089-0.409 1.089-1.089v-14.026h18.247c0 1.498 1.226 2.723 2.723 2.723h5.174c2.043 0 3.813-1.634 3.813-3.813v-9.532c-0.136-2.043-1.77-3.677-3.949-3.677zM29.957 6.536v2.723h-3.404v-4.494h1.77c0.817 0 1.634 0.817 1.634 1.77zM2.043 4.494c0-1.362 1.089-2.451 2.451-2.451h17.702c1.362 0 2.451 1.089 2.451 2.451v2.043l-22.604-0.136v-1.906zM2.043 10.485l22.468 0.136v2.043c0 1.362-1.089 2.451-2.451 2.451h-20.017v-4.63zM28.187 17.702h-4.085l1.77-2.315c0.409-0.545 0.681-1.362 0.681-2.179h3.404v2.723c0 0.953-0.817 1.77-1.77 1.77z"></path>
</svg>
