<?xml version="1.0" encoding="utf-8"?>
<!-- Generator: Adobe Illustrator 21.0.2, SVG Export Plug-In . SVG Version: 6.00 Build 0)  -->
<svg version="1.1" id="Ebene_1" xmlns="http://www.w3.org/2000/svg" xmlns:xlink="http://www.w3.org/1999/xlink" x="0px" y="0px"
	 viewBox="0 0 24 24" style="enable-background:new 0 0 24 24;" xml:space="preserve">
<style type="text/css">
	.st0{fill:#777582;}
</style>
<g>
	<path class="st0" d="M23.2,5.2l-4.4-4.4c-0.3-0.3-0.8-0.5-1.2-0.5H16H7H2C1,0.3,0.3,1,0.3,2v20c0,1,0.8,1.8,1.8,1.8h20
		c1,0,1.8-0.8,1.8-1.8V6.4C23.8,5.9,23.6,5.5,23.2,5.2z M15.3,1.8V5c0,0.1-0.1,0.3-0.3,0.3H8C7.9,5.3,7.8,5.1,7.8,5V1.8H15.3z
		 M22.3,22c0,0.1-0.1,0.3-0.3,0.3H2c-0.1,0-0.3-0.1-0.3-0.3V2c0-0.1,0.1-0.3,0.3-0.3h4.3V5C6.3,6,7,6.8,8,6.8h7c1,0,1.8-0.8,1.8-1.8
		V1.8h0.8c0.1,0,0.1,0,0.2,0.1l4.4,4.4c0,0,0.1,0.1,0.1,0.2V22z"/>
	<path class="st0" d="M18,9.3H5C4,9.3,3.3,10,3.3,11v7c0,1,0.8,1.8,1.8,1.8h13c1,0,1.8-0.8,1.8-1.8v-7C19.8,10,19,9.3,18,9.3z
		 M18.3,18c0,0.1-0.1,0.3-0.3,0.3H5c-0.1,0-0.3-0.1-0.3-0.3v-7c0-0.1,0.1-0.3,0.3-0.3h13c0.1,0,0.3,0.1,0.3,0.3V18z"/>
	<path class="st0" d="M16,13.9H7c-0.4,0-0.8,0.3-0.8,0.8s0.3,0.8,0.8,0.8h9c0.4,0,0.8-0.3,0.8-0.8S16.4,13.9,16,13.9z"/>
</g>
</svg>
