<?xml version="1.0" encoding="utf-8"?>
<!-- Generator: Adobe Illustrator 21.0.2, SVG Export Plug-In . SVG Version: 6.00 Build 0)  -->
<svg version="1.1" id="Ebene_1" xmlns="http://www.w3.org/2000/svg" xmlns:xlink="http://www.w3.org/1999/xlink" x="0px" y="0px"
	 viewBox="0 0 24 24" style="enable-background:new 0 0 24 24;" xml:space="preserve">
<style type="text/css">
	.st0{fill:#777582;}
</style>
<path class="st0" d="M21.5,11.3h-3.8V7.4c0-0.9-0.6-1.6-1.5-1.6h-4V2.1c0-1.3-0.7-1.8-1.4-1.8H2.1c-0.7,0-1.4,0.5-1.4,1.8v8.7
	c0,1.1,0.5,1.9,1.4,1.9h4.1v3.5c0,0.3,0,0.7,0.1,1c0.2,0.9,0.9,1,1.1,1h3.4V22c0,0.9,0.8,1.7,1.7,1.7h9c0.9,0,1.7-0.8,1.7-1.7v-9
	C23.2,12.1,22.5,11.3,21.5,11.3z M2.2,11.3c0-0.1-0.1-0.3-0.1-0.5V2.1c0-0.2,0-0.4,0-0.4h8.6c0,0.1,0,0.2,0,0.4v3.7H7.5
	c-0.7,0-1,0.4-1.1,0.7C6.3,6.8,6.3,7,6.3,7.4v3.9H2.2z M7.7,16.8c0-0.2,0-0.5,0-0.7V7.4c0-0.1,0-0.1,0-0.2h8.5c0.1,0,0.2,0,0.2,0.2
	v3.9h-3.8c-0.9,0-1.7,0.8-1.7,1.7v3.8H7.7z M21.9,22c0,0.2-0.1,0.3-0.3,0.3h-9c-0.2,0-0.3-0.1-0.3-0.3v-9c0-0.2,0.1-0.3,0.3-0.3h9
	c0.2,0,0.3,0.1,0.3,0.3V22z"/>
</svg>
