<?xml version="1.0" encoding="utf-8"?>
<!-- Generated by IcoMoon.io -->
<!DOCTYPE svg PUBLIC "-//W3C//DTD SVG 1.1//EN" "http://www.w3.org/Graphics/SVG/1.1/DTD/svg11.dtd">
<svg version="1.1" xmlns="http://www.w3.org/2000/svg" xmlns:xlink="http://www.w3.org/1999/xlink" width="31" height="32" viewBox="0 0 31 32">
<path fill="#777582" d="M28.444 15.043h-5.197v-5.333c0-1.231-0.82-2.188-2.051-2.188h-5.47v-5.060c0-1.778-0.957-2.462-1.915-2.462h-11.897c-0.957 0-1.915 0.684-1.915 2.462v11.897c0 1.504 0.684 2.598 1.915 2.598h5.607v4.786c0 0.41 0 0.957 0.137 1.368 0.274 1.231 1.231 1.368 1.504 1.368h4.65v5.197c0 1.231 1.094 2.325 2.325 2.325h12.308c1.231 0 2.325-1.094 2.325-2.325v-12.308c0-1.231-1.094-2.325-2.325-2.325zM2.051 15.043c0-0.137-0.137-0.41-0.137-0.684v-11.897c0-0.273 0-0.547 0-0.547h11.761c0 0.137 0 0.273 0 0.547v5.060h-4.513c-0.957 0-1.368 0.547-1.504 0.957-0.137 0.274-0.137 0.684-0.137 1.231v5.333h-5.47zM9.436 22.564c0-0.273 0-0.684 0-0.957v-12.034c0-0.137 0-0.137 0-0.274h11.624c0.137 0 0.273 0 0.273 0.274v5.47h-5.197c-1.231 0-2.325 1.094-2.325 2.325v5.197h-4.376zM28.855 29.675c0 0.273-0.137 0.41-0.41 0.41h-12.308c-0.274 0-0.41-0.137-0.41-0.41v-12.308c0-0.273 0.137-0.41 0.41-0.41h12.308c0.273 0 0.41 0.137 0.41 0.41v12.308z"></path>
</svg>
