<?xml version="1.0" encoding="utf-8"?>
<!-- Generator: Adobe Illustrator 21.0.2, SVG Export Plug-In . SVG Version: 6.00 Build 0)  -->
<svg version="1.1" id="Ebene_1" xmlns="http://www.w3.org/2000/svg" xmlns:xlink="http://www.w3.org/1999/xlink" x="0px" y="0px"
	 viewBox="0 0 24 24" style="enable-background:new 0 0 24 24;" xml:space="preserve">
<style type="text/css">
	.st0{fill:#777582;}
</style>
<g>
	<path class="st0" d="M14.1,17.3c0.8-0.1,1.5-0.2,2.2-0.5c2-0.8,2.8-2.4,2.9-4.4c0.1-1.3-0.1-2.5-1-3.5c-0.1-0.1-0.1-0.3-0.1-0.5
		C18.4,7.6,18.3,6.8,18,6c-0.1-0.3-0.3-0.4-0.6-0.3c-0.9,0.2-1.6,0.5-2.4,1c-0.2,0.1-0.4,0.2-0.6,0.1c-1.7-0.4-3.4-0.4-5.1,0
		c-0.2,0.1-0.4,0-0.5-0.1c-0.7-0.5-1.5-0.8-2.4-1C6.2,5.6,6.1,5.7,6,6C5.7,6.8,5.6,7.6,5.9,8.4C6,8.6,5.9,8.8,5.7,9
		c-1.4,1.9-1.2,5.2,0.5,6.8c0.9,0.8,1.9,1.2,3.1,1.4c0.2,0,0.4,0.1,0.6,0.1c-0.3,0.4-0.5,0.8-0.6,1.3c0,0.2-0.1,0.3-0.2,0.3
		c-1.1,0.4-2.2,0.3-2.9-0.8c-0.3-0.5-0.6-0.9-1.1-1.1c-0.3-0.2-0.6-0.2-1-0.2c-0.2,0-0.3,0.2-0.1,0.3c0.1,0.1,0.2,0.2,0.3,0.3
		c0.6,0.3,1,0.8,1.2,1.4c0.4,1.2,1.3,1.6,2.5,1.7c0.4,0,0.8,0,1.2-0.1c0.3-0.1,0.3,0,0.3,0.3c0,0.5,0,1.1,0,1.6
		c0,0.7-0.3,0.9-0.9,0.6C3.9,21.4,1,17.4,0.7,12.8C0.5,7.5,4,2.8,8.9,1.4c4.7-1.4,9.9,0.6,12.6,4.7c3.4,5.3,2,12.2-3.3,15.7
		c-0.7,0.5-1.6,0.9-2.4,1.2c-0.6,0.2-0.9,0-0.9-0.7c0-0.9,0-1.9,0-2.8C14.8,18.7,14.7,17.9,14.1,17.3z"/>
	<path class="st0" d="M8,19.6c-0.1,0-0.2,0-0.2-0.2c0-0.1,0.1-0.2,0.2-0.2c0.1,0,0.2,0,0.2,0.2C8.3,19.5,8.1,19.6,8,19.6z"/>
	<path class="st0" d="M6.5,18.9c0,0.1,0,0.2-0.1,0.2c-0.1,0-0.3-0.1-0.3-0.3c0-0.1,0.1-0.2,0.2-0.1C6.4,18.7,6.5,18.7,6.5,18.9z"/>
	<path class="st0" d="M9.1,19.3c0,0.1-0.1,0.2-0.2,0.2c-0.1,0-0.2,0-0.2-0.1c0-0.1,0.1-0.2,0.2-0.2C9,19.1,9.1,19.2,9.1,19.3z"/>
	<path class="st0" d="M5.8,18.4c-0.1-0.1-0.2-0.1-0.2-0.3C5.6,18,5.7,18,5.8,18c0.1,0,0.2,0.1,0.2,0.3C5.9,18.3,5.9,18.4,5.8,18.4z"
		/>
	<path class="st0" d="M7.2,19.4c-0.1,0-0.3,0-0.3-0.2c0-0.1,0.1-0.1,0.2-0.1c0.1,0,0.2,0,0.3,0.2C7.4,19.4,7.3,19.4,7.2,19.4z"/>
	<path class="st0" d="M5.5,17.6c0,0.1,0,0.1-0.1,0.1c-0.1,0-0.2-0.1-0.2-0.2c0-0.1,0-0.1,0.1-0.1C5.4,17.4,5.5,17.5,5.5,17.6z"/>
</g>
</svg>
