<?xml version="1.0" encoding="utf-8"?>
<!-- Generator: Adobe Illustrator 21.0.2, SVG Export Plug-In . SVG Version: 6.00 Build 0)  -->
<svg version="1.1" id="Ebene_1" xmlns="http://www.w3.org/2000/svg" xmlns:xlink="http://www.w3.org/1999/xlink" x="0px" y="0px"
	 viewBox="0 0 24 24" style="enable-background:new 0 0 24 24;" xml:space="preserve">
<style type="text/css">
	.st0{fill:#777582;}
</style>
<g>
	<path class="st0" d="M12,15.8c-1.5,0-2.9,0.1-4.2,0.4c0.7,4.3,2.5,7,4.3,7c1.7,0,3.5-2.7,4.2-7C14.9,15.9,13.4,15.8,12,15.8z"/>
	<path class="st0" d="M22.4,17.4c0.8-1.6,1.3-3.4,1.3-5.4c0-2-0.5-3.9-1.4-5.5c-1.2,0.9-2.9,1.6-4.9,2.1c0.1,1.1,0.2,2.2,0.2,3.4
		c0,1.2-0.1,2.3-0.2,3.3C19.4,15.8,21.1,16.5,22.4,17.4z"/>
	<path class="st0" d="M17.3,7.6c1.9-0.5,3.4-1.1,4.5-2C20,2.9,17.2,1,13.9,0.5C15.4,1.7,16.7,4.2,17.3,7.6z"/>
	<path class="st0" d="M16.6,12c0-1.1-0.1-2.2-0.2-3.2c-1.5,0.3-3.1,0.4-4.7,0.4c-1.4,0-2.8-0.1-4.1-0.4c-0.1,1-0.2,2-0.2,3.1
		c0,1.1,0.1,2.1,0.2,3.1c1.4-0.2,2.9-0.4,4.4-0.4c1.5,0,3,0.1,4.4,0.4C16.5,14.1,16.6,13.1,16.6,12z"/>
	<path class="st0" d="M6.7,16.3c-1.9,0.4-3.5,1.1-4.6,1.9c1.7,2.7,4.6,4.7,8,5.3C8.5,22.3,7.3,19.7,6.7,16.3z"/>
	<path class="st0" d="M17.3,16.4c-0.6,3.4-1.8,6-3.4,7.1c3.3-0.5,6.2-2.5,7.9-5.2C20.7,17.5,19.1,16.8,17.3,16.4z"/>
	<path class="st0" d="M11.7,8.2c1.5,0,3.1-0.2,4.5-0.4c-0.7-4.3-2.5-6.9-4.2-6.9c-1.7,0-3.5,2.7-4.3,7C9,8.1,10.4,8.2,11.7,8.2z"/>
	<path class="st0" d="M6.6,15.3c-0.1-1-0.2-2.2-0.2-3.3c0-1.1,0.1-2.2,0.2-3.3c-2-0.4-3.8-1.1-5-1.9C0.8,8.4,0.3,10.1,0.3,12
		c0,1.9,0.5,3.7,1.3,5.3C2.8,16.4,4.6,15.8,6.6,15.3z"/>
	<path class="st0" d="M6.7,7.7c0.6-3.4,1.8-6,3.4-7.2c-3.4,0.6-6.3,2.6-8,5.4C3.2,6.7,4.8,7.3,6.7,7.7z"/>
</g>
</svg>
