<?xml version="1.0" encoding="utf-8"?>
<!-- Generator: Adobe Illustrator 21.0.2, SVG Export Plug-In . SVG Version: 6.00 Build 0)  -->
<svg version="1.1" id="Ebene_1" xmlns="http://www.w3.org/2000/svg" xmlns:xlink="http://www.w3.org/1999/xlink" x="0px" y="0px"
	 viewBox="0 0 24 24" style="enable-background:new 0 0 24 24;" xml:space="preserve">
<style type="text/css">
	.st0{fill:#777582;}
</style>
<path class="st0" d="M12,0.1C5.4,0.1,0.1,5.4,0.1,12c0,6.6,5.3,11.9,11.9,11.9c6.6,0,11.9-5.3,11.9-11.9C23.9,5.4,18.6,0.1,12,0.1z
	 M12,22.4c-1.5,0-3.1-2.4-3.8-6.2c1.2-0.2,2.4-0.3,3.7-0.3c1.3,0,2.6,0.1,3.8,0.3C15.1,20,13.5,22.4,12,22.4z M12,14.3
	c-1.4,0-2.7,0.1-4,0.3c-0.1-0.8-0.1-1.7-0.1-2.7c0-0.9,0.1-1.8,0.1-2.6c1.2,0.2,2.4,0.3,3.7,0.3c1.5,0,2.9-0.1,4.2-0.4
	c0.1,0.9,0.2,1.8,0.2,2.7c0,0.9-0.1,1.8-0.1,2.7C14.7,14.5,13.4,14.3,12,14.3z M12,1.6c1.5,0,3.1,2.4,3.8,6.2
	c-1.3,0.2-2.6,0.3-4,0.3c-1.2,0-2.4-0.1-3.5-0.3C8.9,4.1,10.5,1.6,12,1.6z M17.4,9c1.5-0.4,2.8-0.9,3.9-1.6c0.7,1.4,1.1,2.9,1.1,4.6
	c0,1.6-0.4,3.1-1,4.5c-1.1-0.6-2.4-1.1-3.9-1.5c0.1-0.9,0.2-1.9,0.2-3C17.6,11,17.6,9.9,17.4,9z M20.5,6.1c-0.9,0.6-2,1-3.3,1.4
	c-0.4-2.2-1.1-4.1-2.1-5.4C17.4,2.8,19.3,4.2,20.5,6.1z M8.8,2.1C7.9,3.4,7.2,5.3,6.8,7.6C5.4,7.3,4.2,6.9,3.3,6.3
	C4.6,4.4,6.5,2.8,8.8,2.1z M2.6,7.7c1.1,0.6,2.4,1.1,4,1.4C6.4,10,6.4,11,6.4,12c0,1,0.1,2,0.2,2.9c-1.5,0.4-2.9,0.9-3.9,1.5
	c-0.6-1.3-1-2.8-1-4.4C1.6,10.4,2,9,2.6,7.7z M3.4,17.8c0.9-0.5,2.1-1,3.4-1.3c0.4,2.2,1.1,4.1,2.1,5.5C6.6,21.2,4.7,19.7,3.4,17.8z
	 M15.2,21.9c0.9-1.3,1.7-3.2,2.1-5.4c1.3,0.3,2.5,0.8,3.4,1.3C19.3,19.7,17.4,21.2,15.2,21.9z"/>
</svg>
