<?xml version="1.0" encoding="utf-8"?>
<!-- Generated by IcoMoon.io -->
<!DOCTYPE svg PUBLIC "-//W3C//DTD SVG 1.1//EN" "http://www.w3.org/Graphics/SVG/1.1/DTD/svg11.dtd">
<svg version="1.1" xmlns="http://www.w3.org/2000/svg" xmlns:xlink="http://www.w3.org/1999/xlink" width="33" height="32" viewBox="0 0 33 32">
<path fill="#777582" d="M16.219 21.333c-2.046 0-4.091 0.146-5.845 0.438 1.023 5.991 3.507 9.79 5.991 9.79 2.338 0 4.968-3.799 5.991-9.79-2.046-0.292-4.091-0.438-6.137-0.438z"></path>
<path fill="#777582" d="M30.685 23.525c1.169-2.192 1.9-4.822 1.9-7.452 0-2.776-0.731-5.406-1.9-7.744-1.607 1.315-3.945 2.338-6.721 2.922 0.146 1.461 0.292 3.069 0.292 4.676s-0.146 3.215-0.292 4.676c2.63 0.731 5.114 1.753 6.721 2.922z"></path>
<path fill="#777582" d="M23.525 9.79c2.63-0.584 4.822-1.607 6.283-2.776-2.484-3.653-6.429-6.283-10.959-7.014 2.192 1.607 3.945 5.26 4.676 9.79z"></path>
<path fill="#777582" d="M22.648 16.073c0-1.607-0.146-3.069-0.292-4.384-2.046 0.438-4.237 0.584-6.429 0.584-2.046 0-3.945-0.146-5.845-0.584-0.146 1.461-0.146 2.776-0.146 4.384 0 1.461 0.146 2.922 0.292 4.237 1.9-0.292 3.945-0.584 6.137-0.584 2.046 0 4.237 0.146 6.137 0.584 0-1.315 0.146-2.776 0.146-4.237z"></path>
<path fill="#777582" d="M8.913 22.064c-2.63 0.584-4.822 1.461-6.429 2.63 2.484 3.799 6.429 6.575 11.105 7.306-2.192-1.607-3.945-5.26-4.676-9.936z"></path>
<path fill="#777582" d="M23.671 22.064c-0.877 4.676-2.484 8.329-4.676 9.936 4.676-0.731 8.621-3.507 11.105-7.306-1.607-1.023-3.945-1.9-6.429-2.63z"></path>
<path fill="#777582" d="M15.927 10.813c2.192 0 4.237-0.146 6.283-0.584-1.023-5.991-3.507-9.644-5.845-9.644s-4.968 3.799-5.991 9.79c1.753 0.292 3.653 0.438 5.553 0.438z"></path>
<path fill="#777582" d="M8.767 20.603c-0.146-1.461-0.292-3.069-0.292-4.53 0-1.607 0.146-3.069 0.292-4.53-2.922-0.731-5.26-1.607-7.014-2.776-1.169 2.192-1.753 4.676-1.753 7.306s0.731 5.26 1.753 7.452c1.753-1.315 4.091-2.192 7.014-2.922z"></path>
<path fill="#777582" d="M8.913 10.082c0.731-4.822 2.484-8.475 4.676-10.082-4.822 0.731-8.767 3.653-11.251 7.598 1.607 1.023 3.945 1.9 6.575 2.484z"></path>
</svg>
