<?xml version="1.0" encoding="utf-8"?>
<!-- Generator: Adobe Illustrator 21.0.2, SVG Export Plug-In . SVG Version: 6.00 Build 0)  -->
<svg version="1.1" id="Ebene_1" xmlns="http://www.w3.org/2000/svg" xmlns:xlink="http://www.w3.org/1999/xlink" x="0px" y="0px"
	 viewBox="0 0 24 24" style="enable-background:new 0 0 24 24;" xml:space="preserve">
<style type="text/css">
	.st0{fill:#777582;}
</style>
<g id="XMLID_717_">
	<path id="XMLID_718_" class="st0" d="M19.6,3.8c-1,1-2,1.9-2.9,2.7c-0.9-0.5-1.7-1-2.6-1.3c-4.9-1.5-9.6,2.9-8.6,7.9
		c0.6,2.9,2.6,5,5.6,5.6c2.7,0.5,5.6-0.5,7-3.3c0.2-0.4,0.3-0.8,0.5-1.3c-2.1,0-4.2,0-6.3,0c0-1.3,0-2.5,0-3.7c3.4,0,6.9,0,10.3,0
		c0.8,4.4-1,10.4-7.2,12.1c-4.6,1.2-8.6,0.1-11.7-3.6C0.7,15.4,0.4,10,3,6c2.5-3.7,6-5.3,10.4-5C15.8,1.2,17.8,2.2,19.6,3.8z"/>
</g>
</svg>
