<?xml version="1.0" encoding="utf-8"?>
<!-- Generated by IcoMoon.io -->
<!DOCTYPE svg PUBLIC "-//W3C//DTD SVG 1.1//EN" "http://www.w3.org/Graphics/SVG/1.1/DTD/svg11.dtd">
<svg version="1.1" xmlns="http://www.w3.org/2000/svg" xmlns:xlink="http://www.w3.org/1999/xlink" width="31" height="32" viewBox="0 0 31 32">
<path fill="#777582" d="M26.764 4.073c-1.455 1.455-2.909 2.764-4.218 3.927-1.309-0.727-2.473-1.455-3.782-1.891-7.127-1.891-13.964 4.364-12.509 11.636 0.873 4.218 3.782 7.273 8.145 8.145 3.927 0.727 8.145-0.727 10.182-4.8 0.291-0.582 0.436-1.164 0.727-1.891-3.055 0-6.109 0-9.164 0 0-1.891 0-3.636 0-5.382 4.945 0 10.036 0 14.982 0 1.164 6.4-1.455 15.127-10.473 17.6-6.545 1.6-12.364 0-16.873-5.236s-4.945-13.091-1.164-18.909c3.636-5.382 8.727-7.709 15.127-7.273 3.491 0.291 6.4 1.745 9.018 4.073z"></path>
</svg>
