<?xml version="1.0" encoding="utf-8"?>
<!-- Generated by IcoMoon.io -->
<!DOCTYPE svg PUBLIC "-//W3C//DTD SVG 1.1//EN" "http://www.w3.org/Graphics/SVG/1.1/DTD/svg11.dtd">
<svg version="1.1" xmlns="http://www.w3.org/2000/svg" xmlns:xlink="http://www.w3.org/1999/xlink" width="41" height="32" viewBox="0 0 41 32">
<path fill="#777582" d="M39.217 6.4l-15.387-5.855c-2.043-0.817-4.221-0.817-6.264 0l-15.387 5.855c-1.226 0.409-2.043 1.634-2.179 2.996s0.545 2.587 1.77 3.268l5.311 2.996 0.272 0.136v9.532c0 2.179 5.719 6.672 13.345 6.672s13.345-4.357 13.345-6.536v-9.668l5.583-3.132c1.226-0.681 1.906-1.906 1.77-3.268s-0.953-2.587-2.179-2.996zM32 25.328c-0.272 0.953-4.766 4.63-11.302 4.63-6.672 0-11.030-3.813-11.302-4.63v-8.443l6.945 3.949c2.723 1.498 6.128 1.498 8.715 0l6.945-3.949v8.443zM38.672 10.894l-14.57 8.17c-2.043 1.089-4.63 1.089-6.672 0l-8.443-4.766-6.128-3.404c-0.545-0.272-0.817-0.817-0.817-1.362s0.409-1.089 0.953-1.226l15.387-5.855c1.498-0.545 3.268-0.545 4.766 0l15.387 5.855c0.545 0.136 0.817 0.681 0.953 1.226 0 0.545-0.408 1.089-0.817 1.362z"></path>
</svg>
