<?xml version="1.0" encoding="utf-8"?>
<!-- Generator: Adobe Illustrator 21.0.2, SVG Export Plug-In . SVG Version: 6.00 Build 0)  -->
<svg version="1.1" id="Ebene_1" xmlns="http://www.w3.org/2000/svg" xmlns:xlink="http://www.w3.org/1999/xlink" x="0px" y="0px"
	 viewBox="0 0 24 24" style="enable-background:new 0 0 24 24;" xml:space="preserve">
<style type="text/css">
	.st0{fill:#777582;}
</style>
<path class="st0" d="M22.5,6.4l-8.6-3.3c-1.2-0.4-2.5-0.4-3.6,0L1.5,6.4c-0.8,0.3-1.3,1-1.4,1.8c-0.1,0.8,0.4,1.6,1.1,2l3,1.7
	L4.3,12v5.3c0,1.5,3.6,3.9,7.7,3.9c4.1,0,7.7-2.4,7.7-3.9V12l3.1-1.7c0.7-0.4,1.2-1.2,1.1-2C23.8,7.4,23.3,6.7,22.5,6.4z M18.2,17.2
	c-0.3,0.6-2.6,2.5-6.2,2.5c-3.5,0-5.9-1.9-6.2-2.5v-4.4l3.7,2.1c1.6,0.9,3.5,0.9,5.1,0l3.7-2.1V17.2z M22,9l-3.4,1.9c0,0,0,0,0,0
	l-4.8,2.7c-1.1,0.6-2.5,0.6-3.6,0l-4.8-2.7L2,9C1.8,8.8,1.6,8.6,1.7,8.4c0-0.3,0.2-0.5,0.4-0.5l8.6-3.3c0.8-0.3,1.8-0.3,2.6,0
	l8.6,3.3c0.2,0.1,0.4,0.3,0.4,0.5C22.4,8.6,22.2,8.8,22,9z"/>
</svg>
