<?xml version="1.0" encoding="utf-8"?>
<!-- Generator: Adobe Illustrator 21.0.2, SVG Export Plug-In . SVG Version: 6.00 Build 0)  -->
<svg version="1.1" id="Ebene_1" xmlns="http://www.w3.org/2000/svg" xmlns:xlink="http://www.w3.org/1999/xlink" x="0px" y="0px"
	 viewBox="0 0 24 24" style="enable-background:new 0 0 24 24;" xml:space="preserve">
<style type="text/css">
	.st0{fill:#777582;}
</style>
<g>
	<path class="st0" d="M12,0.2C5.5,0.2,0.3,5.5,0.3,12c0,6.5,5.3,11.8,11.8,11.8S23.8,18.5,23.8,12C23.8,5.5,18.5,0.2,12,0.2z
		 M12,22.3C6.3,22.3,1.8,17.7,1.8,12S6.3,1.7,12,1.7S22.3,6.3,22.3,12S17.7,22.3,12,22.3z"/>
	<path class="st0" d="M16.5,6.1H7.5c-0.5,0-1,0.5-1,1v3.4c0,0.5,0.5,1,1,1h8.9c0.5,0,1-0.5,1-1V7.1C17.5,6.5,17,6.1,16.5,6.1z"/>
	<path class="st0" d="M16.5,12.5H7.5c-0.5,0-1,0.5-1,1v3.4c0,0.5,0.5,1,1,1h8.9c0.5,0,1-0.5,1-1v-3.4C17.5,12.9,17,12.5,16.5,12.5z"
		/>
</g>
</svg>
