<?xml version="1.0" encoding="utf-8"?>
<!-- Generated by IcoMoon.io -->
<!DOCTYPE svg PUBLIC "-//W3C//DTD SVG 1.1//EN" "http://www.w3.org/Graphics/SVG/1.1/DTD/svg11.dtd">
<svg version="1.1" xmlns="http://www.w3.org/2000/svg" xmlns:xlink="http://www.w3.org/1999/xlink" width="37" height="32" viewBox="0 0 37 32">
<path fill="#777582" d="M18.519 32c-0.817 0-1.77-0.136-2.587-0.545-4.63-2.043-15.523-8.17-15.932-19.608v-0.545c0.136-6.128 5.174-11.302 10.894-11.302 2.86 0 5.719 1.226 7.762 3.54 2.179-2.315 4.902-3.54 7.762-3.54 5.855 0 10.894 5.174 10.894 11.302v0.681c-0.408 11.438-11.574 17.43-16.34 19.472-0.681 0.409-1.498 0.545-2.451 0.545zM10.894 2.043c-4.766 0-8.851 4.221-8.851 9.26v0.545c0.409 10.213 10.485 15.796 14.843 17.838 1.089 0.545 2.315 0.545 3.404 0 4.357-1.906 14.706-7.489 15.115-17.702v-0.545c-0.136-5.038-4.221-9.26-8.851-9.26-2.587 0-5.174 1.362-6.945 3.677l-0.953 0.953-0.817-1.089c-1.77-2.315-4.221-3.677-6.945-3.677z"></path>
</svg>
