<?xml version="1.0" encoding="utf-8"?>
<!-- Generator: Adobe Illustrator 21.0.2, SVG Export Plug-In . SVG Version: 6.00 Build 0)  -->
<svg version="1.1" id="Ebene_1" xmlns="http://www.w3.org/2000/svg" xmlns:xlink="http://www.w3.org/1999/xlink" x="0px" y="0px"
	 viewBox="0 0 24 24" style="enable-background:new 0 0 24 24;" xml:space="preserve">
<style type="text/css">
	.st0{fill:#777582;}
</style>
<path class="st0" d="M16.8,1.9c-1.8,0-3.5,0.8-4.8,2.1c-1.3-1.4-3-2.1-4.8-2.1c-3.7,0-6.9,3.3-6.9,7.2l0,0.4c0.3,7.2,7.1,11,10,12.3
	c0.5,0.2,1.1,0.3,1.6,0.3c0.5,0,1.1-0.1,1.6-0.3c3-1.3,9.9-5.1,10.2-12.2l0-0.4C23.7,5.2,20.5,1.9,16.8,1.9z M22.2,9.4
	c-0.2,6.3-6.6,9.8-9.3,10.9c-0.6,0.3-1.4,0.3-2,0c-2.7-1.2-8.9-4.6-9.1-11l0-0.3C1.8,6,4.3,3.4,7.2,3.4c1.6,0,3.1,0.8,4.2,2.2
	L12,6.4l0.6-0.8c1.1-1.4,2.6-2.2,4.2-2.2c2.9,0,5.4,2.6,5.4,5.6L22.2,9.4z"/>
</svg>
