<?xml version="1.0" encoding="utf-8"?>
<!-- Generator: Adobe Illustrator 21.0.2, SVG Export Plug-In . SVG Version: 6.00 Build 0)  -->
<svg version="1.1" id="Ebene_1" xmlns="http://www.w3.org/2000/svg" xmlns:xlink="http://www.w3.org/1999/xlink" x="0px" y="0px"
	 viewBox="0 0 24 24" style="enable-background:new 0 0 24 24;" xml:space="preserve">
<style type="text/css">
	.st0{fill:#777582;}
</style>
<g>
	<g>
		<path class="st0" d="M18,17.8c-0.2,0-0.4-0.1-0.5-0.2c-0.3-0.3-0.3-0.8,0-1.1l4.5-4.5l-4.5-4.5c-0.3-0.3-0.3-0.8,0-1.1
			s0.8-0.3,1.1,0l5,5c0.3,0.3,0.3,0.8,0,1.1l-5,5C18.3,17.7,18.1,17.8,18,17.8z"/>
	</g>
	<g>
		<path class="st0" d="M6,17.8c-0.2,0-0.4-0.1-0.5-0.2l-5-5c-0.3-0.3-0.3-0.8,0-1.1l5-5c0.3-0.3,0.8-0.3,1.1,0s0.3,0.8,0,1.1L2.1,12
			l4.5,4.5c0.3,0.3,0.3,0.8,0,1.1C6.4,17.7,6.2,17.8,6,17.8z"/>
	</g>
	<g>
		<path class="st0" d="M9.6,21.3c-0.1,0-0.1,0-0.2,0c-0.4-0.1-0.6-0.5-0.5-0.9l4.7-17.1c0.1-0.4,0.5-0.6,0.9-0.5
			c0.4,0.1,0.6,0.5,0.5,0.9l-4.7,17.1C10.3,21.1,10,21.3,9.6,21.3z"/>
	</g>
</g>
</svg>
