<svg xmlns="http://www.w3.org/2000/svg" viewBox="0 0 81.5 77.95"><defs><style>.cls-1{fill:none;stroke:#777582;stroke-miterlimit:10;stroke-width:1.5px;}</style></defs><title>icons_x80</title><g id="Ebene_2" data-name="Ebene 2"><g id="Ebene_1-2" data-name="Ebene 1"><path class="cls-1" d="M39,66.77l-19,10a3.69,3.69,0,0,1-5.35-3.89l3.63-21.17a3.69,3.69,0,0,0-1.06-3.26l-15.38-15a3.69,3.69,0,0,1,2-6.29l21.26-3.09a3.69,3.69,0,0,0,2.78-2L37.45,2.8a3.69,3.69,0,0,1,6.61,0l9.51,19.26a3.69,3.69,0,0,0,2.78,2l21.26,3.09a3.69,3.69,0,0,1,2,6.29l-15.38,15a3.69,3.69,0,0,0-1.06,3.26l3.63,21.17a3.69,3.69,0,0,1-5.35,3.89l-19-10A3.69,3.69,0,0,0,39,66.77Z"/></g></g></svg>