<svg xmlns="http://www.w3.org/2000/svg" viewBox="0 0 80 80"><defs><style>.cls-1{fill:#777582;}</style></defs><title>icons</title><g id="Ebene_2" data-name="Ebene 2"><g id="Ebene_1-2" data-name="Ebene 1"><g id="Ebene_2-2" data-name="Ebene 2"><g id="Ebene_1-2-2" data-name="Ebene 1-2"><path class="cls-1" d="M18,80a4.18,4.18,0,0,1-1.3-.21,4.38,4.38,0,0,1-2.56-2.24,4.76,4.76,0,0,1-.44-2.88l3.56-21.73a3.1,3.1,0,0,0-.83-2.66L1.32,34.89a4.71,4.71,0,0,1-.08-6.44,4.32,4.32,0,0,1,2.45-1.32l20.88-3.17a2.9,2.9,0,0,0,2.18-1.64L36.12,2.53A4.39,4.39,0,0,1,38.64.24,4.15,4.15,0,0,1,42,.48a4.48,4.48,0,0,1,2,2.06L53.27,22.3a2.89,2.89,0,0,0,2.17,1.63l20.87,3.17a4.31,4.31,0,0,1,2.85,1.82,4.71,4.71,0,0,1-.48,5.95l-15.1,15.4a3.1,3.1,0,0,0-.83,2.67l3.56,21.73a4.55,4.55,0,0,1-3.56,5.26A4.21,4.21,0,0,1,60,79.47L41.35,69.2a2.77,2.77,0,0,0-2.7,0h0L20,79.48A4.2,4.2,0,0,1,18,80ZM40,1.54a2.78,2.78,0,0,0-.92.16,2.91,2.91,0,0,0-1.66,1.52L28,23a4.38,4.38,0,0,1-3.28,2.47L3.9,28.64a2.86,2.86,0,0,0-1.61.88,3.12,3.12,0,0,0,.06,4.27l15.1,15.4a4.69,4.69,0,0,1,1.25,4L15.13,74.93a3.15,3.15,0,0,0,.29,1.91,2.9,2.9,0,0,0,1.7,1.48,2.75,2.75,0,0,0,2.2-.21L38,67.85a4.19,4.19,0,0,1,4.07,0L60.68,78.1a2.79,2.79,0,0,0,1.82.3,2.86,2.86,0,0,0,1.87-1.23,3.1,3.1,0,0,0,.49-2.25L61.3,53.2a4.69,4.69,0,0,1,1.25-4l15.1-15.4A3.12,3.12,0,0,0,78,29.83a2.85,2.85,0,0,0-1.88-1.2L55.23,25.46A4.37,4.37,0,0,1,51.95,23L42.61,3.22a3,3,0,0,0-1.3-1.36A2.77,2.77,0,0,0,40,1.54Z"/></g></g></g></g></svg>