<svg xmlns="http://www.w3.org/2000/svg" viewBox="0 0 80 80"><defs><style>.cls-1{fill:#777582;}</style></defs><title>illustrations-l_1</title><g id="Ebene_2" data-name="Ebene 2"><g id="Ebene_1-2" data-name="Ebene 1"><path class="cls-1" d="M70.86,80H2.7A2.7,2.7,0,0,1,0,77.3V2.7A2.7,2.7,0,0,1,2.7,0H77.3A2.7,2.7,0,0,1,80,2.7V70.86a.74.74,0,0,1-1.26.52L49.08,41.72,38.2,38.2l3.52,10.88L71.38,78.74A.74.74,0,0,1,70.86,80ZM2.7,1.47A1.23,1.23,0,0,0,1.47,2.7V77.3A1.23,1.23,0,0,0,2.7,78.53H69.09L40.55,50a.73.73,0,0,1-.18-.29l-4-12.42a.74.74,0,0,1,.93-.93l12.42,4a.73.73,0,0,1,.29.18L78.53,69.09V2.7A1.23,1.23,0,0,0,77.3,1.47Z"/><path class="cls-1" d="M41.07,50.21A.74.74,0,0,1,40.55,49l8.4-8.4a.74.74,0,0,1,1,1L41.59,50A.73.73,0,0,1,41.07,50.21Z"/><path class="cls-1" d="M77.3,80H77a.74.74,0,0,1-.52-.22L46.36,49.53a.74.74,0,0,1,0-1l2.21-2.21a.61.61,0,0,1,.52-.22.73.73,0,0,1,.52.22L79.79,76.59a.74.74,0,0,1,.21.52v.19A2.7,2.7,0,0,1,77.3,80ZM47.92,49,77.31,78.53a1.23,1.23,0,0,0,1.21-1.12L49.09,47.84Z"/><path class="cls-1" d="M79.26,20.12H46a.74.74,0,1,1,0-1.47H79.26a.74.74,0,1,1,0,1.47Z"/><path class="cls-1" d="M34,20.12H.74a.74.74,0,0,1,0-1.47H34a.74.74,0,1,1,0,1.47Z"/><path class="cls-1" d="M34,61.35H.74a.74.74,0,0,1,0-1.47H34a.74.74,0,1,1,0,1.47Z"/><path class="cls-1" d="M19.39,34.75a.74.74,0,0,1-.74-.74V.74a.74.74,0,0,1,1.47,0V34A.74.74,0,0,1,19.39,34.75Z"/><path class="cls-1" d="M19.39,80a.74.74,0,0,1-.74-.74V46a.74.74,0,0,1,1.47,0V79.26A.74.74,0,0,1,19.39,80Z"/><path class="cls-1" d="M60.61,34.75a.74.74,0,0,1-.74-.74V.74a.74.74,0,0,1,1.47,0V34A.74.74,0,0,1,60.61,34.75Z"/></g></g></svg>