<?xml version="1.0" encoding="utf-8"?>
<!-- Generated by IcoMoon.io -->
<!DOCTYPE svg PUBLIC "-//W3C//DTD SVG 1.1//EN" "http://www.w3.org/Graphics/SVG/1.1/DTD/svg11.dtd">
<svg version="1.1" xmlns="http://www.w3.org/2000/svg" xmlns:xlink="http://www.w3.org/1999/xlink" width="32" height="32" viewBox="0 0 32 32">
<path fill="#777582" d="M28.323 0h-24.511c-2.179 0-3.813 1.634-3.813 3.813v24.511c0 2.043 1.634 3.813 3.813 3.813h24.511c2.043 0 3.813-1.634 3.813-3.813v-24.511c-0.136-2.179-1.77-3.813-3.813-3.813zM3.813 2.043h24.511c0.953 0 1.77 0.817 1.77 1.77v22.060l-7.353-7.353c-0.409-0.409-1.089-0.409-1.498 0l-4.902 4.63-6.4-6.4c-0.409-0.409-1.089-0.409-1.498 0l-6.4 6.4v-19.336c0-0.953 0.817-1.77 1.77-1.77zM2.043 28.323v-2.179l7.081-7.081 6.4 6.4c0 0 0 0 0 0s0 0 0 0l4.63 4.63h-16.34c-0.953-0.136-1.77-0.953-1.77-1.77zM28.323 29.957h-5.174l-5.447-5.311 4.085-4.085 8.034 8.034c-0.136 0.817-0.817 1.362-1.498 1.362z"></path>
<path fill="#777582" d="M18.791 13.481c2.043 0 3.813-1.634 3.813-3.813s-1.634-3.813-3.813-3.813-3.813 1.906-3.813 3.949 1.634 3.677 3.813 3.677zM18.791 8.034c0.953 0 1.77 0.817 1.77 1.77s-0.817 1.77-1.77 1.77-1.77-0.817-1.77-1.77 0.817-1.77 1.77-1.77z"></path>
</svg>
