<?xml version="1.0" encoding="utf-8"?>
<!-- Generator: Adobe Illustrator 21.0.2, SVG Export Plug-In . SVG Version: 6.00 Build 0)  -->
<svg version="1.1" id="Ebene_1" xmlns="http://www.w3.org/2000/svg" xmlns:xlink="http://www.w3.org/1999/xlink" x="0px" y="0px"
	 viewBox="0 0 24 24" style="enable-background:new 0 0 24 24;" xml:space="preserve">
<style type="text/css">
	.st0{fill:#777582;}
</style>
<g>
	<path class="st0" d="M21,0.3H3C1.5,0.3,0.3,1.5,0.3,3v18c0,1.5,1.2,2.8,2.8,2.8h18c1.5,0,2.8-1.2,2.8-2.8V3
		C23.8,1.5,22.5,0.3,21,0.3z M3,22.3c-0.7,0-1.3-0.6-1.3-1.3v-1.6L7,14.2l8.1,8.1H3z M21,22.3h-3.8l-3.9-3.9l3-3l5.9,5.9
		C22.1,21.8,21.6,22.3,21,22.3z M22.3,19.2l-5.4-5.4c-0.3-0.3-0.8-0.3-1.1,0l-3.5,3.5l-4.7-4.7c-0.3-0.3-0.8-0.3-1.1,0l-4.7,4.7V3
		c0-0.7,0.6-1.3,1.3-1.3h18c0.7,0,1.3,0.6,1.3,1.3V19.2z"/>
	<path class="st0" d="M14,4.7c-1.5,0-2.8,1.2-2.8,2.8s1.2,2.8,2.8,2.8s2.8-1.2,2.8-2.8S15.5,4.7,14,4.7z M14,8.7
		c-0.7,0-1.3-0.6-1.3-1.3s0.6-1.3,1.3-1.3s1.3,0.6,1.3,1.3S14.7,8.7,14,8.7z"/>
</g>
</svg>
