<?xml version="1.0" encoding="utf-8"?>
<!-- Generated by IcoMoon.io -->
<!DOCTYPE svg PUBLIC "-//W3C//DTD SVG 1.1//EN" "http://www.w3.org/Graphics/SVG/1.1/DTD/svg11.dtd">
<svg version="1.1" xmlns="http://www.w3.org/2000/svg" xmlns:xlink="http://www.w3.org/1999/xlink" width="32" height="32" viewBox="0 0 32 32">
<path fill="#777582" d="M16 32c-8.8 0-16-7.2-16-16s7.2-16 16-16 16 7.2 16 16c0 8.8-7.2 16-16 16zM16 2c-7.733 0-14 6.267-14 14s6.267 14 14 14 14-6.267 14-14c0-7.733-6.267-14-14-14z"></path>
<path fill="#777582" d="M17.867 9.867c0 0.667-0.133 1.067-0.533 1.333-0.267 0.267-0.8 0.4-1.467 0.4-0.533 0-1.067-0.133-1.333-0.533s-0.533-0.8-0.533-1.333c0-0.533 0.133-1.067 0.533-1.333s0.933-0.4 1.467-0.4c0.667 0 1.067 0.133 1.333 0.533 0.4 0.267 0.533 0.667 0.533 1.333zM14.667 13.467h2.667l0.533 10.533h-3.733l0.533-10.533z"></path>
</svg>
