<?xml version="1.0" encoding="utf-8"?>
<!-- Generated by IcoMoon.io -->
<!DOCTYPE svg PUBLIC "-//W3C//DTD SVG 1.1//EN" "http://www.w3.org/Graphics/SVG/1.1/DTD/svg11.dtd">
<svg version="1.1" xmlns="http://www.w3.org/2000/svg" xmlns:xlink="http://www.w3.org/1999/xlink" width="32" height="32" viewBox="0 0 32 32">
<path fill="#777582" d="M22.060 13.481c-0.953 0-1.77-0.409-2.451-1.089s-1.089-1.498-1.089-2.451c0-0.953 0.409-1.77 1.089-2.451 1.362-1.362 3.677-1.362 4.902 0 0.681 0.681 1.089 1.498 1.089 2.451s-0.409 1.906-1.089 2.587c-0.681 0.681-1.634 0.953-2.451 0.953zM22.060 8.579c-0.409 0-0.817 0.136-1.089 0.409s-0.409 0.681-0.409 1.089c0 0.409 0.136 0.817 0.409 1.089 0.545 0.545 1.498 0.545 2.043 0 0.272-0.272 0.409-0.681 0.409-1.089s-0.136-0.817-0.409-1.089c-0.272-0.272-0.681-0.409-0.953-0.409z"></path>
<path fill="#777582" d="M7.217 32c0 0 0 0 0 0l-6.128-0.136c-0.545 0-0.953-0.409-0.953-0.953l-0.136-6.264c0-0.272 0.136-0.545 0.272-0.681l11.983-11.983c-0.681-3.268 0.409-6.672 2.723-9.123 1.906-1.77 4.357-2.86 7.081-2.86s5.174 1.089 7.081 2.86c1.906 1.906 2.996 4.357 2.996 7.081s-1.089 5.174-2.996 7.081c-2.315 2.315-5.855 3.404-9.123 2.723l-0.681 0.681c-0.136 0.136-0.409 0.272-0.681 0.272h-2.179v1.634c0 0.545-0.409 1.089-1.089 1.089h-1.634v1.634c0 0.545-0.409 1.089-1.089 1.089h-1.634v1.634c0 0.545-0.409 1.089-1.089 1.089h-1.634v2.043c0 0.272-0.136 0.545-0.272 0.681-0.272 0.272-0.545 0.408-0.817 0.408zM2.179 29.821l4.085 0.136v-2.043c0-0.545 0.409-1.089 1.089-1.089h1.634v-1.634c0-0.545 0.409-1.089 1.089-1.089h1.634v-1.634c0-0.545 0.409-1.089 1.089-1.089h1.634v-1.634c0-0.545 0.409-1.089 1.089-1.089h2.86l0.817-0.817c0.272-0.272 0.681-0.409 0.953-0.272 2.723 0.681 5.719 0 7.626-2.043 1.498-1.498 2.315-3.54 2.315-5.583s-0.817-4.085-2.315-5.583c-1.498-1.498-3.54-2.315-5.583-2.315s-4.085 0.817-5.583 2.315c-2.043 2.043-2.723 4.902-2.043 7.626 0.136 0.409 0 0.681-0.272 0.953l-11.983 11.983-0.136 4.902z"></path>
</svg>
