<?xml version="1.0" encoding="utf-8"?>
<!-- Generator: Adobe Illustrator 21.0.2, SVG Export Plug-In . SVG Version: 6.00 Build 0)  -->
<svg version="1.1" id="Ebene_1" xmlns="http://www.w3.org/2000/svg" xmlns:xlink="http://www.w3.org/1999/xlink" x="0px" y="0px"
	 viewBox="0 0 24 24" style="enable-background:new 0 0 24 24;" xml:space="preserve">
<style type="text/css">
	.st0{fill:#777582;}
</style>
<g>
	<path class="st0" d="M14.6,5.8c-0.5,0.5-0.8,1.1-0.8,1.8s0.3,1.3,0.8,1.8c0.5,0.5,1.2,0.8,1.8,0.8c0.7,0,1.3-0.3,1.8-0.8
		C18.7,8.9,19,8.3,19,7.6c0-0.7-0.3-1.3-0.8-1.8C17.2,4.8,15.6,4.8,14.6,5.8z M17.2,8.4c-0.4,0.4-1.1,0.4-1.5,0c0,0,0,0,0,0
		c-0.2-0.2-0.3-0.5-0.3-0.8c0-0.3,0.1-0.6,0.3-0.8c0.2-0.2,0.5-0.3,0.8-0.3c0.3,0,0.6,0.1,0.8,0.3c0.2,0.2,0.3,0.5,0.3,0.8
		C17.5,7.9,17.4,8.1,17.2,8.4z"/>
	<path class="st0" d="M21.6,2.4c-2.9-2.9-7.5-2.9-10.4,0c-1.7,1.7-2.5,4.3-2,6.7l-8.7,8.7c-0.1,0.1-0.2,0.3-0.2,0.5l0.1,4.6
		c0,0.4,0.3,0.7,0.7,0.7l4.5,0.1c0,0,0,0,0,0c0.2,0,0.4-0.1,0.5-0.2c0.1-0.1,0.2-0.3,0.2-0.5v-1.5h1.2c0.4,0,0.8-0.3,0.8-0.8v-1.2
		h1.2c0.4,0,0.8-0.3,0.8-0.8v-1.2h1.2c0.4,0,0.8-0.3,0.8-0.8v-1.2h1.6c0.2,0,0.4-0.1,0.5-0.2l0.5-0.5c2.4,0.5,4.9-0.3,6.7-2
		c1.4-1.4,2.2-3.2,2.2-5.2S23,3.8,21.6,2.4z M20.5,11.7c-1.5,1.5-3.6,2-5.6,1.5c-0.3-0.1-0.5,0-0.7,0.2L13.6,14h-2.1
		c-0.4,0-0.8,0.3-0.8,0.8V16H9.6c-0.4,0-0.8,0.3-0.8,0.8V18H7.6c-0.4,0-0.8,0.3-0.8,0.8V20H5.6c-0.4,0-0.8,0.3-0.8,0.8v1.5l-3-0.1
		l-0.1-3.5l8.8-8.8c0.2-0.2,0.3-0.5,0.2-0.7c-0.5-2,0-4.2,1.5-5.6c2.3-2.3,6-2.3,8.3,0c1.1,1.1,1.7,2.6,1.7,4.1S21.6,10.6,20.5,11.7
		z"/>
</g>
</svg>
