<?xml version="1.0" encoding="utf-8"?>
<!-- Generator: Adobe Illustrator 21.0.2, SVG Export Plug-In . SVG Version: 6.00 Build 0)  -->
<svg version="1.1" id="Ebene_1" xmlns="http://www.w3.org/2000/svg" xmlns:xlink="http://www.w3.org/1999/xlink" x="0px" y="0px"
	 viewBox="0 0 24 24" style="enable-background:new 0 0 24 24;" xml:space="preserve">
<style type="text/css">
	.st0{fill:#777582;}
</style>
<g>
	<path class="st0" d="M23.5,8L16,0.5c-0.3-0.3-0.8-0.3-1.1,0l-14,14c-0.3,0.3-0.7,0.9-0.6,1.9l0.3,5.1c0,0.9,1.2,2,2,2l5.1,0.3
		c0.1,0,0.1,0,0.2,0c0.9,0,1.4-0.3,1.7-0.6l14-14c0.1-0.1,0.2-0.3,0.2-0.5S23.7,8.2,23.5,8z M8.5,22.1c-0.2,0.2-0.5,0.2-0.7,0.2
		L2.7,22c-0.2,0-0.6-0.5-0.7-0.6l-0.3-5.1c0-0.2,0-0.6,0.2-0.7L15.4,2.1l6.5,6.5L8.5,22.1z"/>
	<circle class="st0" cx="5" cy="19" r="1.5"/>
</g>
</svg>
