<svg xmlns="http://www.w3.org/2000/svg" viewBox="0 0 80 80"><defs><style>.cls-1{fill:#777582;}</style></defs><title>layout</title><g id="Ebene_2" data-name="Ebene 2"><g id="Ebene_1-2" data-name="Ebene 1"><path class="cls-1" d="M11.45,48a.74.74,0,0,0,.74-.74V32.76a.74.74,0,0,0-1.47,0V47.24A.74.74,0,0,0,11.45,48Z"/><path class="cls-1" d="M64.79,12.18h3v3a.74.74,0,0,0,1.47,0v-3h10a.74.74,0,0,0,0-1.47h-10V.74a.74.74,0,0,0-1.47,0v10h-3a.74.74,0,0,0,0,1.47Z"/><path class="cls-1" d="M47.24,10.71H40.74V.74a.74.74,0,1,0-1.47,0v10H32.76a.74.74,0,0,0,0,1.47h6.51v3a.74.74,0,1,0,1.47,0v-3h6.51a.74.74,0,0,0,0-1.47Z"/><path class="cls-1" d="M15.21,10.71h-3V.74a.74.74,0,0,0-1.47,0v10H.74a.74.74,0,0,0,0,1.47h10v3a.74.74,0,0,0,1.47,0v-3h3a.74.74,0,0,0,0-1.47Z"/><path class="cls-1" d="M68.55,32a.74.74,0,0,0-.74.74V47.24a.74.74,0,0,0,1.47,0V32.76A.74.74,0,0,0,68.55,32Z"/><path class="cls-1" d="M15.21,67.82h-3v-3a.74.74,0,0,0-1.47,0v3H.74a.74.74,0,0,0,0,1.47h10v10a.74.74,0,0,0,1.47,0v-10h3a.74.74,0,0,0,0-1.47Z"/><path class="cls-1" d="M47.24,67.82H40.74v-3a.74.74,0,0,0-1.47,0v3H32.76a.74.74,0,0,0,0,1.47h6.51v10a.74.74,0,1,0,1.47,0v-10h6.51a.74.74,0,0,0,0-1.47Z"/><path class="cls-1" d="M79.26,67.82h-10v-3a.74.74,0,0,0-1.47,0v3h-3a.74.74,0,0,0,0,1.47h3v10a.74.74,0,0,0,1.47,0v-10h10a.74.74,0,0,0,0-1.47Z"/><path class="cls-1" d="M40,48a.74.74,0,0,0,.74-.74V32.76a.74.74,0,0,0-1.47,0V47.24A.74.74,0,0,0,40,48Z"/></g></g></svg>