<svg xmlns="http://www.w3.org/2000/svg" viewBox="0 0 81.5 81.5"><defs><style>.cls-1{fill:none;stroke:#777582;stroke-linecap:round;stroke-linejoin:round;stroke-width:1.5px;}</style></defs><title>layout_x80</title><g id="Ebene_2" data-name="Ebene 2"><g id="Ebene_1-2" data-name="Ebene 1"><line class="cls-1" x1="11.66" y1="80.75" x2="11.66" y2="66"/><line class="cls-1" x1="11.66" y1="48.13" x2="11.66" y2="33.37"/><line class="cls-1" x1="11.66" y1="15.5" x2="11.66" y2="0.75"/><line class="cls-1" x1="80.75" y1="11.66" x2="66" y2="11.66"/><line class="cls-1" x1="48.13" y1="11.66" x2="33.37" y2="11.66"/><line class="cls-1" x1="15.5" y1="11.66" x2="0.75" y2="11.66"/><line class="cls-1" x1="69.84" y1="0.75" x2="69.84" y2="15.5"/><line class="cls-1" x1="69.84" y1="33.37" x2="69.84" y2="48.13"/><line class="cls-1" x1="69.84" y1="66" x2="69.84" y2="80.75"/><line class="cls-1" x1="0.75" y1="69.84" x2="15.5" y2="69.84"/><line class="cls-1" x1="33.37" y1="69.84" x2="48.13" y2="69.84"/><line class="cls-1" x1="66" y1="69.84" x2="80.75" y2="69.84"/><line class="cls-1" x1="40.75" y1="0.75" x2="40.75" y2="15.5"/><line class="cls-1" x1="40.75" y1="33.37" x2="40.75" y2="48.13"/><line class="cls-1" x1="40.75" y1="66" x2="40.75" y2="80.75"/></g></g></svg>