<?xml version="1.0" encoding="utf-8"?>
<!-- Generated by IcoMoon.io -->
<!DOCTYPE svg PUBLIC "-//W3C//DTD SVG 1.1//EN" "http://www.w3.org/Graphics/SVG/1.1/DTD/svg11.dtd">
<svg version="1.1" xmlns="http://www.w3.org/2000/svg" xmlns:xlink="http://www.w3.org/1999/xlink" width="32" height="32" viewBox="0 0 32 32">
<path fill="#777582" d="M27.779 3.132c-5.174-4.494-13.345-4.085-17.974 1.089-1.77 1.906-2.86 4.357-3.132 6.945-0.272 1.906-0.545 3.677-0.953 5.311l-0.136 0.136c-0.953 0.953-1.362 2.043-1.362 3.404 0 0.953 0.272 1.906 0.817 2.723-0.953-0.681-2.315-0.681-3.404-0.136-1.226 0.681-1.77 2.043-1.362 3.404 0 0.136 0.136 0.409 0.136 0.409-0.408 1.362 0 2.996 1.089 4.085 0.953 1.089 2.587 1.634 3.949 1.226 0.136 0.136 0.272 0.136 0.545 0.136 0.272 0.136 0.545 0.136 0.817 0.136 1.089 0 2.043-0.545 2.587-1.498 0.681-1.089 0.545-2.451-0.136-3.404 0.817 0.545 1.77 0.817 2.587 0.817 1.226 0 2.451-0.409 3.404-1.362 0 0 0.136-0.136 0.136-0.136 1.906-0.409 3.813-0.817 5.447-0.953 2.86-0.409 5.447-1.634 7.489-3.677 2.451-2.451 3.813-5.855 3.677-9.396 0-3.677-1.634-6.945-4.221-9.26zM7.626 29.413c-0.272 0.409-0.681 0.545-1.089 0.409 0 0-0.136 0-0.136 0-0.272-0.136-0.545-0.136-0.817-0.136-0.136 0-0.409 0-0.545 0-0.681 0.136-1.498 0-2.043-0.545s-0.817-1.362-0.545-2.043c0.136-0.409 0.136-0.953-0.136-1.362 0 0 0-0.136 0-0.136-0.136-0.409 0-0.817 0.409-1.089s0.953-0.272 1.362 0.136l3.54 3.54c0.136 0.272 0.272 0.817 0 1.226zM26.826 20.289c-1.77 1.77-3.949 2.723-6.264 2.996-1.634 0.136-3.677 0.545-5.583 0.953-0.409 0.136-0.817 0.272-1.089 0.681-1.089 1.089-2.86 1.089-3.949 0l-2.996-2.996c-0.545-0.545-0.817-1.226-0.817-1.906s0.272-1.362 0.953-2.043c0.272-0.272 0.545-0.681 0.545-1.089 0.409-1.77 0.817-3.54 0.953-5.583 0.272-2.179 1.226-4.221 2.587-5.855 2.043-2.315 5.038-3.54 8.034-3.54 2.587 0 5.038 0.817 7.081 2.587 2.315 2.179 3.677 4.902 3.677 7.898v0c0.136 2.996-0.953 5.855-3.132 7.898z"></path>
</svg>
