<?xml version="1.0" encoding="utf-8"?>
<!-- Generated by IcoMoon.io -->
<!DOCTYPE svg PUBLIC "-//W3C//DTD SVG 1.1//EN" "http://www.w3.org/Graphics/SVG/1.1/DTD/svg11.dtd">
<svg version="1.1" xmlns="http://www.w3.org/2000/svg" xmlns:xlink="http://www.w3.org/1999/xlink" width="37" height="32" viewBox="0 0 37 32">
<path fill="#777582" d="M37.447 11.438c0 0 0 0 0 0 0-0.136 0-0.136 0-0.136 0-0.136 0-0.136 0-0.272-0.272-5.992-5.174-11.030-10.894-11.030-2.86 0-5.719 1.226-7.762 3.54-2.179-2.315-4.902-3.54-7.762-3.54-5.855 0-10.757 5.038-11.030 11.030 0 0.136 0 0.136 0 0.272 0 0 0 0 0 0.136 0 0 0 0 0 0.136s0 0.272 0 0.409c0.408 11.438 11.302 17.43 16.068 19.608 0.817 0.409 1.634 0.545 2.587 0.545 0.817 0 1.77-0.136 2.451-0.545 1.089-0.409 2.043-0.953 2.996-1.498 1.089 0.409 2.179 0.681 3.404 0.681 5.447 0 9.804-4.494 9.804-9.804 0-1.498-0.272-2.86-0.953-4.085 0.545-1.498 0.817-3.132 0.817-4.766 0.272-0.409 0.272-0.545 0.272-0.681zM27.506 28.596c-4.357 0-7.762-3.54-7.762-7.762 0-4.357 3.54-7.762 7.762-7.762 4.357 0 7.762 3.54 7.762 7.762 0.136 4.221-3.404 7.762-7.762 7.762zM27.506 10.894c-5.447 0-9.804 4.494-9.804 9.804 0 3.404 1.634 6.264 4.221 8.034-0.545 0.272-1.089 0.545-1.634 0.817-1.089 0.409-2.315 0.409-3.404 0-4.357-1.906-14.434-7.489-14.843-17.702 0-0.136 0-0.136 0-0.272 0 0 0 0 0-0.136 0 0 0-0.136 0-0.136 0.136-5.038 4.221-9.26 8.851-9.26 2.587 0 5.174 1.362 6.945 3.677 0.409 0.545 1.226 0.545 1.634 0 1.77-2.315 4.221-3.677 6.945-3.677 4.766 0 8.851 4.221 8.851 9.26 0 0 0 0.136 0 0.136s0 0.136 0 0.136 0 0.136 0 0.272c0 0.817-0.136 1.634-0.272 2.451-1.77-2.043-4.494-3.404-7.489-3.404z"></path>
<path fill="#777582" d="M31.864 19.745h-3.268v-3.268c0-0.545-0.409-1.089-1.089-1.089s-1.089 0.409-1.089 1.089v3.268h-3.268c-0.545 0-1.089 0.409-1.089 1.089s0.409 1.089 1.089 1.089h3.268v3.268c0 0.545 0.409 1.089 1.089 1.089s1.089-0.409 1.089-1.089v-3.404h3.268c0.545 0 1.089-0.409 1.089-1.089s-0.545-0.953-1.089-0.953z"></path>
</svg>
