<?xml version="1.0" encoding="utf-8"?>
<!-- Generator: Adobe Illustrator 21.0.2, SVG Export Plug-In . SVG Version: 6.00 Build 0)  -->
<svg version="1.1" id="Ebene_1" xmlns="http://www.w3.org/2000/svg" xmlns:xlink="http://www.w3.org/1999/xlink" x="0px" y="0px"
	 viewBox="0 0 24 24" style="enable-background:new 0 0 24 24;" xml:space="preserve">
<style type="text/css">
	.st0{fill:#777582;}
</style>
<g>
	<path class="st0" d="M23.4,9.3C23.4,9.2,23.4,9.2,23.4,9.3c0-0.1,0-0.1,0-0.1c0,0,0-0.1,0-0.1c-0.1-3.7-3.2-6.8-6.8-6.8
		c-1.7,0-3.4,0.7-4.7,2.1c-1.3-1.3-2.9-2.1-4.7-2.1C3.8,2.2,0.7,5.3,0.6,9c0,0,0,0.1,0,0.1c0,0,0,0,0,0.1c0,0,0,0,0,0
		c0,0.1,0,0.2,0,0.3c0.2,7,6.9,10.7,9.8,11.9c0.5,0.2,1,0.3,1.6,0.3c0.5,0,1.1-0.1,1.6-0.3c0.6-0.3,1.2-0.6,1.8-0.9
		c0.6,0.2,1.3,0.4,2.1,0.4c3.4,0,6.1-2.7,6.1-6.1c0-0.9-0.2-1.7-0.5-2.5c0.3-0.9,0.5-1.9,0.5-2.9C23.4,9.4,23.4,9.4,23.4,9.3z
		 M17.3,19.5c-2.5,0-4.6-2.1-4.6-4.6c0-2.5,2.1-4.6,4.6-4.6c2.5,0,4.6,2.1,4.6,4.6C21.9,17.4,19.9,19.5,17.3,19.5z M17.3,8.8
		c-3.4,0-6.1,2.7-6.1,6.1c0,2,1,3.8,2.4,4.9c-0.3,0.1-0.5,0.3-0.8,0.4c-0.6,0.3-1.3,0.3-1.9,0c-2.6-1.2-8.7-4.5-8.9-10.6
		c0-0.1,0-0.1,0-0.2c0,0,0-0.1,0-0.1c0.1-3,2.5-5.5,5.3-5.5c1.6,0,3,0.8,4.1,2.2c0.3,0.4,0.9,0.4,1.2,0c1-1.4,2.5-2.2,4.1-2.2
		c2.8,0,5.2,2.5,5.3,5.5c0,0,0,0.1,0,0.1c0,0,0,0,0,0c0,0.1,0,0.1,0,0.2c0,0.4-0.1,0.8-0.1,1.2C20.7,9.5,19.1,8.8,17.3,8.8z"/>
	<path class="st0" d="M19.9,14.1h-1.8v-1.8c0-0.4-0.3-0.8-0.8-0.8s-0.8,0.3-0.8,0.8v1.8h-1.8c-0.4,0-0.8,0.3-0.8,0.8
		s0.3,0.8,0.8,0.8h1.8v1.8c0,0.4,0.3,0.8,0.8,0.8s0.8-0.3,0.8-0.8v-1.8h1.8c0.4,0,0.8-0.3,0.8-0.8S20.3,14.1,19.9,14.1z"/>
</g>
</svg>
