<?xml version="1.0" encoding="utf-8"?>
<!-- Generated by IcoMoon.io -->
<!DOCTYPE svg PUBLIC "-//W3C//DTD SVG 1.1//EN" "http://www.w3.org/Graphics/SVG/1.1/DTD/svg11.dtd">
<svg version="1.1" xmlns="http://www.w3.org/2000/svg" xmlns:xlink="http://www.w3.org/1999/xlink" width="32" height="32" viewBox="0 0 32 32">
<path fill="#777582" d="M15.251 18.655c-0.409 0.409-0.409 1.089 0 1.498 0.681 0.681 0.817 1.634 0.409 2.043l-7.489 7.489c-0.409 0.409-1.362 0.272-2.043-0.409l-3.404-3.404c-0.409-0.409-0.681-0.953-0.681-1.362 0-0.136 0-0.409 0.272-0.681l7.489-7.489c0.409-0.409 1.362-0.272 2.043 0.409 0.409 0.409 1.089 0.409 1.498 0s0.409-1.089 0-1.498c-1.498-1.498-3.677-1.634-4.902-0.409l-7.626 7.626c-0.545 0.545-0.817 1.226-0.817 2.043 0 0.953 0.408 2.043 1.226 2.86l3.404 3.404c0.817 0.817 1.906 1.226 2.86 1.226 0.817 0 1.498-0.272 2.043-0.817l7.626-7.626c1.226-1.226 1.089-3.404-0.409-4.902-0.409-0.409-1.089-0.409-1.498 0z"></path>
<path fill="#777582" d="M30.774 4.63l-3.404-3.404c-1.498-1.498-3.677-1.634-4.902-0.408l-7.626 7.626c-1.226 1.226-1.089 3.404 0.409 4.902 0.409 0.409 1.089 0.409 1.498 0s0.409-1.089 0-1.498c-0.681-0.681-0.817-1.634-0.409-2.043l7.626-7.626c0.409-0.409 1.362-0.272 2.043 0.409l3.404 3.404c0.545 0.681 0.681 1.634 0.272 2.179l-7.626 7.626c-0.409 0.408-1.362 0.272-2.043-0.409-0.409-0.409-1.089-0.409-1.498 0s-0.409 1.089 0 1.498c0.817 0.817 1.906 1.226 2.86 1.226 0.817 0 1.498-0.272 2.043-0.817l7.762-7.762c1.226-1.226 1.089-3.404-0.409-4.902z"></path>
<path fill="#777582" d="M8.306 23.694c0.136 0.136 0.409 0.272 0.681 0.272s0.545-0.136 0.681-0.272l14.026-14.026c0.409-0.409 0.409-1.089 0-1.498s-1.089-0.409-1.498 0l-13.889 14.162c-0.409 0.409-0.409 0.953 0 1.362z"></path>
</svg>
