<?xml version="1.0" encoding="utf-8"?>
<!-- Generator: Adobe Illustrator 21.0.2, SVG Export Plug-In . SVG Version: 6.00 Build 0)  -->
<svg version="1.1" id="Ebene_1" xmlns="http://www.w3.org/2000/svg" xmlns:xlink="http://www.w3.org/1999/xlink" x="0px" y="0px"
	 viewBox="0 0 24 24" style="enable-background:new 0 0 24 24;" xml:space="preserve">
<style type="text/css">
	.st0{fill:#777582;}
</style>
<g>
	<g>
		<path class="st0" d="M13.4,23c-1.7,0-3.2,0-4.9,0c0-4.9,0-9.8,0-14.8c1.6,0,3.2,0,4.9,0c0,0.6,0,1.3,0,2c0.3-0.3,0.5-0.6,0.7-0.8
			c1.5-1.6,3.4-1.9,5.4-1.4c2,0.5,3.2,1.8,3.7,3.8c0.2,0.8,0.3,1.7,0.3,2.6c0,2.7,0,5.4,0,8.1c0,0.1,0,0.3,0,0.5c-1.6,0-3.2,0-4.9,0
			c0-0.2,0-0.4,0-0.5c0-2.5,0-4.9,0-7.4c0-0.6-0.1-1.2-0.2-1.7c-0.5-1.6-2.3-2.2-3.6-1.3c-0.8,0.6-1.3,1.3-1.3,2.4
			c0,2.6,0,5.2,0,7.9C13.4,22.6,13.4,22.7,13.4,23z"/>
	</g>
	<g>
		<path class="st0" d="M5.7,23c-1.6,0-3.2,0-4.9,0c0-4.9,0-9.8,0-14.8c1.6,0,3.2,0,4.9,0C5.7,13.1,5.7,18.1,5.7,23z"/>
	</g>
	<g>
		<path class="st0" d="M3.2,6.1C1.3,6.1,0,4.5,0.6,2.8C0.8,2.4,1,2,1.3,1.8C2.8,0.3,5.5,1,5.9,3C6.4,4.7,5.1,6.1,3.2,6.1z"/>
	</g>
</g>
</svg>
