<?xml version="1.0" encoding="utf-8"?>
<!-- Generator: Adobe Illustrator 21.0.2, SVG Export Plug-In . SVG Version: 6.00 Build 0)  -->
<svg version="1.1" id="Ebene_1" xmlns="http://www.w3.org/2000/svg" xmlns:xlink="http://www.w3.org/1999/xlink" x="0px" y="0px"
	 viewBox="0 0 24 24" style="enable-background:new 0 0 24 24;" xml:space="preserve">
<style type="text/css">
	.st0{fill:#777582;}
</style>
<g id="XMLID_1129_">
	<g>
		<path class="st0" d="M5.7,23.8c-0.1,0-0.2,0-0.3,0c-0.7-0.1-1.3-0.4-1.8-0.9l-2.5-2.5c-1.1-1.1-1.2-2.7-0.3-3.6l5.6-5.6
			c0.9-0.9,2.5-0.8,3.6,0.3c0.3,0.3,0.3,0.8,0,1.1s-0.8,0.3-1.1,0c-0.5-0.5-1.2-0.6-1.5-0.3l-5.6,5.6c-0.3,0.3-0.2,1,0.3,1.5
			l2.5,2.5C5,22,5.3,22.2,5.6,22.2c0.1,0,0.4,0,0.6-0.2l5.6-5.6c0.1-0.1,0.2-0.3,0.2-0.5c0-0.3-0.2-0.7-0.5-1
			c-0.3-0.3-0.3-0.8,0-1.1c0.3-0.3,0.8-0.3,1.1,0c0.6,0.6,0.9,1.3,0.9,2.1c0,0.6-0.2,1.1-0.6,1.5l-5.6,5.6
			C6.9,23.5,6.3,23.8,5.7,23.8z"/>
	</g>
	<g>
		<path class="st0" d="M16,13.5L16,13.5c-0.7,0-1.5-0.3-2.1-0.9c-0.3-0.3-0.3-0.8,0-1.1c0.3-0.3,0.8-0.3,1.1,0
			c0.3,0.3,0.7,0.5,1,0.5l0,0c0.1,0,0.3,0,0.5-0.2l5.6-5.6c0.2-0.2,0.2-0.5,0.2-0.6c0-0.3-0.2-0.6-0.5-0.9l-2.5-2.5
			c-0.5-0.5-1.2-0.6-1.5-0.3l-5.6,5.6c-0.3,0.3-0.2,1,0.3,1.5c0.3,0.3,0.3,0.8,0,1.1s-0.8,0.3-1.1,0c-1.1-1.1-1.2-2.7-0.3-3.6
			l5.6-5.6c0.9-0.9,2.5-0.8,3.6,0.3l2.5,2.5c0.5,0.5,0.8,1.1,0.9,1.8c0.1,0.7-0.1,1.4-0.6,1.8l-5.6,5.6C17.2,13.2,16.6,13.5,16,13.5
			z"/>
	</g>
	<g>
		<path class="st0" d="M6.9,17.9c-0.2,0-0.4-0.1-0.5-0.2c-0.3-0.3-0.3-0.8,0-1.1L16.6,6.3c0.3-0.3,0.8-0.3,1.1,0s0.3,0.8,0,1.1
			L7.4,17.7C7.2,17.8,7,17.9,6.9,17.9z"/>
	</g>
</g>
</svg>
