<?xml version="1.0" encoding="utf-8"?>
<!-- Generated by IcoMoon.io -->
<!DOCTYPE svg PUBLIC "-//W3C//DTD SVG 1.1//EN" "http://www.w3.org/Graphics/SVG/1.1/DTD/svg11.dtd">
<svg version="1.1" xmlns="http://www.w3.org/2000/svg" xmlns:xlink="http://www.w3.org/1999/xlink" width="39" height="32" viewBox="0 0 39 32">
<path fill="#777582" d="M37.251 9.846h-27.897c-0.656 0-1.149 0.492-1.149 1.313s0.492 1.313 1.313 1.313h27.897c0.656 0 1.313-0.492 1.313-1.313s-0.656-1.313-1.477-1.313z"></path>
<path fill="#777582" d="M2.954 9.846h-1.641c-0.821 0-1.313 0.492-1.313 1.313s0.492 1.313 1.313 1.313h1.641c0.656 0 1.313-0.492 1.313-1.313s-0.656-1.313-1.313-1.313z"></path>
<path fill="#777582" d="M37.251 29.538h-27.897c-0.656 0-1.149 0.492-1.149 1.313s0.492 1.313 1.313 1.313h27.897c0.656 0 1.313-0.492 1.313-1.313s-0.656-1.313-1.477-1.313z"></path>
<path fill="#777582" d="M2.954 29.538h-1.641c-0.821 0-1.313 0.492-1.313 1.313s0.492 1.313 1.313 1.313h1.641c0.656 0 1.313-0.492 1.313-1.313s-0.656-1.313-1.313-1.313z"></path>
<path fill="#777582" d="M37.251 19.692h-27.897c-0.656 0-1.149 0.492-1.149 1.313s0.492 1.313 1.313 1.313h27.897c0.656 0 1.313-0.492 1.313-1.313s-0.656-1.313-1.477-1.313z"></path>
<path fill="#777582" d="M2.954 19.692h-1.641c-0.821 0-1.313 0.492-1.313 1.313s0.492 1.313 1.313 1.313h1.641c0.656 0 1.313-0.492 1.313-1.313s-0.656-1.313-1.313-1.313z"></path>
<path fill="#777582" d="M9.518 2.462h27.897c0.656 0 1.313-0.492 1.313-1.313s-0.656-1.149-1.477-1.149h-27.897c-0.656 0-1.149 0.492-1.149 1.313s0.492 1.149 1.313 1.149z"></path>
<path fill="#777582" d="M2.954 0h-1.641c-0.821 0-1.313 0.492-1.313 1.313s0.492 1.313 1.313 1.313h1.641c0.656 0 1.313-0.492 1.313-1.313s-0.656-1.313-1.313-1.313z"></path>
</svg>
