<?xml version="1.0" encoding="utf-8"?>
<!-- Generator: Adobe Illustrator 21.0.2, SVG Export Plug-In . SVG Version: 6.00 Build 0)  -->
<svg version="1.1" id="Ebene_1" xmlns="http://www.w3.org/2000/svg" xmlns:xlink="http://www.w3.org/1999/xlink" x="0px" y="0px"
	 viewBox="0 0 24 24" style="enable-background:new 0 0 24 24;" xml:space="preserve">
<style type="text/css">
	.st0{fill:#777582;}
</style>
<g>
	<g>
		<g>
			<path class="st0" d="M23,9.8H6C5.6,9.8,5.3,9.4,5.3,9S5.6,8.3,6,8.3h17c0.4,0,0.8,0.3,0.8,0.8S23.4,9.8,23,9.8z"/>
		</g>
		<g>
			<path class="st0" d="M2,9.8H1C0.6,9.8,0.3,9.4,0.3,9S0.6,8.3,1,8.3h1c0.4,0,0.8,0.3,0.8,0.8S2.4,9.8,2,9.8z"/>
		</g>
	</g>
	<g>
		<g>
			<path class="st0" d="M23,21.8H6c-0.4,0-0.8-0.3-0.8-0.8s0.3-0.8,0.8-0.8h17c0.4,0,0.8,0.3,0.8,0.8S23.4,21.8,23,21.8z"/>
		</g>
		<g>
			<path class="st0" d="M2,21.8H1c-0.4,0-0.8-0.3-0.8-0.8s0.3-0.8,0.8-0.8h1c0.4,0,0.8,0.3,0.8,0.8S2.4,21.8,2,21.8z"/>
		</g>
	</g>
	<g>
		<g>
			<path class="st0" d="M23,15.8H6c-0.4,0-0.8-0.3-0.8-0.8s0.3-0.8,0.8-0.8h17c0.4,0,0.8,0.3,0.8,0.8S23.4,15.8,23,15.8z"/>
		</g>
		<g>
			<path class="st0" d="M2,15.8H1c-0.4,0-0.8-0.3-0.8-0.8s0.3-0.8,0.8-0.8h1c0.4,0,0.8,0.3,0.8,0.8S2.4,15.8,2,15.8z"/>
		</g>
	</g>
	<g>
		<g>
			<path class="st0" d="M23,3.8H6C5.6,3.8,5.3,3.4,5.3,3S5.6,2.3,6,2.3h17c0.4,0,0.8,0.3,0.8,0.8S23.4,3.8,23,3.8z"/>
		</g>
		<g>
			<path class="st0" d="M2,3.8H1C0.6,3.8,0.3,3.4,0.3,3S0.6,2.3,1,2.3h1c0.4,0,0.8,0.3,0.8,0.8S2.4,3.8,2,3.8z"/>
		</g>
	</g>
</g>
</svg>
