<?xml version="1.0" encoding="utf-8"?>
<!-- Generator: Adobe Illustrator 21.0.2, SVG Export Plug-In . SVG Version: 6.00 Build 0)  -->
<svg version="1.1" id="Ebene_1" xmlns="http://www.w3.org/2000/svg" xmlns:xlink="http://www.w3.org/1999/xlink" x="0px" y="0px"
	 viewBox="0 0 24 24" style="enable-background:new 0 0 24 24;" xml:space="preserve">
<style type="text/css">
	.st0{fill:#777582;}
</style>
<path class="st0" d="M19.1,9.8h-0.8V6.6c0-3.4-2.9-6.3-6.3-6.3C8.5,0.3,5.7,3,5.7,6.3c0,0,0,0,0,0c0,0,0,0,0,0v3.4H4.9
	c-1,0-1.8,0.8-1.8,1.8V22c0,1,0.8,1.8,1.8,1.8h14.3c1,0,1.8-0.8,1.8-1.8V11.6C20.9,10.6,20.1,9.8,19.1,9.8z M7.2,6.4
	C7.2,6.4,7.2,6.4,7.2,6.4c0-2.6,2.2-4.6,4.8-4.6c2.6,0,4.8,2.2,4.8,4.8v3.2H7.2L7.2,6.4C7.2,6.4,7.2,6.4,7.2,6.4z M19.4,22
	c0,0.1-0.1,0.3-0.3,0.3H4.9c-0.1,0-0.3-0.1-0.3-0.3V11.6c0-0.1,0.1-0.3,0.3-0.3h14.3c0.1,0,0.3,0.1,0.3,0.3V22z"/>
</svg>
