<?xml version="1.0" encoding="utf-8"?>
<!-- Generated by IcoMoon.io -->
<!DOCTYPE svg PUBLIC "-//W3C//DTD SVG 1.1//EN" "http://www.w3.org/Graphics/SVG/1.1/DTD/svg11.dtd">
<svg version="1.1" xmlns="http://www.w3.org/2000/svg" xmlns:xlink="http://www.w3.org/1999/xlink" width="24" height="32" viewBox="0 0 24 32">
<path fill="#777582" d="M21.787 13.072h-1.089v-4.494c0-4.63-3.949-8.579-8.579-8.579-4.766 0-8.579 3.677-8.579 8.306 0 0 0 0 0 0s0 0 0 0v4.63h-1.089c-1.362 0-2.451 1.089-2.451 2.315v14.162c0 1.362 1.089 2.451 2.451 2.451h19.336c1.362 0 2.451-1.089 2.451-2.451v-14.026c0-1.362-1.089-2.315-2.451-2.315zM5.583 8.306c0 0 0 0 0 0 0-3.54 2.996-6.264 6.536-6.264s6.536 2.996 6.536 6.536v4.357h-13.072v-4.63c0 0.136 0 0.136 0 0zM22.196 29.549c0 0.136-0.136 0.409-0.409 0.409h-19.336c-0.136 0-0.409-0.136-0.409-0.409v-14.162c0-0.136 0.136-0.272 0.409-0.272h19.336c0.136 0 0.409 0.136 0.409 0.272v14.162z"></path>
</svg>
