<?xml version="1.0" encoding="utf-8"?>
<!-- Generator: Adobe Illustrator 21.0.2, SVG Export Plug-In . SVG Version: 6.00 Build 0)  -->
<svg version="1.1" id="Ebene_1" xmlns="http://www.w3.org/2000/svg" xmlns:xlink="http://www.w3.org/1999/xlink" x="0px" y="0px"
	 viewBox="0 0 31 24" style="enable-background:new 0 0 31 24;" xml:space="preserve">
<style type="text/css">
	.st0{fill:#777582;}
</style>
<g>
	<path class="st0" d="M22.4,15.2c-0.4-0.1-0.8,0-1,0.4c-1.5,3.9-5.4,6.6-9.5,6.6C6.3,22.3,1.8,17.7,1.8,12c0-5.7,4.5-10.3,10.1-10.3
		c4.1,0,8,2.7,9.5,6.6c0.1,0.4,0.6,0.6,1,0.4c0.4-0.1,0.6-0.6,0.4-1c-1.7-4.5-6.2-7.6-10.9-7.6C5.5,0.3,0.3,5.5,0.3,12
		c0,6.5,5.2,11.8,11.6,11.8c4.7,0,9.2-3.1,10.9-7.6C23,15.8,22.8,15.3,22.4,15.2z"/>
	<path class="st0" d="M30.6,12.3c0.1-0.2,0.1-0.4,0-0.6c0,0,0-0.1-0.1-0.1c0,0,0-0.1-0.1-0.1c0,0,0,0,0,0l-4.4-4.4
		c-0.3-0.3-0.8-0.3-1.1,0c-0.3,0.3-0.3,0.8,0,1.1l3.1,3.1H14.3c-0.4,0-0.8,0.3-0.8,0.8s0.3,0.8,0.8,0.8h13.8L25,15.8
		c-0.3,0.3-0.3,0.8,0,1.1c0.1,0.1,0.3,0.2,0.5,0.2s0.4-0.1,0.5-0.2l4.4-4.4c0,0,0,0,0-0.1C30.6,12.4,30.6,12.4,30.6,12.3z"/>
</g>
</svg>
