<?xml version="1.0" encoding="utf-8"?>
<!-- Generator: Adobe Illustrator 21.0.2, SVG Export Plug-In . SVG Version: 6.00 Build 0)  -->
<svg version="1.1" id="Ebene_1" xmlns="http://www.w3.org/2000/svg" xmlns:xlink="http://www.w3.org/1999/xlink" x="0px" y="0px"
	 viewBox="0 0 28 24" style="enable-background:new 0 0 28 24;" xml:space="preserve">
<style type="text/css">
	.st0{fill:#777582;}
</style>
<g>
	<path class="st0" d="M16.2,0.3C11.5,0.3,7,3.4,5.3,7.8c-0.1,0.4,0,0.8,0.4,1c0.4,0.1,0.8,0,1-0.4c1.5-3.9,5.4-6.6,9.5-6.6
		c5.6,0,10.1,4.6,10.1,10.3c0,5.7-4.5,10.3-10.1,10.3c-4.1,0-8-2.7-9.5-6.6c-0.1-0.4-0.6-0.6-1-0.4c-0.4,0.1-0.6,0.6-0.4,1
		c1.7,4.5,6.2,7.6,10.9,7.6c6.4,0,11.6-5.3,11.6-11.8C27.8,5.5,22.6,0.3,16.2,0.3z"/>
	<path class="st0" d="M11.6,15.8c-0.3,0.3-0.3,0.8,0,1.1c0.1,0.1,0.3,0.2,0.5,0.2s0.4-0.1,0.5-0.2l4.4-4.4c0,0,0,0,0,0
		c0,0,0.1-0.1,0.1-0.1c0,0,0.1-0.1,0.1-0.1c0.1-0.2,0.1-0.4,0-0.6c0-0.1-0.1-0.1-0.1-0.2c0,0,0,0,0-0.1l-4.4-4.4
		c-0.3-0.3-0.8-0.3-1.1,0s-0.3,0.8,0,1.1l3.1,3.1H0.9c-0.4,0-0.8,0.3-0.8,0.8s0.3,0.8,0.8,0.8h13.8L11.6,15.8z"/>
</g>
</svg>
