<?xml version="1.0" encoding="utf-8"?>
<!-- Generated by IcoMoon.io -->
<!DOCTYPE svg PUBLIC "-//W3C//DTD SVG 1.1//EN" "http://www.w3.org/Graphics/SVG/1.1/DTD/svg11.dtd">
<svg version="1.1" xmlns="http://www.w3.org/2000/svg" xmlns:xlink="http://www.w3.org/1999/xlink" width="38" height="32" viewBox="0 0 38 32">
<path fill="#777582" d="M21.923 0c-6.536 0-12.664 4.221-14.979 10.349-0.136 0.545 0.136 1.089 0.681 1.362 0.545 0.136 1.089 0 1.362-0.545 2.043-5.311 7.353-8.987 12.936-8.987 7.626 0 13.753 6.264 13.753 13.889 0 7.762-6.128 14.026-13.753 14.026-5.583 0-10.894-3.677-12.936-8.987-0.272-0.681-0.817-0.953-1.362-0.681-0.545 0.136-0.817 0.817-0.545 1.362 2.315 6.128 8.443 10.349 14.843 10.349 8.715 0 15.796-7.217 15.796-16.068s-7.081-16.068-15.796-16.068z"></path>
<path fill="#777582" d="M15.66 21.243c-0.409 0.409-0.409 1.089 0 1.498 0.136 0.136 0.409 0.272 0.681 0.272s0.545-0.136 0.681-0.272l5.992-5.992c0.136-0.136 0.136-0.272 0.272-0.272 0.136-0.272 0.136-0.545 0-0.817 0-0.136-0.136-0.272-0.272-0.272l-5.992-5.992c-0.409-0.409-1.089-0.409-1.498 0s-0.409 1.089 0 1.498l4.221 4.221h-18.655c-0.681-0.136-1.089 0.272-1.089 0.817s0.408 1.089 1.089 1.089h18.791l-4.221 4.221z"></path>
</svg>
