<svg xmlns="http://www.w3.org/2000/svg" viewBox="0 0 80 80"><defs><style>.cls-1{fill:#777582;}</style></defs><title>logo</title><g id="Ebene_2" data-name="Ebene 2"><g id="Ebene_1-2" data-name="Ebene 1"><g id="Ebene_2-2" data-name="Ebene 2"><g id="Ebene_1-2-2" data-name="Ebene 1-2"><path class="cls-1" d="M5.94,6.67a.73.73,0,0,1-.52-.22L.22,1.26a.74.74,0,0,1,1-1l5.2,5.2a.74.74,0,0,1-.52,1.26Z"/><path class="cls-1" d="M64.33,65.07a.73.73,0,0,1-.52-.22l-9.73-9.73a.74.74,0,0,1,1-1l9.73,9.73a.74.74,0,0,1-.52,1.26ZM44.87,45.61a.73.73,0,0,1-.52-.22l-9.73-9.73a.74.74,0,0,1,1-1l9.73,9.73a.74.74,0,0,1-.52,1.26ZM25.41,26.14a.73.73,0,0,1-.52-.22L15.16,16.2a.74.74,0,1,1,1-1l9.73,9.73a.74.74,0,0,1-.52,1.26Z"/><path class="cls-1" d="M79.26,80a.73.73,0,0,1-.52-.22l-5.2-5.2a.74.74,0,1,1,1-1l5.2,5.2A.74.74,0,0,1,79.26,80Z"/><path class="cls-1" d="M.74,80a.74.74,0,0,1-.52-1.26l5.2-5.2a.74.74,0,1,1,1,1l-5.2,5.2A.73.73,0,0,1,.74,80Z"/><path class="cls-1" d="M15.68,65.06a.74.74,0,0,1-.52-1.26l9.73-9.73a.74.74,0,0,1,1,1L16.2,64.84A.73.73,0,0,1,15.68,65.06ZM35.14,45.6a.74.74,0,0,1-.52-1.26l9.73-9.73a.74.74,0,0,1,1,1l-9.73,9.73A.73.73,0,0,1,35.14,45.6ZM54.6,26.14a.74.74,0,0,1-.52-1.26l9.73-9.73a.74.74,0,0,1,1,1l-9.73,9.73A.73.73,0,0,1,54.6,26.14Z"/><path class="cls-1" d="M74.06,6.67a.74.74,0,0,1-.52-1.26l5.2-5.2a.74.74,0,0,1,1,1l-5.2,5.2A.73.73,0,0,1,74.06,6.67Z"/><path class="cls-1" d="M40,80A40,40,0,1,1,80,40,40,40,0,0,1,40,80ZM40,1.47A38.53,38.53,0,1,0,78.53,40,38.57,38.57,0,0,0,40,1.47Z"/></g></g></g></g></svg>