<?xml version="1.0" encoding="utf-8"?>
<!-- Generator: Adobe Illustrator 21.0.2, SVG Export Plug-In . SVG Version: 6.00 Build 0)  -->
<svg version="1.1" id="Ebene_1" xmlns="http://www.w3.org/2000/svg" xmlns:xlink="http://www.w3.org/1999/xlink" x="0px" y="0px"
	 viewBox="0 0 24 24" style="enable-background:new 0 0 24 24;" xml:space="preserve">
<style type="text/css">
	.st0{fill:#777582;}
</style>
<path class="st0" d="M22,3.5H2c-1,0-1.8,0.8-1.8,1.8v13.4c0,1,0.8,1.8,1.8,1.8h20c1,0,1.8-0.8,1.8-1.8V5.3C23.8,4.3,23,3.5,22,3.5z
	 M21.3,5l-9,6.3c-0.2,0.1-0.4,0.1-0.6,0L2.7,5H21.3z M22,19H2c-0.1,0-0.3-0.1-0.3-0.3V6.2l9.1,6.4c0.3,0.2,0.7,0.4,1.1,0.4
	s0.8-0.1,1.1-0.4l9.1-6.4v12.5C22.3,18.9,22.1,19,22,19z"/>
</svg>
