<?xml version="1.0" encoding="utf-8"?>
<!-- Generated by IcoMoon.io -->
<!DOCTYPE svg PUBLIC "-//W3C//DTD SVG 1.1//EN" "http://www.w3.org/Graphics/SVG/1.1/DTD/svg11.dtd">
<svg version="1.1" xmlns="http://www.w3.org/2000/svg" xmlns:xlink="http://www.w3.org/1999/xlink" width="45" height="32" viewBox="0 0 45 32">
<path fill="#777582" d="M41.278 0h-37.87c-1.893 0-3.408 1.515-3.408 3.408v25.373c0 1.893 1.515 3.408 3.408 3.408h37.87c1.894 0 3.408-1.515 3.408-3.408v-25.373c-0.189-1.893-1.704-3.408-3.408-3.408zM39.953 2.84l-17.041 11.929c-0.379 0.189-0.757 0.189-1.136 0l-17.041-11.929h35.219zM41.278 29.16h-37.87c-0.189 0-0.568-0.189-0.568-0.568v-23.479l17.231 12.118c0.568 0.379 1.325 0.757 2.083 0.757s1.515-0.189 2.083-0.757l17.42-12.118v23.669c0 0.189-0.189 0.379-0.379 0.379z"></path>
</svg>
