<?xml version="1.0" encoding="utf-8"?>
<!-- Generator: Adobe Illustrator 21.0.2, SVG Export Plug-In . SVG Version: 6.00 Build 0)  -->
<svg version="1.1" id="Ebene_1" xmlns="http://www.w3.org/2000/svg" xmlns:xlink="http://www.w3.org/1999/xlink" x="0px" y="0px"
	 viewBox="0 0 24 24" style="enable-background:new 0 0 24 24;" xml:space="preserve">
<style type="text/css">
	.st0{fill:#777582;}
</style>
<g>
	<path class="st0" d="M12,0.3c-5.3,0-9.7,4.3-9.7,9.7c0,5.1,8,13.8,9.7,13.8s9.7-8.7,9.7-13.8C21.7,4.6,17.3,0.3,12,0.3z M12,22.2
		c-1.5-0.8-8.2-7.9-8.2-12.3c0-4.5,3.7-8.2,8.2-8.2c4.5,0,8.2,3.7,8.2,8.2C20.2,14.2,13.5,21.4,12,22.2z"/>
	<path class="st0" d="M12,5.1C9.7,5.1,7.8,7,7.8,9.3s1.9,4.2,4.2,4.2c2.3,0,4.2-1.9,4.2-4.2S14.3,5.1,12,5.1z M12,12
		c-1.5,0-2.7-1.2-2.7-2.7s1.2-2.7,2.7-2.7c1.5,0,2.7,1.2,2.7,2.7S13.5,12,12,12z"/>
</g>
</svg>
