<?xml version="1.0" encoding="utf-8"?>
<!-- Generator: Adobe Illustrator 21.0.2, SVG Export Plug-In . SVG Version: 6.00 Build 0)  -->
<svg version="1.1" id="Ebene_1" xmlns="http://www.w3.org/2000/svg" xmlns:xlink="http://www.w3.org/1999/xlink" x="0px" y="0px"
	 viewBox="0 0 24 24" style="enable-background:new 0 0 24 24;" xml:space="preserve">
<style type="text/css">
	.st0{fill:#777582;}
</style>
<g>
	<path class="st0" d="M20.3,3.7c-2.2-2.2-5.2-3.4-8.3-3.4c-3.1,0-6.1,1.2-8.3,3.4c-4.6,4.6-4.6,12,0,16.6c2.2,2.2,5.2,3.4,8.3,3.4
		c3.1,0,6.1-1.2,8.3-3.4c2.2-2.2,3.4-5.2,3.4-8.3S22.5,5.9,20.3,3.7z M19.2,19.2c-1.9,1.9-4.5,3-7.2,3s-5.3-1.1-7.2-3
		c-4-4-4-10.5,0-14.5c1.9-1.9,4.5-3,7.2-3s5.3,1.1,7.2,3s3,4.5,3,7.2S21.2,17.3,19.2,19.2z"/>
	<path class="st0" d="M16.5,11.1H7.3c-0.5,0-1,0.4-1,1s0.4,1,1,1h9.2c0.5,0,1-0.4,1-1S17,11.1,16.5,11.1z"/>
</g>
</svg>
