<?xml version="1.0" encoding="utf-8"?>
<!-- Generator: Adobe Illustrator 21.0.2, SVG Export Plug-In . SVG Version: 6.00 Build 0)  -->
<svg version="1.1" id="Ebene_1" xmlns="http://www.w3.org/2000/svg" xmlns:xlink="http://www.w3.org/1999/xlink" x="0px" y="0px"
	 viewBox="0 0 24 24" style="enable-background:new 0 0 24 24;" xml:space="preserve">
<style type="text/css">
	.st0{fill:#777582;}
</style>
<g>
	<path class="st0" d="M10.9,0.3H3C1.5,0.3,0.3,1.5,0.3,3v18c0,1.5,1.2,2.8,2.8,2.8h7.9c1.5,0,2.8-1.2,2.8-2.8V3
		C13.7,1.5,12.4,0.3,10.9,0.3z M12.2,21c0,0.7-0.6,1.3-1.3,1.3H3c-0.7,0-1.3-0.6-1.3-1.3V3c0-0.7,0.6-1.3,1.3-1.3h7.9
		c0.7,0,1.3,0.6,1.3,1.3V21z"/>
	<path class="st0" d="M22.1,10.3h-6.7c-0.4,0-0.8,0.3-0.8,0.8s0.3,0.8,0.8,0.8h6.7c0.1,0,0.2,0.1,0.2,0.2v10.1
		c0,0.1-0.1,0.2-0.2,0.2h-6.7c-0.4,0-0.8,0.3-0.8,0.8s0.3,0.8,0.8,0.8h6.7c0.9,0,1.7-0.7,1.7-1.7V12C23.8,11.1,23,10.3,22.1,10.3z"
		/>
	<path class="st0" d="M9.8,9.3L6,13.1l-1.8-1.8c-0.3-0.3-0.8-0.3-1.1,0s-0.3,0.8,0,1.1l2.3,2.3c0.1,0.1,0.3,0.2,0.5,0.2
		s0.4-0.1,0.5-0.2l4.3-4.3c0.3-0.3,0.3-0.8,0-1.1S10,9,9.8,9.3z"/>
</g>
</svg>
