<?xml version="1.0" encoding="utf-8"?>
<!-- Generated by IcoMoon.io -->
<!DOCTYPE svg PUBLIC "-//W3C//DTD SVG 1.1//EN" "http://www.w3.org/Graphics/SVG/1.1/DTD/svg11.dtd">
<svg version="1.1" xmlns="http://www.w3.org/2000/svg" xmlns:xlink="http://www.w3.org/1999/xlink" width="32" height="32" viewBox="0 0 32 32">
<path fill="#777582" d="M14.57 0h-10.757c-2.179 0-3.813 1.634-3.813 3.813v24.511c0 2.043 1.634 3.813 3.813 3.813h10.757c2.043 0 3.813-1.634 3.813-3.813v-24.511c-0.136-2.179-1.77-3.813-3.813-3.813zM16.204 28.323c0 0.953-0.817 1.77-1.77 1.77h-10.621c-0.953 0-1.77-0.817-1.77-1.77v-24.511c0-0.953 0.817-1.77 1.77-1.77h10.757c0.953 0 1.77 0.817 1.77 1.77v24.511z"></path>
<path fill="#777582" d="M29.685 13.753h-9.123c-0.545 0-1.089 0.409-1.089 1.089s0.409 1.089 1.089 1.089h9.123c0.136 0 0.272 0.136 0.272 0.272v13.753c0 0.136-0.136 0.272-0.272 0.272h-9.123c-0.545 0-1.089 0.409-1.089 1.089s0.409 1.089 1.089 1.089h9.123c1.226 0 2.315-0.953 2.315-2.315v-14.026c0-1.362-0.953-2.315-2.315-2.315z"></path>
<path fill="#777582" d="M12.936 12.392l-5.174 5.174-2.451-2.451c-0.409-0.409-1.089-0.409-1.498 0s-0.409 1.089 0 1.498l3.132 3.132c0.136 0.136 0.409 0.272 0.681 0.272s0.545-0.136 0.681-0.272l5.855-5.855c0.409-0.409 0.409-1.089 0-1.498s-0.817-0.409-1.226 0z"></path>
</svg>
