<?xml version="1.0" encoding="utf-8"?>
<!-- Generator: Adobe Illustrator 21.0.2, SVG Export Plug-In . SVG Version: 6.00 Build 0)  -->
<svg version="1.1" id="Ebene_1" xmlns="http://www.w3.org/2000/svg" xmlns:xlink="http://www.w3.org/1999/xlink" x="0px" y="0px"
	 viewBox="0 0 24 24" style="enable-background:new 0 0 24 24;" xml:space="preserve">
<style type="text/css">
	.st0{fill:#777582;}
</style>
<g>
	<circle class="st0" cx="12" cy="18.6" r="0.9"/>
	<path class="st0" d="M16.4,1.3H7.6c-1,0-1.8,0.8-1.8,1.8V21c0,1,0.8,1.8,1.8,1.8h8.9c1,0,1.8-0.8,1.8-1.8V3
		C18.2,2.1,17.4,1.3,16.4,1.3z M16.7,21c0,0.1-0.1,0.3-0.3,0.3H7.6c-0.1,0-0.3-0.1-0.3-0.3V3c0-0.1,0.1-0.3,0.3-0.3h8.9
		c0.1,0,0.3,0.1,0.3,0.3V21z"/>
</g>
</svg>
