<?xml version="1.0" encoding="utf-8"?>
<!-- Generator: Adobe Illustrator 21.0.2, SVG Export Plug-In . SVG Version: 6.00 Build 0)  -->
<svg version="1.1" id="Ebene_1" xmlns="http://www.w3.org/2000/svg" xmlns:xlink="http://www.w3.org/1999/xlink" x="0px" y="0px"
	 viewBox="0 0 24 24" style="enable-background:new 0 0 24 24;" xml:space="preserve">
<style type="text/css">
	.st0{fill:#777582;}
</style>
<g>
	<circle class="st0" cx="12" cy="19.2" r="1"/>
	<path class="st0" d="M17,0.3H7C6,0.3,5.3,1,5.3,2v20c0,1,0.8,1.8,1.8,1.8h10c1,0,1.8-0.8,1.8-1.8V2C18.8,1,18,0.3,17,0.3z M17.3,22
		c0,0.1-0.1,0.3-0.3,0.3H7c-0.1,0-0.3-0.1-0.3-0.3V2c0-0.1,0.1-0.3,0.3-0.3h10c0.1,0,0.3,0.1,0.3,0.3V22z"/>
</g>
</svg>
