<svg xmlns="http://www.w3.org/2000/svg" viewBox="0 0 80 80"><defs><style>.cls-1{fill:#787581;}</style></defs><title>Molecules</title><g id="Ebene_2" data-name="Ebene 2"><g id="Ebene_1-2" data-name="Ebene 1"><g id="Ebene_2-2" data-name="Ebene 2"><g id="Ebene_1-2-2" data-name="Ebene 1-2"><path class="cls-1" d="M28.53,24.78A12.39,12.39,0,1,1,40.92,12.39,12.4,12.4,0,0,1,28.53,24.78Zm0-23.3A10.92,10.92,0,1,0,39.45,12.39,10.93,10.93,0,0,0,28.53,1.47Z"/><path class="cls-1" d="M9.13,80a9.13,9.13,0,1,1,9.13-9.13A9.14,9.14,0,0,1,9.13,80Zm0-16.78a7.66,7.66,0,1,0,7.66,7.66A7.66,7.66,0,0,0,9.13,63.22Z"/><path class="cls-1" d="M69.36,56.25A10.64,10.64,0,1,1,80,45.6,10.65,10.65,0,0,1,69.36,56.25Zm0-19.81a9.17,9.17,0,1,0,9.17,9.17A9.18,9.18,0,0,0,69.36,36.44Z"/><path class="cls-1" d="M19.46,67.28a.74.74,0,0,1-.29-1.41l38-15.94a.74.74,0,0,1,.57,1.36l-38,15.94A.73.73,0,0,1,19.46,67.28Z"/><path class="cls-1" d="M12.65,61a.73.73,0,0,1-.23,0A.74.74,0,0,1,12,60l10.5-31.65a.74.74,0,1,1,1.4.46L13.35,60.48A.74.74,0,0,1,12.65,61Z"/><path class="cls-1" d="M59.35,38.19a.73.73,0,0,1-.46-.17L41.38,23.79a.74.74,0,1,1,.93-1.14l17.5,14.24a.74.74,0,0,1-.46,1.31Z"/></g></g></g></g></svg>