<?xml version="1.0" encoding="utf-8"?>
<!-- Generator: Adobe Illustrator 21.0.2, SVG Export Plug-In . SVG Version: 6.00 Build 0)  -->
<svg version="1.1" id="Ebene_1" xmlns="http://www.w3.org/2000/svg" xmlns:xlink="http://www.w3.org/1999/xlink" x="0px" y="0px"
	 viewBox="0 0 24 24" style="enable-background:new 0 0 24 24;" xml:space="preserve">
<style type="text/css">
	.st0{fill:#777582;}
</style>
<g>
	<path class="st0" d="M23.1,14.5C23.1,14.5,23.1,14.5,23.1,14.5c-3-1.3-5.9-2.7-8.9-4L10.9,9c-0.3-0.1-0.5-0.2-0.8-0.3
		c-0.4-0.2-1-0.1-1.3,0.2C8.7,9.1,8.6,9.3,8.6,9.6c0,0.3,0.1,0.5,0.1,0.6l5.8,12.9c0.3,0.6,0.8,0.7,1.1,0.7c0,0,0,0,0,0
		c0.3,0,0.8-0.1,1-0.8l1.8-4.6l4.6-1.8c0.7-0.3,0.8-0.8,0.8-1.1C23.9,15.4,23.8,14.8,23.1,14.5z M17.6,17.2
		c-0.2,0.1-0.3,0.2-0.4,0.4l-1.7,4.1l-5.1-11.3l3.2,1.5c2.7,1.2,5.4,2.5,8.1,3.7L17.6,17.2z"/>
	<path class="st0" d="M8.2,16.9c-3.8-0.5-6.6-3.8-6.6-7.6c0-4.2,3.4-7.7,7.7-7.7c3.8,0,7.1,2.9,7.6,6.7C17,8.7,17.4,9,17.8,9
		c0.4-0.1,0.7-0.4,0.6-0.8c-0.6-4.5-4.5-8-9.1-8c-5.1,0-9.2,4.1-9.2,9.2c0,4.5,3.4,8.5,7.9,9.1c0,0,0.1,0,0.1,0
		c0.4,0,0.7-0.3,0.7-0.6C8.9,17.4,8.7,17,8.2,16.9z"/>
	<path class="st0" d="M8.4,12.2c-1.2-0.3-2-1.4-2-2.9c0-1.6,1.3-2.9,2.9-2.9c1.4,0,2.6,0.8,2.9,2c0.1,0.4,0.5,0.7,0.9,0.6
		c0.4-0.1,0.7-0.5,0.6-0.9c-0.4-1.9-2.2-3.1-4.3-3.1c-2.4,0-4.4,2-4.4,4.4c0,2.1,1.3,3.9,3.1,4.3c0.1,0,0.1,0,0.2,0
		c0.3,0,0.6-0.2,0.7-0.6C9.1,12.7,8.8,12.3,8.4,12.2z"/>
</g>
</svg>
