<?xml version="1.0" encoding="utf-8"?>
<!-- Generated by IcoMoon.io -->
<!DOCTYPE svg PUBLIC "-//W3C//DTD SVG 1.1//EN" "http://www.w3.org/Graphics/SVG/1.1/DTD/svg11.dtd">
<svg version="1.1" xmlns="http://www.w3.org/2000/svg" xmlns:xlink="http://www.w3.org/1999/xlink" width="32" height="32" viewBox="0 0 32 32">
<path fill="#777582" d="M31.055 19.443c0 0 0 0 0 0-4.321-2.025-8.776-3.916-13.097-5.941l-3.511-1.62c-0.27-0.135-0.675-0.27-0.945-0.405-0.675-0.27-1.35-0.135-1.755 0.27-0.27 0.27-0.405 0.675-0.405 1.080s0.135 0.675 0.135 0.81l7.966 17.418c0.405 0.81 0.945 0.945 1.485 0.945 0 0 0 0 0 0 0.405 0 1.080-0.27 1.35-1.080l2.43-6.211 6.211-2.43c0.945-0.405 1.080-1.080 1.080-1.485 0-0.27-0.135-0.945-0.945-1.35zM23.629 23.089c-0.27 0.135-0.405 0.27-0.54 0.54l-2.295 5.536-6.886-15.257 3.241 1.485c4.051 1.89 8.101 3.646 12.152 5.536l-5.671 2.16z"></path>
<path fill="#777582" d="M10.937 22.684c-5.131-0.675-8.911-5.131-8.911-10.262 0-5.671 4.591-10.397 10.397-10.397 5.131 0 9.586 3.916 10.262 9.046 0.135 0.54 0.54 0.945 1.080 0.81s0.945-0.54 0.81-1.080c-0.81-6.076-6.076-10.802-12.287-10.802-6.751 0-12.287 5.536-12.287 12.422 0 6.076 4.591 11.477 10.667 12.287 0 0 0.135 0 0.135 0 0.54 0 0.945-0.405 0.945-0.81 0.135-0.675-0.27-1.215-0.81-1.215z"></path>
<path fill="#777582" d="M11.207 16.203c-1.62-0.405-2.7-1.89-2.7-3.916 0-2.16 1.755-3.916 3.916-3.916 1.89 0 3.511 1.080 3.916 2.7 0.135 0.54 0.675 0.945 1.215 0.81s0.945-0.675 0.81-1.215c-0.675-2.565-3.105-4.186-5.941-4.186-3.241 0-5.941 2.7-5.941 5.941 0 2.835 1.755 5.266 4.186 5.806 0.135 0 0.135 0 0.27 0 0.405 0 0.81-0.27 0.945-0.81s-0.135-1.080-0.675-1.215z"></path>
</svg>
