<?xml version="1.0" encoding="utf-8"?>
<!-- Generator: Adobe Illustrator 21.0.2, SVG Export Plug-In . SVG Version: 6.00 Build 0)  -->
<svg version="1.1" id="Ebene_1" xmlns="http://www.w3.org/2000/svg" xmlns:xlink="http://www.w3.org/1999/xlink" x="0px" y="0px"
	 viewBox="0 0 24 24" style="enable-background:new 0 0 24 24;" xml:space="preserve">
<style type="text/css">
	.st0{fill:#777582;}
</style>
<g>
	<path class="st0" d="M23,7C22.9,7,22.9,7,23,7l-1.5-1V4.3c0-1.2-1-2.1-2.1-2.1h-3.6l-2.1-1.4c-1-0.7-2.3-0.7-3.3,0L8.3,2.1H4.7
		c-1.2,0-2.1,1-2.1,2.1V6l-1.5,1c0,0,0,0-0.1,0C0.5,7.3,0.3,7.9,0.3,8.5v13.4c0,1,0.8,1.8,1.8,1.8h19.8c1,0,1.8-0.8,1.8-1.8V8.5
		C23.8,7.9,23.5,7.3,23,7z M11.2,2c0.5-0.3,1.1-0.3,1.6,0L13,2.1h-2L11.2,2z M4.7,3.6h14.7c0.3,0,0.6,0.3,0.6,0.6v2.1v2l-7.1,4.8
		c-0.5,0.3-1.1,0.3-1.6,0L4,8.4V4.3C4,3.9,4.3,3.6,4.7,3.6z M21.9,22.3H2.1c-0.2,0-0.3-0.2-0.3-0.3V8.6l8.6,5.8
		c0.5,0.3,1.1,0.5,1.6,0.5c0.6,0,1.1-0.2,1.6-0.5l8.6-5.8v13.3C22.3,22.1,22.1,22.3,21.9,22.3z"/>
	<path class="st0" d="M7.1,7.1h9.7c0.4,0,0.8-0.3,0.8-0.8s-0.3-0.8-0.8-0.8H7.1C6.7,5.6,6.4,6,6.4,6.4S6.7,7.1,7.1,7.1z"/>
	<path class="st0" d="M14.9,8.8H9.1c-0.4,0-0.8,0.3-0.8,0.8s0.3,0.8,0.8,0.8h5.7c0.4,0,0.8-0.3,0.8-0.8S15.3,8.8,14.9,8.8z"/>
</g>
</svg>
