<?xml version="1.0" encoding="utf-8"?>
<!-- Generated by IcoMoon.io -->
<!DOCTYPE svg PUBLIC "-//W3C//DTD SVG 1.1//EN" "http://www.w3.org/Graphics/SVG/1.1/DTD/svg11.dtd">
<svg version="1.1" xmlns="http://www.w3.org/2000/svg" xmlns:xlink="http://www.w3.org/1999/xlink" width="32" height="32" viewBox="0 0 32 32">
<path fill="#777582" d="M30.911 9.123c0 0 0 0 0 0l-2.043-1.362v-2.315c0-1.634-1.362-2.86-2.86-2.86h-4.902l-2.86-1.906c-1.362-0.953-3.132-0.953-4.494 0l-2.86 1.906h-4.902c-1.634 0-2.86 1.362-2.86 2.86v2.315l-2.043 1.362c0 0 0 0-0.136 0-0.545 0.545-0.953 1.226-0.953 2.043v18.247c0 1.362 1.089 2.451 2.451 2.451h26.962c1.362 0 2.451-1.089 2.451-2.451v-18.247c0.136-0.817-0.272-1.498-0.953-2.043zM14.843 2.315c0.681-0.409 1.498-0.409 2.179 0l0.272 0.136h-2.723l0.272-0.136zM5.992 4.63h20.017c0.409 0 0.817 0.409 0.817 0.817v5.583l-9.668 6.536c-0.681 0.409-1.498 0.409-2.179 0l-9.804-6.536v-5.583c0-0.409 0.409-0.817 0.817-0.817zM29.549 29.957h-27.098c-0.272 0-0.409-0.272-0.409-0.409v-18.111l11.711 7.898c0.681 0.409 1.498 0.681 2.179 0.681s1.498-0.272 2.179-0.681l11.847-7.898v18.111c0 0.136-0.136 0.409-0.409 0.409z"></path>
<path fill="#777582" d="M9.396 9.396h13.209c0.545 0 1.089-0.409 1.089-1.089s-0.545-0.953-1.089-0.953h-13.209c-0.545 0-1.089 0.409-1.089 1.089s0.545 0.953 1.089 0.953z"></path>
<path fill="#777582" d="M19.881 11.574h-7.762c-0.545 0-1.089 0.409-1.089 1.089s0.545 0.953 1.089 0.953h7.762c0.545 0 1.089-0.409 1.089-1.089s-0.545-0.953-1.089-0.953z"></path>
</svg>
