<svg xmlns="http://www.w3.org/2000/svg" viewBox="0 0 81.67 81.33"><defs><style>.cls-1{fill:none;stroke:#787581;stroke-linecap:round;stroke-linejoin:round;stroke-width:1.5px;}</style></defs><title>organisms_x80</title><g id="Ebene_2" data-name="Ebene 2"><g id="Ebene_1-2" data-name="Ebene 1"><path class="cls-1" d="M12.11,40.85l-9.85,5.7A3,3,0,0,0,.75,49.17V68a3,3,0,0,0,1.51,2.62l16.29,9.42a3,3,0,0,0,3,0l14.55-8.41"/><path class="cls-1" d="M66.42,30.71v-14a3,3,0,0,0-1.51-2.62L42.52,1.16a3,3,0,0,0-3,0L17.11,14.1a3,3,0,0,0-1.51,2.62V42.61a3,3,0,0,0,1.51,2.62l13.88,8"/><path class="cls-1" d="M33.06,64,48.7,79.7a3,3,0,0,0,2.9.78L73,74.74a3,3,0,0,0,2.12-2.12l5.73-21.41A3,3,0,0,0,80,48.31L64.4,32.64a3,3,0,0,0-2.9-.78L40.13,37.6A3,3,0,0,0,38,39.72L32.28,61.13A3,3,0,0,0,33.06,64Z"/><line class="cls-1" x1="51.27" y1="66.56" x2="66.93" y2="50.88"/><line class="cls-1" x1="46.17" y1="61.46" x2="61.83" y2="45.77"/><line class="cls-1" x1="37.4" y1="15.68" x2="37.4" y2="32.98"/><line class="cls-1" x1="44.61" y1="15.68" x2="44.61" y2="31.41"/><line class="cls-1" x1="21.57" y1="56.12" x2="10.38" y2="56.12"/><line class="cls-1" x1="23.9" y1="63.34" x2="10.38" y2="63.34"/></g></g></svg>