<svg xmlns="http://www.w3.org/2000/svg" viewBox="0 0 80 80"><defs><style>.cls-1{fill:#787581;}</style></defs><title>Organisms</title><g id="Ebene_2" data-name="Ebene 2"><g id="Ebene_1-2" data-name="Ebene 1"><g id="Ebene_2-2" data-name="Ebene 2"><g id="Ebene_1-2-2" data-name="Ebene 1-2"><path class="cls-1" d="M19.64,79.86a3.66,3.66,0,0,1-1.84-.49l-16-9.27A3.7,3.7,0,0,1,0,66.88V48.36a3.7,3.7,0,0,1,1.85-3.22l9.64-5.6a.73.73,0,0,1,1,.27.74.74,0,0,1-.27,1L2.58,46.42a2.22,2.22,0,0,0-1.11,1.93V66.88a2.22,2.22,0,0,0,1.11,1.94l16,9.27a2.2,2.2,0,0,0,2.2,0L35,69.82a.74.74,0,0,1,.74,1.28L21.47,79.37A3.66,3.66,0,0,1,19.64,79.86Z"/><path class="cls-1" d="M30.35,53.09A.73.73,0,0,1,30,53L16.39,45.12a3.7,3.7,0,0,1-1.85-3.22V16.44a3.69,3.69,0,0,1,1.85-3.22L38.34.49A3.67,3.67,0,0,1,42,.49L63.94,13.21a3.7,3.7,0,0,1,1.85,3.22V30.2a.73.73,0,1,1-1.47,0V16.43a2.22,2.22,0,0,0-1.11-1.94L41.27,1.77a2.2,2.2,0,0,0-2.2,0L17.12,14.5A2.22,2.22,0,0,0,16,16.43V41.91a2.22,2.22,0,0,0,1.11,1.94l13.6,7.87a.74.74,0,0,1-.37,1.38Z"/><path class="cls-1" d="M49.78,80a3.68,3.68,0,0,1-2.61-1.08L31.86,63.47a3.71,3.71,0,0,1-1-3.53l5.6-21.07a3.69,3.69,0,0,1,2.61-2.61L60,30.62a3.67,3.67,0,0,1,3.55,1L78.87,47a3.69,3.69,0,0,1,1,3.55L74.28,71.62a3.69,3.69,0,0,1-2.6,2.61l-21,5.65A3.69,3.69,0,0,1,49.78,80ZM61,32a2.17,2.17,0,0,0-.57.07L39.49,37.69a2.22,2.22,0,0,0-1.57,1.56l-5.6,21.06a2.23,2.23,0,0,0,.57,2.11h0L48.21,77.87a2.2,2.2,0,0,0,2.13.58l21-5.65a2.21,2.21,0,0,0,1.56-1.56l5.61-21.06a2.22,2.22,0,0,0-.63-2.13L62.55,32.62A2.21,2.21,0,0,0,61,32Z"/><path class="cls-1" d="M50.21,66.21a.73.73,0,0,1-.52-.22.74.74,0,0,1,0-1L65,49.52a.73.73,0,0,1,1,0,.74.74,0,0,1,0,1L50.73,66A.73.73,0,0,1,50.21,66.21Z"/><path class="cls-1" d="M45.22,61.19A.73.73,0,0,1,44.7,61a.74.74,0,0,1,0-1L60,44.49a.74.74,0,1,1,1,1L45.74,61A.73.73,0,0,1,45.22,61.19Z"/><path class="cls-1" d="M36.63,33.17a.74.74,0,0,1-.73-.74v-17a.73.73,0,1,1,1.47,0v17A.74.74,0,0,1,36.63,33.17Z"/><path class="cls-1" d="M43.69,31.63a.74.74,0,0,1-.73-.74V15.42a.73.73,0,1,1,1.47,0V30.89A.74.74,0,0,1,43.69,31.63Z"/><path class="cls-1" d="M21.12,55.94h-11a.74.74,0,0,1,0-1.48h11a.74.74,0,0,1,0,1.48Z"/><path class="cls-1" d="M23.41,63H10.17a.74.74,0,0,1,0-1.48H23.41a.74.74,0,0,1,0,1.48Z"/></g></g></g></g></svg>