<svg xmlns="http://www.w3.org/2000/svg" viewBox="0 0 80 80"><defs><style>.cls-1{fill:#787581;}</style></defs><title>pages</title><g id="Ebene_2" data-name="Ebene 2"><g id="Ebene_1-2" data-name="Ebene 1"><g id="Ebene_2-2" data-name="Ebene 2"><g id="Ebene_1-2-2" data-name="Ebene 1-2"><path class="cls-1" d="M49.34,80H6.27A6.3,6.3,0,0,1,0,73.69V16.22A6.3,6.3,0,0,1,6.27,9.9H49.34a6.3,6.3,0,0,1,6.27,6.31V73.69A6.3,6.3,0,0,1,49.34,80ZM6.27,11.38a4.83,4.83,0,0,0-4.81,4.84V73.69a4.83,4.83,0,0,0,4.81,4.84H49.34a4.83,4.83,0,0,0,4.81-4.84V16.22a4.83,4.83,0,0,0-4.81-4.84Z"/><path class="cls-1" d="M75.36,70.11H59.59a.74.74,0,0,1,0-1.48H75.36a3.19,3.19,0,0,0,3.18-3.2V4.67a3.19,3.19,0,0,0-3.18-3.2H29.06a3.19,3.19,0,0,0-3.18,3.2V6a.73.73,0,1,1-1.47,0V4.67A4.66,4.66,0,0,1,29.06,0h46.3A4.66,4.66,0,0,1,80,4.67V65.43A4.66,4.66,0,0,1,75.36,70.11Z"/></g></g></g></g></svg>