<?xml version="1.0" encoding="utf-8"?>
<!-- Generator: Adobe Illustrator 21.0.2, SVG Export Plug-In . SVG Version: 6.00 Build 0)  -->
<svg version="1.1" id="Ebene_1" xmlns="http://www.w3.org/2000/svg" xmlns:xlink="http://www.w3.org/1999/xlink" x="0px" y="0px"
	 viewBox="0 0 24 24" style="enable-background:new 0 0 24 24;" xml:space="preserve">
<style type="text/css">
	.st0{fill:#777582;}
</style>
<g>
	<path class="st0" d="M9.2,14.8l-0.6,0.7c-0.3,0.3-0.3,0.8,0,1.1c0.1,0.1,0.3,0.2,0.5,0.2c0.2,0,0.4-0.1,0.5-0.2l0.6-0.7
		c0.3-0.3,0.3-0.8,0-1.1C10,14.4,9.5,14.5,9.2,14.8z"/>
	<path class="st0" d="M23.7,0.9C23.7,0.9,23.7,0.9,23.7,0.9c0-0.1,0-0.1,0-0.2c0,0,0,0,0,0c0,0,0-0.1,0-0.1c0,0,0,0,0,0
		c0,0,0-0.1-0.1-0.1c0,0,0-0.1-0.1-0.1c0,0,0,0,0,0c0,0,0,0,0,0c0,0,0,0,0,0c0,0-0.1,0-0.1-0.1c0,0-0.1-0.1-0.1-0.1c0,0,0,0,0,0
		c0,0,0,0,0,0c0,0-0.1,0-0.1,0c0,0-0.1,0-0.1,0c0,0,0,0,0,0c0,0,0,0-0.1,0c0,0-0.1,0-0.1,0c0,0,0,0-0.1,0c0,0,0,0-0.1,0
		c0,0,0,0-0.1,0L0.9,14.4c-0.5,0.3-0.8,1-0.6,1.6c0.1,0.6,0.6,1.1,1.2,1.2h0l5.7,1L8,22.7c0.2,0.6,0.6,1,1.2,1.1c0.1,0,0.1,0,0.2,0
		c0.5,0,0.9-0.2,1.2-0.7l1.8-3.1l6.1,2.7c0.2,0.1,0.4,0.1,0.6,0.1c0.2,0,0.4-0.1,0.7-0.2c0.4-0.2,0.7-0.6,0.8-1.1l3.2-20.5
		C23.7,1.1,23.7,1.1,23.7,0.9C23.7,1,23.7,1,23.7,0.9z M9.4,22.2l-0.9-4.5c-0.2-0.5-0.6-1-1.2-1.1l-5.7-1L18.3,4.9l-7.7,8.3
		c-0.3,0.3-0.3,0.8,0,1.1c0.1,0.1,0.3,0.2,0.5,0.2c0.2,0,0.4-0.1,0.5-0.2l6.8-7.4l-7.1,11.8c0,0.1,0,0.1-0.1,0.2L9.4,22.2z
		 M19.1,21.4l-5.9-2.6l8.5-14.1L19.1,21.4z"/>
</g>
</svg>
