<?xml version="1.0" encoding="utf-8"?>
<!-- Generated by IcoMoon.io -->
<!DOCTYPE svg PUBLIC "-//W3C//DTD SVG 1.1//EN" "http://www.w3.org/Graphics/SVG/1.1/DTD/svg11.dtd">
<svg version="1.1" xmlns="http://www.w3.org/2000/svg" xmlns:xlink="http://www.w3.org/1999/xlink" width="32" height="32" viewBox="0 0 32 32">
<path fill="#777582" d="M12.255 19.745l-0.817 0.953c-0.409 0.409-0.409 1.089 0 1.498 0.136 0.136 0.409 0.272 0.681 0.272s0.545-0.136 0.681-0.272l0.817-0.953c0.409-0.409 0.409-1.089 0-1.498s-1.089-0.409-1.362 0z"></path>
<path fill="#777582" d="M32 0.953c0 0 0-0.136 0 0 0-0.136 0-0.136 0-0.272 0 0 0 0 0 0s0-0.136 0-0.136c0 0 0 0 0 0s0-0.136-0.136-0.136c0 0 0-0.136-0.136-0.136 0 0 0 0 0 0s0 0 0 0 0 0 0 0-0.136 0-0.136-0.136c0 0-0.136-0.136-0.136-0.136s0 0 0 0 0 0 0 0-0.136 0-0.136 0c0 0-0.136 0-0.136 0s0 0 0 0 0 0-0.136 0c0 0-0.136 0-0.136 0s0 0-0.136 0c0 0 0 0-0.136 0 0 0 0 0-0.136 0l-29.549 19.336c-0.681 0.409-1.089 1.362-0.817 2.179 0.136 0.817 0.817 1.498 1.634 1.634v0l7.762 1.362 1.226 6.128c0.272 0.817 0.817 1.362 1.634 1.498 0.136 0 0.136 0 0.272 0 0.681 0 1.226-0.272 1.634-0.953l2.451-4.221 8.306 3.677c0.272 0.136 0.545 0.136 0.817 0.136s0.545-0.136 0.953-0.272c0.545-0.272 0.953-0.817 1.089-1.498l4.357-27.915c-0.272 0-0.272 0-0.272-0.136 0 0.136 0 0 0 0zM12.528 29.821l-1.226-6.128c-0.272-0.681-0.817-1.362-1.634-1.498l-7.762-1.362 22.74-14.434-10.485 11.302c-0.409 0.409-0.409 1.089 0 1.498 0.136 0.136 0.409 0.272 0.681 0.272s0.545-0.136 0.681-0.272l9.26-10.077-9.668 16.068c0 0.136 0 0.136-0.136 0.272l-2.451 4.357zM25.6 28.732l-8.034-3.54 11.574-19.2-3.54 22.74z"></path>
</svg>
