<?xml version="1.0" encoding="utf-8"?>
<!-- Generator: Adobe Illustrator 21.0.2, SVG Export Plug-In . SVG Version: 6.00 Build 0)  -->
<svg version="1.1" id="Ebene_1" xmlns="http://www.w3.org/2000/svg" xmlns:xlink="http://www.w3.org/1999/xlink" x="0px" y="0px"
	 viewBox="0 0 24 24" style="enable-background:new 0 0 24 24;" xml:space="preserve">
<style type="text/css">
	.st0{fill:#777582;}
</style>
<path class="st0" d="M23.1,3.7l-2.8-2.8C19.4,0,18,0,17.2,0.9l-0.3,0.3l-1.1,1.1L1.9,16.2c-0.4,0.4-0.7,1-0.8,1.6L0.3,22
	c-0.1,0.4,0.1,0.9,0.5,1.3c0.3,0.3,0.7,0.5,1.1,0.5c0.1,0,0.1,0,0.2,0l4.2-0.8c0.6-0.1,1.2-0.4,1.6-0.8L21.7,8.2l1.1-1.1l0.3-0.3
	C24,6,24,4.6,23.1,3.7z M1.8,22.2C1.8,22.2,1.8,22.2,1.8,22.2l0.6-3.7l3,3L1.8,22.2z M20.7,7.1L6.9,20.9l-3.8-3.8L16.9,3.3l1.9,1.9
	L20.7,7.1z M19.8,4.2l-1.9-1.9L18.2,2c0.3-0.3,0.7-0.3,1,0L22,4.8c0.3,0.3,0.3,0.7,0,1l-0.3,0.3L19.8,4.2z"/>
</svg>
