<?xml version="1.0" encoding="utf-8"?>
<!-- Generator: Adobe Illustrator 21.0.2, SVG Export Plug-In . SVG Version: 6.00 Build 0)  -->
<svg version="1.1" id="Ebene_1" xmlns="http://www.w3.org/2000/svg" xmlns:xlink="http://www.w3.org/1999/xlink" x="0px" y="0px"
	 viewBox="0 0 24 24" style="enable-background:new 0 0 24 24;" xml:space="preserve">
<style type="text/css">
	.st0{fill:#777582;}
</style>
<g>
	<path class="st0" d="M7.3,12.7l-0.6,3c-0.1,0.4,0.1,0.8,0.4,1.1c0.3,0.3,0.6,0.4,0.9,0.4c0.1,0,0.1,0,0.2,0l3-0.6
		c0.5-0.1,0.9-0.3,1.2-0.6l9.8-9.8l0,0l0.8-0.8l0.2-0.2l0,0C24,4.3,23.9,3,23.2,2.3l-1.4-1.4c-0.8-0.8-2-0.8-2.9-0.2l0,0l-0.2,0.2
		c0,0,0,0,0,0l-0.8,0.8l-9.8,9.8C7.6,11.8,7.4,12.3,7.3,12.7z M8.6,13.8l1.6,1.6l-1.9,0.4L8.6,13.8z M20.7,1.9l1.4,1.4
		c0.2,0.2,0.3,0.5,0.2,0.7l-2.3-2.3C20.2,1.6,20.5,1.7,20.7,1.9z M18.8,2.7l2.4,2.4l-9.6,9.6l-2.4-2.4L18.8,2.7z"/>
	<path class="st0" d="M23.5,9.1c-0.1-0.4-0.5-0.6-0.9-0.5C22.2,8.6,22,9,22.1,9.4c0.9,3.6-0.1,7.3-2.7,9.9c-4,4-10.6,4-14.7,0
		c-4-4-4-10.6,0-14.7c2.6-2.6,6.3-3.6,9.8-2.7c0.4,0.1,0.8-0.1,0.9-0.5s-0.1-0.8-0.5-0.9c-4.1-1-8.3,0.2-11.2,3.1
		C-1,8.2-1,15.8,3.6,20.4c2.3,2.3,5.4,3.5,8.4,3.5s6.1-1.2,8.4-3.5C23.3,17.5,24.5,13.1,23.5,9.1z"/>
</g>
</svg>
