<?xml version="1.0" encoding="utf-8"?>
<!-- Generator: Adobe Illustrator 21.0.2, SVG Export Plug-In . SVG Version: 6.00 Build 0)  -->
<svg version="1.1" id="Ebene_1" xmlns="http://www.w3.org/2000/svg" xmlns:xlink="http://www.w3.org/1999/xlink" x="0px" y="0px"
	 viewBox="0 0 24 24" style="enable-background:new 0 0 24 24;" xml:space="preserve">
<style type="text/css">
	.st0{fill:#777582;}
</style>
<g>
	<g>
		<path class="st0" d="M17.8,23.7c-1,0-1.9-0.2-2.7-0.5c-4.9-1.5-9-4.7-12.3-9.8c-1.3-2-2.2-4.2-2.5-6.8c0-0.1,0-0.3,0-0.4l0-0.1
			c0.1-1.9,0.7-3.5,2-4.8c1-1,2.2-1.1,3.4-1.2C6.4,0.2,6.9,1,7,1.2c0.3,0.5,0.5,0.9,0.8,1.4C8,2.9,8.2,3.2,8.3,3.5
			c0.2,0.3,0.4,0.7,0.6,1C9.1,4.7,9.2,5,9.4,5.2C9.7,5.8,10,6.6,9.1,7.5C8.8,7.8,8.4,8.2,8,8.5C7.8,8.7,7.5,8.9,7.3,9.1
			C7,9.4,6.9,9.5,6.9,9.5c0,0,0.1,0.2,0.3,0.5C8.7,13,11,15.3,14,16.8c0.4,0.2,0.5,0.2,0.5,0.2c0,0,0.1-0.1,0.3-0.3
			c0.2-0.2,0.4-0.5,0.6-0.7c0.3-0.3,0.5-0.6,0.8-0.9c0.9-1,1.6-1.1,2.8-0.4c1.1,0.6,2.1,1.2,3.2,1.9l0.3,0.2
			c1.2,0.7,1.3,1.2,1.2,2.4c-0.3,2.5-2,3.5-3.7,4.2C19.2,23.6,18.5,23.7,17.8,23.7z M1.7,6.3l0,0.1c0,0,0,0.1,0,0.1
			c0.3,2.3,1.1,4.4,2.3,6.2c3.2,4.8,6.9,7.8,11.5,9.1c1.6,0.5,2.8,0.5,3.9,0.1c1.5-0.6,2.6-1.3,2.8-2.9c0-0.1,0.1-0.5,0-0.6
			c0,0-0.1-0.1-0.5-0.3l-0.3-0.2c-1.1-0.6-2.2-1.2-3.2-1.9c-0.4-0.2-0.5-0.2-0.5-0.3c0,0-0.1,0-0.4,0.3c-0.3,0.3-0.5,0.6-0.7,0.8
			c-0.2,0.3-0.4,0.5-0.7,0.8c-1,1.1-1.6,1-2.7,0.4C10,16.5,7.5,14,5.8,10.7C5.2,9.5,5.3,8.9,6.3,8C6.5,7.8,6.8,7.6,7,7.4
			c0.4-0.3,0.7-0.6,1.1-1c0.1-0.1,0.1-0.2,0.1-0.2l0,0c0,0,0-0.1-0.1-0.2C8,5.7,7.8,5.5,7.7,5.3C7.4,4.9,7.2,4.6,7,4.2
			c-0.2-0.3-0.4-0.6-0.5-1C6.2,2.8,6,2.4,5.7,1.9c0-0.1-0.1-0.1-0.1-0.2c-0.9,0-1.7,0.1-2.2,0.7C2.3,3.5,1.8,4.8,1.7,6.3L1.7,6.3z"
			/>
	</g>
</g>
</svg>
