<?xml version="1.0" encoding="utf-8"?>
<!-- Generator: Adobe Illustrator 21.0.2, SVG Export Plug-In . SVG Version: 6.00 Build 0)  -->
<svg version="1.1" id="Ebene_1" xmlns="http://www.w3.org/2000/svg" xmlns:xlink="http://www.w3.org/1999/xlink" x="0px" y="0px"
	 viewBox="0 0 24 24" style="enable-background:new 0 0 24 24;" xml:space="preserve">
<style type="text/css">
	.st0{fill:#777582;}
</style>
<g>
	<path class="st0" d="M16.9,11.8C16.9,11.8,16.9,11.8,16.9,11.8c-0.1-0.1-0.1-0.2-0.1-0.2c0,0,0,0,0,0c0,0,0,0,0,0
		c-0.1-0.1-0.1-0.1-0.2-0.2c0,0,0,0,0,0l-6.3-3.7C9.9,7.4,9.4,7.5,9.2,7.9C9.1,8,9.1,8.1,9.1,8.3c0,0,0,0,0,0.1v7.3c0,0,0,0,0,0.1
		c0,0.1,0,0.3,0.1,0.4c0.2,0.4,0.7,0.5,1.1,0.3l6.3-3.7c0,0,0,0,0,0c0.1,0,0.1-0.1,0.2-0.2c0,0,0,0,0,0c0,0,0,0,0,0
		c0,0,0-0.1,0.1-0.2c0,0,0-0.1,0-0.1c0-0.1,0-0.1,0-0.2C16.9,11.9,16.9,11.9,16.9,11.8z M10.6,9.6l4,2.4l-4,2.4V9.6z"/>
	<path class="st0" d="M12,0.1C5.4,0.1,0.1,5.4,0.1,12S5.4,23.9,12,23.9S23.9,18.6,23.9,12S18.6,0.1,12,0.1z M12,22.4
		C6.3,22.4,1.6,17.7,1.6,12C1.6,6.3,6.3,1.6,12,1.6c5.7,0,10.4,4.7,10.4,10.4C22.4,17.7,17.7,22.4,12,22.4z"/>
</g>
</svg>
