<?xml version="1.0" encoding="utf-8"?>
<!-- Generator: Adobe Illustrator 21.0.2, SVG Export Plug-In . SVG Version: 6.00 Build 0)  -->
<svg version="1.1" id="Ebene_1" xmlns="http://www.w3.org/2000/svg" xmlns:xlink="http://www.w3.org/1999/xlink" x="0px" y="0px"
	 viewBox="0 0 24 24" style="enable-background:new 0 0 24 24;" xml:space="preserve">
<style type="text/css">
	.st0{fill:#777582;}
</style>
<path class="st0" d="M22.6,18.6l-2.1-2.1l0.5-0.5c0.6-0.6,0.6-1.6,0-2.2l-1.5-1.5c-0.5-0.6-1.4-0.6-2-0.1l-1.9-1.9
	c-1.5-1.5-3.7-1.7-5.4-0.5c-0.3-0.2-0.6-0.4-1-0.5c-0.7-0.1-1.4,0-2,0.4c-0.5,0.3-1,0.6-1.4,0.7c-0.2,0.1-0.4,0.1-0.6,0.1
	c-0.7,0-1.4-0.4-1.8-0.7C3.3,9.8,3.2,9.7,3.1,9.6C2.4,8.8,2.3,7.7,2.8,6.7c0.5-0.9,1.6-1.6,2.8-1.3c3.4,0.8,8,1.4,10.7-0.4
	c1.2-0.8,2-2.1,2.4-3.9c0.1-0.4-0.1-0.8-0.5-0.9c-0.4-0.1-0.8,0.1-0.9,0.5c-0.3,1.4-0.9,2.4-1.8,3C13.8,5,10.3,5.1,6,4
	C4,3.5,2.3,4.6,1.5,6c-0.9,1.6-0.7,3.4,0.6,4.7c0.1,0.1,0.2,0.2,0.3,0.3c1.1,0.9,2.7,1.3,3.9,0.8c0.5-0.2,1.1-0.5,1.7-0.9
	c0.3-0.2,0.6-0.2,0.9-0.2c0.1,0,0.1,0,0.2,0.1c-1.2,1.7-1,4,0.5,5.5l1.9,1.9c-0.2,0.3-0.3,0.6-0.3,0.9c0,0.4,0.2,0.8,0.5,1.1
	l1.5,1.5c0.3,0.3,0.7,0.4,1.1,0.4c0,0,0,0,0,0c0.4,0,0.8-0.2,1.1-0.4l0.5-0.5l2.1,2.1c0.3,0.3,0.7,0.5,1.1,0.5s0.8-0.2,1.1-0.5
	c0.6-0.6,0.6-1.6,0-2.2L18,19l0.3-0.3l2.1,2.1c0.6,0.6,1.6,0.6,2.2,0c0.3-0.3,0.5-0.7,0.5-1.1S22.9,18.9,22.6,18.6z M21.5,19.8
	l-2.6-2.6c-0.3-0.3-0.8-0.3-1.1,0l-1.3,1.3c-0.3,0.3-0.3,0.8,0,1.1l2.6,2.6L19,22.2l-2.6-2.6c-0.1-0.1-0.3-0.2-0.5-0.2
	c-0.2,0-0.4,0.1-0.5,0.2l-1.2,1.1l-1.5-1.6l0.4-0.4c0.3-0.3,0.3-0.8,0-1.1l-2.4-2.4c-1-1-1.1-2.7-0.2-3.8l0.4-0.4
	c1.1-0.9,2.7-0.8,3.7,0.2l2.4,2.4c0.1,0.1,0.3,0.2,0.5,0.2c0,0,0,0,0,0c0.2,0,0.4-0.1,0.5-0.2l0.4-0.4L20,15L18.9,16
	c-0.3,0.3-0.3,0.8,0,1.1L21.5,19.8L21.5,19.8z"/>
</svg>
