<?xml version="1.0" encoding="utf-8"?>
<!-- Generated by IcoMoon.io -->
<!DOCTYPE svg PUBLIC "-//W3C//DTD SVG 1.1//EN" "http://www.w3.org/Graphics/SVG/1.1/DTD/svg11.dtd">
<svg version="1.1" xmlns="http://www.w3.org/2000/svg" xmlns:xlink="http://www.w3.org/1999/xlink" width="30" height="32" viewBox="0 0 30 32">
<path fill="#777582" d="M29.413 25.055l-2.86-2.86 0.681-0.681c0.409-0.409 0.681-0.953 0.681-1.498s-0.272-1.089-0.681-1.498l-1.906-2.179c-0.409-0.409-0.953-0.681-1.498-0.681 0 0 0 0 0 0-0.409 0-0.953 0.136-1.226 0.408l-2.723-2.451c-2.043-2.043-5.038-2.315-7.353-0.681-0.409-0.409-0.817-0.545-1.362-0.681-0.953-0.136-1.906 0-2.723 0.545-0.681 0.409-1.362 0.817-1.906 0.953-0.272 0.136-0.545 0.136-0.817 0.136-0.953 0-1.906-0.545-2.451-0.953-0.136 0-0.272-0.136-0.272-0.136-1.089-1.089-1.226-2.587-0.409-3.949 0.681-1.226 2.179-2.179 3.813-1.77 3.813 0.953 10.757 2.043 14.57-0.545 1.634-1.089 2.723-2.86 3.268-5.311 0.136-0.545-0.136-1.089-0.681-1.226s-1.089 0.136-1.226 0.681c-0.545 2.043-1.362 3.404-2.451 4.085-2.315 1.634-7.081 1.77-13.072 0.409-2.723-0.681-5.038 0.817-6.128 2.723-1.226 2.179-0.953 4.63 0.817 6.4 0.136 0.136 0.272 0.272 0.409 0.409 1.498 1.226 3.677 1.77 5.311 1.089 0.817-0.409 1.498-0.817 2.315-1.362 0.409-0.272 0.817-0.272 1.226-0.272 0.136 0 0.136 0 0.272 0.136-1.634 2.315-1.362 5.447 0.681 7.489l2.587 2.587c-0.681 0.817-0.545 2.043 0.136 2.723l2.043 2.043c0.409 0.409 0.953 0.545 1.498 0.545v0c0.545 0 1.089-0.272 1.498-0.545l0.681-0.681 2.996 2.86c0.409 0.409 0.953 0.681 1.498 0.681s1.089-0.272 1.498-0.681c0.817-0.817 0.817-2.179 0-2.996l-2.86-2.86 0.409-0.409 2.86 2.86c0.817 0.817 2.179 0.817 2.996 0 0.409-0.409 0.681-0.953 0.681-1.498s-0.409-0.953-0.817-1.362zM27.915 26.553l-3.54-3.54c-0.409-0.409-1.089-0.409-1.498 0l-1.77 1.77c-0.409 0.409-0.409 1.089 0 1.498l3.54 3.54-0.136 0.136-3.54-3.54c-0.136-0.136-0.409-0.272-0.681-0.272s-0.545 0.136-0.681 0.272l-1.634 1.498-2.043-2.179 0.545-0.545c0.409-0.409 0.409-1.089 0-1.498l-3.404-3.268c-1.362-1.362-1.498-3.677-0.272-5.174v0l0.409-0.409c1.77-1.362 3.949-1.226 5.311 0.136l3.268 3.268c0.136 0.136 0.409 0.272 0.681 0.272 0 0 0 0 0 0 0.272 0 0.545-0.136 0.681-0.272l0.545-0.545 2.043 2.179-1.226 1.634c-0.409 0.409-0.409 1.089 0 1.498l3.404 3.54z"></path>
</svg>
