<?xml version="1.0" encoding="utf-8"?>
<!-- Generator: Adobe Illustrator 21.0.2, SVG Export Plug-In . SVG Version: 6.00 Build 0)  -->
<svg version="1.1" id="Ebene_1" xmlns="http://www.w3.org/2000/svg" xmlns:xlink="http://www.w3.org/1999/xlink" x="0px" y="0px"
	 viewBox="0 0 24 24" style="enable-background:new 0 0 24 24;" xml:space="preserve">
<style type="text/css">
	.st0{fill:#777582;}
</style>
<g>
	<path class="st0" d="M20.3,3.7c-4.6-4.6-12-4.6-16.6,0C1.5,5.9,0.3,8.9,0.3,12c0,3.1,1.2,6.1,3.4,8.3C6,22.5,9,23.7,12,23.7
		c3,0,6-1.1,8.3-3.4c2.2-2.2,3.4-5.1,3.4-8.3C23.8,8.9,22.5,5.9,20.3,3.7z M19.3,19.2c-4,4-10.5,4-14.5,0c-1.9-1.9-3-4.5-3-7.2
		c0-2.7,1.1-5.3,3-7.2c2-2,4.6-3,7.2-3s5.3,1,7.2,3c1.9,1.9,3,4.5,3,7.2C22.3,14.7,21.2,17.3,19.3,19.2z"/>
	<path class="st0" d="M16.5,11.1h-3.6V7.5c0-0.5-0.4-1-1-1s-1,0.4-1,1v3.6H7.3c-0.5,0-1,0.4-1,1v0c0,0.5,0.4,1,1,1h3.6v3.6
		c0,0.5,0.4,1,1,1s1-0.4,1-1v-3.6h3.6c0.5,0,1-0.4,1-1v0C17.5,11.6,17.1,11.1,16.5,11.1z"/>
</g>
</svg>
