<?xml version="1.0" encoding="utf-8"?>
<!-- Generated by IcoMoon.io -->
<!DOCTYPE svg PUBLIC "-//W3C//DTD SVG 1.1//EN" "http://www.w3.org/Graphics/SVG/1.1/DTD/svg11.dtd">
<svg version="1.1" xmlns="http://www.w3.org/2000/svg" xmlns:xlink="http://www.w3.org/1999/xlink" width="32" height="32" viewBox="0 0 32 32">
<path fill="#777582" d="M30.774 12.936v0c0 0 0 0 0 0-6.808-3.132-13.617-6.128-20.426-9.26l-6.128-2.86c-0.545-0.136-1.089-0.408-1.634-0.681-0.681-0.272-1.634-0.136-2.043 0.408-0.408 0.272-0.545 0.817-0.545 1.226s0.136 0.817 0.272 0.953l12.664 28.051c0.409 0.817 0.953 1.226 1.906 1.226 0 0 0 0 0 0 0.817 0 1.362-0.409 1.634-1.226 0 0 0 0 0 0l4.085-10.077 10.213-4.085c1.089-0.409 1.362-1.226 1.362-1.77-0.136-0.953-0.545-1.498-1.362-1.906zM19.336 18.791c-0.272 0.136-0.409 0.272-0.545 0.545l-4.085 10.213-12.392-27.234c0.272 0.136 0.681 0.272 0.953 0.409l6.264 2.86c6.672 2.996 13.345 6.128 20.153 9.123l-10.349 4.085z"></path>
</svg>
