<?xml version="1.0" encoding="utf-8"?>
<!-- Generator: Adobe Illustrator 21.0.2, SVG Export Plug-In . SVG Version: 6.00 Build 0)  -->
<svg version="1.1" id="Ebene_1" xmlns="http://www.w3.org/2000/svg" xmlns:xlink="http://www.w3.org/1999/xlink" x="0px" y="0px"
	 viewBox="0 0 24 24" style="enable-background:new 0 0 24 24;" xml:space="preserve">
<style type="text/css">
	.st0{fill:#777582;}
</style>
<path class="st0" d="M17.2,8.7C17.2,8.6,17.2,8.6,17.2,8.7c-3-2.3-4.7-4.4-4-7.5c0.1-0.3,0-0.6-0.3-0.8c-0.2-0.2-0.6-0.2-0.8,0
	c-3.5,2-5,5.3-4.6,9.9C7.1,9.2,7,8.4,7,8.4c0-0.3-0.3-0.6-0.6-0.6C6.1,7.6,5.8,7.8,5.6,8c-1.2,1.9-1.9,4.1-2,6.6h0
	c0,0.2,0,0.6,0,0.6c0,4.7,3.8,8.4,8.4,8.4c4.7,0,8.4-3.8,8.4-8.4C20.4,12.7,19.3,10.3,17.2,8.7z M12,22.3c-3.8,0-6.9-3.1-6.9-6.9
	c0-0.2,0-0.5,0-0.6h0c0,0,0-0.1,0-0.1c0.1-1.5,0.4-2.9,0.9-4.1C6.4,11.7,7.1,13,8.3,14c0.2,0.2,0.6,0.2,0.9,0.1s0.4-0.5,0.3-0.8
	c-1.2-5-0.5-8.5,2.1-10.7c0,3.1,2.2,5.3,4.6,7.2c0,0,0.1,0.1,0.1,0.1c1.7,1.3,2.7,3.3,2.7,5.5C18.9,19.1,15.8,22.3,12,22.3z"/>
</svg>
