<?xml version="1.0" encoding="utf-8"?>
<!-- Generator: Adobe Illustrator 21.0.2, SVG Export Plug-In . SVG Version: 6.00 Build 0)  -->
<svg version="1.1" id="Ebene_1" xmlns="http://www.w3.org/2000/svg" xmlns:xlink="http://www.w3.org/1999/xlink" x="0px" y="0px"
	 viewBox="0 0 24 24" style="enable-background:new 0 0 24 24;" xml:space="preserve">
<style type="text/css">
	.st0{fill:#777582;}
</style>
<g>
	<g>
		<path class="st0" d="M13.9,23.8h-3.8c-1,0-1.8-0.8-1.8-1.8v-3.8c0-1,0.8-1.8,1.8-1.8h3.8c1,0,1.8,0.8,1.8,1.8V22
			C15.6,23,14.8,23.8,13.9,23.8z M10.1,18c-0.1,0-0.3,0.1-0.3,0.3V22c0,0.1,0.1,0.3,0.3,0.3h3.8c0.1,0,0.3-0.1,0.3-0.3v-3.8
			c0-0.1-0.1-0.3-0.3-0.3H10.1z"/>
	</g>
	<g>
		<path class="st0" d="M5.6,15.7H1.8c-1,0-1.8-0.8-1.8-1.8v-3.8c0-1,0.8-1.8,1.8-1.8h3.8c1,0,1.8,0.8,1.8,1.8v3.8
			C7.3,14.9,6.5,15.7,5.6,15.7z M1.8,9.9c-0.1,0-0.3,0.1-0.3,0.3v3.8c0,0.1,0.1,0.3,0.3,0.3h3.8c0.1,0,0.3-0.1,0.3-0.3v-3.8
			c0-0.1-0.1-0.3-0.3-0.3H1.8z"/>
	</g>
	<g>
		<path class="st0" d="M13.8,15.7H10c-1,0-1.8-0.8-1.8-1.8v-3.8c0-1,0.8-1.8,1.8-1.8h3.8c1,0,1.8,0.8,1.8,1.8v3.8
			C15.5,14.9,14.8,15.7,13.8,15.7z M10,9.9c-0.1,0-0.3,0.1-0.3,0.3v3.8c0,0.1,0.1,0.3,0.3,0.3h3.8c0.1,0,0.3-0.1,0.3-0.3v-3.8
			c0-0.1-0.1-0.3-0.3-0.3H10z"/>
	</g>
	<g>
		<path class="st0" d="M22.2,15.7h-3.8c-1,0-1.8-0.8-1.8-1.8v-3.8c0-1,0.8-1.8,1.8-1.8h3.8c1,0,1.8,0.8,1.8,1.8v3.8
			C24,14.9,23.2,15.7,22.2,15.7z M18.4,9.9c-0.1,0-0.3,0.1-0.3,0.3v3.8c0,0.1,0.1,0.3,0.3,0.3h3.8c0.1,0,0.3-0.1,0.3-0.3v-3.8
			c0-0.1-0.1-0.3-0.3-0.3H18.4z"/>
	</g>
	<g>
		<path class="st0" d="M5.6,7.5H1.8C0.8,7.5,0,6.7,0,5.7V2c0-1,0.8-1.8,1.8-1.8h3.8c1,0,1.8,0.8,1.8,1.8v3.8
			C7.3,6.7,6.5,7.5,5.6,7.5z M1.8,1.7C1.7,1.7,1.5,1.8,1.5,2v3.8C1.5,5.9,1.7,6,1.8,6h3.8c0.1,0,0.3-0.1,0.3-0.3V2
			c0-0.1-0.1-0.3-0.3-0.3H1.8z"/>
	</g>
	<g>
		<path class="st0" d="M13.9,7.5h-3.8c-1,0-1.8-0.8-1.8-1.8V2c0-1,0.8-1.8,1.8-1.8h3.8c1,0,1.8,0.8,1.8,1.8v3.8
			C15.6,6.7,14.8,7.5,13.9,7.5z M10.1,1.7C10,1.7,9.9,1.8,9.9,2v3.8C9.9,5.9,10,6,10.1,6h3.8c0.1,0,0.3-0.1,0.3-0.3V2
			c0-0.1-0.1-0.3-0.3-0.3H10.1z"/>
	</g>
</g>
</svg>
