<?xml version="1.0" encoding="utf-8"?>
<!-- Generator: Adobe Illustrator 21.0.2, SVG Export Plug-In . SVG Version: 6.00 Build 0)  -->
<svg version="1.1" id="Ebene_1" xmlns="http://www.w3.org/2000/svg" xmlns:xlink="http://www.w3.org/1999/xlink" x="0px" y="0px"
	 viewBox="0 0 24 24" style="enable-background:new 0 0 24 24;" xml:space="preserve">
<style type="text/css">
	.st0{fill:#777582;}
</style>
<g>
	<path class="st0" d="M12,0.1C5.5,0.1,0.1,5.5,0.1,12S5.5,23.9,12,23.9S23.9,18.5,23.9,12S18.5,0.1,12,0.1z M12,22.4
		C6.3,22.4,1.6,17.7,1.6,12S6.3,1.6,12,1.6S22.4,6.3,22.4,12S17.7,22.4,12,22.4z"/>
	<path class="st0" d="M12,15.3c-0.5,0-0.8,0.1-1,0.3c-0.2,0.2-0.4,0.6-0.4,1c0,0.4,0.1,0.8,0.4,1c0.2,0.2,0.6,0.4,1,0.4
		c0.4,0,0.8-0.1,1-0.4c0.2-0.2,0.4-0.6,0.4-1c0-0.4-0.1-0.8-0.4-1C12.8,15.4,12.4,15.3,12,15.3z"/>
	<path class="st0" d="M12.4,6.1c-1.3,0-2.6,0.3-3.7,1l0.9,1.7c1-0.5,1.9-0.8,2.7-0.8c0.5,0,0.8,0.1,1.1,0.3c0.3,0.2,0.4,0.4,0.4,0.8
		c0,0.3-0.1,0.6-0.3,0.8c-0.2,0.2-0.5,0.6-1.1,1c-0.6,0.4-1,0.8-1.2,1.2c-0.2,0.4-0.3,0.8-0.3,1.3v0.6h2.1v-0.5
		c0-0.3,0.1-0.6,0.2-0.8c0.1-0.2,0.5-0.5,1-0.9c0.7-0.5,1.2-1,1.5-1.4C15.8,10,16,9.5,16,8.9c0-0.9-0.3-1.6-1-2.1
		C14.4,6.3,13.5,6.1,12.4,6.1z"/>
</g>
</svg>
