<?xml version="1.0" encoding="utf-8"?>
<!-- Generator: Adobe Illustrator 21.0.2, SVG Export Plug-In . SVG Version: 6.00 Build 0)  -->
<svg version="1.1" id="Ebene_1" xmlns="http://www.w3.org/2000/svg" xmlns:xlink="http://www.w3.org/1999/xlink" x="0px" y="0px"
	 viewBox="0 0 24 24" style="enable-background:new 0 0 24 24;" xml:space="preserve">
<style type="text/css">
	.st0{fill:#777582;}
</style>
<path class="st0" d="M12,0.1C5.4,0.1,0.1,5.4,0.1,12c0,6.6,5.3,11.9,11.9,11.9S23.9,18.6,23.9,12C23.9,5.4,18.6,0.1,12,0.1z
	 M13.1,18c-0.3,0.3-0.6,0.4-1.1,0.4c-0.5,0-0.8-0.1-1.1-0.4c-0.3-0.2-0.4-0.6-0.4-1.1c0-0.5,0.1-0.8,0.4-1.1
	c0.3-0.2,0.6-0.4,1.1-0.4c0.5,0,0.8,0.1,1.1,0.4c0.3,0.2,0.4,0.6,0.4,1.1C13.4,17.4,13.3,17.7,13.1,18z M15.8,10.3
	c-0.3,0.4-0.8,1-1.6,1.5c-0.5,0.4-0.9,0.7-1,0.9c-0.1,0.2-0.2,0.5-0.2,0.8V14h-2.2v-0.6c0-0.5,0.1-1,0.3-1.4
	c0.2-0.4,0.7-0.8,1.3-1.3c0.6-0.4,1-0.8,1.2-1c0.2-0.3,0.3-0.6,0.3-0.9c0-0.4-0.1-0.6-0.4-0.8c-0.3-0.2-0.6-0.3-1.1-0.3
	c-0.8,0-1.8,0.3-2.9,0.8L8.5,6.7c1.2-0.7,2.6-1.1,4-1.1c1.2,0,2.1,0.3,2.8,0.8c0.7,0.6,1,1.3,1,2.2C16.3,9.3,16.1,9.9,15.8,10.3z"/>
</svg>
