<?xml version="1.0" encoding="utf-8"?>
<!-- Generated by IcoMoon.io -->
<!DOCTYPE svg PUBLIC "-//W3C//DTD SVG 1.1//EN" "http://www.w3.org/Graphics/SVG/1.1/DTD/svg11.dtd">
<svg version="1.1" xmlns="http://www.w3.org/2000/svg" xmlns:xlink="http://www.w3.org/1999/xlink" width="32" height="32" viewBox="0 0 32 32">
<path fill="#777582" d="M16 0c-8.874 0-16 7.126-16 16s7.126 16 16 16 16-7.126 16-16-7.261-16-16-16zM16 29.983c-7.664 0-13.983-6.319-13.983-13.983s6.319-13.983 13.983-13.983 13.983 6.319 13.983 13.983-6.319 13.983-13.983 13.983z"></path>
<path fill="#777582" d="M16 20.303c-0.672 0-1.076 0.134-1.345 0.403s-0.538 0.807-0.538 1.345c0 0.538 0.134 1.076 0.538 1.345 0.269 0.269 0.807 0.538 1.345 0.538s1.076-0.134 1.345-0.538c0.269-0.269 0.538-0.807 0.538-1.345s-0.134-1.076-0.538-1.345c-0.403-0.134-0.807-0.403-1.345-0.403z"></path>
<path fill="#777582" d="M16.538 7.933c-1.748 0-3.496 0.403-4.975 1.345l1.21 2.286c1.345-0.672 2.555-1.076 3.63-1.076 0.672 0 1.076 0.134 1.479 0.403s0.538 0.538 0.538 1.076c0 0.403-0.134 0.807-0.403 1.076s-0.672 0.807-1.479 1.345c-0.807 0.538-1.345 1.076-1.613 1.613s-0.403 1.076-0.403 1.748v0.807h2.824v-0.672c0-0.403 0.134-0.807 0.269-1.076s0.672-0.672 1.345-1.21c0.941-0.672 1.613-1.345 2.017-1.882s0.538-1.21 0.538-2.017c0-1.21-0.403-2.151-1.345-2.824-0.941-0.538-2.151-0.941-3.63-0.941z"></path>
</svg>
