<?xml version="1.0" encoding="utf-8"?>
<!-- Generated by IcoMoon.io -->
<!DOCTYPE svg PUBLIC "-//W3C//DTD SVG 1.1//EN" "http://www.w3.org/Graphics/SVG/1.1/DTD/svg11.dtd">
<svg version="1.1" xmlns="http://www.w3.org/2000/svg" xmlns:xlink="http://www.w3.org/1999/xlink" width="32" height="32" viewBox="0 0 32 32">
<path fill="#777582" d="M16 0c-8.874 0-16 7.126-16 16s7.126 16 16 16 16-7.126 16-16c0-8.874-7.261-16-16-16zM17.345 23.933c-0.403 0.403-0.807 0.538-1.479 0.538s-1.076-0.134-1.479-0.538c-0.403-0.269-0.538-0.807-0.538-1.479s0.134-1.076 0.538-1.479c0.403-0.269 0.807-0.538 1.479-0.538s1.076 0.134 1.479 0.538c0.403 0.269 0.538 0.807 0.538 1.479s-0.134 1.21-0.538 1.479zM21.109 13.714c-0.403 0.538-1.076 1.345-2.151 2.017-0.672 0.538-1.21 0.941-1.345 1.21s-0.269 0.672-0.269 1.076v0.672h-2.958v-0.807c0-0.672 0.134-1.345 0.403-1.882s0.941-1.076 1.748-1.748c0.807-0.538 1.345-1.076 1.613-1.345 0.269-0.403 0.403-0.807 0.403-1.21 0-0.538-0.134-0.807-0.538-1.076s-0.807-0.403-1.479-0.403c-1.076 0-2.42 0.403-3.899 1.076l-1.345-2.42c1.613-0.941 3.496-1.479 5.378-1.479 1.613 0 2.824 0.403 3.765 1.076 0.941 0.807 1.345 1.748 1.345 2.958-0.134 0.941-0.269 1.613-0.672 2.286z"></path>
</svg>
