<?xml version="1.0" encoding="utf-8"?>
<!-- Generator: Adobe Illustrator 21.0.2, SVG Export Plug-In . SVG Version: 6.00 Build 0)  -->
<svg version="1.1" id="Ebene_1" xmlns="http://www.w3.org/2000/svg" xmlns:xlink="http://www.w3.org/1999/xlink" x="0px" y="0px"
	 viewBox="0 0 24 24" style="enable-background:new 0 0 24 24;" xml:space="preserve">
<style type="text/css">
	.st0{fill:#777582;}
</style>
<path class="st0" d="M20.4,3.7c-4.6-4.6-12-4.6-16.6,0l-2,2V1.6c0-0.4-0.3-0.8-0.8-0.8S0.2,1.2,0.2,1.6v5.9c0,0.2,0.1,0.5,0.3,0.6
	C0.6,8.3,0.8,8.4,1,8.4c0,0,0.1,0,0.1,0H7c0.4,0,0.8-0.3,0.8-0.8S7.4,6.9,7,6.9H2.7l2.1-2.1c4-4,10.5-4,14.5,0c4,4,4,10.5,0,14.5
	c-4,4-10.5,4-14.5,0C4.5,19,4,19,3.7,19.2s-0.3,0.8,0,1.1C6,22.6,9,23.7,12,23.7s6-1.1,8.3-3.4C24.9,15.7,24.9,8.3,20.4,3.7z"/>
</svg>
