<?xml version="1.0" encoding="utf-8"?>
<!-- Generated by IcoMoon.io -->
<!DOCTYPE svg PUBLIC "-//W3C//DTD SVG 1.1//EN" "http://www.w3.org/Graphics/SVG/1.1/DTD/svg11.dtd">
<svg version="1.1" xmlns="http://www.w3.org/2000/svg" xmlns:xlink="http://www.w3.org/1999/xlink" width="32" height="32" viewBox="0 0 32 32">
<path fill="#777582" d="M27.506 4.63c-6.264-6.264-16.34-6.264-22.604 0l-2.723 2.723v-5.447c0-0.545-0.409-0.953-1.089-0.953s-1.089 0.408-1.089 0.953v8.034c0 0.272 0.136 0.681 0.408 0.817 0.136 0.136 0.408 0.272 0.681 0.272 0 0 0.136 0 0.136 0h8.034c0.545 0 1.089-0.409 1.089-1.089s-0.545-0.953-1.089-0.953h-5.855l2.86-2.86c5.447-5.447 14.298-5.447 19.745 0 2.587 2.587 4.085 6.128 4.085 9.804s-1.498 7.217-4.085 9.804c-2.587 2.587-6.128 4.085-9.804 4.085s-7.217-1.498-9.804-4.085c-0.409-0.409-1.089-0.409-1.498 0s-0.409 1.089 0 1.498c3.132 3.132 7.217 4.63 11.302 4.63s8.17-1.498 11.302-4.63c2.996-2.996 4.63-7.081 4.63-11.302s-1.634-8.17-4.63-11.302z"></path>
</svg>
