<?xml version="1.0" encoding="utf-8"?>
<!-- Generator: Adobe Illustrator 21.0.2, SVG Export Plug-In . SVG Version: 6.00 Build 0)  -->
<svg version="1.1" id="Ebene_1" xmlns="http://www.w3.org/2000/svg" xmlns:xlink="http://www.w3.org/1999/xlink" x="0px" y="0px"
	 viewBox="0 0 24 24" style="enable-background:new 0 0 24 24;" xml:space="preserve">
<style type="text/css">
	.st0{fill:#777582;}
</style>
<g>
	<path class="st0" d="M15,16.3L1.6,16.4L1.5,5L20.3,5v2.5c0,0.4,0.3,0.8,0.8,0.8s0.8-0.3,0.8-0.8V5c0-0.8-0.7-1.4-1.5-1.4H1.5
		C0.7,3.5,0.1,4.2,0.1,5v11.4c0,0.8,0.7,1.4,1.5,1.4h8.6V19H7.8C7.4,19,7,19.3,7,19.7s0.3,0.8,0.8,0.8h6.3c0.4,0,0.8-0.3,0.8-0.8
		S14.5,19,14.1,19h-2.4v-1.1H15c0.4,0,0.8-0.3,0.8-0.8S15.4,16.3,15,16.3z"/>
	<path class="st0" d="M22.2,10.2h-2.9c-1,0-1.8,0.8-1.8,1.8v6.7c0,1,0.8,1.8,1.8,1.8h2.9c1,0,1.8-0.8,1.8-1.8V12
		C23.9,11,23.1,10.2,22.2,10.2z M22.4,18.7c0,0.1-0.1,0.3-0.3,0.3h-2.9c-0.1,0-0.3-0.1-0.3-0.3V12c0-0.1,0.1-0.3,0.3-0.3h2.9
		c0.1,0,0.3,0.1,0.3,0.3V18.7z"/>
</g>
</svg>
