<?xml version="1.0" encoding="utf-8"?>
<!-- Generated by IcoMoon.io -->
<!DOCTYPE svg PUBLIC "-//W3C//DTD SVG 1.1//EN" "http://www.w3.org/Graphics/SVG/1.1/DTD/svg11.dtd">
<svg version="1.1" xmlns="http://www.w3.org/2000/svg" xmlns:xlink="http://www.w3.org/1999/xlink" width="45" height="32" viewBox="0 0 45 32">
<path fill="#777582" d="M28.051 25.192h-25.736c-0.136 0-0.272-0.136-0.272-0.272v-22.604c0-0.136 0.136-0.272 0.272-0.272h35.813c0.136 0 0.272 0.136 0.272 0.272v4.902c0 0.545 0.545 0.953 1.089 0.953s1.089-0.409 1.089-1.089v-4.766c-0.136-1.226-1.089-2.315-2.451-2.315h-35.813c-1.226 0-2.315 1.089-2.315 2.315v22.468c0 1.362 1.089 2.315 2.315 2.315h16.885v2.723h-4.766c-0.545 0-1.089 0.409-1.089 1.089s0.409 1.089 1.089 1.089h11.438c0.545 0 1.089-0.409 1.089-1.089s-0.409-0.953-0.953-0.953h-4.766v-2.723h6.808c0.545 0 1.089-0.409 1.089-1.089s-0.545-0.953-1.089-0.953z"></path>
<path fill="#777582" d="M43.030 12.528h-7.081c-1.362 0-2.451 1.089-2.451 2.451v14.706c0 1.362 1.089 2.451 2.451 2.451h7.081c1.362 0 2.451-1.089 2.451-2.451v-14.706c0-1.362-1.089-2.451-2.451-2.451zM43.438 29.685c0 0.136-0.136 0.409-0.408 0.409h-7.081c-0.136 0-0.408-0.136-0.408-0.409v-14.706c0-0.136 0.136-0.409 0.408-0.409h7.081c0.136 0 0.408 0.136 0.408 0.409v14.706z"></path>
</svg>
