<?xml version="1.0" encoding="utf-8"?>
<!-- Generator: Adobe Illustrator 21.0.2, SVG Export Plug-In . SVG Version: 6.00 Build 0)  -->
<svg version="1.1" id="Ebene_1" xmlns="http://www.w3.org/2000/svg" xmlns:xlink="http://www.w3.org/1999/xlink" x="0px" y="0px"
	 viewBox="0 0 24 24" style="enable-background:new 0 0 24 24;" xml:space="preserve">
<style type="text/css">
	.st0{fill:#777582;}
</style>
<g>
	<path class="st0" d="M20,0.3H4C1.9,0.3,0.3,1.9,0.3,4v16c0,2.1,1.7,3.8,3.8,3.8h16c2.1,0,3.8-1.7,3.8-3.8V4
		C23.8,1.9,22.1,0.3,20,0.3z M22.3,20c0,1.2-1,2.3-2.3,2.3H4c-1.2,0-2.3-1-2.3-2.3V4c0-1.2,1-2.3,2.3-2.3h16c1.2,0,2.3,1,2.3,2.3V20
		z"/>
	<path class="st0" d="M16.2,16.2c0.3-0.3,0.3-0.8,0-1.1l-0.7-0.7c-0.3-0.3-0.8-0.3-1.1,0s-0.3,0.8,0,1.1l0.7,0.7
		c0.1,0.1,0.3,0.2,0.5,0.2S16,16.3,16.2,16.2z"/>
	<path class="st0" d="M8.9,7.8c-0.3-0.3-0.8-0.3-1.1,0s-0.3,0.8,0,1.1l0.7,0.7c0.1,0.1,0.3,0.2,0.5,0.2s0.4-0.1,0.5-0.2
		c0.3-0.3,0.3-0.8,0-1.1L8.9,7.8z"/>
	<path class="st0" d="M19.9,4.5c-0.1-0.2-0.2-0.3-0.4-0.4C19.4,4,19.4,4,19.3,4c0,0,0,0,0,0H16c-0.4,0-0.8,0.3-0.8,0.8
		s0.3,0.8,0.8,0.8h1.4L17,6c-0.3,0.3-0.3,0.8,0,1.1c0.1,0.1,0.3,0.2,0.5,0.2c0.2,0,0.4-0.1,0.5-0.2l0.5-0.5V8c0,0.4,0.3,0.8,0.8,0.8
		S20,8.4,20,8V4.8c0,0,0,0,0,0C20,4.7,20,4.6,19.9,4.5z"/>
	<path class="st0" d="M14.9,9.8c0.2,0,0.4-0.1,0.5-0.2l0.7-0.7c0.3-0.3,0.3-0.8,0-1.1s-0.8-0.3-1.1,0l-0.7,0.7
		c-0.3,0.3-0.3,0.8,0,1.1C14.5,9.7,14.7,9.8,14.9,9.8z"/>
	<path class="st0" d="M13.6,10.4c-0.3-0.3-0.8-0.3-1.1,0L12,10.9l-0.5-0.5c-0.3-0.3-0.8-0.3-1.1,0s-0.3,0.8,0,1.1l0.5,0.5l-0.5,0.5
		c-0.3,0.3-0.3,0.8,0,1.1c0.1,0.1,0.3,0.2,0.5,0.2s0.4-0.1,0.5-0.2l0.5-0.5l0.5,0.5c0.1,0.1,0.3,0.2,0.5,0.2c0.2,0,0.4-0.1,0.5-0.2
		c0.3-0.3,0.3-0.8,0-1.1L13.1,12l0.5-0.5C13.9,11.2,13.9,10.7,13.6,10.4z"/>
	<path class="st0" d="M8.5,14.4l-0.7,0.7c-0.3,0.3-0.3,0.8,0,1.1c0.1,0.1,0.3,0.2,0.5,0.2s0.4-0.1,0.5-0.2l0.7-0.7
		c0.3-0.3,0.3-0.8,0-1.1S8.8,14.1,8.5,14.4z"/>
	<path class="st0" d="M4.8,8.7c0.4,0,0.8-0.3,0.8-0.8V6.6L6,7c0.1,0.1,0.3,0.2,0.5,0.2S6.9,7.2,7,7C7.3,6.8,7.3,6.3,7,6L6.6,5.5H8
		c0.4,0,0.8-0.3,0.8-0.8S8.4,4,8,4H4.8C4.7,4,4.6,4,4.5,4.1C4.3,4.1,4.1,4.3,4.1,4.5C4,4.6,4,4.7,4,4.8V8C4,8.4,4.3,8.7,4.8,8.7z"/>
	<path class="st0" d="M8,18.5H6.6L7,18c0.3-0.3,0.3-0.8,0-1.1S6.3,16.7,6,17l-0.5,0.5V16c0-0.4-0.3-0.8-0.8-0.8S4,15.6,4,16v3.2
		c0,0.1,0,0.2,0.1,0.3c0.1,0.2,0.2,0.3,0.4,0.4C4.6,20,4.7,20,4.8,20H8c0.4,0,0.8-0.3,0.8-0.8S8.4,18.5,8,18.5z"/>
	<path class="st0" d="M19.2,15.3c-0.4,0-0.8,0.3-0.8,0.8v1.4L18,17c-0.3-0.3-0.8-0.3-1.1,0s-0.3,0.8,0,1.1l0.5,0.5H16
		c-0.4,0-0.8,0.3-0.8,0.8S15.6,20,16,20h3.2c0.1,0,0.2,0,0.3-0.1c0.2-0.1,0.3-0.2,0.4-0.4c0-0.1,0.1-0.2,0.1-0.3V16
		C20,15.6,19.7,15.3,19.2,15.3z"/>
</g>
</svg>
