<?xml version="1.0" encoding="utf-8"?>
<!-- Generated by IcoMoon.io -->
<!DOCTYPE svg PUBLIC "-//W3C//DTD SVG 1.1//EN" "http://www.w3.org/Graphics/SVG/1.1/DTD/svg11.dtd">
<svg version="1.1" xmlns="http://www.w3.org/2000/svg" xmlns:xlink="http://www.w3.org/1999/xlink" width="32" height="32" viewBox="0 0 32 32">
<path fill="#777582" d="M26.962 0h-21.787c-2.86 0-5.174 2.315-5.174 5.038v21.787c0 2.86 2.315 5.174 5.174 5.174h21.787c2.86 0 5.174-2.315 5.174-5.174v-21.787c-0.136-2.723-2.451-5.038-5.174-5.038zM29.957 26.962c0 1.634-1.362 3.132-3.132 3.132h-21.787c-1.634 0-3.132-1.362-3.132-3.132v-21.787c0-1.634 1.362-3.132 3.132-3.132h21.787c1.634 0 3.132 1.362 3.132 3.132v21.787z"></path>
<path fill="#777582" d="M21.651 21.651c0.409-0.409 0.409-1.089 0-1.498l-0.953-0.953c-0.409-0.409-1.089-0.409-1.498 0s-0.409 1.089 0 1.498l0.953 0.953c0.136 0.136 0.409 0.272 0.681 0.272s0.681 0 0.817-0.272z"></path>
<path fill="#777582" d="M11.847 10.349c-0.409-0.409-1.089-0.409-1.498 0s-0.409 1.089 0 1.498l0.953 0.953c0.136 0.136 0.409 0.272 0.681 0.272s0.545-0.136 0.681-0.272c0.409-0.409 0.409-1.089 0-1.498l-0.817-0.953z"></path>
<path fill="#777582" d="M20.017 13.072c0.272 0 0.545-0.136 0.681-0.272l0.953-0.953c0.409-0.409 0.409-1.089 0-1.498s-1.089-0.409-1.498 0l-0.953 0.953c-0.409 0.409-0.409 1.089 0 1.498 0.272 0.136 0.545 0.272 0.817 0.272z"></path>
<path fill="#777582" d="M18.247 13.753c-0.409-0.409-1.089-0.409-1.498 0l-0.681 0.681-0.681-0.681c-0.409-0.409-1.089-0.409-1.498 0s-0.409 1.089 0 1.498l0.681 0.681-0.681 0.681c-0.409 0.409-0.409 1.089 0 1.498 0.136 0.136 0.409 0.272 0.681 0.272s0.545-0.136 0.681-0.272l0.681-0.681 0.681 0.681c0.136 0.136 0.409 0.272 0.681 0.272s0.545-0.136 0.681-0.272c0.409-0.409 0.409-1.089 0-1.498l-0.681-0.681 0.681-0.681c0.545-0.409 0.545-1.089 0.272-1.498z"></path>
<path fill="#777582" d="M11.302 19.336l-0.953 0.953c-0.409 0.409-0.409 1.089 0 1.498 0.136 0.136 0.409 0.272 0.681 0.272s0.545-0.136 0.681-0.272l0.953-0.953c0.409-0.409 0.409-1.089 0-1.498s-0.953-0.409-1.362 0z"></path>
<path fill="#777582" d="M6.128 11.574c0.545 0 1.089-0.409 1.089-0.953v-2.043l0.681 0.681c0.136 0.136 0.408 0.272 0.681 0.272s0.545-0.136 0.681-0.272c0.409-0.409 0.409-1.089 0-1.498l-0.681-0.545h1.906c0.545 0 0.953-0.409 0.953-1.089s-0.409-0.953-0.953-0.953h-4.357c-0.136 0-0.272 0-0.409 0.136-0.272 0-0.409 0.136-0.545 0.409 0 0.136-0.136 0.272-0.136 0.409v4.357c0.136 0.545 0.545 1.089 1.089 1.089z"></path>
<path fill="#777582" d="M10.485 24.783h-1.906l0.681-0.681c0.409-0.409 0.409-1.089 0-1.498s-1.089-0.409-1.498 0l-0.681 0.681v-1.906c0-0.545-0.409-1.089-1.089-1.089s-1.089 0.409-1.089 1.089v4.494c0 0.136 0 0.272 0.136 0.409 0.136 0.272 0.272 0.409 0.545 0.545 0.136 0 0.272 0.136 0.409 0.136h4.357c0.545 0 0.953-0.409 0.953-1.089s-0.272-1.089-0.817-1.089z"></path>
<path fill="#777582" d="M25.872 20.426c-0.545 0-1.089 0.409-1.089 1.089v1.906l-0.681-0.681c-0.409-0.409-1.089-0.409-1.498 0s-0.409 1.089 0 1.498l0.681 0.681h-1.906c-0.545 0-1.089 0.409-1.089 1.089s0.409 1.089 1.089 1.089h4.494c0.136 0 0.272 0 0.409-0.136 0.272-0.136 0.409-0.272 0.545-0.545 0-0.136 0.136-0.272 0.136-0.409v-4.357c-0.136-0.681-0.545-1.226-1.089-1.226z"></path>
<path fill="#777582" d="M26.281 5.174c-0.136 0-0.272-0.136-0.409-0.136h-4.357c-0.545 0-1.089 0.409-1.089 1.089s0.409 1.089 1.089 1.089h1.906l-0.681 0.681c-0.409 0.408-0.409 1.089 0 1.498 0.272 0 0.409 0.136 0.681 0.136s0.545-0.136 0.681-0.272l0.681-0.681v1.906c0 0.545 0.409 0.953 1.089 0.953s1.089-0.409 1.089-0.953v-4.357c0-0.136 0-0.272-0.136-0.409-0.136-0.272-0.272-0.409-0.545-0.545z"></path>
</svg>
