<?xml version="1.0" encoding="utf-8"?>
<!-- Generator: Adobe Illustrator 21.0.2, SVG Export Plug-In . SVG Version: 6.00 Build 0)  -->
<svg version="1.1" id="Ebene_1" xmlns="http://www.w3.org/2000/svg" xmlns:xlink="http://www.w3.org/1999/xlink" x="0px" y="0px"
	 viewBox="0 0 24 24" style="enable-background:new 0 0 24 24;" xml:space="preserve">
<style type="text/css">
	.st0{fill:#777582;}
</style>
<g>
	<path class="st0" d="M12,0.2C5.5,0.2,0.3,5.5,0.3,12S5.5,23.8,12,23.8c6.5,0,11.8-5.3,11.8-11.8S18.5,0.2,12,0.2z M12,22.3
		C6.3,22.3,1.8,17.7,1.8,12S6.3,1.7,12,1.7c5.7,0,10.3,4.6,10.3,10.3S17.7,22.3,12,22.3z"/>
	<path class="st0" d="M15,14.1c0.8-0.9,1.2-2.1,1.2-3.3c0-2.9-2.4-5.3-5.3-5.3c-2.9,0-5.3,2.4-5.3,5.3s2.4,5.3,5.3,5.3
		c1.1,0,2.1-0.3,3-0.9l2.4,2.4c0.1,0.1,0.3,0.2,0.5,0.2c0.2,0,0.4-0.1,0.5-0.2c0.3-0.3,0.3-0.8,0-1.1L15,14.1z M7.2,10.8
		C7.2,8.7,8.9,7,11,7c2.1,0,3.8,1.7,3.8,3.8s-1.7,3.8-3.8,3.8C8.9,14.6,7.2,12.9,7.2,10.8z"/>
</g>
</svg>
