<?xml version="1.0" encoding="utf-8"?>
<!-- Generator: Adobe Illustrator 21.0.2, SVG Export Plug-In . SVG Version: 6.00 Build 0)  -->
<svg version="1.1" id="Ebene_1" xmlns="http://www.w3.org/2000/svg" xmlns:xlink="http://www.w3.org/1999/xlink" x="0px" y="0px"
	 viewBox="0 0 24 24" style="enable-background:new 0 0 24 24;" xml:space="preserve">
<style type="text/css">
	.st0{fill:#777582;}
</style>
<path class="st0" d="M23.2,22.5l-5.7-5.7c1.6-1.8,2.7-4.1,2.7-6.7c0-5.4-4.4-9.8-9.8-9.8s-9.8,4.4-9.8,9.8c0,5.4,4.4,9.8,9.8,9.8
	c2.3,0,4.4-0.8,6.1-2.1l5.8,5.8c0.1,0.1,0.3,0.2,0.5,0.2c0.2,0,0.4-0.1,0.5-0.2C23.5,23.2,23.5,22.8,23.2,22.5z M2,10.1
	c0-4.6,3.7-8.3,8.3-8.3s8.3,3.7,8.3,8.3c0,4.6-3.7,8.3-8.3,8.3S2,14.6,2,10.1z"/>
</svg>
