<?xml version="1.0" encoding="utf-8"?>
<!-- Generator: Adobe Illustrator 21.0.2, SVG Export Plug-In . SVG Version: 6.00 Build 0)  -->
<svg version="1.1" id="Ebene_1" xmlns="http://www.w3.org/2000/svg" xmlns:xlink="http://www.w3.org/1999/xlink" x="0px" y="0px"
	 viewBox="0 0 24 24" style="enable-background:new 0 0 24 24;" xml:space="preserve">
<style type="text/css">
	.st0{fill:#777582;}
</style>
<g>
	<path class="st0" d="M9.1,0.3H2C1,0.3,0.3,1,0.3,2v7.1c0,1,0.8,1.8,1.8,1.8h7.1c1,0,1.8-0.8,1.8-1.8V2C10.9,1,10.1,0.3,9.1,0.3z
		 M9.4,9.1c0,0.1-0.1,0.3-0.3,0.3H2c-0.1,0-0.3-0.1-0.3-0.3V2c0-0.1,0.1-0.3,0.3-0.3h7.1c0.1,0,0.3,0.1,0.3,0.3V9.1z"/>
	<path class="st0" d="M7.5,3.1h-4c-0.3,0-0.5,0.2-0.5,0.5v4C3.1,7.8,3.3,8,3.6,8h4C7.8,8,8,7.8,8,7.5v-4C8,3.3,7.8,3.1,7.5,3.1z"/>
	<path class="st0" d="M22,0.3h-7.1c-1,0-1.8,0.8-1.8,1.8v7.1c0,1,0.8,1.8,1.8,1.8H22c1,0,1.8-0.8,1.8-1.8V2C23.8,1,23,0.3,22,0.3z
		 M22.3,9.1c0,0.1-0.1,0.3-0.3,0.3h-7.1c-0.1,0-0.3-0.1-0.3-0.3V2c0-0.1,0.1-0.3,0.3-0.3H22c0.1,0,0.3,0.1,0.3,0.3V9.1z"/>
	<path class="st0" d="M9.1,13.1H2c-1,0-1.8,0.8-1.8,1.8V22c0,1,0.8,1.8,1.8,1.8h7.1c1,0,1.8-0.8,1.8-1.8v-7.1
		C10.9,13.9,10.1,13.1,9.1,13.1z M9.4,22c0,0.1-0.1,0.3-0.3,0.3H2c-0.1,0-0.3-0.1-0.3-0.3v-7.1c0-0.1,0.1-0.3,0.3-0.3h7.1
		c0.1,0,0.3,0.1,0.3,0.3V22z"/>
	<path class="st0" d="M22,13.1h-7.1c-1,0-1.8,0.8-1.8,1.8V22c0,1,0.8,1.8,1.8,1.8H22c1,0,1.8-0.8,1.8-1.8v-7.1
		C23.8,13.9,23,13.1,22,13.1z M22.3,22c0,0.1-0.1,0.3-0.3,0.3h-7.1c-0.1,0-0.3-0.1-0.3-0.3v-7.1c0-0.1,0.1-0.3,0.3-0.3H22
		c0.1,0,0.3,0.1,0.3,0.3V22z"/>
</g>
</svg>
