<?xml version="1.0" encoding="utf-8"?>
<!-- Generated by IcoMoon.io -->
<!DOCTYPE svg PUBLIC "-//W3C//DTD SVG 1.1//EN" "http://www.w3.org/Graphics/SVG/1.1/DTD/svg11.dtd">
<svg version="1.1" xmlns="http://www.w3.org/2000/svg" xmlns:xlink="http://www.w3.org/1999/xlink" width="32" height="32" viewBox="0 0 32 32">
<path fill="#777582" d="M12.119 0h-9.668c-1.362 0-2.451 1.089-2.451 2.451v9.668c0 1.362 1.089 2.451 2.451 2.451h9.668c1.362 0 2.451-1.089 2.451-2.451v-9.668c-0.136-1.362-1.226-2.451-2.451-2.451zM12.392 12.119c0 0.136-0.136 0.272-0.272 0.272h-9.668c-0.272 0-0.409-0.136-0.409-0.272v-9.668c0-0.136 0.136-0.409 0.409-0.409h9.668c0.136 0 0.409 0.136 0.409 0.409v9.668z"></path>
<path fill="#777582" d="M9.94 3.813h-5.447c-0.409 0-0.681 0.272-0.681 0.681v5.447c0 0.409 0.272 0.681 0.681 0.681h5.447c0.409 0 0.681-0.272 0.681-0.681v-5.447c0-0.272-0.272-0.681-0.681-0.681z"></path>
<path fill="#777582" d="M29.685 0h-9.668c-1.362 0-2.451 1.089-2.451 2.451v9.668c0 1.362 1.089 2.451 2.451 2.451h9.668c1.362 0 2.451-1.089 2.451-2.451v-9.668c-0.136-1.362-1.226-2.451-2.451-2.451zM29.957 12.119c0 0.136-0.136 0.409-0.409 0.409h-9.668c-0.136 0-0.409-0.136-0.409-0.409v-9.668c0-0.136 0.136-0.409 0.409-0.409h9.668c0.136 0 0.409 0.136 0.409 0.409v9.668z"></path>
<path fill="#777582" d="M12.119 17.566h-9.668c-1.362 0-2.451 1.089-2.451 2.451v9.668c0 1.362 1.089 2.451 2.451 2.451h9.668c1.362 0 2.451-1.089 2.451-2.451v-9.668c-0.136-1.362-1.226-2.451-2.451-2.451zM12.392 29.685c0 0.136-0.136 0.272-0.272 0.272h-9.668c-0.136 0-0.409-0.136-0.409-0.409v-9.668c0-0.136 0.136-0.409 0.409-0.409h9.668c0.136 0 0.409 0.136 0.409 0.409v9.804z"></path>
<path fill="#777582" d="M29.685 17.566h-9.668c-1.362 0-2.451 1.089-2.451 2.451v9.668c0 1.362 1.089 2.451 2.451 2.451h9.668c1.362 0 2.451-1.089 2.451-2.451v-9.668c-0.136-1.362-1.226-2.451-2.451-2.451zM29.957 29.685c0 0.136-0.136 0.409-0.409 0.409h-9.668c-0.136 0-0.409-0.136-0.409-0.409v-9.668c0-0.136 0.136-0.409 0.409-0.409h9.668c0.136 0 0.409 0.136 0.409 0.409v9.668z"></path>
</svg>
