<?xml version="1.0" encoding="utf-8"?>
<!-- Generator: Adobe Illustrator 21.0.2, SVG Export Plug-In . SVG Version: 6.00 Build 0)  -->
<svg version="1.1" id="Ebene_1" xmlns="http://www.w3.org/2000/svg" xmlns:xlink="http://www.w3.org/1999/xlink" x="0px" y="0px"
	 viewBox="0 0 24 24" style="enable-background:new 0 0 24 24;" xml:space="preserve">
<style type="text/css">
	.st0{fill:#777582;}
</style>
<g id="XMLID_894_">
	<path class="st0" d="M12,23.8c-5.5,0-10-5-10-11.1V3.5c0-0.4,0.3-0.8,0.8-0.8c2,0,4.9-0.8,8.6-2.3c0.4-0.2,0.5-0.2,0.6-0.2
		c0.2,0,0.2,0,0.7,0.2c3.7,1.5,6.6,2.3,8.6,2.3c0.4,0,0.8,0.3,0.8,0.8v9.2C22,18.8,17.5,23.8,12,23.8z M3.5,4.2v8.5
		c0,5.3,3.8,9.6,8.5,9.6s8.5-4.3,8.5-9.6V4.2c-3.2-0.2-7-1.8-8.4-2.3c0,0-0.1,0-0.1,0c0,0,0,0-0.1,0C8.5,3.2,5.7,4,3.5,4.2z"/>
</g>
</svg>
