<?xml version="1.0" encoding="utf-8"?>
<!-- Generated by IcoMoon.io -->
<!DOCTYPE svg PUBLIC "-//W3C//DTD SVG 1.1//EN" "http://www.w3.org/Graphics/SVG/1.1/DTD/svg11.dtd">
<svg version="1.1" xmlns="http://www.w3.org/2000/svg" xmlns:xlink="http://www.w3.org/1999/xlink" width="27" height="32" viewBox="0 0 27 32">
<path fill="#777582" d="M13.617 32c-7.489 0-13.617-6.809-13.617-15.115v-12.528c0-0.545 0.408-1.089 1.089-1.089 2.723 0 6.672-1.089 11.711-3.132 0.409-0.136 0.545-0.136 0.817-0.136s0.272 0 0.953 0.272c5.038 2.043 8.987 3.132 11.711 3.132 0.545 0 1.089 0.409 1.089 1.089v12.528c-0.272 8.17-6.264 14.979-13.753 14.979zM2.043 5.311v11.574c0 7.217 5.174 13.072 11.574 13.072s11.574-5.855 11.574-13.072v-11.574c-4.357-0.272-9.532-2.451-11.438-3.132 0 0-0.136 0-0.136 0s0 0-0.136 0c-4.63 1.906-8.443 2.996-11.438 3.132z"></path>
</svg>
