<?xml version="1.0" encoding="utf-8"?>
<!-- Generator: Adobe Illustrator 21.0.2, SVG Export Plug-In . SVG Version: 6.00 Build 0)  -->
<svg version="1.1" id="Ebene_1" xmlns="http://www.w3.org/2000/svg" xmlns:xlink="http://www.w3.org/1999/xlink" x="0px" y="0px"
	 viewBox="0 0 24 24" style="enable-background:new 0 0 24 24;" xml:space="preserve">
<style type="text/css">
	.st0{fill:#777582;}
</style>
<g>
	<path class="st0" d="M17.3,14.3H6.7c-0.4,0-0.8,0.3-0.8,0.8s0.3,0.8,0.8,0.8h10.6c0.4,0,0.8-0.3,0.8-0.8S17.7,14.3,17.3,14.3z"/>
	<path class="st0" d="M6.7,12.7h7.9c0.4,0,0.8-0.3,0.8-0.8s-0.3-0.8-0.8-0.8H6.7C6.3,11.2,6,11.6,6,12S6.3,12.7,6.7,12.7z"/>
	<path class="st0" d="M6.7,9.7h4.8c0.4,0,0.8-0.3,0.8-0.8S12,8.2,11.6,8.2H6.7C6.3,8.2,6,8.5,6,8.9S6.3,9.7,6.7,9.7z"/>
	<path class="st0" d="M12,0.1C5.4,0.1,0.1,5.4,0.1,12c0,6.6,5.3,11.9,11.9,11.9S23.9,18.6,23.9,12C23.9,5.4,18.6,0.1,12,0.1z
		 M12,22.4C6.3,22.4,1.6,17.7,1.6,12S6.3,1.6,12,1.6c5.7,0,10.4,4.7,10.4,10.4S17.7,22.4,12,22.4z"/>
</g>
</svg>
