<?xml version="1.0" encoding="utf-8"?>
<!-- Generated by IcoMoon.io -->
<!DOCTYPE svg PUBLIC "-//W3C//DTD SVG 1.1//EN" "http://www.w3.org/Graphics/SVG/1.1/DTD/svg11.dtd">
<svg version="1.1" xmlns="http://www.w3.org/2000/svg" xmlns:xlink="http://www.w3.org/1999/xlink" width="32" height="32" viewBox="0 0 32 32">
<path fill="#777582" d="M23.126 21.109h-14.252c-0.538 0-1.076-0.403-1.076-1.076s0.403-1.076 1.076-1.076h14.252c0.538 0 1.076 0.403 1.076 1.076s-0.538 1.076-1.076 1.076z"></path>
<path fill="#777582" d="M19.496 16.941h-10.622c-0.538 0-1.076-0.403-1.076-1.076s0.403-1.076 1.076-1.076h10.622c0.538 0 1.076 0.403 1.076 1.076s-0.538 1.076-1.076 1.076z"></path>
<path fill="#777582" d="M15.328 12.908h-6.454c-0.538 0-1.076-0.403-1.076-1.076s0.403-1.076 1.076-1.076h6.454c0.538 0 1.076 0.403 1.076 1.076s-0.403 1.076-1.076 1.076z"></path>
<path fill="#777582" d="M16 32c-8.874 0-16-7.261-16-16 0-8.874 7.126-16 16-16s16 7.126 16 16c0 8.739-7.261 16-16 16zM16 2.017c-7.664 0-13.983 6.319-13.983 13.983s6.319 13.983 13.983 13.983 13.983-6.319 13.983-13.983-6.319-13.983-13.983-13.983z"></path>
</svg>
