<?xml version="1.0" encoding="utf-8"?>
<!-- Generated by IcoMoon.io -->
<!DOCTYPE svg PUBLIC "-//W3C//DTD SVG 1.1//EN" "http://www.w3.org/Graphics/SVG/1.1/DTD/svg11.dtd">
<svg version="1.1" xmlns="http://www.w3.org/2000/svg" xmlns:xlink="http://www.w3.org/1999/xlink" width="32" height="32" viewBox="0 0 32 32">
<path fill="#777582" d="M32 11.711c0-0.953-0.409-1.906-1.089-2.587l-7.898-7.898c-1.498-1.498-3.813-1.498-5.311 0l-8.306 8.17c0 0 0 0 0 0s0 0 0 0l-8.306 8.306c-0.681 0.681-1.089 1.634-1.089 2.587s0.408 1.906 1.089 2.587l7.898 7.898c0.681 0.681 1.634 1.089 2.587 1.089s1.906-0.409 2.587-1.089l8.306-8.306c0 0 0 0 0 0s0 0 0 0l8.306-8.306c0.817-0.545 1.226-1.498 1.226-2.451zM27.915 8.987l-1.634 1.634c-0.136 0.136-0.409 0.136-0.545 0l-4.357-4.357c-0.136-0.136-0.136-0.136-0.136-0.272s0-0.136 0.136-0.272l1.634-1.634 4.902 4.902zM5.719 21.515c0.136-0.136 0.409-0.136 0.545 0l4.221 4.357c0.136 0.136 0.136 0.136 0.136 0.272 0 0 0 0.136-0.136 0.272l-1.634 1.634-4.766-5.038 1.634-1.498zM12.936 29.413c-0.681 0.681-1.77 0.681-2.451 0l-0.136-0.136 1.634-1.634c0.409-0.409 0.681-1.089 0.681-1.634 0-0.681-0.272-1.226-0.681-1.634l-4.357-4.357c-0.953-0.953-2.451-0.953-3.404 0l-1.498 1.634-0.136-0.136c-0.272-0.272-0.545-0.681-0.545-1.226s0.136-0.817 0.545-1.226l7.489-7.489 2.043 2.043c-0.409 0.681-0.681 1.498-0.681 2.451 0 1.226 0.545 2.451 1.362 3.268s2.043 1.362 3.268 1.362c0.817 0 1.77-0.272 2.451-0.681l2.043 2.043-7.626 7.353zM18.383 16.885l-3.268-3.268c0.272-0.136 0.545-0.136 0.953-0.136 0.681 0 1.362 0.272 1.77 0.817s0.817 1.089 0.817 1.77c-0.136 0.272-0.136 0.545-0.272 0.817zM16.885 18.383c-0.953 0.272-2.043 0.136-2.723-0.545-0.545-0.545-0.817-1.089-0.817-1.77 0-0.272 0-0.681 0.136-0.953l3.404 3.268zM29.413 12.936l-7.489 7.489-2.043-2.043c0.409-0.681 0.681-1.498 0.681-2.451 0-1.226-0.545-2.451-1.362-3.268-1.498-1.362-3.813-1.634-5.583-0.545l-2.043-2.043 7.489-7.489c0.272-0.272 0.817-0.545 1.226-0.545s0.817 0.136 1.226 0.545l0.136 0.136-1.634 1.634c-0.409 0.409-0.681 1.089-0.681 1.634 0 0.681 0.272 1.226 0.681 1.634l4.357 4.357c0.409 0.409 1.089 0.681 1.634 0.681s1.226-0.272 1.634-0.681l1.634-1.634 0.136 0.136c0.409 0.409 0.545 0.817 0.545 1.226s-0.136 0.817-0.545 1.226z"></path>
</svg>
