<?xml version="1.0" encoding="utf-8"?>
<!-- Generator: Adobe Illustrator 21.0.2, SVG Export Plug-In . SVG Version: 6.00 Build 0)  -->
<svg version="1.1" id="Ebene_1" xmlns="http://www.w3.org/2000/svg" xmlns:xlink="http://www.w3.org/1999/xlink" x="0px" y="0px"
	 viewBox="0 0 24 24" style="enable-background:new 0 0 24 24;" xml:space="preserve">
<style type="text/css">
	.st0{fill:#777582;}
</style>
<path class="st0" d="M22.9,6.9L17.1,1c-1-1-2.9-1-3.9,0L1.1,13.2c-0.5,0.5-0.8,1.2-0.8,1.9c0,0.7,0.3,1.4,0.8,1.9l5.8,5.8
	c0.5,0.5,1.2,0.8,1.9,0.8c0.7,0,1.4-0.3,1.9-0.8l12.1-12.1C24,9.7,24,8,22.9,6.9z M20.7,6.8L19.6,8c-0.1,0.1-0.2,0.1-0.4,0L16,4.8
	c-0.1-0.1-0.1-0.1-0.1-0.2s0-0.1,0.1-0.2l1.2-1.2L20.7,6.8z M4.4,16C4.4,16,4.4,16,4.4,16c0.1-0.1,0.2-0.1,0.4,0L8,19.2
	c0.1,0.1,0.1,0.1,0.1,0.2c0,0,0,0.1-0.1,0.2l-1.2,1.2l-3.5-3.5L4.4,16z M9.7,21.9c-0.5,0.5-1.3,0.5-1.8,0l-0.1-0.1L9,20.6
	c0.3-0.3,0.5-0.8,0.5-1.2c0-0.5-0.2-0.9-0.5-1.2l-3.2-3.2c-0.7-0.7-1.8-0.7-2.5,0l-1.2,1.2L2.1,16c-0.2-0.2-0.4-0.5-0.4-0.9
	s0.1-0.6,0.4-0.9l5.5-5.5l1.5,1.5c-0.8,1.3-0.7,3.1,0.5,4.2c0.6,0.6,1.5,1,2.4,1c0.6,0,1.3-0.2,1.8-0.5l1.5,1.5L9.7,21.9z
	 M13.7,12.7l-2.4-2.4c0.2-0.1,0.5-0.1,0.7-0.1c0.5,0,1,0.2,1.3,0.5c0.4,0.4,0.6,0.8,0.6,1.3C13.9,12.2,13.8,12.5,13.7,12.7z
	 M12.7,13.7c-0.7,0.2-1.5,0.1-2-0.4c-0.5-0.5-0.7-1.3-0.4-2L12.7,13.7z M21.9,9.7l-5.5,5.5l-1.5-1.5c0.3-0.5,0.5-1.1,0.5-1.8
	c0-0.9-0.4-1.8-1-2.4c-1.1-1.1-2.9-1.3-4.2-0.5L8.7,7.6l5.5-5.5c0.2-0.2,0.5-0.4,0.9-0.4s0.6,0.1,0.9,0.4l0.1,0.1L15,3.4
	c-0.3,0.3-0.5,0.8-0.5,1.2c0,0.5,0.2,0.9,0.5,1.2L18.2,9c0.3,0.3,0.8,0.5,1.2,0.5c0.5,0,0.9-0.2,1.2-0.5l1.2-1.2L21.9,8
	C22.4,8.4,22.4,9.2,21.9,9.7z"/>
</svg>
