<?xml version="1.0" encoding="utf-8"?>
<!-- Generator: Adobe Illustrator 21.0.2, SVG Export Plug-In . SVG Version: 6.00 Build 0)  -->
<svg version="1.1" id="Ebene_1" xmlns="http://www.w3.org/2000/svg" xmlns:xlink="http://www.w3.org/1999/xlink" x="0px" y="0px"
	 viewBox="0 0 24 24" style="enable-background:new 0 0 24 24;" xml:space="preserve">
<style type="text/css">
	.st0{fill:#777582;}
</style>
<path class="st0" d="M23.5,11c0.5-0.5,0.7-1.2,0.4-1.8c-0.2-0.6-0.8-1.1-1.4-1.2l-6-0.9c-0.1,0-0.2-0.1-0.2-0.2l-2.7-5.4
	c-0.3-0.6-0.9-1-1.6-1c0,0,0,0,0,0c-0.7,0-1.3,0.4-1.6,1L7.7,6.9c0,0.1-0.1,0.2-0.2,0.2l-6,0.9C0.8,8,0.3,8.5,0.1,9.2
	c-0.2,0.6,0,1.3,0.4,1.8l4.3,4.2C4.9,15.3,5,15.4,5,15.5l-1,6c-0.1,0.7,0.2,1.3,0.7,1.7c0.3,0.2,0.7,0.3,1,0.3
	c0.3,0,0.6-0.1,0.8-0.2l5.4-2.8l0,0c0.1,0,0.2,0,0.3,0l5.4,2.8c0.6,0.3,1.3,0.3,1.9-0.1c0.5-0.4,0.8-1.1,0.7-1.7l-1-6
	c0-0.1,0-0.2,0.1-0.3L23.5,11z M17.6,15.7l1,6c0,0.2-0.1,0.3-0.1,0.3c-0.1,0-0.2,0.1-0.3,0l-5.4-2.8c-0.5-0.3-1.1-0.3-1.7,0L5.8,22
	c-0.1,0.1-0.3,0-0.3,0s-0.1-0.1-0.1-0.3l1-6c0.1-0.6-0.1-1.2-0.5-1.6L1.6,9.9C1.4,9.8,1.5,9.7,1.5,9.6c0-0.1,0.1-0.2,0.2-0.2l6-0.9
	c0.6-0.1,1.1-0.4,1.3-1l2.7-5.4C11.8,2,11.9,2,12,2c0,0,0,0,0,0c0.1,0,0.2,0,0.3,0.2l2.7,5.4c0.3,0.5,0.8,0.9,1.3,1l6,0.9
	c0.2,0,0.2,0.1,0.2,0.2c0,0.1,0,0.2-0.1,0.3l-4.3,4.2C17.7,14.6,17.5,15.1,17.6,15.7z"/>
</svg>
