<?xml version="1.0" encoding="utf-8"?>
<!-- Generator: Adobe Illustrator 21.0.2, SVG Export Plug-In . SVG Version: 6.00 Build 0)  -->
<svg version="1.1" id="Ebene_1" xmlns="http://www.w3.org/2000/svg" xmlns:xlink="http://www.w3.org/1999/xlink" x="0px" y="0px"
	 viewBox="0 0 24 24" style="enable-background:new 0 0 24 24;" xml:space="preserve">
<style type="text/css">
	.st0{fill:#777582;}
</style>
<g>
	<circle class="st0" cx="19.5" cy="12.1" r="1"/>
	<path class="st0" d="M22,2.3H2C1,2.3,0.3,3,0.3,4v16c0,1,0.8,1.8,1.8,1.8h20c1,0,1.8-0.8,1.8-1.8V4C23.8,3,23,2.3,22,2.3z M22.3,20
		c0,0.1-0.1,0.3-0.3,0.3H2c-0.1,0-0.3-0.1-0.3-0.3V4c0-0.1,0.1-0.3,0.3-0.3h20c0.1,0,0.3,0.1,0.3,0.3V20z"/>
</g>
</svg>
