<?xml version="1.0" encoding="utf-8"?>
<!-- Generator: Adobe Illustrator 21.0.2, SVG Export Plug-In . SVG Version: 6.00 Build 0)  -->
<svg version="1.1" id="Ebene_1" xmlns="http://www.w3.org/2000/svg" xmlns:xlink="http://www.w3.org/1999/xlink" x="0px" y="0px"
	 viewBox="0 0 24 24" style="enable-background:new 0 0 24 24;" xml:space="preserve">
<style type="text/css">
	.st0{fill:#777582;}
</style>
<g>
	<circle class="st0" cx="18.7" cy="12.1" r="0.9"/>
	<path class="st0" d="M20.9,3.2H3.1c-1,0-1.8,0.8-1.8,1.8v14.1c0,1,0.8,1.8,1.8,1.8h17.7c1,0,1.8-0.8,1.8-1.8V4.9
		C22.6,4,21.8,3.2,20.9,3.2z M21.1,19.1c0,0.1-0.1,0.3-0.3,0.3H3.1c-0.1,0-0.3-0.1-0.3-0.3V4.9c0-0.1,0.1-0.3,0.3-0.3h17.7
		c0.1,0,0.3,0.1,0.3,0.3V19.1z"/>
</g>
</svg>
