<?xml version="1.0" encoding="utf-8"?>
<!-- Generator: Adobe Illustrator 21.0.2, SVG Export Plug-In . SVG Version: 6.00 Build 0)  -->
<svg version="1.1" id="Ebene_1" xmlns="http://www.w3.org/2000/svg" xmlns:xlink="http://www.w3.org/1999/xlink" x="0px" y="0px"
	 viewBox="0 0 24 24" style="enable-background:new 0 0 24 24;" xml:space="preserve">
<style type="text/css">
	.st0{fill:#777582;}
</style>
<g>
	<path class="st0" d="M13.5,1.7C15.1,2,16.7,2.6,18,3.5c0.1,0.1,0.3,0.1,0.4,0.1c0.2,0,0.5-0.1,0.6-0.3c0.2-0.3,0.2-0.8-0.2-1
		c-1.5-1.1-3.3-1.8-5.1-2.1c-0.4-0.1-0.8,0.2-0.9,0.6C12.9,1.3,13.1,1.7,13.5,1.7z"/>
	<path class="st0" d="M5.3,3.9c0.2,0,0.3,0,0.5-0.2c1.3-1,2.8-1.6,4.3-1.9c0.4-0.1,0.7-0.5,0.6-0.9c-0.1-0.4-0.5-0.7-0.9-0.6
		C8,0.7,6.3,1.4,4.9,2.5C4.5,2.8,4.5,3.2,4.7,3.6C4.9,3.8,5.1,3.9,5.3,3.9z"/>
	<path class="st0" d="M0.9,11.1c0,0,0.1,0,0.1,0c0.4,0,0.7-0.3,0.7-0.6c0.2-1.6,0.8-3,1.7-4.3c0.2-0.3,0.1-0.8-0.2-1
		C2.9,4.9,2.4,5,2.2,5.3c-1,1.5-1.7,3.2-1.9,5C0.2,10.7,0.5,11.1,0.9,11.1z"/>
	<path class="st0" d="M1.8,13.9c-0.1-0.4-0.5-0.7-0.9-0.6c-0.4,0.1-0.7,0.5-0.6,0.9c0.3,1.7,1,3.3,2,4.7c0.1,0.2,0.4,0.3,0.6,0.3
		c0.2,0,0.3,0,0.4-0.1c0.3-0.2,0.4-0.7,0.2-1C2.7,16.8,2.1,15.4,1.8,13.9z"/>
	<path class="st0" d="M10.1,22.2c-1.6-0.3-3.1-0.9-4.3-1.9C5.4,20,5,20.1,4.7,20.4c-0.2,0.3-0.2,0.8,0.1,1.1c1.5,1.1,3.2,1.8,5,2.2
		c0,0,0.1,0,0.1,0c0.4,0,0.7-0.3,0.7-0.6C10.8,22.7,10.5,22.3,10.1,22.2z"/>
	<path class="st0" d="M17.9,20.5c-1.3,0.9-2.8,1.5-4.4,1.7c-0.4,0.1-0.7,0.4-0.6,0.9c0.1,0.4,0.4,0.6,0.7,0.6c0,0,0.1,0,0.1,0
		c1.8-0.3,3.5-1,5-2c0.3-0.2,0.4-0.7,0.2-1C18.7,20.4,18.3,20.3,17.9,20.5z"/>
	<path class="st0" d="M23.1,13.3c-0.4-0.1-0.8,0.2-0.9,0.6c-0.3,1.6-1,3.1-1.9,4.4c-0.3,0.3-0.2,0.8,0.1,1.1
		c0.1,0.1,0.3,0.2,0.5,0.2c0.2,0,0.4-0.1,0.6-0.3c1.1-1.5,1.9-3.2,2.2-5C23.7,13.8,23.5,13.4,23.1,13.3z"/>
	<path class="st0" d="M22.3,10.5c0.1,0.4,0.4,0.6,0.7,0.6c0,0,0.1,0,0.1,0c0.4-0.1,0.7-0.4,0.6-0.9c-0.3-1.9-1-3.7-2.2-5.3
		c-0.2-0.3-0.7-0.4-1-0.2c-0.3,0.2-0.4,0.7-0.2,1C21.4,7.2,22,8.8,22.3,10.5z"/>
	<path class="st0" d="M12,8c-2.2,0-4,1.8-4,4s1.8,4,4,4s4-1.8,4-4S14.2,8,12,8z M12,14.5c-1.4,0-2.5-1.1-2.5-2.5s1.1-2.5,2.5-2.5
		s2.5,1.1,2.5,2.5S13.4,14.5,12,14.5z"/>
	<path class="st0" d="M12,4.1c-4.4,0-7.9,3.6-7.9,7.9c0,4.4,3.6,7.9,7.9,7.9c4.4,0,7.9-3.6,7.9-7.9C19.9,7.6,16.4,4.1,12,4.1z
		 M12,18.4c-3.6,0-6.4-2.9-6.4-6.4c0-3.6,2.9-6.4,6.4-6.4c3.6,0,6.4,2.9,6.4,6.4C18.4,15.6,15.6,18.4,12,18.4z"/>
</g>
</svg>
