<?xml version="1.0" encoding="utf-8"?>
<!-- Generated by IcoMoon.io -->
<!DOCTYPE svg PUBLIC "-//W3C//DTD SVG 1.1//EN" "http://www.w3.org/Graphics/SVG/1.1/DTD/svg11.dtd">
<svg version="1.1" xmlns="http://www.w3.org/2000/svg" xmlns:xlink="http://www.w3.org/1999/xlink" width="32" height="32" viewBox="0 0 32 32">
<path fill="#777582" d="M18.111 2.043c2.179 0.272 4.221 1.226 5.992 2.451 0.136 0.136 0.409 0.136 0.545 0.136 0.272 0 0.681-0.136 0.817-0.409 0.272-0.409 0.272-1.089-0.272-1.362-1.906-1.498-4.357-2.451-6.809-2.86-0.545-0.136-1.089 0.272-1.226 0.817 0 0.545 0.409 1.089 0.953 1.226z"></path>
<path fill="#777582" d="M6.945 4.902c0.272 0 0.409 0 0.681-0.272 1.77-1.362 3.813-2.179 5.855-2.587 0.545-0.136 0.953-0.681 0.817-1.226-0.136-0.408-0.681-0.817-1.226-0.681-2.451 0.408-4.766 1.498-6.809 2.996-0.409 0.272-0.545 0.953-0.136 1.362 0.136 0.272 0.409 0.409 0.817 0.409z"></path>
<path fill="#777582" d="M0.817 14.843c0 0 0.136 0 0.136 0 0.545 0 0.953-0.409 0.953-0.817 0.272-2.179 1.089-4.085 2.315-5.855 0.272-0.409 0.136-1.089-0.272-1.362s-1.089-0.136-1.362 0.272c-1.362 2.043-2.315 4.357-2.587 6.809-0.136 0.272 0.272 0.817 0.817 0.953z"></path>
<path fill="#777582" d="M2.179 18.655c-0.136-0.545-0.681-0.953-1.226-0.817s-0.953 0.681-0.817 1.226c0.408 2.315 1.362 4.494 2.723 6.4 0.136 0.272 0.545 0.409 0.817 0.409s0.408 0 0.545-0.136c0.409-0.272 0.545-0.953 0.272-1.362-1.226-1.906-2.043-3.677-2.315-5.719z"></path>
<path fill="#777582" d="M13.345 29.821c-2.043-0.272-4.085-1.226-5.855-2.587-0.409-0.409-1.089-0.272-1.498 0.136-0.272 0.409-0.272 1.089 0.136 1.498 2.043 1.498 4.357 2.451 6.809 2.996 0 0 0.136 0 0.136 0 0.545 0 0.953-0.409 0.953-0.817 0.272-0.545 0-1.089-0.681-1.226z"></path>
<path fill="#777582" d="M24.102 27.643c-1.77 1.226-3.813 2.043-5.992 2.315-0.545 0.136-0.953 0.545-0.817 1.226 0.136 0.545 0.545 0.817 0.953 0.817 0 0 0.136 0 0.136 0 2.451-0.409 4.766-1.362 6.809-2.723 0.409-0.272 0.545-0.953 0.272-1.362-0.272-0.545-0.953-0.681-1.362-0.272z"></path>
<path fill="#777582" d="M31.047 17.838c-0.545-0.136-1.089 0.272-1.226 0.817-0.409 2.179-1.362 4.221-2.587 5.992-0.409 0.409-0.272 1.089 0.136 1.498 0.136 0.136 0.409 0.272 0.681 0.272s0.545-0.136 0.817-0.409c1.498-2.043 2.587-4.357 2.996-6.809 0.136-0.681-0.272-1.226-0.817-1.362z"></path>
<path fill="#777582" d="M29.957 13.889c0.136 0.545 0.545 0.817 0.953 0.817 0 0 0.136 0 0.136 0 0.545-0.136 0.953-0.545 0.817-1.226-0.409-2.587-1.362-5.038-2.996-7.217-0.272-0.409-0.953-0.545-1.362-0.272s-0.545 0.953-0.272 1.362c1.498 2.179 2.451 4.357 2.723 6.536z"></path>
<path fill="#777582" d="M16.068 10.485c-2.996 0-5.447 2.451-5.447 5.447s2.451 5.447 5.447 5.447 5.447-2.451 5.447-5.447-2.451-5.447-5.447-5.447zM16.068 19.472c-1.906 0-3.404-1.498-3.404-3.404s1.498-3.404 3.404-3.404 3.404 1.498 3.404 3.404-1.634 3.404-3.404 3.404z"></path>
<path fill="#777582" d="M16.068 5.174c-5.992 0-10.757 4.902-10.757 10.757s4.902 10.757 10.757 10.757c5.991 0 10.757-4.902 10.757-10.757s-4.902-10.757-10.757-10.757zM16.068 24.783c-4.902 0-8.715-3.949-8.715-8.715s3.949-8.715 8.715-8.715c4.902 0 8.715 3.949 8.715 8.715s-3.949 8.715-8.715 8.715z"></path>
</svg>
