<?xml version="1.0" encoding="utf-8"?>
<!-- Generator: Adobe Illustrator 21.0.2, SVG Export Plug-In . SVG Version: 6.00 Build 0)  -->
<svg version="1.1" id="Ebene_1" xmlns="http://www.w3.org/2000/svg" xmlns:xlink="http://www.w3.org/1999/xlink" x="0px" y="0px"
	 viewBox="0 0 24 24" style="enable-background:new 0 0 24 24;" xml:space="preserve">
<style type="text/css">
	.st0{fill:#777582;}
</style>
<g>
	<path class="st0" d="M16.4,9.3c0-1-0.8-1.8-1.8-1.8H9.1V6.3H7.6v1.3H2c-1,0-1.8,0.8-1.8,1.8V22c0,1,0.8,1.8,1.8,1.8h12.7
		c1,0,1.8-0.8,1.8-1.8v-5.6h1.3v-1.5h-1.3V9.3z M14.9,22c0,0.1-0.1,0.3-0.3,0.3H2c-0.1,0-0.3-0.1-0.3-0.3V9.3c0-0.1,0.1-0.3,0.3-0.3
		h12.7c0.1,0,0.3,0.1,0.3,0.3V22z"/>
	<path class="st0" d="M9.1,2c0-0.1,0.1-0.2,0.2-0.2h0.4V0.2H9.3C8.4,0.2,7.6,1,7.6,2v0.4h1.5V2z"/>
	<rect x="10.9" y="0.2" class="st0" width="1.5" height="1.5"/>
	<rect x="18.9" y="0.2" class="st0" width="1.5" height="1.5"/>
	<rect x="16.2" y="0.2" class="st0" width="1.5" height="1.5"/>
	<rect x="13.6" y="0.2" class="st0" width="1.5" height="1.5"/>
	<rect x="7.6" y="3.6" class="st0" width="1.5" height="1.5"/>
	<rect x="22.3" y="11.6" class="st0" width="1.5" height="1.5"/>
	<rect x="22.3" y="3.6" class="st0" width="1.5" height="1.5"/>
	<rect x="22.3" y="6.3" class="st0" width="1.5" height="1.5"/>
	<rect x="22.3" y="8.9" class="st0" width="1.5" height="1.5"/>
	<rect x="18.9" y="14.9" class="st0" width="1.5" height="1.5"/>
	<path class="st0" d="M22,0.2h-0.4v1.5H22c0.1,0,0.2,0.1,0.2,0.2v0.4h1.5V2C23.8,1,23,0.2,22,0.2z"/>
	<path class="st0" d="M22.3,14.7c0,0.1-0.1,0.2-0.2,0.2h-0.4v1.5H22c1,0,1.7-0.8,1.7-1.7v-0.4h-1.5V14.7z"/>
</g>
</svg>
