<svg xmlns="http://www.w3.org/2000/svg" viewBox="0 0 80 80"><defs><style>.cls-1{fill:#777582;}</style></defs><title>templates</title><g id="Ebene_2" data-name="Ebene 2"><g id="Ebene_1-2" data-name="Ebene 1"><path class="cls-1" d="M51.55,80H2.72A2.71,2.71,0,0,1,0,77.3V28.88a2.71,2.71,0,0,1,2.72-2.7H51.55a2.71,2.71,0,0,1,2.72,2.7V77.3A2.71,2.71,0,0,1,51.55,80ZM2.72,27.65a1.23,1.23,0,0,0-1.24,1.23V77.3a1.23,1.23,0,0,0,1.24,1.23H51.55a1.23,1.23,0,0,0,1.24-1.23V28.88a1.23,1.23,0,0,0-1.24-1.23Z"/><rect class="cls-1" x="52.87" y="52.35" width="3.1" height="1.47"/><rect class="cls-1" x="59.99" y="52.35" width="4.03" height="1.47"/><rect class="cls-1" x="68.05" y="52.35" width="3.84" height="1.47"/><path class="cls-1" d="M77.28,53.82H75.92V52.35h1.36a1.23,1.23,0,0,0,1.24-1.23V48.63H80v2.49A2.71,2.71,0,0,1,77.28,53.82Z"/><rect class="cls-1" x="78.52" y="32.84" width="1.48" height="4"/><rect class="cls-1" x="78.52" y="24.84" width="1.48" height="4"/><rect class="cls-1" x="78.52" y="12.86" width="1.48" height="4"/><path class="cls-1" d="M80,4.86H78.52V2.7a1.23,1.23,0,0,0-1.24-1.23H75.92V0h1.36A2.71,2.71,0,0,1,80,2.7Z"/><rect class="cls-1" x="68.05" width="3.84" height="1.47"/><rect class="cls-1" x="59.99" width="4.03" height="1.47"/><rect class="cls-1" x="51.94" width="4.03" height="1.47"/><rect class="cls-1" x="43.88" width="4.03" height="1.47"/><rect class="cls-1" x="35.82" width="4.03" height="1.47"/><path class="cls-1" d="M27.22,4.87H25.73V2.7A2.71,2.71,0,0,1,28.45,0h3.34V1.47H28.45A1.23,1.23,0,0,0,27.22,2.7Z"/><rect class="cls-1" x="25.73" y="24.85" width="1.48" height="2.07"/><rect class="cls-1" x="25.73" y="8.59" width="1.48" height="3.93"/><rect class="cls-1" x="25.73" y="16.44" width="1.48" height="4.41"/><rect class="cls-1" x="78.52" y="40.83" width="1.48" height="3.81"/></g></g></svg>