<?xml version="1.0" encoding="utf-8"?>
<!-- Generator: Adobe Illustrator 21.0.2, SVG Export Plug-In . SVG Version: 6.00 Build 0)  -->
<svg version="1.1" id="Ebene_1" xmlns="http://www.w3.org/2000/svg" xmlns:xlink="http://www.w3.org/1999/xlink" x="0px" y="0px"
	 viewBox="0 0 24 24" style="enable-background:new 0 0 24 24;" xml:space="preserve">
<style type="text/css">
	.st0{fill:#777582;}
</style>
<g>
	<path class="st0" d="M18.1,11.1c0-0.5-0.4-1-0.9-1.1c-0.6-0.1-0.9-0.2-1.1-0.3c-0.1,0-0.3-0.2-0.4-0.4c0,0-0.1-0.1-0.1-0.1
		c-0.1-0.2-0.3-0.3-0.4-0.5c-0.4-0.5-0.8-1-1.2-1.5c-0.3-0.4-0.6-0.7-0.9-1.1c-0.9-1.1-1.6-2.5-1.9-3.8l0-0.1
		c-0.1-0.3-0.2-0.7-0.4-1.1C10.3,0.4,9.2,0,8.3,0.4C7.4,0.7,6.9,1.5,6.7,2.6c-0.1,0.8-0.1,2,0.1,2.7C7,5.8,7.2,6.2,7.4,6.7
		c0.1,0.2,0.2,0.4,0.3,0.6l0.1,0.2C7.8,7.6,8,7.9,8,8.2l-0.1,0c-0.5,0-1,0-1.5,0c-1,0-2,0-2.9,0C2.7,8.2,2,8.5,1.5,9
		c-0.9,0.8-1.1,2-0.7,3.2c0.1,0.3,0.3,0.6,0.4,0.8c0.1,0.1,0.1,0.2,0.2,0.3c0,0,0,0.1-0.1,0.3c0,0.1-0.1,0.2-0.1,0.3
		c-0.1,0.5-0.1,1,0,1.5c0.1,0.4,0.3,0.7,0.4,0.9c0.1,0.1,0.1,0.2,0.2,0.3c0,0,0,0.2,0,0.3c0,0.1-0.1,0.3-0.1,0.5
		c0,0.6,0.1,1.2,0.3,1.7c0.1,0.2,0.3,0.4,0.4,0.6c0.1,0.1,0.2,0.2,0.2,0.2c0,0.1,0,0.3,0,0.4c0,0.2,0,0.3,0,0.5
		c0.1,1,0.5,1.8,1.2,2.3c0.6,0.4,1.4,0.7,2.4,0.7c0.3,0,0.6,0,1,0c0.4,0,0.7,0,1.1,0c1.6,0,3.3-0.4,4.5-0.8c1-0.3,3.1-0.8,4-1
		c0.8-0.2,1.3-0.9,1.3-1.7C18.1,18.1,18.2,12.4,18.1,11.1C18.1,11.1,18.1,11.1,18.1,11.1z M16.6,20.2c0,0.1-0.1,0.2-0.2,0.2
		c-0.9,0.2-3.1,0.8-4.1,1.1c-1.2,0.4-2.6,0.7-4.1,0.8c-0.7,0-1.3,0-2,0c-0.7,0-1.2-0.1-1.6-0.4c-0.3-0.2-0.5-0.6-0.6-1.2
		c0-0.1,0-0.2,0-0.3c0-0.3,0-0.8-0.2-1.2c-0.1-0.2-0.3-0.4-0.4-0.6c-0.1-0.1-0.2-0.2-0.2-0.3c-0.1-0.3-0.2-0.6-0.2-0.9
		c0-0.1,0-0.2,0-0.3c0.1-0.3,0.2-0.7-0.1-1.2c-0.1-0.2-0.2-0.4-0.3-0.5c-0.1-0.2-0.2-0.3-0.2-0.5c-0.1-0.3-0.1-0.5,0-0.8
		c0-0.1,0-0.2,0.1-0.2c0.1-0.3,0.2-0.9-0.1-1.5c-0.1-0.2-0.2-0.3-0.3-0.4c-0.1-0.2-0.2-0.3-0.3-0.5C2,11,2.1,10.4,2.5,10.1
		c0.3-0.2,0.6-0.4,1-0.4c0.5,0,0.9,0,1.4,0c0.5,0,1,0,1.5,0c0.5,0,1,0,1.5,0l0.1,0c0.2,0,0.5,0,0.7-0.1c0.3-0.1,0.6-0.4,0.7-0.7
		c0.3-0.6,0-1.4-0.3-2.1L9,6.7C9,6.5,8.9,6.3,8.8,6.1C8.6,5.7,8.4,5.3,8.3,4.9c-0.2-0.5-0.2-1.4-0.1-2c0.1-0.8,0.4-1,0.6-1.1
		c0.3-0.1,0.6,0,0.8,0.2c0.1,0.1,0.1,0.3,0.2,0.6l0,0.1c0.3,1.6,1.1,3.1,2.2,4.4c0.3,0.4,0.6,0.7,0.9,1.1c0.4,0.5,0.8,1.1,1.3,1.6
		c0.2,0.2,0.3,0.4,0.5,0.5l0.1,0.1c0.2,0.2,0.5,0.5,0.9,0.7c0.2,0.1,0.6,0.2,1.1,0.3C16.7,13.2,16.6,18.3,16.6,20.2z"/>
	<path class="st0" d="M21.7,10.1H21c-1,0-1.8,0.8-1.8,1.8v8c0,1,0.8,1.8,1.8,1.8h0.7c1,0,1.8-0.8,1.8-1.8v-8
		C23.4,10.9,22.6,10.1,21.7,10.1z M21.9,19.9c0,0.1-0.1,0.3-0.3,0.3H21c-0.1,0-0.3-0.1-0.3-0.3v-8c0-0.1,0.1-0.3,0.3-0.3h0.7
		c0.1,0,0.3,0.1,0.3,0.3V19.9z"/>
</g>
</svg>
