<?xml version="1.0" encoding="utf-8"?>
<!-- Generated by IcoMoon.io -->
<!DOCTYPE svg PUBLIC "-//W3C//DTD SVG 1.1//EN" "http://www.w3.org/Graphics/SVG/1.1/DTD/svg11.dtd">
<svg version="1.1" xmlns="http://www.w3.org/2000/svg" xmlns:xlink="http://www.w3.org/1999/xlink" width="30" height="32" viewBox="0 0 30 32">
<path fill="#777582" d="M23.418 14.691c0-0.291-0.145-0.436-0.436-0.436-0.436-0.145-1.309-0.291-1.745-0.436s-0.727-0.582-1.018-0.873c-0.291-0.291-0.436-0.582-0.727-0.727-1.018-1.309-2.036-2.618-3.055-3.782-1.455-1.745-2.473-3.782-2.909-5.964 0 0 0 0 0 0-0.291-0.727-0.291-1.164-0.582-1.6-0.582-0.727-1.455-1.018-2.327-0.727-1.164 0.436-1.6 1.309-1.745 2.327s-0.145 2.473 0.145 3.491c0.291 0.873 0.873 1.891 1.164 2.764 0.291 0.582 1.164 2.327 0.145 2.764-0.145 0.145-0.582 0-0.727 0-2.182 0-4.364 0-6.4 0-0.873 0-1.745 0.291-2.327 0.873-1.018 1.018-1.164 2.182-0.727 3.491 0.145 0.582 0.582 1.018 0.873 1.455 0.291 0.582 0 1.164-0.145 1.745s-0.145 1.018 0 1.6c0.145 0.582 0.582 1.018 0.727 1.6 0.291 0.582 0 1.018-0.145 1.6 0 0.727 0.145 1.309 0.436 1.891 0.436 0.436 0.873 0.727 1.018 1.164 0.291 0.582 0.145 1.164 0.145 1.745 0.145 1.018 0.436 1.891 1.309 2.618 0.873 0.582 1.891 0.727 2.909 0.727s1.891 0 2.909 0c2.182 0 4.218-0.582 6.255-1.164 1.309-0.436 4.218-1.164 5.818-1.455 0.582-0.145 1.164-0.727 1.164-1.455 0-3.055 0-11.345 0-13.236z"></path>
<path fill="#777582" d="M28.218 14.255h-1.018c-0.873 0-1.455 0.582-1.455 1.455v11.636c0 0.873 0.582 1.455 1.455 1.455h1.018c0.873 0 1.455-0.582 1.455-1.455v-11.636c0-0.727-0.582-1.455-1.455-1.455z"></path>
</svg>
