<?xml version="1.0" encoding="utf-8"?>
<!-- Generated by IcoMoon.io -->
<!DOCTYPE svg PUBLIC "-//W3C//DTD SVG 1.1//EN" "http://www.w3.org/Graphics/SVG/1.1/DTD/svg11.dtd">
<svg version="1.1" xmlns="http://www.w3.org/2000/svg" xmlns:xlink="http://www.w3.org/1999/xlink" width="31" height="32" viewBox="0 0 31 32">
<path fill="#777582" d="M23.966 14.843c0-0.681-0.545-1.362-1.226-1.498-0.817-0.136-1.226-0.272-1.498-0.409-0.136 0-0.409-0.272-0.545-0.545 0 0-0.136-0.136-0.136-0.136-0.136-0.272-0.409-0.409-0.545-0.681-0.545-0.681-1.089-1.362-1.634-2.043-0.409-0.545-0.817-0.953-1.226-1.498-1.226-1.498-2.179-3.404-2.587-5.174v-0.136c-0.136-0.409-0.272-0.953-0.545-1.498-0.817-1.089-2.179-1.498-3.54-1.089-1.089 0.545-1.906 1.498-2.179 3.132-0.136 1.089-0.136 2.587 0.272 3.677 0.136 0.545 0.409 1.226 0.681 1.77 0.136 0.272 0.272 0.545 0.409 0.817l0.136 0.272c0.136 0.136 0.272 0.681 0.409 0.953h-0.136c-0.681 0-1.362 0-2.043 0-1.362 0-2.723 0-3.949 0-1.089 0-2.043 0.409-2.723 1.089-1.226 1.089-1.498 2.723-0.953 4.357 0.136 0.409 0.408 0.817 0.545 1.089 0.136 0.136 0.136 0.272 0.272 0.409 0 0 0 0.136-0.136 0.409 0 0.136-0.136 0.272-0.136 0.409-0.136 0.681-0.136 1.362 0 2.043 0.136 0.545 0.409 0.817 0.545 1.226 0.136 0.136 0.136 0.272 0.272 0.409 0 0 0 0.272 0 0.409 0 0.272-0.136 0.409-0.136 0.681 0 0.817 0.136 1.634 0.409 2.315 0.136 0.272 0.409 0.545 0.545 0.817 0.136 0.136 0.272 0.272 0.272 0.272 0 0.136 0 0.409 0 0.545 0 0.272 0 0.409 0 0.681 0.136 1.362 0.681 2.451 1.634 3.132 0.817 0.545 1.906 0.953 3.268 0.953 0.409 0 0.817 0 1.226 0 0.545 0 0.953 0 1.498 0 2.179 0 4.357-0.545 6.128-1.089 1.362-0.409 4.221-1.089 5.447-1.362 1.089-0.272 1.77-1.226 1.77-2.315 0.136-2.86 0.136-10.621 0.136-12.392zM21.923 27.098c0 0.136-0.136 0.272-0.272 0.272-1.226 0.272-4.221 1.089-5.583 1.498-1.634 0.545-3.54 1.089-5.447 1.089-0.953 0-1.77 0-2.723 0s-1.634-0.136-2.179-0.545c-0.545-0.409-0.817-1.089-0.817-1.634 0-0.136 0-0.272 0-0.409 0-0.409 0-1.089-0.272-1.634-0.136-0.272-0.409-0.545-0.545-0.817-0.136-0.136-0.272-0.272-0.272-0.409-0.136-0.409-0.272-0.817-0.272-1.226 0-0.136 0-0.272 0-0.409 0.136-0.409 0.272-0.953 0-1.634-0.136-0.272-0.272-0.545-0.409-0.681-0.136-0.272-0.272-0.409-0.272-0.681-0.136-0.409-0.136-0.681 0-1.089 0-0.136 0-0.272 0.136-0.272 0.136-0.409 0.272-1.226-0.136-2.043 0 0-0.136-0.136-0.272-0.409s-0.272-0.409-0.409-0.681c-0.272-0.817-0.272-1.634 0.409-2.043 0.409-0.272 0.817-0.545 1.362-0.545 0.681 0 1.226 0 1.906 0s1.362 0 2.043 0c0.681 0 1.362 0 2.043 0h0.136c0.272 0 0.681 0 0.953-0.136 0.545-0.136 0.817-0.409 1.089-0.817 0.409-0.817 0-1.906-0.409-2.86l-0.136-0.136c-0.136-0.409-0.272-0.681-0.409-0.953-0.272-0.545-0.545-1.089-0.681-1.634-0.272-0.681-0.272-1.906-0.136-2.723 0.136-1.089 0.545-1.362 0.817-1.498 0.409-0.136 0.817 0 1.089 0.272 0.136 0.136 0.136 0.409 0.272 0.817v0.136c0.409 2.179 1.498 4.221 2.996 5.992 0.409 0.681 0.817 1.226 1.226 1.634 0.545 0.681 1.089 1.498 1.77 2.179 0.272 0.272 0.409 0.545 0.681 0.681l0.136 0.136c0.272 0.272 0.681 0.681 1.226 0.953 0.272 0.136 0.817 0.272 1.498 0.409-0.136 2.451-0.136 9.26-0.136 11.847z"></path>
<path fill="#777582" d="M28.732 13.345h-0.953c-1.362 0-2.451 1.089-2.451 2.451v10.894c0 1.362 1.089 2.451 2.451 2.451h0.953c1.362 0 2.451-1.089 2.451-2.451v-10.894c-0.136-1.362-1.226-2.451-2.451-2.451zM29.004 26.689c0 0.136-0.136 0.409-0.409 0.409h-0.953c-0.136 0-0.409-0.136-0.409-0.409v-10.894c0-0.136 0.136-0.409 0.409-0.409h0.953c0.136 0 0.409 0.136 0.409 0.409v10.894z"></path>
</svg>
