<?xml version="1.0" encoding="utf-8"?>
<!-- Generator: Adobe Illustrator 21.0.2, SVG Export Plug-In . SVG Version: 6.00 Build 0)  -->
<svg version="1.1" id="Ebene_1" xmlns="http://www.w3.org/2000/svg" xmlns:xlink="http://www.w3.org/1999/xlink" x="0px" y="0px"
	 viewBox="0 0 24 24" style="enable-background:new 0 0 24 24;" xml:space="preserve">
<style type="text/css">
	.st0{fill:#777582;}
</style>
<g>
	<path class="st0" d="M18.1,11.1c0-0.2-0.1-0.3-0.3-0.3c-0.4-0.1-1-0.2-1.3-0.3c-0.3-0.1-0.5-0.4-0.8-0.6c-0.2-0.2-0.4-0.4-0.5-0.6
		c-0.8-0.9-1.5-1.8-2.2-2.8c-1-1.3-1.8-2.7-2.1-4.3c0,0,0,0,0,0c-0.1-0.3-0.1-0.7-0.3-1c-0.4-0.6-1.1-0.8-1.7-0.5
		c-0.7,0.3-1,1-1.2,1.7C7.6,3,7.6,4.1,7.8,4.8c0.2,0.7,0.6,1.3,0.8,2c0.2,0.5,0.8,1.7,0.1,2c-0.2,0.1-0.4,0-0.6,0
		c-1.5,0-3.1,0-4.6,0C3,8.8,2.4,9,2,9.4c-0.8,0.7-0.8,1.6-0.5,2.5c0.1,0.4,0.4,0.7,0.6,1.1c0.2,0.4,0,0.8-0.1,1.2
		c-0.1,0.4-0.1,0.8,0,1.2c0.1,0.4,0.4,0.7,0.6,1.1c0.2,0.4,0,0.8-0.1,1.1c0,0.5,0.1,1,0.3,1.4c0.2,0.3,0.5,0.5,0.6,0.9
		c0.2,0.4,0.1,0.9,0.1,1.3c0.1,0.7,0.3,1.4,0.9,1.8c0.6,0.4,1.4,0.6,2.1,0.6c0.7,0,1.4,0,2.1,0c1.5,0,3-0.4,4.5-0.8
		c1-0.3,3.1-0.8,4.2-1.1c0.5-0.1,0.8-0.5,0.8-1C18.1,18.4,18.1,12.5,18.1,11.1z"/>
	<path class="st0" d="M21.7,10.8h-0.8c-0.6,0-1,0.4-1,1v8.5c0,0.6,0.4,1,1,1h0.8c0.6,0,1-0.4,1-1v-8.5
		C22.7,11.2,22.2,10.8,21.7,10.8z"/>
</g>
</svg>
