<?xml version="1.0" encoding="utf-8"?>
<!-- Generator: Adobe Illustrator 21.0.2, SVG Export Plug-In . SVG Version: 6.00 Build 0)  -->
<svg version="1.1" id="Ebene_1" xmlns="http://www.w3.org/2000/svg" xmlns:xlink="http://www.w3.org/1999/xlink" x="0px" y="0px"
	 viewBox="0 0 24 24" style="enable-background:new 0 0 24 24;" xml:space="preserve">
<style type="text/css">
	.st0{fill:#777582;}
</style>
<g>
	<path class="st0" d="M23.3,8l-7.4-7.6c-0.3-0.3-0.8-0.3-1.1,0l-13.7,14c-0.3,0.3-0.7,0.9-0.6,1.9l0.3,5.1c0,0.9,1.1,2,2,2l5,0.3
		c0.1,0,0.1,0,0.2,0c0.9,0,1.4-0.3,1.7-0.6l13.7-14C23.6,8.8,23.6,8.3,23.3,8z M8.5,22.1c-0.2,0.2-0.5,0.2-0.7,0.2L2.9,22
		c-0.2-0.1-0.6-0.5-0.6-0.6L2,16.3c0-0.2,0-0.6,0.2-0.7L15.3,2.1l6.3,6.5L8.5,22.1z"/>
	<ellipse class="st0" cx="5.2" cy="19" rx="1.5" ry="1.5"/>
	<path class="st0" d="M8.2,14.7c-0.3,0.3-0.3,0.8,0,1.1C8.4,15.9,8.6,16,8.8,16s0.4-0.1,0.5-0.2l7.1-7.1c0.3-0.3,0.3-0.8,0-1.1
		s-0.8-0.3-1.1,0L8.2,14.7z"/>
</g>
</svg>
