<?xml version="1.0" encoding="utf-8"?>
<!-- Generated by IcoMoon.io -->
<!DOCTYPE svg PUBLIC "-//W3C//DTD SVG 1.1//EN" "http://www.w3.org/Graphics/SVG/1.1/DTD/svg11.dtd">
<svg version="1.1" xmlns="http://www.w3.org/2000/svg" xmlns:xlink="http://www.w3.org/1999/xlink" width="31" height="32" viewBox="0 0 31 32">
<path fill="#777582" d="M31.047 10.621l-10.077-10.349c-0.409-0.408-1.089-0.408-1.498 0l-18.655 19.064c-0.408 0.409-0.817 1.226-0.817 2.587l0.408 6.945c0 1.226 1.498 2.723 2.723 2.723l6.808 0.409h0.272c0.953 0 1.77-0.272 2.315-0.817l18.655-19.064c0.136-0.545 0.136-1.089-0.136-1.498zM10.894 29.685c-0.136 0.272-0.545 0.272-0.817 0.272l-6.809-0.409c-0.272-0.136-0.817-0.681-0.817-0.817l-0.409-6.945c0-0.272 0-0.817 0.272-0.953l17.838-18.383 8.579 8.851-17.838 18.383z"></path>
<path fill="#777582" d="M8.443 25.6c0 1.128-0.914 2.043-2.043 2.043s-2.043-0.914-2.043-2.043c0-1.128 0.914-2.043 2.043-2.043s2.043 0.914 2.043 2.043z"></path>
<path fill="#777582" d="M10.485 19.745c-0.409 0.409-0.409 1.089 0 1.498 0.136 0.136 0.409 0.272 0.681 0.272s0.545-0.136 0.681-0.272l9.668-9.668c0.409-0.409 0.409-1.089 0-1.498s-1.089-0.409-1.498 0l-9.532 9.668z"></path>
</svg>
