<?xml version="1.0" encoding="utf-8"?>
<!-- Generator: Adobe Illustrator 21.0.2, SVG Export Plug-In . SVG Version: 6.00 Build 0)  -->
<svg version="1.1" id="Ebene_1" xmlns="http://www.w3.org/2000/svg" xmlns:xlink="http://www.w3.org/1999/xlink" x="0px" y="0px"
	 viewBox="0 0 24 24" style="enable-background:new 0 0 24 24;" xml:space="preserve">
<style type="text/css">
	.st0{fill:#777582;}
</style>
<g>
	<path class="st0" d="M12.7,11.6C12.7,11.6,12.8,11.6,12.7,11.6l0-6.7c0-0.4-0.3-0.8-0.8-0.8s-0.8,0.3-0.8,0.8v6.6
		c0,0.1,0,0.1,0,0.2c-0.1,0.3,0,0.6,0.2,0.8l5.5,4.7c0.1,0.1,0.3,0.2,0.5,0.2c0.2,0,0.4-0.1,0.6-0.3c0.3-0.3,0.2-0.8-0.1-1.1
		L12.7,11.6z"/>
	<path class="st0" d="M12,0.3C5.5,0.3,0.3,5.5,0.3,12c0,6.5,5.3,11.8,11.8,11.8c6.5,0,11.8-5.3,11.8-11.8C23.8,5.5,18.5,0.3,12,0.3z
		 M12,22.3C6.3,22.3,1.8,17.7,1.8,12C1.8,6.3,6.3,1.8,12,1.8c5.7,0,10.3,4.6,10.3,10.3C22.3,17.7,17.7,22.3,12,22.3z"/>
</g>
</svg>
