<?xml version="1.0" encoding="utf-8"?>
<!-- Generator: Adobe Illustrator 21.0.2, SVG Export Plug-In . SVG Version: 6.00 Build 0)  -->
<svg version="1.1" id="Ebene_1" xmlns="http://www.w3.org/2000/svg" xmlns:xlink="http://www.w3.org/1999/xlink" x="0px" y="0px"
	 viewBox="0 0 24 24" style="enable-background:new 0 0 24 24;" xml:space="preserve">
<style type="text/css">
	.st0{fill:#777582;}
</style>
<g>
	<path class="st0" d="M12.5,13.3C12.5,13.3,12.5,13.2,12.5,13.3l0-5.7c0-0.4-0.3-0.8-0.8-0.8S11,7.2,11,7.6v5.6c0,0.1,0,0.1,0,0.2
		c-0.1,0.3,0,0.6,0.2,0.8l4.7,4c0.1,0.1,0.3,0.2,0.5,0.2c0.2,0,0.4-0.1,0.6-0.3c0.3-0.3,0.2-0.8-0.1-1.1L12.5,13.3z"/>
	<path class="st0" d="M11.7,3.5C6.1,3.5,1.6,8,1.6,13.6s4.5,10.1,10.1,10.1c5.6,0,10.1-4.5,10.1-10.1S17.3,3.5,11.7,3.5z M11.7,22.3
		c-4.8,0-8.6-3.9-8.6-8.6S7,5,11.7,5c4.8,0,8.6,3.9,8.6,8.6S16.5,22.3,11.7,22.3z"/>
	<path class="st0" d="M10.3,1.8h2.8c0.4,0,0.8-0.3,0.8-0.8s-0.3-0.8-0.8-0.8h-2.8C9.8,0.3,9.5,0.6,9.5,1S9.8,1.8,10.3,1.8z"/>
	<path class="st0" d="M22.2,5.5l-2.3-2.3c-0.3-0.3-0.8-0.3-1.1,0s-0.3,0.8,0,1.1l2.3,2.3c0.1,0.1,0.3,0.2,0.5,0.2
		c0.2,0,0.4-0.1,0.5-0.2C22.5,6.3,22.5,5.8,22.2,5.5z"/>
</g>
</svg>
