<?xml version="1.0" encoding="utf-8"?>
<!-- Generated by IcoMoon.io -->
<!DOCTYPE svg PUBLIC "-//W3C//DTD SVG 1.1//EN" "http://www.w3.org/Graphics/SVG/1.1/DTD/svg11.dtd">
<svg version="1.1" xmlns="http://www.w3.org/2000/svg" xmlns:xlink="http://www.w3.org/1999/xlink" width="32" height="32" viewBox="0 0 32 32">
<path fill="#777582" d="M31.36 4.992c-0.384-0.384-1.024-0.64-1.664-0.64s-1.152 0.256-1.664 0.64l-1.28 1.28-0.768-0.256-0.256-0.768 1.28-1.28c0.64-0.64 0.896-1.664 0.512-2.56s-1.152-1.408-2.176-1.408v0c0 0 0 0-0.128 0-1.792 0-3.456 0.896-4.608 2.176-1.28 1.408-1.792 3.328-1.536 5.12l-11.776 11.776c-0.256 0-0.512 0-0.768 0-1.536 0-3.072 0.512-4.224 1.664-1.408 1.152-2.304 2.816-2.304 4.608 0 0.64 0.256 1.28 0.64 1.664s1.024 0.768 1.664 0.768c0.64 0 1.152-0.256 1.664-0.64l1.28-1.28 0.768 0.256 0.256 0.768-1.28 1.28c-0.64 0.64-0.896 1.664-0.512 2.56 0.384 0.768 1.152 1.28 2.176 1.28 0 0 0 0 0.128 0 1.664 0 3.2-0.768 4.352-1.92 1.536-1.536 2.176-3.584 1.792-5.632l11.52-11.52c0.384 0 0.768 0.128 1.024 0.128 1.792 0 3.328-0.64 4.608-1.92 1.152-1.28 1.92-2.816 1.92-4.48 0-0.64-0.256-1.152-0.64-1.664zM28.8 9.728c-0.896 0.896-2.048 1.28-3.2 1.28-0.512 0-1.152-0.128-1.664-0.256l-13.184 13.056c0.64 1.664 0.256 3.584-1.024 4.864-0.896 0.896-1.92 1.28-3.072 1.28 0 0 0 0 0 0-0.384 0-0.512-0.384-0.256-0.64l1.92-1.92c0.128-0.128 0.128-0.256 0.128-0.384l-0.64-2.56c-0.128 0-0.256-0.128-0.384-0.128l-2.56-0.64c0 0-0.128 0-0.128 0-0.128 0-0.256 0-0.256 0.128l-1.92 1.792c-0.128 0.128-0.128 0.128-0.256 0.128-0.256 0-0.384-0.128-0.384-0.384 0-1.152 0.512-2.432 1.536-3.328 0.896-0.768 1.92-1.152 3.072-1.152 0.512 0 1.024 0.128 1.408 0.256l13.312-13.184c-0.512-1.536-0.128-3.2 0.896-4.48 0.896-1.024 2.048-1.536 3.328-1.536 0 0 0 0 0 0 0.384 0 0.512 0.384 0.256 0.64l-1.92 1.92c-0.128 0.128-0.128 0.256-0.128 0.384l0.64 2.56c0 0.128 0.128 0.256 0.256 0.256l2.56 0.64c0 0 0.128 0 0.128 0 0.128 0 0.256 0 0.256-0.128l1.92-1.792c0.128-0.128 0.128-0.128 0.256-0.128 0.256 0 0.384 0.128 0.384 0.384 0 1.024-0.512 2.176-1.28 3.072z"></path>
</svg>
