<?xml version="1.0" encoding="utf-8"?>
<!-- Generator: Adobe Illustrator 21.0.2, SVG Export Plug-In . SVG Version: 6.00 Build 0)  -->
<svg version="1.1" id="Ebene_1" xmlns="http://www.w3.org/2000/svg" xmlns:xlink="http://www.w3.org/1999/xlink" x="0px" y="0px"
	 viewBox="0 0 24 24" style="enable-background:new 0 0 24 24;" xml:space="preserve">
<style type="text/css">
	.st0{fill:#777582;}
</style>
<g>
	<path class="st0" d="M23,4.3h-3h-3.4V2c0-1-0.8-1.8-1.8-1.8H9.2C8.2,0.3,7.4,1,7.4,2v2.3H4H1C0.6,4.3,0.3,4.6,0.3,5S0.6,5.8,1,5.8
		h2.3V22c0,1,0.8,1.8,1.8,1.8h14c1,0,1.8-0.8,1.8-1.8V5.8H23c0.4,0,0.8-0.3,0.8-0.8S23.4,4.3,23,4.3z M8.9,2c0-0.1,0.1-0.3,0.3-0.3
		h5.7c0.1,0,0.3,0.1,0.3,0.3v2.3H8.9V2z M19.3,22c0,0.1-0.1,0.3-0.3,0.3H5c-0.1,0-0.3-0.1-0.3-0.3V5.8h14.5V22z"/>
	<path class="st0" d="M9.5,8.3C9.1,8.3,8.8,8.6,8.8,9v9c0,0.4,0.3,0.8,0.8,0.8s0.8-0.3,0.8-0.8V9C10.3,8.6,9.9,8.3,9.5,8.3z"/>
	<path class="st0" d="M14.5,8.3c-0.4,0-0.8,0.3-0.8,0.8v9c0,0.4,0.3,0.8,0.8,0.8s0.8-0.3,0.8-0.8V9C15.3,8.6,14.9,8.3,14.5,8.3z"/>
</g>
</svg>
