<?xml version="1.0" encoding="utf-8"?>
<!-- Generated by IcoMoon.io -->
<!DOCTYPE svg PUBLIC "-//W3C//DTD SVG 1.1//EN" "http://www.w3.org/Graphics/SVG/1.1/DTD/svg11.dtd">
<svg version="1.1" xmlns="http://www.w3.org/2000/svg" xmlns:xlink="http://www.w3.org/1999/xlink" width="32" height="32" viewBox="0 0 32 32">
<path fill="#777582" d="M31.047 5.447h-8.715v-2.996c0-1.362-1.089-2.451-2.451-2.451h-7.762c-1.226 0-2.315 1.089-2.315 2.451v2.996h-8.715c-0.681 0-1.089 0.409-1.089 1.089s0.408 1.089 1.089 1.089h2.996v22.196c0 1.362 1.089 2.451 2.451 2.451h19.064c1.362 0 2.451-1.089 2.451-2.451v-22.332h3.132c0.545 0 1.089-0.409 1.089-1.089s-0.681-0.953-1.226-0.953zM11.847 2.451c0-0.136 0.136-0.409 0.409-0.409h7.762c0.136 0 0.409 0.136 0.409 0.409v2.996h-8.579v-2.996zM25.872 29.685c0 0.136-0.136 0.409-0.409 0.409h-19.064c-0.136 0-0.409-0.136-0.409-0.409v-22.196h19.881v22.196z"></path>
<path fill="#777582" d="M12.664 10.894c-0.681 0-1.089 0.409-1.089 1.089v12.255c0 0.545 0.409 1.089 1.089 1.089s1.089-0.409 1.089-1.089v-12.255c-0.136-0.681-0.545-1.089-1.089-1.089z"></path>
<path fill="#777582" d="M19.472 10.894c-0.545 0-1.089 0.409-1.089 1.089v12.255c0 0.545 0.409 1.089 1.089 1.089s1.089-0.409 1.089-1.089v-12.255c-0.136-0.681-0.545-1.089-1.089-1.089z"></path>
</svg>
