<?xml version="1.0" encoding="utf-8"?>
<!-- Generated by IcoMoon.io -->
<!DOCTYPE svg PUBLIC "-//W3C//DTD SVG 1.1//EN" "http://www.w3.org/Graphics/SVG/1.1/DTD/svg11.dtd">
<svg version="1.1" xmlns="http://www.w3.org/2000/svg" xmlns:xlink="http://www.w3.org/1999/xlink" width="39" height="32" viewBox="0 0 39 32">
<path fill="#777582" d="M11.492 25.105c-3.536-0.354-6.011-2.122-7.425-5.481 1.238 0 2.298-0.177 3.359-0.177-3.889-1.414-6.011-3.889-6.188-7.956 1.061 0.354 2.122 0.53 3.182 0.884-3.182-3.182-4.066-6.718-2.122-10.961 4.42 5.127 9.901 7.956 16.619 8.486 0.177-1.414 0-2.652 0.354-3.889 1.414-5.834 8.84-7.956 13.26-3.889 0.354 0.354 0.707 0.53 1.061 0.354 1.238-0.53 2.475-0.884 3.536-1.238 0.177-0.177 0.53-0.177 0.884-0.354-0.53 1.768-1.768 3.182-3.182 4.243 0.354 0 0.884-0.177 1.238-0.177 0.53-0.177 0.884-0.177 1.414-0.354 0.354-0.177 0.884-0.354 1.414-0.53-0.177 0.354-0.177 0.53-0.354 0.53-0.707 0.707-1.414 1.768-2.122 2.298-1.061 0.707-1.238 1.591-1.414 2.829-0.177 6.541-2.829 12.022-7.602 16.442-4.95 4.597-10.961 6.188-17.503 5.834-3.359-0.177-6.365-1.238-9.37-3.006-0.177-0.177-0.354-0.177-0.53-0.53 4.243 0.354 8.133-0.53 11.492-3.359z"></path>
</svg>
