<?xml version="1.0" encoding="utf-8"?>
<!-- Generator: Adobe Illustrator 21.0.2, SVG Export Plug-In . SVG Version: 6.00 Build 0)  -->
<svg version="1.1" id="Ebene_1" xmlns="http://www.w3.org/2000/svg" xmlns:xlink="http://www.w3.org/1999/xlink" x="0px" y="0px"
	 viewBox="0 0 24 24" style="enable-background:new 0 0 24 24;" xml:space="preserve">
<style type="text/css">
	.st0{fill:#777582;}
</style>
<g id="XMLID_765_">
	<path id="XMLID_766_" class="st0" d="M7.5,17.1c-2.1-0.2-3.5-1.2-4.2-3.1C4,14,4.6,14,5.2,14C3,13.2,1.8,11.7,1.7,9.4
		c0.7,0.2,1.3,0.3,1.9,0.5C1.7,8.2,1.2,6.2,2.3,3.8c2.5,2.9,5.6,4.5,9.4,4.8c0.1-0.8,0-1.5,0.2-2.2c0.8-3.3,5-4.5,7.5-2.2
		c0.2,0.2,0.4,0.3,0.6,0.2c0.7-0.3,1.4-0.5,2-0.7c0.1-0.1,0.3-0.1,0.5-0.2c-0.3,1-1,1.8-1.8,2.4c0.2,0,0.5-0.1,0.7-0.1
		c0.3-0.1,0.5-0.1,0.8-0.2c0.2-0.1,0.5-0.2,0.8-0.3c-0.1,0.2-0.1,0.3-0.2,0.3c-0.4,0.4-0.8,1-1.2,1.3c-0.6,0.4-0.7,0.9-0.8,1.6
		c-0.1,3.7-1.6,6.8-4.3,9.3c-2.8,2.6-6.2,3.5-9.9,3.3c-1.9-0.1-3.6-0.7-5.3-1.7c-0.1-0.1-0.2-0.1-0.3-0.3
		C3.4,19.2,5.6,18.7,7.5,17.1z"/>
</g>
</svg>
