<?xml version="1.0" encoding="utf-8"?>
<!-- Generated by IcoMoon.io -->
<!DOCTYPE svg PUBLIC "-//W3C//DTD SVG 1.1//EN" "http://www.w3.org/Graphics/SVG/1.1/DTD/svg11.dtd">
<svg version="1.1" xmlns="http://www.w3.org/2000/svg" xmlns:xlink="http://www.w3.org/1999/xlink" width="37" height="32" viewBox="0 0 37 32">
<path fill="#777582" d="M10.894 20.017c5.038 0 9.123-4.085 9.123-9.123s-4.085-9.123-9.123-9.123-9.123 4.085-9.123 9.123 4.085 9.123 9.123 9.123zM10.894 3.813c3.949 0 7.081 3.132 7.081 7.081s-3.132 7.081-7.081 7.081-7.081-3.268-7.081-7.081 3.268-7.081 7.081-7.081z"></path>
<path fill="#777582" d="M10.894 22.74c-4.357 0-8.443 2.996-10.894 7.898-0.272 0.545 0 1.089 0.408 1.362 0.136 0.136 0.272 0.136 0.408 0.136 0.408 0 0.681-0.272 0.953-0.545 2.043-4.221 5.447-6.672 8.987-6.672s6.945 2.451 8.987 6.672c0.272 0.545 0.817 0.681 1.362 0.409s0.681-0.817 0.409-1.362c-2.179-5.038-6.128-7.898-10.621-7.898z"></path>
<path fill="#777582" d="M21.106 3.54c1.226-0.953 2.723-1.498 4.357-1.498 3.949 0 7.081 3.132 7.081 7.081s-3.132 7.081-7.081 7.081c-0.953 0-1.906-0.136-2.723-0.545-0.545-0.272-1.089 0-1.362 0.545s0 1.089 0.545 1.362c1.089 0.409 2.315 0.681 3.54 0.681 5.038 0 9.123-4.085 9.123-9.123s-3.949-9.123-8.987-9.123c-2.043 0-3.949 0.681-5.583 1.906-0.409 0.408-0.545 0.953-0.136 1.498 0.272 0.409 0.817 0.545 1.226 0.136z"></path>
<path fill="#777582" d="M36.357 28.732c-2.451-4.902-6.4-7.898-10.894-7.898-2.043 0-4.085 0.681-5.992 1.906-0.409 0.272-0.545 0.953-0.272 1.362s0.953 0.545 1.362 0.272c1.498-1.089 3.132-1.498 4.766-1.498 3.54 0 6.945 2.451 8.987 6.672 0.136 0.409 0.545 0.545 0.953 0.545 0.136 0 0.272 0 0.408-0.136 0.681 0 0.953-0.681 0.681-1.226z"></path>
</svg>
