<?xml version="1.0" encoding="utf-8"?>
<!-- Generator: Adobe Illustrator 21.0.2, SVG Export Plug-In . SVG Version: 6.00 Build 0)  -->
<svg version="1.1" id="Ebene_1" xmlns="http://www.w3.org/2000/svg" xmlns:xlink="http://www.w3.org/1999/xlink" x="0px" y="0px"
	 viewBox="0 0 27 24" style="enable-background:new 0 0 27 24;" xml:space="preserve">
<style type="text/css">
	.st0{fill:#777582;}
</style>
<g>
	<g id="XMLID_1078_">
		<path class="st0" d="M8.1,14.9c-3.7,0-6.7-3-6.7-6.7s3-6.7,6.7-6.7s6.7,3,6.7,6.7S11.8,14.9,8.1,14.9z M8.1,3
			C5.3,3,2.9,5.4,2.9,8.2s2.3,5.2,5.2,5.2s5.2-2.3,5.2-5.2S11,3,8.1,3z"/>
	</g>
	<g id="XMLID_1077_">
		<path class="st0" d="M0.9,23.8c-0.1,0-0.2,0-0.3-0.1c-0.4-0.2-0.5-0.6-0.3-1c1.8-3.6,4.7-5.8,8-5.8c3.2,0,6.2,2.2,8,5.8
			c0.2,0.4,0,0.8-0.3,1c-0.4,0.2-0.8,0-1-0.3c-1.5-3.1-4-4.9-6.6-4.9c-2.6,0-5.1,1.8-6.6,4.9C1.4,23.6,1.1,23.8,0.9,23.8z"/>
	</g>
	<g id="XMLID_1074_">
		<path class="st0" d="M18.9,13.7c-0.9,0-1.8-0.2-2.6-0.5c-0.4-0.2-0.6-0.6-0.4-1c0.2-0.4,0.6-0.6,1-0.4c0.6,0.3,1.3,0.4,2,0.4
			c2.9,0,5.2-2.3,5.2-5.2s-2.3-5.2-5.2-5.2c-1.2,0-2.3,0.4-3.2,1.1c-0.3,0.3-0.8,0.2-1.1-0.1c-0.3-0.3-0.2-0.8,0.1-1.1
			c1.2-0.9,2.6-1.4,4.1-1.4c3.7,0,6.7,3,6.7,6.7S22.6,13.7,18.9,13.7z"/>
	</g>
	<g id="XMLID_1073_">
		<path class="st0" d="M26.1,22.5c-0.3,0-0.5-0.2-0.7-0.4c-1.5-3.1-4-4.9-6.6-4.9c-1.2,0-2.4,0.4-3.5,1.1c-0.3,0.2-0.8,0.1-1-0.2
			c-0.2-0.3-0.1-0.8,0.2-1c1.3-0.9,2.8-1.4,4.4-1.4c3.2,0,6.2,2.2,8,5.8c0.2,0.4,0,0.8-0.3,1C26.4,22.5,26.3,22.5,26.1,22.5z"/>
	</g>
</g>
</svg>
