<?xml version="1.0" encoding="utf-8"?>
<!-- Generator: Adobe Illustrator 21.0.2, SVG Export Plug-In . SVG Version: 6.00 Build 0)  -->
<svg version="1.1" id="Ebene_1" xmlns="http://www.w3.org/2000/svg" xmlns:xlink="http://www.w3.org/1999/xlink" x="0px" y="0px"
	 viewBox="0 0 24 24" style="enable-background:new 0 0 24 24;" xml:space="preserve">
<style type="text/css">
	.st0{fill:#777582;}
</style>
<g>
	<path class="st0" d="M15.2,6.2c-0.4-0.1-0.8,0-1,0.4c-0.1,0.4,0,0.8,0.4,1c2.9,1.1,4.9,4,4.9,7.1c0,4.1-3.4,7.5-7.6,7.5
		s-7.6-3.4-7.6-7.5c0-3.1,2-6,4.9-7.1c0.4-0.1,0.6-0.6,0.4-1c-0.1-0.4-0.6-0.6-1-0.4c-3.5,1.3-5.9,4.8-5.9,8.5c0,5,4.1,9,9.1,9
		s9.1-4,9.1-9C21.1,11.1,18.7,7.6,15.2,6.2z"/>
	<path class="st0" d="M8.7,5.1c0.2,0,0.4-0.1,0.5-0.2l2-2v10.1c0,0.4,0.3,0.8,0.8,0.8s0.8-0.3,0.8-0.8V2.8l2,2
		c0.1,0.1,0.3,0.2,0.5,0.2s0.4-0.1,0.5-0.2c0.3-0.3,0.3-0.8,0-1.1l-3.3-3.3c-0.1-0.1-0.2-0.1-0.2-0.2c0,0,0,0,0,0
		c-0.2-0.1-0.4-0.1-0.6,0c0,0-0.1,0.1-0.1,0.1c0,0-0.1,0-0.1,0.1c0,0,0,0,0,0L8.1,3.8c-0.3,0.3-0.3,0.8,0,1.1C8.3,5,8.5,5.1,8.7,5.1
		z"/>
</g>
</svg>
