<?xml version="1.0" encoding="utf-8"?>
<!-- Generator: Adobe Illustrator 21.0.2, SVG Export Plug-In . SVG Version: 6.00 Build 0)  -->
<svg version="1.1" id="Ebene_1" xmlns="http://www.w3.org/2000/svg" xmlns:xlink="http://www.w3.org/1999/xlink" x="0px" y="0px"
	 viewBox="0 0 34 24" style="enable-background:new 0 0 34 24;" xml:space="preserve">
<style type="text/css">
	.st0{fill:#777582;}
</style>
<g>
	<path class="st0" d="M12.2,4.6c-3,0-5.4,2.4-5.4,5.4s2.4,5.4,5.4,5.4s5.4-2.4,5.4-5.4S15.1,4.6,12.2,4.6z M12.2,13.8
		c-2.1,0-3.9-1.7-3.9-3.9c0-2.1,1.7-3.9,3.9-3.9S16,7.8,16,10C16,12.1,14.3,13.8,12.2,13.8z"/>
	<path class="st0" d="M26.3,4.8c-1.5,0-2.9,0.5-4.1,1.2c-2.1-3.6-5.9-5.8-10.1-5.8C5.7,0.3,0.4,5.5,0.4,12c0,6.5,5.3,11.8,11.8,11.8
		c4.2,0,8-2.2,10.1-5.8c1.2,0.8,2.6,1.2,4.1,1.2c4,0,7.2-3.3,7.2-7.2C33.6,8,30.3,4.8,26.3,4.8z M7.5,21.1c1.1-2,2.8-3.1,4.6-3.1
		c1.8,0,3.5,1.1,4.6,3.1c-1.4,0.7-3,1.1-4.6,1.1C10.5,22.3,8.9,21.8,7.5,21.1z M18.1,20.4c-1.4-2.4-3.6-3.8-5.9-3.8
		c-2.3,0-4.5,1.4-5.9,3.8c-2.6-1.9-4.3-4.9-4.3-8.4c0-5.7,4.6-10.3,10.3-10.3c3.7,0,7.1,2,8.9,5.2c-1.3,1.3-2,3.1-2,5
		c0,1.9,0.8,3.7,2,5C20.3,18.4,19.3,19.5,18.1,20.4z M26.3,17.7c-3.2,0-5.7-2.6-5.7-5.7c0-3.2,2.6-5.7,5.7-5.7
		c3.2,0,5.7,2.6,5.7,5.7C32.1,15.2,29.5,17.7,26.3,17.7z"/>
	<path class="st0" d="M29.5,11.3h-6.3c-0.4,0-0.8,0.3-0.8,0.8s0.3,0.8,0.8,0.8h6.3c0.4,0,0.8-0.3,0.8-0.8S29.9,11.3,29.5,11.3z"/>
</g>
</svg>
