<?xml version="1.0" encoding="utf-8"?>
<!-- Generated by IcoMoon.io -->
<!DOCTYPE svg PUBLIC "-//W3C//DTD SVG 1.1//EN" "http://www.w3.org/Graphics/SVG/1.1/DTD/svg11.dtd">
<svg version="1.1" xmlns="http://www.w3.org/2000/svg" xmlns:xlink="http://www.w3.org/1999/xlink" width="43" height="32" viewBox="0 0 43 32">
<path fill="#777582" d="M31.279 19.315c5.333 0 9.658-4.324 9.658-9.658s-4.324-9.658-9.658-9.658-9.658 4.324-9.658 9.658 4.324 9.658 9.658 9.658zM31.279 2.162c4.18 0 7.496 3.315 7.496 7.495s-3.315 7.495-7.495 7.495-7.495-3.315-7.495-7.495 3.315-7.495 7.495-7.495z"></path>
<path fill="#777582" d="M42.811 30.414c-2.595-5.189-6.775-8.36-11.532-8.36-4.613 0-8.937 3.171-11.532 8.36-0.288 0.577 0 1.153 0.432 1.441 0.144 0.144 0.288 0.144 0.432 0.144 0.432 0 0.721-0.288 1.009-0.577 2.162-4.468 5.766-7.063 9.514-7.063s7.351 2.595 9.514 7.063c0.288 0.577 0.865 0.721 1.441 0.432 0.721-0.144 1.009-0.865 0.721-1.441z"></path>
<path fill="#777582" d="M9.369 7.063c-0.144-0.144-0.288-0.144-0.432-0.144-0.288-0.144-0.577-0.144-0.865 0-0.144 0-0.288 0.144-0.288 0.288l-7.495 7.495c-0.432 0.432-0.432 1.153 0 1.586 0.144 0.144 0.432 0.288 0.721 0.288s0.577-0.144 0.721-0.288l5.622-5.622v20.468c0 0.577 0.432 1.153 1.153 1.153s1.153-0.432 1.153-1.153v-20.613l5.766 5.766c0.144 0.144 0.432 0.288 0.721 0.288s0.577-0.144 0.721-0.288c0.432-0.432 0.432-1.153 0-1.586l-7.495-7.64z"></path>
</svg>
