<?xml version="1.0" encoding="utf-8"?>
<!-- Generator: Adobe Illustrator 21.0.2, SVG Export Plug-In . SVG Version: 6.00 Build 0)  -->
<svg version="1.1" id="Ebene_1" xmlns="http://www.w3.org/2000/svg" xmlns:xlink="http://www.w3.org/1999/xlink" x="0px" y="0px"
	 viewBox="0 0 24 24" style="enable-background:new 0 0 24 24;" xml:space="preserve">
<style type="text/css">
	.st0{fill:#777582;}
</style>
<g>
	<path class="st0" d="M12,0.3C5.5,0.3,0.3,5.5,0.3,12S5.5,23.8,12,23.8S23.7,18.5,23.7,12S18.5,0.3,12,0.3z M12,22.3
		c-1.7,0-3.2-0.4-4.6-1.1c1.1-2,2.8-3.1,4.6-3.1c1.8,0,3.5,1.2,4.6,3.1C15.2,21.8,13.7,22.3,12,22.3z M17.9,20.4
		c-1.4-2.4-3.6-3.8-5.9-3.8c-2.3,0-4.5,1.4-5.9,3.8c-2.6-1.9-4.3-4.9-4.3-8.4C1.8,6.3,6.3,1.8,12,1.8c5.7,0,10.3,4.6,10.3,10.3
		C22.2,15.4,20.5,18.5,17.9,20.4z"/>
	<path class="st0" d="M12,4.6C9,4.6,6.6,7,6.6,10c0,3,2.4,5.4,5.4,5.4s5.4-2.4,5.4-5.4C17.4,7,15,4.6,12,4.6z M12,13.8
		c-2.1,0-3.9-1.7-3.9-3.9c0-2.1,1.7-3.9,3.9-3.9s3.9,1.7,3.9,3.9C15.9,12.1,14.1,13.8,12,13.8z"/>
</g>
</svg>
