<?xml version="1.0" encoding="utf-8"?>
<!-- Generator: Adobe Illustrator 21.0.2, SVG Export Plug-In . SVG Version: 6.00 Build 0)  -->
<svg version="1.1" id="Ebene_1" xmlns="http://www.w3.org/2000/svg" xmlns:xlink="http://www.w3.org/1999/xlink" x="0px" y="0px"
	 viewBox="0 0 26.3 24" style="enable-background:new 0 0 26.3 24;" xml:space="preserve">
<style type="text/css">
	.st0{fill:#777582;}
</style>
<g>
	<path class="st0" d="M14.6,0.3c-0.4,0-0.8,0.3-0.8,0.8s0.3,0.8,0.8,0.8c5.7,0,10.3,4.6,10.3,10.3c0,3.4-1.7,6.4-4.2,8.2
		c-1.4-2.6-3.6-4.1-6.1-4.1c-2.4,0-4.7,1.5-6.1,4.1c-2.3-1.7-3.9-4.4-4.1-7.5l1.5,1.5c0.3,0.3,0.8,0.3,1.1,0s0.3-0.8,0-1.1l-2.8-2.8
		l0,0c0,0,0,0-0.1,0c-0.1,0-0.1-0.1-0.2-0.1c-0.1,0-0.1,0-0.2,0c0,0,0,0-0.1,0c0,0,0,0,0,0c-0.1,0-0.2,0-0.3,0.1
		c-0.1,0-0.2,0.1-0.2,0.2c0,0,0,0,0,0l-2.8,2.8c-0.3,0.3-0.3,0.8,0,1.1c0.1,0.1,0.3,0.2,0.5,0.2s0.4-0.1,0.5-0.2l1.6-1.6
		c0.4,6.1,5.5,11,11.7,11c6.5,0,11.8-5.3,11.8-11.8C26.3,5.5,21,0.3,14.6,0.3z M14.6,22.3c-1.7,0-3.4-0.4-4.8-1.2
		c1.1-2.1,2.9-3.4,4.8-3.4c1.9,0,3.7,1.3,4.8,3.4C17.9,21.8,16.3,22.3,14.6,22.3z"/>
	<path class="st0" d="M14.6,14.9c3,0,5.4-2.4,5.4-5.4c0-3-2.4-5.4-5.4-5.4c-3,0-5.4,2.4-5.4,5.4C9.2,12.5,11.6,14.9,14.6,14.9z
		 M14.6,5.7c2.1,0,3.9,1.7,3.9,3.9c0,2.1-1.7,3.9-3.9,3.9c-2.1,0-3.9-1.7-3.9-3.9C10.7,7.4,12.4,5.7,14.6,5.7z"/>
</g>
</svg>
