<?xml version="1.0" encoding="utf-8"?>
<!-- Generated by IcoMoon.io -->
<!DOCTYPE svg PUBLIC "-//W3C//DTD SVG 1.1//EN" "http://www.w3.org/Graphics/SVG/1.1/DTD/svg11.dtd">
<svg version="1.1" xmlns="http://www.w3.org/2000/svg" xmlns:xlink="http://www.w3.org/1999/xlink" width="36" height="32" viewBox="0 0 36 32">
<path fill="#777582" d="M19.881 0c-0.545 0-1.089 0.408-1.089 1.089s0.409 1.089 1.089 1.089c7.762 0 14.026 6.264 14.026 14.026 0 4.63-2.179 8.715-5.719 11.166-1.906-3.54-4.902-5.583-8.306-5.583-3.268 0-6.4 2.043-8.306 5.583-3.132-2.315-5.311-5.992-5.583-10.213l1.906 1.906c0.409 0.409 1.089 0.409 1.498 0s0.409-1.089 0-1.498l-3.813-3.813c0 0 0 0 0 0-0.136 0-0.272-0.136-0.272-0.136-0.136 0-0.272 0-0.272 0s0 0 0 0 0 0 0 0c-0.136 0-0.272 0-0.409 0.136-0.136 0-0.272 0.136-0.272 0.272 0 0 0 0 0 0l-4.085 3.677c-0.408 0.409-0.408 1.089 0 1.498 0.136 0.136 0.408 0.272 0.681 0.272s0.545-0.136 0.681-0.272l2.179-2.179c0.545 8.306 7.489 14.979 15.932 14.979 8.851 0 16.068-7.217 16.068-16.068s-7.217-15.932-15.932-15.932zM13.345 28.323c1.498-2.86 3.949-4.63 6.536-4.63s5.038 1.77 6.536 4.63c-1.906 1.089-4.221 1.634-6.536 1.634-2.451 0-4.63-0.545-6.536-1.634z"></path>
<path fill="#777582" d="M19.881 20.017c4.085 0 7.353-3.268 7.353-7.353s-3.404-7.217-7.353-7.217-7.353 3.268-7.353 7.217 3.268 7.353 7.353 7.353zM19.881 7.489c2.86 0 5.311 2.315 5.311 5.311s-2.315 5.311-5.311 5.311-5.311-2.315-5.311-5.311 2.315-5.311 5.311-5.311z"></path>
</svg>
