<?xml version="1.0" encoding="utf-8"?>
<!-- Generator: Adobe Illustrator 21.0.2, SVG Export Plug-In . SVG Version: 6.00 Build 0)  -->
<svg version="1.1" id="Ebene_1" xmlns="http://www.w3.org/2000/svg" xmlns:xlink="http://www.w3.org/1999/xlink" x="0px" y="0px"
	 viewBox="0 0 29.7 24" style="enable-background:new 0 0 29.7 24;" xml:space="preserve">
<style type="text/css">
	.st0{fill:#777582;}
</style>
<g>
	<path class="st0" d="M21.7,14.3c3.7,0,6.7-3,6.7-6.7s-3-6.7-6.7-6.7S15,3.9,15,7.6S18,14.3,21.7,14.3z M21.7,2.4
		c2.9,0,5.2,2.3,5.2,5.2s-2.3,5.2-5.2,5.2s-5.2-2.3-5.2-5.2S18.8,2.4,21.7,2.4z"/>
	<path class="st0" d="M29.7,22c-1.8-3.6-4.7-5.8-8-5.8c-3.2,0-6.2,2.2-8,5.8c-0.2,0.4,0,0.8,0.3,1c0.1,0.1,0.2,0.1,0.3,0.1
		c0.3,0,0.5-0.2,0.7-0.4c1.5-3.1,4-4.9,6.6-4.9c2.6,0,5.1,1.8,6.6,4.9c0.2,0.4,0.6,0.5,1,0.3C29.7,22.9,29.9,22.4,29.7,22z"/>
	<path class="st0" d="M6.5,5.8C6.4,5.7,6.3,5.7,6.2,5.6c-0.2-0.1-0.4-0.1-0.6,0c-0.1,0-0.2,0.1-0.2,0.2L0.2,11
		c-0.3,0.3-0.3,0.8,0,1.1c0.1,0.1,0.3,0.2,0.5,0.2s0.4-0.1,0.5-0.2l3.9-3.9v14.2c0,0.4,0.3,0.8,0.8,0.8s0.8-0.3,0.8-0.8V8.1l4,4
		c0.1,0.1,0.3,0.2,0.5,0.2s0.4-0.1,0.5-0.2c0.3-0.3,0.3-0.8,0-1.1L6.5,5.8z"/>
</g>
</svg>
