<?xml version="1.0" encoding="utf-8"?>
<!-- Generator: Adobe Illustrator 21.0.2, SVG Export Plug-In . SVG Version: 6.00 Build 0)  -->
<svg version="1.1" id="Ebene_1" xmlns="http://www.w3.org/2000/svg" xmlns:xlink="http://www.w3.org/1999/xlink" x="0px" y="0px"
	 viewBox="0 0 24 24" style="enable-background:new 0 0 24 24;" xml:space="preserve">
<style type="text/css">
	.st0{fill:#777582;}
</style>
<g>
	<path class="st0" d="M12,14.4c3.9,0,7.1-3.2,7.1-7.1S15.9,0.3,12,0.3c-3.9,0-7.1,3.2-7.1,7.1S8.1,14.4,12,14.4z M12,1.8
		c3.1,0,5.6,2.5,5.6,5.6s-2.5,5.6-5.6,5.6c-3.1,0-5.6-2.5-5.6-5.6S8.9,1.8,12,1.8z"/>
	<path class="st0" d="M20.4,22.7c-1.9-3.8-5-6.1-8.4-6.1c-3.4,0-6.5,2.3-8.4,6.1c-0.2,0.4,0,0.8,0.3,1c0.1,0.1,0.2,0.1,0.3,0.1
		c0.3,0,0.5-0.2,0.7-0.4c1.6-3.3,4.2-5.3,7.1-5.3c2.8,0,5.5,2,7.1,5.2c0.2,0.4,0.6,0.5,1,0.3C20.4,23.5,20.6,23,20.4,22.7z"/>
</g>
</svg>
