<?xml version="1.0" encoding="utf-8"?>
<!-- Generated by IcoMoon.io -->
<!DOCTYPE svg PUBLIC "-//W3C//DTD SVG 1.1//EN" "http://www.w3.org/Graphics/SVG/1.1/DTD/svg11.dtd">
<svg version="1.1" xmlns="http://www.w3.org/2000/svg" xmlns:xlink="http://www.w3.org/1999/xlink" width="45" height="32" viewBox="0 0 45 32">
<path fill="#777582" d="M15.932 5.992c-4.085 0-7.353 3.268-7.353 7.353s3.268 7.353 7.353 7.353 7.353-3.268 7.353-7.353-3.268-7.353-7.353-7.353zM15.932 18.519c-2.86 0-5.311-2.315-5.311-5.311s2.315-5.311 5.311-5.311 5.311 2.315 5.311 5.311-2.315 5.311-5.311 5.311z"></path>
<path fill="#777582" d="M35.268 6.128c-2.043 0-3.949 0.681-5.583 1.634-2.86-4.766-8.034-7.762-13.753-7.762-8.715 0-15.932 7.217-15.932 15.932s7.217 16.068 15.932 16.068c5.719 0 10.894-2.996 13.753-7.898 1.634 1.089 3.54 1.77 5.583 1.77 5.447 0 9.804-4.494 9.804-9.804 0-5.447-4.357-9.94-9.804-9.94zM9.668 28.46c1.498-2.723 3.813-4.221 6.264-4.221s4.766 1.498 6.264 4.221c-1.906 0.953-4.085 1.498-6.264 1.498s-4.357-0.545-6.264-1.498zM24.102 27.37c-1.906-3.268-4.902-5.174-8.034-5.174s-6.128 1.906-8.034 5.174c-3.54-2.587-5.855-6.672-5.855-11.438 0-7.762 6.264-13.889 13.889-13.889 5.038 0 9.668 2.723 12.119 7.081-1.77 1.77-2.723 4.221-2.723 6.809s1.089 5.038 2.723 6.809c-1.089 1.906-2.451 3.404-4.085 4.63zM35.268 23.83c-4.357 0-7.762-3.54-7.762-7.762 0-4.357 3.54-7.762 7.762-7.762 4.357 0 7.762 3.54 7.762 7.762s-3.404 7.762-7.762 7.762z"></path>
<path fill="#777582" d="M39.489 14.979h-8.579c-0.545 0-1.089 0.409-1.089 1.089s0.409 1.089 1.089 1.089h8.579c0.545 0 1.089-0.409 1.089-1.089s-0.545-1.089-1.089-1.089z"></path>
</svg>
