<?xml version="1.0" encoding="utf-8"?>
<!-- Generated by IcoMoon.io -->
<!DOCTYPE svg PUBLIC "-//W3C//DTD SVG 1.1//EN" "http://www.w3.org/Graphics/SVG/1.1/DTD/svg11.dtd">
<svg version="1.1" xmlns="http://www.w3.org/2000/svg" xmlns:xlink="http://www.w3.org/1999/xlink" width="32" height="32" viewBox="0 0 32 32">
<path fill="#777582" d="M16.068 0c-8.851 0-16.068 7.217-16.068 15.932s7.217 16.068 16.068 16.068 16.068-7.217 16.068-16.068-7.353-15.932-16.068-15.932zM9.668 28.46c1.498-2.723 3.813-4.221 6.264-4.221s4.766 1.634 6.264 4.221c-1.906 0.953-4.085 1.498-6.264 1.498s-4.357-0.545-6.264-1.498zM24.102 27.37c-1.906-3.268-4.902-5.174-8.034-5.174s-6.128 1.906-8.034 5.174c-3.54-2.587-5.855-6.672-5.855-11.438 0-7.762 6.264-13.889 14.026-13.889s13.753 6.264 13.753 13.889c0 4.766-2.315 8.851-5.855 11.438z"></path>
<path fill="#777582" d="M16.068 5.992c-4.085 0-7.353 3.268-7.353 7.353s3.268 7.353 7.353 7.353 7.353-3.268 7.353-7.353-3.404-7.353-7.353-7.353zM16.068 18.519c-2.86 0-5.311-2.315-5.311-5.311s2.315-5.311 5.311-5.311 5.311 2.315 5.311 5.311-2.451 5.311-5.311 5.311z"></path>
</svg>
