<?xml version="1.0" encoding="utf-8"?>
<!-- Generated by IcoMoon.io -->
<!DOCTYPE svg PUBLIC "-//W3C//DTD SVG 1.1//EN" "http://www.w3.org/Graphics/SVG/1.1/DTD/svg11.dtd">
<svg version="1.1" xmlns="http://www.w3.org/2000/svg" xmlns:xlink="http://www.w3.org/1999/xlink" width="23" height="32" viewBox="0 0 23 32">
<path fill="#777582" d="M11.574 19.2c-5.311 0-9.668-4.357-9.668-9.668s4.357-9.532 9.668-9.532c5.311 0 9.668 4.357 9.668 9.668s-4.357 9.532-9.668 9.532zM11.574 2.043c-4.221 0-7.626 3.404-7.626 7.626s3.404 7.626 7.626 7.626c4.221 0 7.626-3.404 7.626-7.626s-3.404-7.626-7.626-7.626z"></path>
<path fill="#777582" d="M0.953 32c-0.136 0-0.272 0-0.408-0.136-0.545-0.272-0.681-0.817-0.408-1.362 2.587-5.174 6.809-8.306 11.438-8.306s8.851 3.132 11.438 8.306c0.272 0.545 0 1.089-0.409 1.362-0.545 0.272-1.089 0-1.362-0.409-2.179-4.494-5.719-7.081-9.668-7.081-3.813 0-7.489 2.723-9.668 7.217-0.136 0.136-0.545 0.408-0.953 0.408z"></path>
</svg>
