<?xml version="1.0" encoding="utf-8"?>
<!-- Generated by IcoMoon.io -->
<!DOCTYPE svg PUBLIC "-//W3C//DTD SVG 1.1//EN" "http://www.w3.org/Graphics/SVG/1.1/DTD/svg11.dtd">
<svg version="1.1" xmlns="http://www.w3.org/2000/svg" xmlns:xlink="http://www.w3.org/1999/xlink" width="51" height="32" viewBox="0 0 51 32">
<path fill="#777582" d="M25.12 19.917c-4.997 0-9.049-4.052-9.049-9.049s4.052-9.049 9.049-9.049 9.049 4.052 9.049 9.049c0 4.997-4.052 9.049-9.049 9.049zM25.12 3.845c-3.917 0-7.023 3.106-7.023 7.023s3.106 7.023 7.023 7.023 7.023-3.106 7.023-7.023-3.106-7.023-7.023-7.023z"></path>
<path fill="#777582" d="M15.261 31.802c-0.135 0-0.27 0-0.405-0.135-0.54-0.27-0.675-0.81-0.405-1.351 2.431-4.862 6.348-7.833 10.805-7.833 4.322 0 8.374 2.971 10.805 7.833 0.27 0.54 0 1.080-0.405 1.351-0.54 0.27-1.080 0-1.351-0.405-2.026-4.187-5.402-6.618-8.914-6.618s-6.888 2.431-8.914 6.618c-0.405 0.27-0.81 0.54-1.216 0.54z"></path>
<path fill="#777582" d="M10.939 18.161c-4.997 0-9.049-4.052-9.049-9.049s4.052-9.049 9.049-9.049c2.026 0 3.917 0.675 5.537 1.891 0.405 0.405 0.54 0.945 0.135 1.486-0.405 0.405-0.945 0.54-1.486 0.135-1.216-0.945-2.701-1.486-4.322-1.486-3.917 0-7.023 3.106-7.023 7.023s3.106 7.023 7.023 7.023c0.945 0 1.891-0.135 2.701-0.54 0.54-0.27 1.080 0 1.351 0.54s0 1.080-0.54 1.351c-0.945 0.405-2.161 0.675-3.376 0.675z"></path>
<path fill="#777582" d="M1.080 30.046c-0.135 0-0.27 0-0.405-0.135-0.54-0.27-0.675-0.81-0.405-1.351 2.431-4.862 6.348-7.833 10.805-7.833 2.026 0 4.052 0.675 5.943 1.891 0.405 0.27 0.54 0.945 0.27 1.351s-0.945 0.54-1.351 0.27c-1.486-1.080-3.106-1.486-4.727-1.486-3.512 0-6.888 2.431-8.914 6.618-0.405 0.54-0.81 0.675-1.216 0.675z"></path>
<path fill="#777582" d="M39.707 18.161c-1.216 0-2.431-0.27-3.512-0.675-0.54-0.27-0.81-0.81-0.54-1.351s0.81-0.81 1.351-0.54c0.81 0.405 1.756 0.54 2.701 0.54 3.917 0 7.023-3.106 7.023-7.023s-3.106-7.023-7.023-7.023c-1.621 0-3.106 0.54-4.322 1.486-0.405 0.405-1.080 0.27-1.486-0.135s-0.27-1.080 0.135-1.486c1.621-1.216 3.512-1.891 5.672-1.891 4.997 0 9.049 4.052 9.049 9.049s-4.052 9.049-9.049 9.049z"></path>
<path fill="#777582" d="M49.431 30.046c-0.405 0-0.675-0.27-0.945-0.54-2.026-4.187-5.402-6.618-8.914-6.618-1.621 0-3.241 0.54-4.727 1.486-0.405 0.27-1.080 0.135-1.351-0.27s-0.135-1.080 0.27-1.351c1.756-1.216 3.782-1.891 5.943-1.891 4.322 0 8.374 2.971 10.805 7.833 0.27 0.54 0 1.080-0.405 1.351-0.27 0-0.405 0-0.675 0z"></path>
</svg>
