<?xml version="1.0" encoding="utf-8"?>
<!-- Generator: Adobe Illustrator 21.0.2, SVG Export Plug-In . SVG Version: 6.00 Build 0)  -->
<svg version="1.1" id="Ebene_1" xmlns="http://www.w3.org/2000/svg" xmlns:xlink="http://www.w3.org/1999/xlink" x="0px" y="0px"
	 viewBox="0 0 24 24" style="enable-background:new 0 0 24 24;" xml:space="preserve">
<style type="text/css">
	.st0{fill:#777582;}
</style>
<path class="st0" d="M12,1C5.9,1,1,5.9,1,12c0,2.3,0.7,4.5,2,6.3L1.1,23l4.7-1.9C7.6,22.3,9.7,23,12,23c6.1,0,11-4.9,11-11
	S18.1,1,12,1z M19.2,15.5c-0.3,1.7-1.9,3-3.7,2.6c-2.6-0.5-4.9-1.8-6.6-3.8c-1.1-1.3-2.1-2.5-2.7-4.1C6,9.6,5.9,9,5.7,8.4
	c0.1-1.2,0.6-2.2,1.4-3c0.7-0.7,2-0.4,2.3,0.5C9.7,6.6,9.9,7.4,10.2,8c0.2,0.5,0.1,0.9-0.2,1.3c-1,1.1-1,1.2-0.1,2.4
	c1,1.4,2.3,2.4,3.8,3.1c0.2,0.1,0.6,0,0.8-0.1c0.4-0.3,0.7-0.7,1-1.1c0.2-0.3,0.5-0.4,0.8-0.2c0.8,0.4,1.7,0.9,2.5,1.3
	C19.2,14.9,19.3,15.1,19.2,15.5z"/>
</svg>
