<?xml version="1.0" encoding="utf-8"?>
<!-- Generated by IcoMoon.io -->
<!DOCTYPE svg PUBLIC "-//W3C//DTD SVG 1.1//EN" "http://www.w3.org/Graphics/SVG/1.1/DTD/svg11.dtd">
<svg version="1.1" xmlns="http://www.w3.org/2000/svg" xmlns:xlink="http://www.w3.org/1999/xlink" width="32" height="32" viewBox="0 0 32 32">
<path fill="#777582" d="M16 0c-8.873 0-16 7.127-16 16 0 3.345 1.018 6.545 2.909 9.164l-2.764 6.836 6.836-2.764c2.618 1.745 5.673 2.764 9.018 2.764 8.873 0 16-7.127 16-16s-7.127-16-16-16zM26.473 21.091c-0.436 2.473-2.764 4.364-5.382 3.782-3.636-0.873-6.982-2.618-9.455-5.527-1.6-1.891-3.2-3.782-4.073-5.964-0.291-0.873-0.436-1.745-0.727-2.618 0.145-1.745 0.873-3.2 2.036-4.364 1.018-1.018 2.909-0.582 3.345 0.727 0.436 1.018 0.727 2.182 1.164 3.055 0.291 0.727 0.145 1.309-0.291 1.891-1.455 1.6-1.455 1.745-0.145 3.491 1.455 2.036 3.345 3.491 5.527 4.509 0.291 0.145 0.873 0 1.164-0.145 0.582-0.436 1.018-1.018 1.455-1.6 0.291-0.436 0.727-0.582 1.164-0.291 1.164 0.582 2.473 1.309 3.636 1.891 0.582 0.291 0.727 0.582 0.582 1.164z"></path>
</svg>
