<?xml version="1.0" encoding="utf-8"?>
<!-- Generator: Adobe Illustrator 21.0.2, SVG Export Plug-In . SVG Version: 6.00 Build 0)  -->
<svg version="1.1" id="Ebene_1" xmlns="http://www.w3.org/2000/svg" xmlns:xlink="http://www.w3.org/1999/xlink" x="0px" y="0px"
	 viewBox="0 0 24 24" style="enable-background:new 0 0 24 24;" xml:space="preserve">
<style type="text/css">
	.st0{fill:#777582;}
</style>
<g>
	<g>
		<path class="st0" d="M16.7,23c-0.4,0-0.8,0-1.2,0c-0.6,0-1-0.2-1.3-0.7c-0.8-1.5-1.6-3-2.5-4.5c-0.6-1.1-1.2-2.2-1.8-3.2
			c-0.1-0.2-0.1-0.4,0-0.7c2.3-4,4.5-8,6.8-12C17,1.2,17.4,1,18,1c0.9,0,1.7,0,2.6,0c0.7,0,0.9,0.3,0.5,0.9
			c-2.2,3.9-4.4,7.8-6.7,11.7c-0.2,0.3-0.2,0.6,0,0.9c1.4,2.5,2.8,5,4.1,7.5c0.3,0.6,0.2,0.9-0.5,0.9C17.6,23,17.1,23,16.7,23z"/>
	</g>
	<g>
		<path class="st0" d="M6,5.4c0.5,0,0.9,0,1.4,0c0.4,0,0.8,0.2,1,0.6c0.7,1.2,1.4,2.4,2.1,3.7c0.1,0.1,0,0.3,0,0.4
			c-1.1,1.9-2.2,3.8-3.2,5.8c-0.3,0.5-0.7,0.7-1.2,0.7c-0.9,0-1.7,0-2.6,0c-0.7,0-0.9-0.3-0.5-0.9c1-1.8,2-3.6,3-5.3
			C6,9.8,6,9.6,5.8,9.3C5.2,8.3,4.6,7.3,4,6.2C3.7,5.6,3.8,5.4,4.6,5.4C5,5.3,5.5,5.4,6,5.4z"/>
	</g>
</g>
</svg>
