<?xml version="1.0" encoding="utf-8"?>
<!-- Generator: Adobe Illustrator 21.0.2, SVG Export Plug-In . SVG Version: 6.00 Build 0)  -->
<svg version="1.1" id="Ebene_1" xmlns="http://www.w3.org/2000/svg" xmlns:xlink="http://www.w3.org/1999/xlink" x="0px" y="0px"
	 viewBox="0 0 24 24" style="enable-background:new 0 0 24 24;" xml:space="preserve">
<style type="text/css">
	.st0{fill:#777582;}
</style>
<path id="XMLID_391_" class="st0" d="M23.5,10.7c0-1.2-0.1-2.5-0.3-3.7c-0.3-1.7-1-2.8-3-3c-0.6-0.1-1.2-0.1-1.8-0.1
	c-3-0.1-6-0.2-9-0.1C7.5,3.8,5.8,3.8,4.1,4C2.7,4,1.6,4.5,1.1,5.9C0.9,6.4,0.8,7,0.7,7.5c-0.2,1.9-0.2,3.9-0.2,5.8
	c0,1.3,0.1,2.6,0.3,3.9c0.4,1.7,1.2,2.5,2.8,2.7c0.7,0.1,1.4,0.1,2.1,0.2c0.7,0.1,1.5,0,2.2,0.1c0.7,0,1.3,0,2,0c1.6,0,3.3,0,4.9,0
	c0,0,0,0,0,0c0,0,0,0,0,0c0.6,0,1.1,0,1.7,0c0,0,0,0,0,0c0,0,0,0,0,0c0.1,0,0.2,0,0.2,0c1.2,0,2.3-0.1,3.5-0.2
	c1.1-0.1,2-0.6,2.5-1.8c0.2-0.6,0.4-1.2,0.4-1.8C23.5,14.5,23.5,12.6,23.5,10.7z M9.5,15c0-2.2,0-4.4,0-6.6c2,1.1,4.1,2.2,6.2,3.3
	C13.6,12.9,11.5,13.9,9.5,15z"/>
</svg>
