<?xml version="1.0" encoding="utf-8"?>
<!-- Generated by IcoMoon.io -->
<!DOCTYPE svg PUBLIC "-//W3C//DTD SVG 1.1//EN" "http://www.w3.org/Graphics/SVG/1.1/DTD/svg11.dtd">
<svg version="1.1" xmlns="http://www.w3.org/2000/svg" xmlns:xlink="http://www.w3.org/1999/xlink" width="46" height="32" viewBox="0 0 46 32">
<path fill="#777582" d="M45.511 13.333c0-2.489-0.178-4.8-0.533-7.111-0.711-3.2-1.956-5.333-6.044-5.689-1.244-0.178-2.489-0.178-3.556-0.178-6.044-0.356-12.089-0.356-17.956-0.356-3.556 0-6.933 0.178-10.489 0.356-2.489 0.178-4.622 1.244-5.689 3.733-0.533 1.067-0.711 2.133-0.889 3.2-0.356 3.733-0.356 7.644-0.356 11.378 0 2.489 0.178 5.156 0.711 7.644 0.711 3.2 2.489 4.8 5.511 5.156 1.422 0.178 2.844 0.178 4.267 0.356s3.022 0 4.444 0.178c1.244 0 2.667 0 3.911 0 3.2 0 6.578 0 9.778 0 0 0 0 0 0 0s0 0 0 0c1.067 0 2.311 0 3.378 0 0 0 0 0 0 0 0.178 0 0.356 0 0.533 0 2.311 0 4.622-0.178 6.933-0.356s3.911-1.244 4.978-3.378c0.533-1.067 0.711-2.311 0.889-3.378 0.178-4.089 0.178-7.822 0.178-11.556zM17.778 21.867c0-4.267 0-8.356 0-12.8 4.089 2.133 8.178 4.267 12.267 6.4-4.089 2.133-8.178 4.267-12.267 6.4z"></path>
<path fill="#777582" d="M31.822 31.822c0 0 0 0 0 0s0 0 0 0 0 0 0 0z"></path>
</svg>
