<?xml version="1.0" encoding="utf-8"?>
<!-- Generated by IcoMoon.io -->
<!DOCTYPE svg PUBLIC "-//W3C//DTD SVG 1.1//EN" "http://www.w3.org/Graphics/SVG/1.1/DTD/svg11.dtd">
<svg version="1.1" xmlns="http://www.w3.org/2000/svg" xmlns:xlink="http://www.w3.org/1999/xlink" width="32" height="32" viewBox="0 0 32 32">
<path fill="#777582" d="M14.333 22c-0.4 0.4-0.4 1.067 0 1.467s1.067 0.4 1.4 0l6.8-6.867c0.2-0.2 0.267-0.467 0.267-0.733s-0.067-0.533-0.267-0.733l-6.733-6.867c-0.4-0.4-1.067-0.4-1.4 0v0c-0.4 0.4-0.4 1.067-0.067 1.467l5.067 5.133h-18.4c-0.533 0-1 0.467-1 1s0.467 1 1 1h18.4l-5.067 5.133z"></path>
<path fill="#777582" d="M16.4 0c-7.333 0-13.467 5.333-15.133 12h2c1.6-5.333 6.867-10 13.133-10 7.533 0 13.6 6.2 13.6 13.8s-6.067 14.2-13.6 14.2c-6.333 0-11.667-4.667-13.2-10h-2c1.533 6.667 7.8 12 15.2 12 8.6 0 15.6-7.333 15.6-16s-7-16-15.6-16z"></path>
</svg>
