<?xml version="1.0" encoding="utf-8"?>
<!-- Generated by IcoMoon.io -->
<!DOCTYPE svg PUBLIC "-//W3C//DTD SVG 1.1//EN" "http://www.w3.org/Graphics/SVG/1.1/DTD/svg11.dtd">
<svg version="1.1" xmlns="http://www.w3.org/2000/svg" xmlns:xlink="http://www.w3.org/1999/xlink" width="36" height="32" viewBox="0 0 36 32">
<path fill="#777582" d="M31.728 0h-28.051c-2.043 0-3.677 1.634-3.677 3.813v24.511c0 2.043 1.634 3.813 3.813 3.813h28.051c2.043 0 3.813-1.634 3.813-3.813v-24.511c-0.136-2.179-1.906-3.813-3.949-3.813zM3.677 2.043h28.051c0.953 0 1.77 0.817 1.77 1.77v4.63h-31.455v-4.63c0-0.953 0.817-1.77 1.634-1.77zM31.728 29.957h-28.051c-0.953 0-1.634-0.817-1.634-1.77v-18.519h31.455v18.519c0 0.953-0.817 1.77-1.77 1.77z"></path>
<path fill="#777582" d="M6.945 5.311c0 0.827-0.671 1.498-1.498 1.498s-1.498-0.671-1.498-1.498c0-0.827 0.671-1.498 1.498-1.498s1.498 0.671 1.498 1.498z"></path>
<path fill="#777582" d="M11.166 5.311c0 0.827-0.671 1.498-1.498 1.498s-1.498-0.671-1.498-1.498c0-0.827 0.671-1.498 1.498-1.498s1.498 0.671 1.498 1.498z"></path>
<path fill="#777582" d="M15.251 5.311c0 0.827-0.671 1.498-1.498 1.498s-1.498-0.671-1.498-1.498c0-0.827 0.671-1.498 1.498-1.498s1.498 0.671 1.498 1.498z"></path>
</svg>
