<?xml version="1.0" encoding="utf-8"?>
<!-- Generated by IcoMoon.io -->
<!DOCTYPE svg PUBLIC "-//W3C//DTD SVG 1.1//EN" "http://www.w3.org/Graphics/SVG/1.1/DTD/svg11.dtd">
<svg version="1.1" xmlns="http://www.w3.org/2000/svg" xmlns:xlink="http://www.w3.org/1999/xlink" width="32" height="32" viewBox="0 0 32 32">
<path fill="#777582" d="M32 4.766c0-0.136 0-0.272-0.136-0.409-0.409-2.451-2.451-4.357-5.038-4.357h-21.651c-2.587 0-4.63 1.906-5.038 4.357-0.136 0.136-0.136 0.272-0.136 0.409 0 0 0 0.136 0 0.136 0 0.136 0 0.136 0 0.272v21.651c0 2.86 2.315 5.174 5.174 5.174h21.651c2.86 0 5.174-2.315 5.174-5.174v-21.651c0-0.136 0-0.136 0-0.272 0 0 0-0.136 0-0.136zM5.174 2.043h21.651c1.226 0 2.315 0.681 2.723 1.77h-27.234c0.681-1.089 1.634-1.77 2.86-1.77zM26.826 29.957h-21.651c-1.77 0-3.132-1.362-3.132-3.132v-20.97h27.915v20.97c0 1.77-1.362 3.132-3.132 3.132z"></path>
<path fill="#777582" d="M8.851 10.485c-1.906 1.906-2.996 4.494-2.996 7.217s1.089 5.311 2.996 7.217c2.043 1.906 4.63 2.996 7.217 2.996s5.174-0.953 7.217-2.996c1.906-1.906 2.996-4.494 2.996-7.217s-1.089-5.311-2.996-7.217c-4.085-3.949-10.485-3.949-14.434 0zM21.787 23.421c-3.132 3.132-8.306 3.132-11.574 0-1.498-1.498-2.315-3.54-2.315-5.719s0.817-4.221 2.315-5.719c3.132-3.132 8.306-3.132 11.574 0 1.498 1.498 2.315 3.54 2.315 5.719s-0.817 4.221-2.315 5.719z"></path>
<path fill="#777582" d="M19.745 16.885h-2.996v-2.996c0-0.409-0.409-0.817-0.817-0.817s-0.817 0.409-0.817 0.817v2.996h-2.996c-0.409 0-0.817 0.409-0.817 0.817s0.409 0.817 0.817 0.817h2.996v2.996c0 0.409 0.409 0.817 0.817 0.817s0.817-0.409 0.817-0.817v-2.996h2.996c0.409 0 0.817-0.409 0.817-0.817s-0.409-0.817-0.817-0.817z"></path>
</svg>
