<?xml version="1.0" encoding="utf-8"?>
<!-- Generated by IcoMoon.io -->
<!DOCTYPE svg PUBLIC "-//W3C//DTD SVG 1.1//EN" "http://www.w3.org/Graphics/SVG/1.1/DTD/svg11.dtd">
<svg version="1.1" xmlns="http://www.w3.org/2000/svg" xmlns:xlink="http://www.w3.org/1999/xlink" width="32" height="32" viewBox="0 0 32 32">
<path fill="#777582" d="M31.591 15.387c0.272-0.136 0.409-0.409 0.409-0.817s-0.136-0.681-0.272-0.817l-13.481-13.481c-0.136-0.136-0.545-0.272-0.817-0.272s-0.545 0.136-0.817 0.408l-3.813 6.128c-2.723 4.221-5.855 8.17-9.396 11.711l-1.498 1.498c-1.226 1.226-1.906 2.723-1.906 4.494s0.681 3.268 1.906 4.494l1.498 1.498c1.226 1.226 2.723 1.906 4.494 1.906 1.634-0.136 3.132-0.817 4.357-2.043l1.498-1.498c0.817-0.817 1.498-1.498 2.315-2.179l9.396 4.766c0.136 0.136 0.272 0.136 0.409 0.136 0.409 0 0.681-0.272 0.953-0.545 0.272-0.545 0-1.089-0.409-1.362l-8.715-4.357c2.451-2.043 5.038-4.085 7.762-5.719l6.128-3.949zM10.757 28.732c-1.634 1.634-4.357 1.634-5.992 0l-1.498-1.498c-0.817-0.817-1.226-1.906-1.226-2.996s0.409-2.179 1.226-2.996l0.817-0.817 7.489 7.489-0.817 0.817zM15.387 24.374c-0.136 0-0.136 0 0 0-0.817 0.681-1.498 1.362-2.315 2.043l-7.489-7.489c3.404-3.404 6.4-7.217 8.987-11.302l3.132-5.038 11.711 11.711-4.902 3.132c-3.268 2.043-6.4 4.357-9.123 6.945z"></path>
</svg>
