<?xml version="1.0" encoding="utf-8"?>
<!-- Generated by IcoMoon.io -->
<!DOCTYPE svg PUBLIC "-//W3C//DTD SVG 1.1//EN" "http://www.w3.org/Graphics/SVG/1.1/DTD/svg11.dtd">
<svg version="1.1" xmlns="http://www.w3.org/2000/svg" xmlns:xlink="http://www.w3.org/1999/xlink" width="37" height="32" viewBox="0 0 37 32">
<path fill="#777582" d="M28.732 25.055h-4.221c-0.545 0-1.089-0.409-1.089-1.089s0.409-1.089 1.089-1.089h4.221c3.404 0 6.128-2.723 6.128-6.128 0-3.54-3.677-6.128-6.945-6.128-0.272 0-0.953 0.136-2.587 0.817-0.272 0.136-0.681 0.136-0.953-0.136s-0.409-0.545-0.409-0.953c0-0.272 0-0.545 0-0.681 0-4.357-3.54-7.762-7.762-7.762s-8.034 3.677-8.034 7.898c0 0.272-0.136 0.681-0.272 0.817-0.136 0.272-0.409 0.409-0.681 0.409-3.54 0-5.174 2.996-5.174 5.991 0 3.268 2.723 5.992 5.991 5.992h4.494c0.545 0 1.089 0.409 1.089 1.089s-0.409 1.089-1.089 1.089h-4.494c-4.494 0-8.034-3.54-8.034-8.034s2.451-7.626 6.264-8.034c0.409-5.174 4.63-9.123 9.804-9.123s9.532 4.085 9.804 9.26c0.817-0.272 1.498-0.409 2.043-0.409 4.221 0 8.987 3.54 8.987 8.17 0 4.494-3.677 8.034-8.17 8.034z"></path>
<path fill="#777582" d="M18.383 32c-0.545 0-1.089-0.409-1.089-1.089v-15.523l-4.085 4.085c-0.409 0.409-1.089 0.409-1.498 0s-0.409-1.089 0-1.498l5.992-5.855c0.272-0.272 0.681-0.409 1.089-0.272 0.272 0.136 0.409 0.272 0.545 0.409l5.719 5.719c0.409 0.409 0.409 1.089 0 1.498s-1.089 0.409-1.498 0l-4.085-4.085v15.66c0 0.545-0.545 0.953-1.089 0.953z"></path>
</svg>
