<?xml version="1.0" encoding="utf-8"?>
<!-- Generated by IcoMoon.io -->
<!DOCTYPE svg PUBLIC "-//W3C//DTD SVG 1.1//EN" "http://www.w3.org/Graphics/SVG/1.1/DTD/svg11.dtd">
<svg version="1.1" xmlns="http://www.w3.org/2000/svg" xmlns:xlink="http://www.w3.org/1999/xlink" width="31" height="32" viewBox="0 0 31 32">
<path fill="#777582" d="M30.366 12.664c-0.272-0.272-0.681-0.409-1.089-0.409h-1.77c-0.136-0.409-0.272-0.953-0.545-1.362l1.226-1.226c0.409-0.409 0.545-0.817 0.545-1.362s-0.272-1.089-0.545-1.362l-3.404-3.404c-0.817-0.817-2.043-0.817-2.86 0l-1.089 1.226h-0.136c-0.272-0.136-0.545-0.272-0.953-0.409 0 0 0 0 0 0v-1.906c0-0.953-1.089-2.451-2.315-2.451h-4.221c-1.226 0-2.315 1.498-2.315 2.451v1.77c-0.272 0.136-0.681 0.272-0.953 0.545l-1.226-1.226c-0.409-0.409-0.817-0.545-1.362-0.545v0c-0.545 0-1.089 0.272-1.362 0.545l-3.404 3.404c-0.409 0.409-0.545 0.817-0.545 1.362s0.272 1.089 0.545 1.362l1.226 1.226c-0.272 0.409-0.409 0.953-0.545 1.362h-1.77c-0.408 0-0.817 0.136-1.089 0.409-0.408 0.409-0.408 0.953-0.408 1.498v4.902c0 0.545 0 1.226 0.545 1.77 0.272 0.272 0.681 0.409 1.089 0.409h1.77c0.136 0.409 0.272 0.681 0.545 0.953l-1.226 1.226c-0.817 0.817-0.817 2.043 0 2.86l3.404 3.404c0.817 0.817 2.043 0.817 2.86 0l1.226-1.226 0.272 0.136c0 0 0.136 0 0.409 0.136 0 0 0 0 0 0v1.77c0 0.409 0.136 0.817 0.409 0.953 0.409 0.409 0.953 0.409 1.498 0.409 0.136 0 0.136 0 0.136 0h2.996c0 0 0 0 0 0s0 0 0 0h1.634c0 0 0.136 0 0.136 0 0.409 0 1.089 0 1.498-0.409 0.272-0.272 0.409-0.681 0.409-0.953v-1.77c0.272-0.136 0.409-0.136 0.681-0.272l0.272-0.136 1.226 1.226c0.817 0.817 2.043 0.817 2.86 0l3.404-3.404c0.817-0.817 0.817-2.043 0-2.86l-1.226-1.226c0.136-0.409 0.272-0.681 0.409-1.089h1.77c0.409 0 0.817-0.136 1.089-0.409 0.545-0.545 0.545-1.226 0.545-1.77v-4.902c0.136-0.272 0.136-0.817-0.272-1.226zM28.732 18.928c0 0.136 0 0.136 0 0l-1.226 0.136c-0.953 0-1.634 0.409-1.906 1.226-0.136 0.409-0.272 0.681-0.409 0.953-0.409 0.817-0.272 1.634 0.409 2.179l1.226 1.089-3.268 3.404-1.226-1.226c-0.545-0.545-1.498-0.681-2.315-0.409l-0.409 0.136c-0.136 0.136-0.409 0.136-0.545 0.272-0.817 0.272-1.226 0.953-1.226 1.906v1.362c0 0 0 0 0 0h-1.634c0 0 0 0 0 0s0 0 0 0h-2.996c0 0 0 0 0 0v-1.226c0-0.953-0.409-1.634-1.226-1.906-0.272-0.136-0.409-0.136-0.545-0.272l-0.409-0.136c-0.817-0.409-1.634-0.272-2.315 0.409l-1.226 1.226-3.404-3.268 1.226-1.226c0.545-0.545 0.681-1.498 0.409-2.315-0.136-0.272-0.272-0.681-0.409-0.953-0.409-0.817-1.089-1.226-2.043-1.226h-1.226c0 0 0-0.136 0-0.136v-4.63h1.226c0.817 0 1.634-0.545 1.906-1.362 0.136-0.409 0.272-0.817 0.409-1.226 0.409-0.681 0.272-1.634-0.409-2.179l-1.226-1.226 3.268-3.404 1.226 1.226c0.681 0.681 1.498 0.817 2.451 0.409 0.272-0.136 0.545-0.272 0.817-0.409 0.817-0.272 1.226-0.953 1.226-1.906v-1.77c0-0.136 0.272-0.409 0.409-0.545h4.221c0.136 0.136 0.272 0.408 0.409 0.408v1.77c0 0.953 0.409 1.634 1.226 1.906 0.272 0.136 0.545 0.272 0.953 0.409 0.817 0.409 1.634 0.272 2.179-0.409l1.089-1.226 3.404 3.268-1.362 1.498c-0.545 0.545-0.681 1.498-0.409 2.315 0.136 0.409 0.272 0.817 0.409 1.089 0.272 0.817 1.089 1.362 1.906 1.362h1.226v4.63z"></path>
<path fill="#777582" d="M15.387 10.757c-2.86 0-5.311 2.315-5.311 5.311s2.315 5.311 5.311 5.311c0.545 0 1.089-0.409 1.089-1.089s-0.409-1.089-1.089-1.089c-1.77 0-3.268-1.498-3.268-3.268s1.498-3.268 3.268-3.268 3.268 1.498 3.268 3.268c0 0.545 0.409 1.089 1.089 1.089s1.089-0.409 1.089-1.089c-0.272-2.86-2.587-5.174-5.447-5.174z"></path>
</svg>
