<?xml version="1.0" encoding="utf-8"?>
<!-- Generated by IcoMoon.io -->
<!DOCTYPE svg PUBLIC "-//W3C//DTD SVG 1.1//EN" "http://www.w3.org/Graphics/SVG/1.1/DTD/svg11.dtd">
<svg version="1.1" xmlns="http://www.w3.org/2000/svg" xmlns:xlink="http://www.w3.org/1999/xlink" width="32" height="32" viewBox="0 0 32 32">
<path fill="#777582" d="M30.933 12.667c-0.267-0.267-0.667-0.4-1.067-0.4h-1.733c-0.133-0.4-0.267-0.933-0.533-1.333l1.2-1.2c0.4-0.4 0.533-0.933 0.533-1.467s-0.267-1.067-0.533-1.467l-3.333-3.333c-0.8-0.8-2-0.8-2.8 0l-1.2 1.2h-0.133c-0.267-0.133-0.533-0.267-0.933-0.4 0 0 0 0 0 0v-1.733c0-0.933-1.067-2.533-2.267-2.533h-4.4c-1.2 0-2.267 1.467-2.267 2.533v1.733c-0.267 0.133-0.533 0.267-0.8 0.4v0.133l-1.333-1.333c-0.8-0.8-2-0.8-2.8 0l-3.333 3.467c-0.8 0.8-0.8 2 0 2.8l1.2 1.2c-0.267 0.4-0.4 0.8-0.533 1.333h-1.733c-0.4 0-0.8 0.133-1.067 0.4-0.4 0.4-0.4 0.933-0.4 1.467v4.8c0 0.533 0 1.2 0.533 1.733 0.267 0.267 0.667 0.4 1.067 0.4h1.733c0.133 0.4 0.267 0.667 0.533 0.933l-1.2 1.2c-0.4 0.4-0.533 0.933-0.533 1.333 0 0.533 0.267 1.067 0.533 1.333l3.333 3.333c0.4 0.4 0.933 0.533 1.467 0.533s1.067-0.267 1.467-0.533l1.2-1.2 0.267 0.133c0.267 0.133 0.4 0.267 0.667 0.267 0 0 0 0 0 0v1.733c0 0.4 0.133 0.8 0.4 1.067 0.267 0.8 0.8 0.8 1.333 0.8 0.133 0 0.133 0 0.267 0h3.067c0 0 0 0 0 0s0 0 0 0h1.6c0 0 0.133 0 0.267 0 0.533 0 1.067 0 1.467-0.533 0.267-0.267 0.4-0.667 0.4-1.067v-1.733c0.267-0.133 0.4-0.133 0.667-0.267l0.267-0.133 1.2 1.2c0.8 0.8 2 0.8 2.8 0l3.333-3.333c0.8-0.8 0.8-2 0-2.8l-1.2-1.2c0.133-0.4 0.267-0.667 0.4-1.067h1.733c0.4 0 0.8-0.133 1.067-0.4 0.533-0.533 0.533-1.2 0.533-1.733v-4.8c0-0.533 0-1.067-0.4-1.467zM29.333 18.933c0 0.133 0 0.133 0 0l-1.2 0.133c-0.933 0-1.6 0.4-1.867 1.2-0.133 0.4-0.267 0.667-0.4 1.067-0.4 0.8-0.267 1.6 0.4 2.267l1.2 1.2-3.333 3.2-1.2-1.2c-0.533-0.533-1.467-0.8-2.267-0.4l-0.4 0.267c-0.133 0.133-0.4 0.133-0.533 0.267-0.8 0.267-1.2 0.933-1.2 1.867v1.2c0 0 0 0 0 0h-1.733c0 0 0 0 0 0s0 0 0 0h-3.067c0 0 0 0 0 0v-1.2c0-0.933-0.4-1.6-1.2-1.867-0.4-0.133-0.533-0.267-0.8-0.267l-0.4-0.133c-0.8-0.4-1.733-0.267-2.267 0.4l-1.067 1.067-3.333-3.333 1.2-1.2c0.533-0.533 0.8-1.467 0.4-2.267-0.133-0.267-0.267-0.667-0.4-0.933-0.267-0.8-0.933-1.2-1.867-1.2h-1.333c0 0 0-0.133 0-0.133v-4.533h1.2c0.8 0 1.6-0.533 1.867-1.467 0.133-0.4 0.267-0.8 0.4-1.067 0.4-0.8 0.267-1.733-0.4-2.267l-1.067-1.333 3.333-3.333 1.2 1.2c0.533 0.533 1.467 0.8 2.267 0.4h0.133c0.133-0.133 0.4-0.267 0.8-0.4 0.8-0.267 1.2-0.933 1.2-1.867v-1.733c0-0.133 0.267-0.4 0.4-0.533h4.133c0.133 0.133 0.267 0.4 0.4 0.4v1.733c0 0.933 0.4 1.6 1.2 1.867 0.267 0.133 0.533 0.267 0.8 0.4h0.133c0.8 0.4 1.6 0.267 2.267-0.4l1.067-1.067 3.333 3.333-1.2 1.2c-0.533 0.533-0.8 1.467-0.4 2.267 0.133 0.4 0.267 0.8 0.4 1.067 0.267 0.8 1.067 1.467 1.867 1.467h1.333v4.667z"></path>
<path fill="#777582" d="M16 10.8c-2.933 0-5.2 2.4-5.2 5.2s2.4 5.2 5.2 5.2c0.533 0 1.067-0.4 1.067-1.067 0-0.533-0.4-1.067-1.067-1.067-1.733 0-3.2-1.467-3.2-3.2s1.467-3.2 3.2-3.2 3.2 1.467 3.2 3.2c0 0.533 0.4 1.067 1.067 1.067s1.067-0.4 1.067-1.067c-0.133-2.8-2.4-5.067-5.333-5.067z"></path>
</svg>
