<?xml version="1.0" encoding="utf-8"?>
<!-- Generated by IcoMoon.io -->
<!DOCTYPE svg PUBLIC "-//W3C//DTD SVG 1.1//EN" "http://www.w3.org/Graphics/SVG/1.1/DTD/svg11.dtd">
<svg version="1.1" xmlns="http://www.w3.org/2000/svg" xmlns:xlink="http://www.w3.org/1999/xlink" width="32" height="32" viewBox="0 0 32 32">
<path fill="#777582" d="M31.047 21.787h-7.217v-12.528c0-0.545-0.409-1.089-1.089-1.089h-12.528v-7.081c0-0.681-0.409-1.089-0.953-1.089s-1.089 0.408-1.089 1.089v7.081h-7.081c-0.681 0-1.089 0.409-1.089 1.089s0.408 1.089 1.089 1.089h7.081v12.664c0 0.545 0.409 1.089 1.089 1.089h12.528v7.217c0 0.545 0.409 1.089 1.089 1.089s1.089-0.408 1.089-1.089v-7.217h7.217c0.545 0 1.089-0.409 1.089-1.089s-0.681-1.226-1.226-1.226zM10.213 21.787v-11.574h11.574v11.574h-11.574z"></path>
</svg>
