<?xml version="1.0" encoding="utf-8"?>
<!-- Generated by IcoMoon.io -->
<!DOCTYPE svg PUBLIC "-//W3C//DTD SVG 1.1//EN" "http://www.w3.org/Graphics/SVG/1.1/DTD/svg11.dtd">
<svg version="1.1" xmlns="http://www.w3.org/2000/svg" xmlns:xlink="http://www.w3.org/1999/xlink" width="32" height="32" viewBox="0 0 32 32">
<path fill="#777582" d="M30.502 1.498c-0.817-0.409-1.906-0.272-2.587 0.409l-4.357 3.949c-0.136 0.136-0.272 0.136-0.409 0l-5.719-5.174c-0.953-0.817-2.315-0.817-3.268 0l-5.447 5.174c-0.136 0.136-0.272 0.136-0.409 0l-4.357-3.949c-0.681-0.681-1.634-0.817-2.451-0.409-0.953 0.409-1.498 1.226-1.498 2.179v16.204c0 1.362 1.089 2.451 2.451 2.451h27.234c1.362 0 2.451-1.089 2.451-2.451v-16.204c-0.136-0.953-0.681-1.77-1.634-2.179zM29.957 19.881c0 0.136-0.136 0.409-0.409 0.409h-27.234c-0.136 0-0.409-0.136-0.409-0.409v-16.204c0-0.272 0.136-0.272 0.272-0.272 0 0 0.136 0 0.136 0s0.136 0 0.272 0.136l4.357 3.949c0.817 0.681 2.315 0.681 3.132-0.136l5.719-5.174c0.136-0.136 0.272-0.136 0.409 0l5.719 5.174c0.953 0.817 2.315 0.817 3.268 0l4.357-3.949c0.136-0.136 0.272-0.136 0.409 0 0.136 0 0.272 0.136 0.272 0.272v16.204z"></path>
<path fill="#777582" d="M29.685 24.374h-27.234c-1.362 0-2.451 1.089-2.451 2.451v2.86c0 1.362 1.089 2.451 2.451 2.451h27.234c1.362 0 2.451-1.089 2.451-2.451v-2.86c-0.136-1.362-1.226-2.451-2.451-2.451zM29.957 29.685c0 0.136-0.136 0.409-0.409 0.409h-27.234c-0.136 0-0.409-0.136-0.409-0.409v-2.86c0-0.136 0.136-0.409 0.409-0.409h27.234c0.136 0 0.409 0.136 0.409 0.409v2.86z"></path>
</svg>
