<?xml version="1.0" encoding="utf-8"?>
<!-- Generated by IcoMoon.io -->
<!DOCTYPE svg PUBLIC "-//W3C//DTD SVG 1.1//EN" "http://www.w3.org/Graphics/SVG/1.1/DTD/svg11.dtd">
<svg version="1.1" xmlns="http://www.w3.org/2000/svg" xmlns:xlink="http://www.w3.org/1999/xlink" width="40" height="32" viewBox="0 0 40 32">
<path fill="#777582" d="M38.128 0h-35.677c-1.362 0-2.451 1.089-2.451 2.451v22.468c0 1.362 1.089 2.451 2.451 2.451h16.885v2.723h-4.766c-0.545 0-1.089 0.409-1.089 1.089s0.409 1.089 1.089 1.089h11.438c0.545 0 1.089-0.409 1.089-1.089s-0.545-1.226-1.089-1.226h-4.766v-2.723h16.885c1.362 0 2.451-1.089 2.451-2.451v-22.332c-0.136-1.362-1.089-2.451-2.451-2.451zM38.4 24.783c0 0.136-0.136 0.409-0.408 0.409h-35.54c-0.136 0-0.409-0.136-0.409-0.409v-22.332c0-0.136 0.136-0.409 0.409-0.409h35.677c0.136 0 0.408 0.136 0.408 0.409v22.332z"></path>
<path fill="#777582" d="M29.413 7.217l-8.851 8.851-3.404-3.404c-0.409-0.409-1.089-0.409-1.498 0l-5.992 5.992c-0.409 0.409-0.409 1.089 0 1.498 0.136 0.136 0.409 0.272 0.681 0.272s0.545-0.136 0.681-0.272l5.174-5.174 3.404 3.404c0.409 0.409 1.089 0.409 1.498 0l9.532-9.532c0.409-0.409 0.409-1.089 0-1.498s-0.953-0.545-1.226-0.136z"></path>
</svg>
