<?xml version="1.0" encoding="utf-8"?>
<!-- Generated by IcoMoon.io -->
<!DOCTYPE svg PUBLIC "-//W3C//DTD SVG 1.1//EN" "http://www.w3.org/Graphics/SVG/1.1/DTD/svg11.dtd">
<svg version="1.1" xmlns="http://www.w3.org/2000/svg" xmlns:xlink="http://www.w3.org/1999/xlink" width="32" height="32" viewBox="0 0 32 32">
<path fill="#777582" d="M27.098 10.621c-0.545 0.272-0.681 0.817-0.545 1.362 2.179 4.766 1.089 10.757-2.587 14.434-4.902 4.902-13.072 4.766-18.111-0.272s-5.038-13.209-0.136-18.111c3.677-3.677 9.532-4.766 14.298-2.587 0.545 0.272 1.089 0 1.362-0.545s0-1.089-0.545-1.362c-5.447-2.451-12.255-1.226-16.613 2.996-5.719 5.855-5.583 15.251 0.136 21.106 2.996 2.996 6.809 4.357 10.621 4.357s7.489-1.362 10.349-4.221c4.221-4.221 5.447-11.166 2.996-16.613-0.136-0.545-0.681-0.817-1.226-0.545z"></path>
<path fill="#777582" d="M32 0.953c0-0.136 0-0.272-0.136-0.408-0.136-0.272-0.272-0.408-0.545-0.545-0.136 0-0.136 0-0.272 0 0 0 0 0-0.136 0 0 0 0 0 0 0h-7.762c-0.545 0-1.089 0.408-1.089 1.089s0.409 1.089 1.089 1.089h5.447l-12.255 12.255c-0.409 0.409-0.409 1.089 0 1.498 0.136 0.136 0.409 0.272 0.681 0.272s0.545-0.136 0.681-0.272l12.255-12.255v5.311c0 0.545 0.409 1.089 1.089 1.089s1.089-0.409 1.089-1.089l-0.136-8.034c0 0 0 0 0 0z"></path>
</svg>
