<?xml version="1.0" encoding="utf-8"?>
<!-- Generated by IcoMoon.io -->
<!DOCTYPE svg PUBLIC "-//W3C//DTD SVG 1.1//EN" "http://www.w3.org/Graphics/SVG/1.1/DTD/svg11.dtd">
<svg version="1.1" xmlns="http://www.w3.org/2000/svg" xmlns:xlink="http://www.w3.org/1999/xlink" width="32" height="32" viewBox="0 0 32 32">
<path fill="#777582" d="M16 27.2c-8.667 0-15.333-10.267-15.6-10.667l-0.4-0.533 0.4-0.533c0.267-0.4 7.067-10.667 15.6-10.667 8.667 0 15.333 10.267 15.6 10.667l0.4 0.533-0.4 0.533c-0.267 0.4-6.933 10.667-15.6 10.667zM2.4 16c1.467 2 7.067 9.2 13.6 9.2s12.133-7.2 13.6-9.2c-1.467-2-7.067-9.2-13.6-9.2s-12.133 7.2-13.6 9.2z"></path>
<path fill="#777582" d="M16 23.733c-4.267 0-7.733-3.467-7.733-7.733s3.467-7.733 7.733-7.733 7.733 3.467 7.733 7.733c0 4.267-3.467 7.733-7.733 7.733zM16 10.267c-3.2 0-5.733 2.533-5.733 5.733s2.533 5.733 5.733 5.733 5.733-2.533 5.733-5.733c0-3.2-2.533-5.733-5.733-5.733z"></path>
</svg>
