<?xml version="1.0" encoding="utf-8"?>
<!-- Generated by IcoMoon.io -->
<!DOCTYPE svg PUBLIC "-//W3C//DTD SVG 1.1//EN" "http://www.w3.org/Graphics/SVG/1.1/DTD/svg11.dtd">
<svg version="1.1" xmlns="http://www.w3.org/2000/svg" xmlns:xlink="http://www.w3.org/1999/xlink" width="46" height="32" viewBox="0 0 46 32">
<path fill="#777582" d="M22.802 32c-12.263 0-21.844-14.563-22.228-15.329l-0.575-0.575 0.575-0.766c0.383-0.575 9.964-15.329 22.228-15.329s21.844 14.563 22.228 15.329l0.575 0.766-0.575 0.766c-0.383 0.575-9.964 15.138-22.228 15.138zM3.449 16.096c2.108 2.874 10.156 13.222 19.353 13.222s17.245-10.156 19.353-13.222c-2.108-2.874-10.156-13.222-19.353-13.222s-17.245 10.156-19.353 13.222z"></path>
<path fill="#777582" d="M22.802 27.21c-6.132 0-11.114-4.982-11.114-11.114s4.982-11.114 11.114-11.114 11.114 4.982 11.114 11.114c0 6.132-4.982 11.114-11.114 11.114zM22.802 7.856c-4.599 0-8.24 3.641-8.24 8.24s3.641 8.24 8.24 8.24 8.24-3.641 8.24-8.24c0-4.599-3.641-8.24-8.24-8.24z"></path>
</svg>
