<?xml version="1.0" encoding="utf-8"?>
<!-- Generated by IcoMoon.io -->
<!DOCTYPE svg PUBLIC "-//W3C//DTD SVG 1.1//EN" "http://www.w3.org/Graphics/SVG/1.1/DTD/svg11.dtd">
<svg version="1.1" xmlns="http://www.w3.org/2000/svg" xmlns:xlink="http://www.w3.org/1999/xlink" width="32" height="32" viewBox="0 0 32 32">
<path fill="#777582" d="M13.072 13.481c-1.634 0.136-2.587 1.089-2.723 2.723 0 0.681 0 1.362 0 2.043 0 0.136 0 0.136 0 0.272-0.681 0-1.362 0-2.043 0 0 0.817 0 1.634 0 2.451 0.681 0 1.362 0 2.043 0 0 2.043 0 4.085 0 6.128 0.817 0 1.634 0 2.451 0 0-2.043 0-4.085 0-6.128 0.136 0 0.272 0 0.272 0 0.545 0 1.089 0 1.498 0 0.136 0 0.272 0 0.272-0.272s0.136-0.681 0.136-0.953c0-0.409 0.136-0.817 0.136-1.226-0.817 0-1.634 0-2.315 0 0-0.681 0-1.226 0-1.906 0-0.545 0.272-0.681 0.817-0.817 0.272 0 0.681 0 0.953 0s0.409 0 0.681 0c0-0.681 0-1.498 0-2.179-0.681-0.136-1.498-0.272-2.179-0.136z"></path>
<path fill="#777582" d="M11.847 8.306c-6.536 0-11.847 5.311-11.847 11.847s5.311 11.847 11.847 11.847 11.847-5.311 11.847-11.847c0-6.536-5.311-11.847-11.847-11.847zM11.847 29.957c-5.447 0-9.804-4.357-9.804-9.804s4.357-9.804 9.804-9.804c5.447 0 9.804 4.357 9.804 9.804s-4.357 9.804-9.804 9.804z"></path>
<path fill="#777582" d="M29.685 0h-15.66c-1.362 0-2.451 1.089-2.451 2.451v2.723c0 0.545 0.409 1.089 1.089 1.089s1.089-0.409 1.089-1.089v-2.723c0-0.136 0.136-0.409 0.409-0.409h15.523c0.136 0 0.409 0.136 0.409 0.409v15.523c0 0.136-0.136 0.409-0.409 0.409h-2.587c-0.545 0-1.089 0.409-1.089 1.089s0.409 1.089 1.089 1.089h2.587c1.362 0 2.451-1.089 2.451-2.451v-15.66c-0.136-1.362-1.226-2.451-2.451-2.451z"></path>
</svg>
