<?xml version="1.0" encoding="utf-8"?>
<!-- Generated by IcoMoon.io -->
<!DOCTYPE svg PUBLIC "-//W3C//DTD SVG 1.1//EN" "http://www.w3.org/Graphics/SVG/1.1/DTD/svg11.dtd">
<svg version="1.1" xmlns="http://www.w3.org/2000/svg" xmlns:xlink="http://www.w3.org/1999/xlink" width="32" height="32" viewBox="0 0 32 32">
<path fill="#777582" d="M29.277 3.404h-2.723c-0.409-1.906-2.179-3.404-4.357-3.404h-17.702c-2.179 0-3.949 1.498-4.357 3.54-0.136 0.136-0.136 0.272-0.136 0.409v26.962c0 0.545 0.408 1.089 1.089 1.089s1.089-0.409 1.089-1.089v-13.617h18.111v0.817c0 0.817 0.409 1.498 0.953 2.043 0 0 0 0 0 0s0 0 0 0c0.409 0.409 1.089 0.545 1.634 0.545h6.536c1.498 0 2.723-1.226 2.723-2.723v-11.847c-0.136-1.498-1.362-2.723-2.86-2.723zM2.043 4.494c0-1.362 1.089-2.451 2.451-2.451h17.838c1.362 0 2.451 1.089 2.451 2.451v0 8.443c0 1.362-1.089 2.451-2.451 2.451h-20.153v-10.894zM22.196 17.43h0.136l-0.272 0.272 0.136-0.272zM29.957 18.111c0 0.409-0.272 0.681-0.681 0.681h-5.583l2.043-2.179c0 0 0.136-0.136 0.136-0.136v0c0 0 0 0 0 0 0.409-0.409 0.681-1.089 0.681-1.77v-9.26h2.723c0.409 0 0.681 0.409 0.681 0.681v11.983z"></path>
</svg>
