<?xml version="1.0" encoding="utf-8"?>
<!-- Generated by IcoMoon.io -->
<!DOCTYPE svg PUBLIC "-//W3C//DTD SVG 1.1//EN" "http://www.w3.org/Graphics/SVG/1.1/DTD/svg11.dtd">
<svg version="1.1" xmlns="http://www.w3.org/2000/svg" xmlns:xlink="http://www.w3.org/1999/xlink" width="32" height="32" viewBox="0 0 32 32">
<path fill="#777582" d="M31.319 6.672l-5.992-5.992c-0.545-0.408-1.089-0.681-1.77-0.681h-21.243c-1.226 0-2.315 1.089-2.315 2.451v27.234c0 1.362 1.089 2.451 2.451 2.451h27.234c1.362 0 2.451-1.089 2.451-2.451v-21.243c-0.136-0.681-0.409-1.226-0.817-1.77zM20.426 2.043v4.494c0 0.136-0.136 0.272-0.272 0.272h-9.532c-0.272 0-0.409-0.136-0.409-0.272v-4.494h10.213zM29.957 29.685c0 0.136-0.136 0.409-0.409 0.409h-27.234c-0.136 0-0.409-0.136-0.409-0.409v-27.234c0-0.136 0.136-0.409 0.409-0.409h5.855v4.494c0 1.362 1.089 2.451 2.451 2.451h9.532c1.362 0 2.451-1.089 2.451-2.451v-4.494h1.089c0.136 0 0.136 0 0.272 0.136l5.855 5.992c0.136 0 0.136 0.136 0.136 0.272v21.243z"></path>
<path fill="#777582" d="M24.238 12.255h-17.702c-1.362 0-2.451 1.089-2.451 2.451v9.532c0 1.362 1.089 2.451 2.451 2.451h17.702c1.362 0 2.451-1.089 2.451-2.451v-9.532c-0.136-1.362-1.226-2.451-2.451-2.451zM24.511 24.238c0 0.136-0.136 0.409-0.409 0.409h-17.702c-0.136 0-0.409-0.136-0.409-0.409v-9.532c0-0.136 0.136-0.409 0.409-0.409h17.702c0.136 0 0.409 0.136 0.409 0.409v9.532z"></path>
<path fill="#777582" d="M21.515 18.655h-12.255c-0.681 0-1.089 0.409-1.089 0.953s0.409 1.089 1.089 1.089h12.255c0.545 0 1.089-0.409 1.089-1.089s-0.545-0.953-1.089-0.953z"></path>
</svg>
