<?xml version="1.0" encoding="utf-8"?>
<!-- Generated by IcoMoon.io -->
<!DOCTYPE svg PUBLIC "-//W3C//DTD SVG 1.1//EN" "http://www.w3.org/Graphics/SVG/1.1/DTD/svg11.dtd">
<svg version="1.1" xmlns="http://www.w3.org/2000/svg" xmlns:xlink="http://www.w3.org/1999/xlink" width="33" height="32" viewBox="0 0 33 32">
<path fill="#777582" d="M19.345 23.709c1.164-0.145 2.182-0.291 3.2-0.727 2.909-1.164 4.073-3.491 4.218-6.4 0.145-1.891-0.145-3.636-1.455-5.091-0.145-0.145-0.145-0.436-0.145-0.727 0.436-1.164 0.291-2.327-0.145-3.491-0.145-0.436-0.436-0.582-0.873-0.436-1.309 0.291-2.327 0.727-3.491 1.455-0.291 0.145-0.582 0.291-0.873 0.145-2.473-0.582-4.945-0.582-7.418 0-0.291 0.145-0.582 0-0.727-0.145-1.018-0.727-2.182-1.164-3.491-1.455-0.145-0.145-0.436 0-0.582 0.436-0.291 1.164-0.436 2.327 0 3.491 0.145 0.291-0.145 0.582-0.291 0.873-2.036 2.764-1.745 7.564 0.727 9.891 1.309 1.164 2.764 1.745 4.509 2.036 0.291 0 0.582 0.145 0.873 0.145-0.436 0.582-0.727 1.164-0.873 1.891 0 0.291-0.145 0.436-0.291 0.436-1.6 0.582-3.2 0.436-4.218-1.164-0.436-0.727-0.873-1.309-1.6-1.6-0.436-0.291-0.873-0.291-1.455-0.291-0.291 0-0.436 0.291-0.145 0.436 0.145 0.145 0.291 0.291 0.436 0.436 0.873 0.436 1.455 1.164 1.745 2.036 0.291 1.6 1.455 2.327 3.2 2.327 0.582 0 1.164 0 1.745-0.145 0.436-0.145 0.436 0 0.436 0.436 0 0.727 0 1.6 0 2.327 0 1.018-0.436 1.309-1.309 0.873-6.4-2.036-10.764-7.855-11.055-14.545-0.436-7.709 4.8-14.545 11.782-16.582 6.836-2.036 14.4 0.873 18.327 6.836 4.945 7.709 2.909 17.745-4.8 22.836-1.018 0.727-2.327 1.309-3.491 1.745-0.873 0.291-1.309 0-1.309-1.018 0-1.309 0-2.764 0-4.073 0-1.164-0.145-2.327-1.164-3.2z"></path>
<path fill="#777582" d="M10.618 27.055c-0.145 0-0.291 0-0.291-0.291 0-0.145 0.145-0.291 0.291-0.291s0.291 0 0.291 0.291c0 0.145-0.145 0.291-0.291 0.291z"></path>
<path fill="#777582" d="M8.436 26.036c0 0.145 0 0.291-0.145 0.291s-0.436-0.145-0.436-0.436c0-0.145 0.145-0.291 0.291-0.145 0.145 0 0.291 0 0.291 0.291z"></path>
<path fill="#777582" d="M12.218 26.618c0 0.145-0.145 0.291-0.291 0.291s-0.291 0-0.291-0.145c0-0.145 0.145-0.291 0.291-0.291 0-0.145 0.145 0 0.291 0.145z"></path>
<path fill="#777582" d="M7.418 25.309c-0.145-0.145-0.291-0.145-0.291-0.436 0-0.145 0.145-0.145 0.145-0.145 0.145 0 0.291 0.145 0.291 0.436 0 0 0 0.145-0.145 0.145z"></path>
<path fill="#777582" d="M9.309 26.764c-0.145 0-0.436 0-0.436-0.291 0-0.145 0.145-0.145 0.291-0.145s0.291 0 0.436 0.291c0 0.145-0.145 0.145-0.291 0.145z"></path>
<path fill="#777582" d="M6.982 24.145c0 0.145 0 0.145-0.145 0.145s-0.291-0.145-0.291-0.291c0-0.145 0-0.145 0.145-0.145 0 0 0.145 0.145 0.291 0.291z"></path>
</svg>
