<?xml version="1.0" encoding="utf-8"?>
<!-- Generated by IcoMoon.io -->
<!DOCTYPE svg PUBLIC "-//W3C//DTD SVG 1.1//EN" "http://www.w3.org/Graphics/SVG/1.1/DTD/svg11.dtd">
<svg version="1.1" xmlns="http://www.w3.org/2000/svg" xmlns:xlink="http://www.w3.org/1999/xlink" width="32" height="32" viewBox="0 0 32 32">
<path fill="#777582" d="M16 0c-8.874 0-16 7.126-16 16s7.126 16 16 16 16-7.126 16-16c0-8.874-7.261-16-16-16zM16 29.983c-2.017 0-4.168-3.227-5.109-8.336 1.613-0.269 3.227-0.403 4.975-0.403s3.496 0.134 5.109 0.403c-0.807 4.975-2.958 8.336-4.975 8.336zM16 19.092c-1.882 0-3.63 0.134-5.378 0.403-0.134-1.076-0.134-2.286-0.134-3.63 0-1.21 0.134-2.42 0.134-3.496 1.613 0.269 3.227 0.403 4.975 0.403 2.017 0 3.899-0.134 5.647-0.538 0.269 1.21 0.269 2.42 0.269 3.765 0 1.21-0.134 2.42-0.134 3.63-1.748-0.403-3.496-0.538-5.378-0.538zM16 2.017c2.017 0 4.168 3.227 5.109 8.336-1.748 0.269-3.63 0.403-5.513 0.403-1.613 0-3.227-0.134-4.706-0.403 0.941-5.109 3.092-8.336 5.109-8.336zM23.261 11.966c2.017-0.538 3.765-1.21 5.244-2.151 0.941 1.882 1.479 3.899 1.479 6.185 0 2.151-0.538 4.168-1.345 6.050-1.479-0.807-3.227-1.479-5.244-2.017 0.134-1.21 0.269-2.555 0.269-4.034-0.134-1.479-0.269-2.824-0.403-4.034zM27.429 8.067c-1.21 0.807-2.689 1.345-4.437 1.882-0.538-2.958-1.479-5.513-2.824-7.261 3.092 0.941 5.513 2.824 7.261 5.378zM11.697 2.689c-1.21 1.748-2.151 4.303-2.824 7.395-1.748-0.403-3.361-0.941-4.571-1.748 1.748-2.689 4.303-4.706 7.395-5.647zM3.361 10.084c1.479 0.807 3.227 1.479 5.378 1.882-0.134 1.21-0.269 2.555-0.269 3.899s0.134 2.689 0.269 3.899c-2.017 0.538-3.899 1.21-5.244 2.017-0.807-1.748-1.345-3.765-1.345-5.916-0.134-2.017 0.403-3.899 1.21-5.782zM4.303 23.664c1.21-0.672 2.824-1.345 4.571-1.748 0.538 2.958 1.479 5.513 2.824 7.395-2.958-1.076-5.647-2.958-7.395-5.647zM20.168 29.311c1.21-1.748 2.286-4.303 2.824-7.261 1.748 0.403 3.361 1.076 4.571 1.748-1.748 2.555-4.303 4.571-7.395 5.513z"></path>
</svg>
