<?xml version="1.0" encoding="utf-8"?>
<!-- Generated by IcoMoon.io -->
<!DOCTYPE svg PUBLIC "-//W3C//DTD SVG 1.1//EN" "http://www.w3.org/Graphics/SVG/1.1/DTD/svg11.dtd">
<svg version="1.1" xmlns="http://www.w3.org/2000/svg" xmlns:xlink="http://www.w3.org/1999/xlink" width="32" height="32" viewBox="0 0 32 32">
<path fill="#777582" d="M16.068 32c-8.851 0-16.068-7.217-16.068-15.932 0-8.851 7.217-16.068 16.068-16.068s16.068 7.217 16.068 16.068c-0.136 8.715-7.353 15.932-16.068 15.932zM16.068 2.043c-7.762 0-14.026 6.264-14.026 14.026 0 7.626 6.264 13.889 14.026 13.889s13.889-6.264 13.889-13.889c0-7.762-6.264-14.026-13.889-14.026z"></path>
<path fill="#777582" d="M13.889 15.251h-4.085c-0.817 0-1.362-0.545-1.362-1.362v-4.63c0-0.817 0.545-1.362 1.362-1.362h4.085c0.681 0 1.362 0.545 1.362 1.362v4.63c0 0.817-0.545 1.362-1.362 1.362z"></path>
<path fill="#777582" d="M22.060 15.251h-4.085c-0.817 0-1.362-0.545-1.362-1.362v-4.63c0-0.817 0.545-1.362 1.362-1.362h4.085c0.817 0 1.362 0.545 1.362 1.362v4.63c0 0.817-0.545 1.362-1.362 1.362z"></path>
<path fill="#777582" d="M13.889 24.102h-4.085c-0.817 0-1.362-0.545-1.362-1.362v-4.63c0-0.817 0.545-1.362 1.362-1.362h4.085c0.681 0 1.362 0.545 1.362 1.362v4.63c0 0.681-0.545 1.362-1.362 1.362z"></path>
<path fill="#777582" d="M22.060 24.102h-4.085c-0.817 0-1.362-0.545-1.362-1.362v-4.63c0-0.817 0.545-1.362 1.362-1.362h4.085c0.817 0 1.362 0.545 1.362 1.362v4.63c0 0.681-0.545 1.362-1.362 1.362z"></path>
</svg>
