<?xml version="1.0" encoding="utf-8"?>
<!-- Generated by IcoMoon.io -->
<!DOCTYPE svg PUBLIC "-//W3C//DTD SVG 1.1//EN" "http://www.w3.org/Graphics/SVG/1.1/DTD/svg11.dtd">
<svg version="1.1" xmlns="http://www.w3.org/2000/svg" xmlns:xlink="http://www.w3.org/1999/xlink" width="32" height="32" viewBox="0 0 32 32">
<path fill="#777582" d="M15.932 32c-8.715 0-15.932-7.217-15.932-15.932 0-8.851 7.217-16.068 15.932-16.068s16.068 7.217 16.068 16.068c0 8.715-7.217 15.932-16.068 15.932zM15.932 2.043c-7.626 0-13.889 6.264-13.889 14.026 0 7.626 6.264 13.889 13.889 13.889 7.762 0 14.026-6.264 14.026-13.889 0-7.762-6.264-14.026-14.026-14.026z"></path>
<path fill="#777582" d="M22.060 15.387h-12.119c-0.817 0-1.362-0.545-1.362-1.362v-4.766c0-0.817 0.545-1.362 1.362-1.362h12.119c0.817 0 1.362 0.545 1.362 1.362v4.63c0 0.817-0.545 1.498-1.362 1.498z"></path>
<path fill="#777582" d="M22.060 24.102h-12.119c-0.817 0-1.362-0.681-1.362-1.362v-4.63c0-0.681 0.545-1.362 1.362-1.362h12.119c0.817 0 1.362 0.681 1.362 1.362v4.63c0 0.681-0.545 1.362-1.362 1.362z"></path>
</svg>
