<?xml version="1.0" encoding="utf-8"?>
<!-- Generated by IcoMoon.io -->
<!DOCTYPE svg PUBLIC "-//W3C//DTD SVG 1.1//EN" "http://www.w3.org/Graphics/SVG/1.1/DTD/svg11.dtd">
<svg version="1.1" xmlns="http://www.w3.org/2000/svg" xmlns:xlink="http://www.w3.org/1999/xlink" width="32" height="32" viewBox="0 0 32 32">
<path fill="#777582" d="M10.349 32c-0.136 0-0.136 0-0.272 0l-6.945-0.409c-1.226 0-2.723-1.634-2.723-2.723l-0.408-6.945c-0.136-1.362 0.408-2.179 0.817-2.587l19.064-19.064c0.409-0.408 1.089-0.408 1.498 0l10.349 10.349c0.136 0.136 0.272 0.409 0.272 0.681s-0.136 0.545-0.272 0.681l-19.064 19.064c-0.409 0.545-1.226 0.953-2.315 0.953zM20.698 2.451l-18.383 18.383c-0.272 0.272-0.272 0.681-0.272 0.953 0 0 0 0 0 0l0.409 6.945c0 0.272 0.681 0.817 0.953 0.817l6.809 0.409c0.272 0 0.817 0 0.953-0.272l18.383-18.383-8.851-8.851z"></path>
<path fill="#777582" d="M8.579 25.6c0 1.128-0.914 2.043-2.043 2.043s-2.043-0.914-2.043-2.043c0-1.128 0.914-2.043 2.043-2.043s2.043 0.914 2.043 2.043z"></path>
</svg>
