<?xml version="1.0" encoding="utf-8"?>
<!-- Generated by IcoMoon.io -->
<!DOCTYPE svg PUBLIC "-//W3C//DTD SVG 1.1//EN" "http://www.w3.org/Graphics/SVG/1.1/DTD/svg11.dtd">
<svg version="1.1" xmlns="http://www.w3.org/2000/svg" xmlns:xlink="http://www.w3.org/1999/xlink" width="41" height="32" viewBox="0 0 41 32">
<path fill="#777582" d="M30.094 20.289c-0.545-0.136-1.089 0-1.362 0.545-2.043 5.311-7.353 8.987-12.936 8.987-7.626 0.136-13.753-6.128-13.753-13.889 0-7.626 6.128-13.889 13.753-13.889 5.583 0 10.894 3.677 12.936 8.987 0.136 0.545 0.817 0.817 1.362 0.545 0.545-0.136 0.817-0.817 0.545-1.362-2.315-5.992-8.443-10.213-14.843-10.213-8.715 0-15.796 7.217-15.796 15.932s7.081 16.068 15.796 16.068c6.4 0 12.528-4.221 14.843-10.349 0.272-0.545 0-1.089-0.545-1.362z"></path>
<path fill="#777582" d="M41.396 16.068c0-0.136 0-0.272-0.136-0.409 0-0.136-0.136-0.136-0.136-0.272 0 0 0 0 0-0.136 0 0 0 0 0 0l-5.992-5.992c-0.408-0.409-1.089-0.409-1.498 0s-0.408 1.089 0 1.498l4.221 4.221h-18.791c-0.545 0-1.089 0.409-1.089 1.089s0.409 1.089 1.089 1.089h18.791l-4.221 4.221c-0.408 0.409-0.408 1.089 0 1.498 0.136 0.136 0.408 0.272 0.681 0.272s0.545-0.136 0.681-0.272l5.992-5.991c0.136-0.136 0.136-0.272 0.272-0.272 0.136-0.409 0.136-0.545 0.136-0.545z"></path>
</svg>
