<?xml version="1.0" encoding="utf-8"?>
<!-- Generated by IcoMoon.io -->
<!DOCTYPE svg PUBLIC "-//W3C//DTD SVG 1.1//EN" "http://www.w3.org/Graphics/SVG/1.1/DTD/svg11.dtd">
<svg version="1.1" xmlns="http://www.w3.org/2000/svg" xmlns:xlink="http://www.w3.org/1999/xlink" width="32" height="32" viewBox="0 0 32 32">
<path fill="#777582" d="M8.874 12.908h9.277c0.538 0 1.076-0.403 1.076-1.076s-0.403-1.076-1.076-1.076h-9.277c-0.538 0-1.076 0.403-1.076 1.076s0.538 1.076 1.076 1.076z"></path>
<path fill="#777582" d="M23.126 14.924h-14.252c-0.538 0-1.076 0.403-1.076 1.076s0.403 1.076 1.076 1.076h14.252c0.538 0 1.076-0.403 1.076-1.076s-0.538-1.076-1.076-1.076z"></path>
<path fill="#777582" d="M23.126 19.092h-14.252c-0.538 0-1.076 0.403-1.076 1.076s0.403 1.076 1.076 1.076h14.252c0.538 0 1.076-0.403 1.076-1.076s-0.538-1.076-1.076-1.076z"></path>
<path fill="#777582" d="M16 0c-8.874 0-16 7.126-16 16s7.126 16 16 16c8.874 0 16-7.126 16-16s-7.261-16-16-16zM16 29.983c-7.664 0-13.983-6.319-13.983-13.983s6.319-13.983 13.983-13.983 13.983 6.319 13.983 13.983-6.319 13.983-13.983 13.983z"></path>
</svg>
