<?xml version="1.0" encoding="utf-8"?>
<!-- Generated by IcoMoon.io -->
<!DOCTYPE svg PUBLIC "-//W3C//DTD SVG 1.1//EN" "http://www.w3.org/Graphics/SVG/1.1/DTD/svg11.dtd">
<svg version="1.1" xmlns="http://www.w3.org/2000/svg" xmlns:xlink="http://www.w3.org/1999/xlink" width="32" height="32" viewBox="0 0 32 32">
<path fill="#777582" d="M27.37 4.63c-3.132-2.996-7.081-4.63-11.438-4.63s-8.17 1.634-11.302 4.63c-6.264 6.264-6.264 16.34 0 22.604 2.996 2.996 7.081 4.63 11.302 4.63s8.306-1.634 11.302-4.63c6.264-6.128 6.264-16.34 0.136-22.604zM25.872 25.872c-2.587 2.587-6.128 4.085-9.804 4.085s-7.217-1.498-9.804-4.085c-5.447-5.447-5.447-14.298 0-19.745 2.587-2.587 6.128-4.085 9.804-4.085s7.217 1.498 9.804 4.085c5.447 5.447 5.447 14.298 0 19.745z"></path>
<path fill="#777582" d="M22.196 14.843h-12.528c-0.681 0-1.362 0.545-1.362 1.362s0.545 1.362 1.362 1.362h12.528c0.681 0 1.362-0.545 1.362-1.362s-0.681-1.362-1.362-1.362z"></path>
</svg>
