<?xml version="1.0" encoding="utf-8"?>
<!-- Generated by IcoMoon.io -->
<!DOCTYPE svg PUBLIC "-//W3C//DTD SVG 1.1//EN" "http://www.w3.org/Graphics/SVG/1.1/DTD/svg11.dtd">
<svg version="1.1" xmlns="http://www.w3.org/2000/svg" xmlns:xlink="http://www.w3.org/1999/xlink" width="18" height="32" viewBox="0 0 18 32">
<path fill="#777582" d="M10.485 25.872c0 0.752-0.61 1.362-1.362 1.362s-1.362-0.61-1.362-1.362c0-0.752 0.61-1.362 1.362-1.362s1.362 0.61 1.362 1.362z"></path>
<path fill="#777582" d="M16.068 0h-13.617c-1.362 0-2.451 1.089-2.451 2.315v27.234c0 1.362 1.089 2.451 2.451 2.451h13.617c1.362 0 2.451-1.089 2.451-2.451v-27.234c-0.136-1.226-1.226-2.315-2.451-2.315zM16.34 29.549c0 0.136-0.136 0.409-0.409 0.409h-13.617c-0.136 0-0.409-0.136-0.409-0.409v-27.234c0-0.136 0.136-0.409 0.409-0.409h13.617c0.136 0 0.409 0.136 0.409 0.409v27.234z"></path>
</svg>
