<?xml version="1.0" encoding="utf-8"?>
<!-- Generated by IcoMoon.io -->
<!DOCTYPE svg PUBLIC "-//W3C//DTD SVG 1.1//EN" "http://www.w3.org/Graphics/SVG/1.1/DTD/svg11.dtd">
<svg version="1.1" xmlns="http://www.w3.org/2000/svg" xmlns:xlink="http://www.w3.org/1999/xlink" width="32" height="32" viewBox="0 0 32 32">
<path fill="#686868" d="M16 26.291c-3.014 0-5.466-2.451-5.466-5.466s2.451-5.466 5.466-5.466 5.466 2.451 5.466 5.466-2.451 5.466-5.466 5.466zM16 15.994c-2.662 0-4.826 2.163-4.826 4.826s2.163 4.826 4.826 4.826c2.662 0 4.826-2.163 4.826-4.826s-2.163-4.826-4.826-4.826z"></path>
<path fill="#686868" d="M15.936 24.704c-0.179 0-0.32-0.141-0.32-0.32v-7.232c0-0.179 0.141-0.32 0.32-0.32s0.32 0.141 0.32 0.32v7.232c0 0.179-0.141 0.32-0.32 0.32z"></path>
<path fill="#686868" d="M19.776 21.44h-7.296c-0.179 0-0.32-0.141-0.32-0.32s0.141-0.32 0.32-0.32h7.296c0.179 0 0.32 0.141 0.32 0.32s-0.141 0.32-0.32 0.32z"></path>
<path fill="#686868" d="M7.712 14.138c-2.394 0-4.346-1.952-4.346-4.346s1.952-4.346 4.346-4.346 4.346 1.952 4.346 4.346c0 2.394-1.946 4.346-4.346 4.346zM7.712 6.086c-2.042 0-3.706 1.664-3.706 3.706s1.664 3.706 3.706 3.706 3.706-1.664 3.706-3.706c0-2.042-1.658-3.706-3.706-3.706z"></path>
<path fill="#686868" d="M2.33 20.858c-0.045 0-0.090-0.006-0.134-0.032-0.16-0.077-0.23-0.262-0.154-0.422 1.581-3.437 3.494-5.178 5.677-5.178 1.498 0 2.912 0.89 4.205 2.637 0.102 0.141 0.077 0.346-0.064 0.448s-0.339 0.077-0.448-0.064c-1.165-1.574-2.413-2.374-3.693-2.374-1.914 0-3.622 1.619-5.094 4.806-0.058 0.109-0.173 0.179-0.294 0.179z"></path>
<path fill="#686868" d="M15.117 16.070c-0.179 0-0.32-0.141-0.32-0.32v-9.946c0-0.179 0.141-0.32 0.32-0.32s0.32 0.141 0.32 0.32v9.939c0 0.179-0.141 0.326-0.32 0.326z"></path>
<path fill="#686868" d="M29.555 21.133h-8.403c-0.179 0-0.32-0.141-0.32-0.32s0.141-0.32 0.32-0.32h8.41c0.179 0 0.32 0.141 0.32 0.32s-0.147 0.32-0.326 0.32z"></path>
<path fill="#686868" d="M27.61 21.133h-1.997c-0.179 0-0.32-0.141-0.32-0.32v-7.136c0-0.294 0.237-0.531 0.531-0.531h1.574c0.294 0 0.531 0.237 0.531 0.531v7.136c0 0.179-0.141 0.32-0.32 0.32zM25.933 20.493h1.357v-6.707h-1.357v6.707z"></path>
<path fill="#686868" d="M23.514 21.133h-1.997c-0.179 0-0.32-0.141-0.32-0.32v-11.648c0-0.294 0.237-0.531 0.531-0.531h1.574c0.294 0 0.531 0.237 0.531 0.531v11.648c0 0.179-0.141 0.32-0.32 0.32zM21.843 20.493h1.357v-11.219h-1.357v11.219z"></path>
<path fill="#686868" d="M19.315 17.203c-0.179 0-0.32-0.141-0.32-0.32v-5.088h-1.357v4.051c0 0.179-0.141 0.32-0.32 0.32s-0.32-0.141-0.32-0.32v-4.16c0-0.294 0.237-0.531 0.531-0.531h1.574c0.294 0 0.531 0.237 0.531 0.531v5.197c0 0.179-0.141 0.32-0.32 0.32z"></path>
</svg>
