<?xml version="1.0" encoding="utf-8"?>
<!-- Generated by IcoMoon.io -->
<!DOCTYPE svg PUBLIC "-//W3C//DTD SVG 1.1//EN" "http://www.w3.org/Graphics/SVG/1.1/DTD/svg11.dtd">
<svg version="1.1" xmlns="http://www.w3.org/2000/svg" xmlns:xlink="http://www.w3.org/1999/xlink" width="32" height="32" viewBox="0 0 32 32">
<path fill="#777582" d="M31.047 4.63l-3.813-3.813c-1.089-1.089-3.132-1.089-4.221 0l-20.834 20.834c-0.545 0.545-0.953 1.362-1.089 2.179l-1.089 5.719c-0.136 0.545 0.136 1.226 0.681 1.77 0.408 0.409 0.953 0.681 1.498 0.681 0.136 0 0.136 0 0.272 0l5.719-1.089c0.817-0.136 1.634-0.545 2.179-1.089l20.698-20.834c1.226-1.226 1.226-3.132 0-4.357zM24.102 2.723l0.409-0.409c0.409-0.409 0.953-0.409 1.362 0l3.813 3.813c0.409 0.409 0.409 0.953 0 1.362l-0.409 0.409-5.174-5.174zM2.179 29.957c-0.136-0.136-0.136-0.136 0 0l0.817-5.038 4.085 4.085-4.902 0.953zM8.987 28.051l-5.174-5.174 18.791-18.655 5.174 5.174-18.791 18.655z"></path>
</svg>
