<?xml version="1.0" encoding="utf-8"?>
<!-- Generated by IcoMoon.io -->
<!DOCTYPE svg PUBLIC "-//W3C//DTD SVG 1.1//EN" "http://www.w3.org/Graphics/SVG/1.1/DTD/svg11.dtd">
<svg version="1.1" xmlns="http://www.w3.org/2000/svg" xmlns:xlink="http://www.w3.org/1999/xlink" width="32" height="32" viewBox="0 0 32 32">
<path fill="#777582" d="M9.681 16.941l-0.807 4.034c0 0.538 0.134 1.076 0.538 1.479s0.807 0.538 1.21 0.538c0.134 0 0.134 0 0.269 0l4.034-0.807c0.672-0.134 1.21-0.403 1.613-0.807l14.79-14.655c0.807-1.21 0.807-2.824-0.269-3.899l-1.882-1.882c-1.076-1.076-2.689-1.076-3.899-0.269v0l-14.521 14.521c-0.672 0.538-0.941 1.076-1.076 1.748zM27.563 2.42l2.017 1.882c0.269 0.269 0.403 0.672 0.269 0.941l-3.092-3.092c0.269-0.134 0.672 0 0.807 0.269zM11.429 18.42l2.151 2.151-2.555 0.538 0.403-2.689zM25.143 3.496l3.227 3.227-12.908 12.908-3.227-3.227 12.908-12.908z"></path>
<path fill="#777582" d="M31.462 12.101c-0.134-0.538-0.672-0.807-1.21-0.672s-0.807 0.672-0.672 1.21c1.21 4.84-0.134 9.815-3.63 13.311-5.378 5.378-14.252 5.378-19.765 0-5.378-5.378-5.378-14.252 0-19.765 3.496-3.496 8.471-4.84 13.176-3.63 0.538 0.134 1.076-0.134 1.21-0.672s-0.134-1.076-0.672-1.21c-5.513-1.345-11.16 0.269-15.059 4.168-6.185 6.185-6.185 16.403 0 22.588 3.092 3.092 7.261 4.706 11.294 4.706s8.202-1.613 11.294-4.706c3.765-4.168 5.378-9.95 4.034-15.328z"></path>
</svg>
