<?xml version="1.0" encoding="utf-8"?>
<!-- Generated by IcoMoon.io -->
<!DOCTYPE svg PUBLIC "-//W3C//DTD SVG 1.1//EN" "http://www.w3.org/Graphics/SVG/1.1/DTD/svg11.dtd">
<svg version="1.1" xmlns="http://www.w3.org/2000/svg" xmlns:xlink="http://www.w3.org/1999/xlink" width="32" height="32" viewBox="0 0 32 32">
<path fill="#777582" d="M22.588 15.731c0 0-0.134 0 0 0-0.134-0.134-0.134-0.269-0.134-0.269s0 0 0 0 0 0 0 0c-0.134-0.134-0.134-0.134-0.269-0.269 0 0 0 0 0 0l-8.471-4.975c-0.538-0.403-1.21-0.269-1.479 0.134-0.134 0.269-0.134 0.403-0.134 0.672 0 0 0 0 0 0.134v9.815c0 0 0 0 0 0.134s0 0.403 0.134 0.538c0.269 0.538 0.941 0.672 1.479 0.403l8.471-4.975c0 0 0 0 0 0 0.134 0 0.134-0.134 0.269-0.269 0 0 0 0 0 0s0 0 0 0 0-0.134 0.134-0.269c0 0 0-0.134 0-0.134 0-0.134 0-0.134 0-0.269 0-0.269 0-0.269 0-0.403zM14.118 12.773l5.378 3.227-5.378 3.227v-6.454z"></path>
<path fill="#777582" d="M16 0c-8.874 0-16 7.126-16 16s7.126 16 16 16c8.874 0 16-7.126 16-16s-7.261-16-16-16zM16 29.983c-7.664 0-13.983-6.319-13.983-13.983s6.319-13.983 13.983-13.983 13.983 6.319 13.983 13.983-6.319 13.983-13.983 13.983z"></path>
</svg>
