<?xml version="1.0" encoding="utf-8"?>
<!-- Generated by IcoMoon.io -->
<!DOCTYPE svg PUBLIC "-//W3C//DTD SVG 1.1//EN" "http://www.w3.org/Graphics/SVG/1.1/DTD/svg11.dtd">
<svg version="1.1" xmlns="http://www.w3.org/2000/svg" xmlns:xlink="http://www.w3.org/1999/xlink" width="23" height="32" viewBox="0 0 23 32">
<path fill="#777582" d="M11.438 32c-6.4 0-11.438-5.174-11.438-11.438 0-0.272 0-0.817 0-0.953 0.136-3.404 1.089-6.4 2.723-8.987 0.272-0.409 0.681-0.545 1.089-0.409s0.681 0.409 0.817 0.817c0 0 0.136 1.226 0.681 2.587-0.545-6.264 1.634-10.757 6.4-13.481 0.272-0.136 0.681-0.136 1.089 0 0.272 0.272 0.545 0.681 0.409 1.089-0.953 4.221 1.362 6.945 5.311 10.077 0 0 0.136 0 0.136 0.136 2.86 2.179 4.357 5.447 4.357 8.987 0 6.4-5.174 11.574-11.574 11.574zM3.268 14.026c-0.681 1.77-1.089 3.677-1.226 5.583 0 0.136 0 0.681 0 0.817 0 5.174 4.221 9.396 9.396 9.396s9.396-4.221 9.396-9.396c0-2.996-1.362-5.719-3.677-7.489 0 0-0.136 0-0.136-0.136-3.132-2.451-6.128-5.447-6.128-9.668-3.54 2.996-4.494 7.626-2.86 14.57 0.136 0.409-0.136 0.817-0.409 1.089-0.409 0.272-0.817 0.272-1.226-0.136-1.634-1.226-2.587-3.132-3.132-4.63z"></path>
</svg>
