<?xml version="1.0" encoding="utf-8"?>
<!-- Generated by IcoMoon.io -->
<!DOCTYPE svg PUBLIC "-//W3C//DTD SVG 1.1//EN" "http://www.w3.org/Graphics/SVG/1.1/DTD/svg11.dtd">
<svg version="1.1" xmlns="http://www.w3.org/2000/svg" xmlns:xlink="http://www.w3.org/1999/xlink" width="31" height="32" viewBox="0 0 31 32">
<path fill="#777582" d="M30.911 30.23l-7.762-7.762c2.179-2.451 3.677-5.583 3.677-9.123 0-7.353-5.992-13.345-13.345-13.345-7.489 0-13.481 5.992-13.481 13.345s5.992 13.345 13.345 13.345c3.132 0 5.992-1.089 8.306-2.86l7.898 7.898c0.136 0.136 0.409 0.272 0.681 0.272s0.545-0.136 0.681-0.272c0.409-0.409 0.409-1.089 0-1.498zM2.043 13.345c0-6.264 5.038-11.302 11.302-11.302s11.302 5.038 11.302 11.302c0 6.264-5.038 11.302-11.302 11.302s-11.302-5.038-11.302-11.302z"></path>
</svg>
