<?xml version="1.0" encoding="utf-8"?>
<!-- Generated by IcoMoon.io -->
<!DOCTYPE svg PUBLIC "-//W3C//DTD SVG 1.1//EN" "http://www.w3.org/Graphics/SVG/1.1/DTD/svg11.dtd">
<svg version="1.1" xmlns="http://www.w3.org/2000/svg" xmlns:xlink="http://www.w3.org/1999/xlink" width="33" height="32" viewBox="0 0 33 32">
<path fill="#777582" d="M29.277 0.545c-2.996-1.362-6.4 0-7.762 2.996-0.272 0.681-0.409 1.362-0.545 2.043l-9.532 2.043c-0.545-1.362-1.634-2.451-3.132-3.132-2.996-1.362-6.4 0-7.762 2.996-0.681 1.498-0.681 2.996-0.136 4.494s1.634 2.587 3.132 3.268c0.817 0.409 1.634 0.545 2.451 0.545 0.681 0 1.498-0.136 2.179-0.409 0.136 0 0.136-0.136 0.272-0.136l6.128 7.353c-0.136 0.272-0.409 0.545-0.545 0.953-1.362 2.996 0 6.536 2.996 7.762 0.817 0.409 1.634 0.545 2.451 0.545 0.681 0 1.498-0.136 2.179-0.409 1.498-0.545 2.587-1.634 3.268-3.132 0.272-0.681 0.545-1.498 0.545-2.315 0-2.451-1.362-4.494-3.677-5.583-1.906-0.817-4.085-0.545-5.719 0.681l-5.855-7.081c0.545-0.545 0.953-1.089 1.362-1.906 0.136-0.545 0.272-1.226 0.272-2.043 0-0.136 0-0.272 0-0.409l9.396-2.043c0 0.136 0.136 0.272 0.136 0.408 0.545 1.498 1.634 2.723 3.132 3.268 0 0 0 0 0 0 0.817 0.409 1.634 0.545 2.451 0.545 2.315 0 4.494-1.362 5.447-3.54 0.272-0.681 0.408-1.498 0.408-2.179 0-2.451-1.226-4.494-3.54-5.583zM4.357 13.481c-1.906-0.953-2.86-3.132-2.043-5.174 0.681-1.498 2.043-2.315 3.54-2.315 0.545 0 0.953 0.136 1.498 0.272 1.498 0.681 2.451 2.179 2.451 3.677 0 0.545-0.136 0.953-0.409 1.498-0.409 0.953-1.089 1.77-2.043 2.043-0.953 0.409-2.043 0.409-2.996 0zM19.336 22.196c0.545 0 0.953 0.136 1.498 0.272 1.498 0.681 2.451 2.179 2.451 3.677 0 0.545-0.136 0.953-0.409 1.498-0.409 0.953-1.226 1.634-2.179 2.043s-2.043 0.409-2.996-0.136c0 0 0 0 0 0-1.906-0.817-2.86-3.132-1.906-5.174 0.545-1.362 2.043-2.179 3.54-2.179zM30.502 7.489c-0.953 2.043-3.268 2.86-5.174 2.043s-2.86-3.132-1.906-5.174c0.817-1.906 3.132-2.86 5.038-2.043 1.498 0.681 2.451 2.179 2.451 3.677-0.136 0.545-0.272 1.089-0.409 1.498z"></path>
</svg>
