<?xml version="1.0" encoding="utf-8"?>
<!-- Generated by IcoMoon.io -->
<!DOCTYPE svg PUBLIC "-//W3C//DTD SVG 1.1//EN" "http://www.w3.org/Graphics/SVG/1.1/DTD/svg11.dtd">
<svg version="1.1" xmlns="http://www.w3.org/2000/svg" xmlns:xlink="http://www.w3.org/1999/xlink" width="33" height="32" viewBox="0 0 33 32">
<path fill="#777582" d="M7.898 32c-0.545 0-0.953-0.136-1.498-0.409-0.817-0.545-1.089-1.498-0.953-2.451l1.362-8.306c0-0.136 0-0.272-0.136-0.409l-5.992-5.855c-0.681-0.681-0.953-1.634-0.681-2.587s1.089-1.498 2.043-1.634l8.306-1.226c0.136 0 0.272-0.136 0.272-0.272l3.813-7.489c0.409-0.817 1.226-1.362 2.179-1.362s1.77 0.545 2.179 1.362l3.677 7.489c0 0.136 0.136 0.272 0.272 0.272l8.579 1.226c0.953 0.136 1.634 0.817 2.043 1.634 0.272 0.953 0 1.906-0.681 2.587l-6.128 5.855c-0.136 0.136-0.136 0.272-0.136 0.409l1.362 8.306c0.136 0.953-0.272 1.906-0.953 2.451-0.817 0.545-1.77 0.681-2.587 0.136l-7.489-3.949c-0.136 0-0.272 0-0.409 0l-7.489 3.949c-0.136 0.136-0.545 0.272-0.953 0.272zM16.749 2.043c-0.136 0-0.272 0-0.409 0.272l-3.813 7.489c-0.272 0.817-0.953 1.226-1.77 1.362l-8.306 1.226c-0.272 0-0.272 0.136-0.409 0.272 0 0.136 0 0.272 0.136 0.409l5.991 5.855c0.545 0.545 0.817 1.362 0.681 2.179l-1.362 8.306c0 0.272 0.136 0.409 0.136 0.409 0.136 0 0.272 0.136 0.408 0l7.489-3.949c0.681-0.409 1.634-0.409 2.315 0l7.489 3.949c0.272 0.136 0.409 0 0.409 0 0.136 0 0.272-0.136 0.136-0.409l-1.362-8.306c-0.136-0.817 0.136-1.634 0.681-2.179l5.992-5.855c0.136-0.136 0.136-0.272 0.136-0.409s-0.136-0.272-0.409-0.272l-8.306-1.226c-0.817-0.136-1.498-0.681-1.906-1.362l-3.677-7.489c0-0.272-0.272-0.272-0.272-0.272z"></path>
</svg>
