<?xml version="1.0" encoding="utf-8"?>
<!-- Generated by IcoMoon.io -->
<!DOCTYPE svg PUBLIC "-//W3C//DTD SVG 1.1//EN" "http://www.w3.org/Graphics/SVG/1.1/DTD/svg11.dtd">
<svg version="1.1" xmlns="http://www.w3.org/2000/svg" xmlns:xlink="http://www.w3.org/1999/xlink" width="39" height="32" viewBox="0 0 39 32">
<path fill="#777582" d="M33.149 16.246c0 0.906-0.735 1.641-1.641 1.641s-1.641-0.735-1.641-1.641c0-0.906 0.735-1.641 1.641-1.641s1.641 0.735 1.641 1.641z"></path>
<path fill="#777582" d="M35.61 0h-32.821c-1.477 0-2.79 1.313-2.79 2.954v26.256c0 1.641 1.313 2.954 2.954 2.954h32.821c1.641 0 2.954-1.313 2.954-2.954v-26.256c-0.164-1.641-1.477-2.954-3.118-2.954zM36.103 29.21c0 0.164-0.164 0.492-0.492 0.492h-32.821c-0.164 0-0.492-0.164-0.492-0.492v-26.256c0-0.164 0.164-0.492 0.492-0.492h32.821c0.164 0 0.492 0.164 0.492 0.492v26.256z"></path>
</svg>
