<?xml version="1.0" encoding="utf-8"?>
<!-- Generated by IcoMoon.io -->
<!DOCTYPE svg PUBLIC "-//W3C//DTD SVG 1.1//EN" "http://www.w3.org/Graphics/SVG/1.1/DTD/svg11.dtd">
<svg version="1.1" xmlns="http://www.w3.org/2000/svg" xmlns:xlink="http://www.w3.org/1999/xlink" width="32" height="32" viewBox="0 0 32 32">
<path fill="#777582" d="M17.021 15.523v-8.579c0-0.545-0.409-1.089-1.089-1.089s-0.953 0.545-0.953 1.089v8.987c0 0 0 0 0 0 0 0.136 0 0.136 0 0.272 0 0 0 0.136 0 0.136s0 0.136 0.136 0.136c0 0 0.136 0.136 0.136 0.136s0 0 0 0l7.489 6.4c0.136 0.136 0.409 0.272 0.681 0.272s0.545-0.136 0.817-0.409c0.409-0.409 0.272-1.089-0.136-1.498l-7.081-5.855z"></path>
<path fill="#777582" d="M16.068 0c-8.851 0-16.068 7.217-16.068 16.068s7.217 16.068 16.068 16.068c8.851 0 16.068-7.217 16.068-16.068-0.136-8.851-7.353-16.068-16.068-16.068zM16.068 29.957c-7.762 0-14.026-6.264-14.026-13.889 0-7.762 6.264-14.026 14.026-14.026 7.626 0 13.889 6.264 13.889 14.026 0 7.626-6.264 13.889-13.889 13.889z"></path>
</svg>
