<?xml version="1.0" encoding="utf-8"?>
<!-- Generated by IcoMoon.io -->
<!DOCTYPE svg PUBLIC "-//W3C//DTD SVG 1.1//EN" "http://www.w3.org/Graphics/SVG/1.1/DTD/svg11.dtd">
<svg version="1.1" xmlns="http://www.w3.org/2000/svg" xmlns:xlink="http://www.w3.org/1999/xlink" width="28" height="32" viewBox="0 0 28 32">
<path fill="#777582" d="M14.843 17.702c0 0 0 0 0 0v-7.762c0-0.545-0.409-1.089-1.089-1.089s-0.953 0.545-0.953 1.089v7.762c0 0.136 0 0.136 0 0.272-0.136 0.409 0 0.817 0.272 1.089l6.4 5.447c0.136 0.136 0.409 0.272 0.681 0.272s0.545-0.136 0.817-0.409c0.409-0.409 0.272-1.089-0.136-1.498l-5.992-5.174z"></path>
<path fill="#777582" d="M13.753 4.357c-7.626 0-13.753 6.264-13.753 13.889s6.128 13.753 13.753 13.753 13.889-6.128 13.889-13.753-6.264-13.889-13.889-13.889zM13.753 29.957c-6.536 0-11.711-5.311-11.711-11.711s5.311-11.711 11.711-11.711 11.711 5.311 11.711 11.711-5.174 11.711-11.711 11.711z"></path>
<path fill="#777582" d="M11.847 2.043h3.813c0.545 0 1.089-0.409 1.089-1.089s-0.545-0.953-1.089-0.953h-3.813c-0.545 0-1.089 0.408-1.089 1.089s0.545 0.953 1.089 0.953z"></path>
<path fill="#777582" d="M28.051 7.217l-3.132-3.132c-0.409-0.409-1.089-0.409-1.498 0s-0.409 1.089 0 1.498l3.132 3.132c0.136 0.136 0.409 0.272 0.681 0.272s0.545-0.136 0.681-0.272c0.545-0.545 0.545-1.089 0.136-1.498z"></path>
</svg>
