<?xml version="1.0" encoding="utf-8"?>
<!-- Generated by IcoMoon.io -->
<!DOCTYPE svg PUBLIC "-//W3C//DTD SVG 1.1//EN" "http://www.w3.org/Graphics/SVG/1.1/DTD/svg11.dtd">
<svg version="1.1" xmlns="http://www.w3.org/2000/svg" xmlns:xlink="http://www.w3.org/1999/xlink" width="25" height="32" viewBox="0 0 25 32">
<path fill="#777582" d="M16.885 8.17c-0.545-0.136-1.089 0-1.362 0.545-0.136 0.545 0 1.089 0.545 1.362 3.949 1.498 6.672 5.447 6.672 9.668 0 5.583-4.63 10.213-10.349 10.213s-10.349-4.63-10.349-10.213c0-4.221 2.723-8.17 6.672-9.668 0.545-0.136 0.817-0.817 0.545-1.362-0.136-0.545-0.681-0.817-1.226-0.545-4.766 1.77-8.034 6.536-8.034 11.574 0 6.809 5.583 12.255 12.392 12.255s12.392-5.447 12.392-12.255c0.136-5.038-3.268-9.804-7.898-11.574z"></path>
<path fill="#777582" d="M7.898 6.536c0.272 0 0.545-0.136 0.681-0.272l2.723-2.723v13.753c0 0.545 0.409 1.089 1.089 1.089s1.089-0.409 1.089-1.089v-13.753l2.723 2.723c0.136 0.136 0.409 0.272 0.681 0.272s0.545-0.136 0.681-0.272c0.409-0.409 0.409-1.089 0-1.498l-4.357-4.494c-0.136 0-0.272-0.136-0.409-0.136 0 0 0 0 0 0-0.272-0.136-0.545-0.136-0.817 0 0 0-0.136 0.136-0.136 0.136s-0.136 0-0.136 0.136c0 0 0 0 0 0l-4.494 4.357c-0.409 0.409-0.409 1.089 0 1.498 0.136 0.136 0.409 0.272 0.681 0.272z"></path>
</svg>
