<?xml version="1.0" encoding="utf-8"?>
<!-- Generator: Adobe Illustrator 19.1.0, SVG Export Plug-In . SVG Version: 6.00 Build 0)  -->
<svg version="1.1" id="Ebene_1" xmlns="http://www.w3.org/2000/svg" xmlns:xlink="http://www.w3.org/1999/xlink" x="0px" y="0px"
	 viewBox="0 0 49.2 49.2" style="enable-background:new 0 0 49.2 49.2;" xml:space="preserve">
<style type="text/css">
	.st0{fill:#498AB8;}
	.st1{fill:#2D343E;}
</style>
<g id="ringe">
	<path id="innen" class="st0" d="M24.6,14c-5.9,0-10.7,4.8-10.7,10.7s4.8,10.7,10.7,10.7s10.7-4.8,10.7-10.7S30.6,14,24.6,14z"/>
	<path id="aussen" class="st1" d="M24.6,0C11,0,0,11.1,0,24.6c0,13.6,11.1,24.6,24.6,24.6c13.6,0,24.6-11.1,24.6-24.6
		C49.3,11.1,38.2,0,24.6,0z M24.6,44.2C13.8,44.2,5,35.4,5,24.6S13.8,5,24.6,5s19.6,8.8,19.6,19.6S35.4,44.2,24.6,44.2z"/>
</g>
</svg>
