<?xml version="1.0" encoding="utf-8"?>
<!-- Generator: Adobe Illustrator 19.0.0, SVG Export Plug-In . SVG Version: 6.00 Build 0)  -->
<svg version="1.1" id="Ebene_1" xmlns="http://www.w3.org/2000/svg" xmlns:xlink="http://www.w3.org/1999/xlink" x="0px" y="0px"
	 viewBox="-239 201.6 385.5 61.7" style="enable-background:new -239 201.6 385.5 61.7;" xml:space="preserve">
<style type="text/css">
	.st0{fill:#498AB8;}
	.st1{fill:#FFFFFF;}
</style>
<g id="aufblau">
	<g>
		<path class="st0" d="M-147.5,263h-6.3l-0.1-0.4c-0.9-2.3-1.7-4.5-2.5-6.6c-0.7-2-1.4-3.9-2-5.8h-21.9c-0.7,1.9-1.4,3.8-2.1,5.8
			c-0.7,2.1-1.5,4.3-2.4,6.6l-0.1,0.4h-6l0.3-0.8c1.8-4.8,3.4-9.4,5-13.5c1.6-4.2,3.1-8.1,4.6-11.9c1.5-3.7,3-7.3,4.5-10.8
			s3.1-6.9,4.7-10.4l0.2-0.3h4.7l0.2,0.3c1.6,3.4,3.2,6.9,4.7,10.4c1.4,3.4,3,7,4.5,10.8c1.5,3.7,3.1,7.7,4.6,11.9
			c1.5,4.1,3.3,8.7,5.1,13.5L-147.5,263z M-178.4,245.3h18.2c-1.6-4.3-3.2-8.4-4.7-12.1c-1.4-3.5-2.9-7.1-4.4-10.5
			c-1.5,3.5-3,7-4.4,10.5C-175.2,236.9-176.8,241-178.4,245.3z"/>
	</g>
	<g>
		<path class="st0" d="M-135.1,263.1h-5.7v-46.6l0.4-0.1c1.6-0.5,3.6-0.8,5.8-1c9.8-0.9,16.9,0.3,21.2,3.6c3.4,2.6,5.1,6.3,5.1,11.1
			c0,2.7-0.5,5.1-1.5,7s-2.4,3.5-4.2,4.7s-4,2-6.6,2.6c-2.5,0.5-5.5,0.8-8.7,0.8h-5.7v17.9H-135.1z M-135.1,240h5.2
			c2.4,0,4.6-0.1,6.6-0.4c1.9-0.3,3.6-0.8,4.9-1.5s2.3-1.7,3-3s1.1-3,1.1-5c0-1.9-0.4-3.6-1.2-4.8c-0.8-1.3-1.8-2.3-3.1-3
			c-1.3-0.7-2.8-1.3-4.5-1.6s-3.5-0.5-5.3-0.5c-1.7,0-3.1,0.1-4.3,0.2c-1,0.1-1.8,0.2-2.5,0.2V240L-135.1,240L-135.1,240z"/>
	</g>
	<g>
		<path class="st0" d="M-95.1,263.1h-5.7v-46.6l0.4-0.1c1.6-0.5,3.6-0.8,5.8-1c9.8-0.9,16.9,0.3,21.2,3.6c3.4,2.6,5.1,6.3,5.1,11.1
			c0,2.7-0.5,5.1-1.5,7s-2.4,3.5-4.2,4.7c-1.8,1.2-4,2-6.6,2.6c-2.5,0.5-5.5,0.8-8.7,0.8H-95L-95.1,263.1L-95.1,263.1z M-95.1,240
			h5.2c2.4,0,4.6-0.1,6.6-0.4c1.9-0.3,3.6-0.8,4.9-1.5c1.3-0.7,2.3-1.7,3-3c0.7-1.3,1.1-3,1.1-5c0-1.9-0.4-3.6-1.2-4.8
			c-0.8-1.3-1.8-2.3-3.1-3c-1.3-0.7-2.8-1.3-4.5-1.6s-3.5-0.5-5.3-0.5c-1.7,0-3.1,0.1-4.3,0.2c-1,0.1-1.8,0.2-2.5,0.2L-95.1,240
			L-95.1,240L-95.1,240z"/>
	</g>
	<g>
		<path class="st1" d="M-26.4,263.1h-6.3l-0.1-0.4c-0.9-2.3-1.7-4.5-2.5-6.6c-0.7-2-1.4-3.9-2-5.8h-21.9c-0.7,1.9-1.4,3.8-2.1,5.8
			c-0.7,2.1-1.5,4.3-2.4,6.6l-0.1,0.4h-6l0.3-0.8c1.8-4.8,3.4-9.4,5-13.5c1.6-4.2,3.1-8.1,4.6-11.9c1.5-3.7,3-7.3,4.5-10.8
			s3.1-6.9,4.7-10.4l0.2-0.3h4.7l0.2,0.3c1.6,3.4,3.2,6.9,4.7,10.4c1.5,3.4,3,7.1,4.5,10.8c1.5,3.7,3.1,7.7,4.6,11.9
			c1.5,4.1,3.3,8.7,5.1,13.5L-26.4,263.1z M-57.3,245.3h18.2c-1.6-4.3-3.2-8.4-4.7-12.1c-1.5-3.6-2.9-7.1-4.4-10.5
			c-1.5,3.5-3,7-4.4,10.5C-54.1,236.9-55.7,241-57.3,245.3z"/>
	</g>
	<g>
		<path class="st1" d="M15.4,263.1H9.3l-0.2-0.3c-0.9-1.8-2-3.6-3-5.3c-1.1-1.8-2.2-3.5-3.3-5.2c-1.1-1.6-2.2-3.2-3.3-4.6l-2.6-3.5
			c-1.3,0.1-2.7,0.2-4,0.2H-14v18.8h-5.7v-46.7l0.4-0.1c1.6-0.5,3.6-0.8,5.8-1s4.2-0.3,6.1-0.3c6.5,0,11.5,1.3,14.8,3.7
			c3.4,2.5,5.1,6.3,5.1,11.2c0,3.6-1,6.5-2.9,8.6c-1.7,1.9-4,3.3-6.7,4.3c0.6,0.8,1.4,1.8,2.3,3c1.1,1.5,2.3,3.2,3.5,5
			s2.4,3.7,3.6,5.7s2.2,3.9,3,5.7L15.4,263.1z M-14.2,239.3h5.7c2.1,0,4.1-0.1,5.9-0.3c1.8-0.2,3.4-0.6,4.7-1.3
			c1.3-0.6,2.3-1.6,3.1-2.8c0.7-1.2,1.1-2.9,1.1-5c0-1.9-0.4-3.6-1.1-4.8c-0.8-1.3-1.7-2.3-3-3c-1.2-0.7-2.7-1.3-4.3-1.5
			c-1.6-0.3-3.4-0.4-5.1-0.4s-3.2,0.1-4.4,0.2c-1,0.1-1.9,0.2-2.7,0.2L-14.2,239.3L-14.2,239.3z"/>
	</g>
	<g>
		<path class="st1" d="M52.3,263.1H22.6v-47.7h28v5.1H28.3v15h19.9v5H28.3v17.4h24V263.1z"/>
	</g>
	<g>
		<path class="st1" d="M96.9,263.1h-4.7l-0.2-0.3c-0.9-1.6-2-3.4-3.2-5.5c-1.3-2.1-2.8-4.4-4.3-6.7c-1.6-2.4-3.3-4.8-5-7.4
			c-1.7-2.5-3.4-5-5.2-7.4c-1.7-2.4-3.4-4.6-5-6.7c-1.2-1.6-2.3-3-3.4-4.2v38.2h-5.6v-47.7h4.4l0.2,0.2c2.3,2.6,4.8,5.5,7.4,8.9
			c2.6,3.3,5.2,6.7,7.7,10.2s4.9,6.9,7,10.2c1.7,2.5,3.1,4.8,4.3,6.8v-36.3h5.6L96.9,263.1L96.9,263.1z"/>
	</g>
	<g>
		<path class="st1" d="M146.5,263.1h-6.3l-0.1-0.4c-0.9-2.3-1.7-4.5-2.5-6.6c-0.7-2-1.4-3.9-2-5.8h-21.9c-0.7,1.9-1.5,3.9-2.1,5.8
			c-0.7,2.1-1.5,4.3-2.4,6.6l-0.1,0.4h-6l0.3-0.8c1.8-4.8,3.4-9.4,5-13.5c1.6-4.2,3.1-8.1,4.6-11.9c1.5-3.7,3-7.3,4.5-10.8
			s3.1-6.9,4.7-10.4l0.2-0.3h4.7l0.2,0.3c1.6,3.4,3.2,6.9,4.7,10.4c1.5,3.4,3,7,4.5,10.8c1.5,3.7,3.1,7.7,4.6,11.9
			c1.5,4.1,3.3,8.7,5.1,13.5L146.5,263.1z M115.6,245.3h18.2c-1.6-4.3-3.2-8.3-4.7-12.1c-1.4-3.5-2.9-7.1-4.4-10.5
			c-1.5,3.5-3,7-4.4,10.5C118.8,236.9,117.2,241,115.6,245.3z"/>
	</g>
	<g>
		<path class="st0" d="M-214.6,215.4c-5.8,0-10.6,4.7-10.6,10.6c0,5.8,4.7,10.6,10.6,10.6c5.8,0,10.6-4.7,10.6-10.6
			C-204.1,220.1-208.8,215.4-214.6,215.4z"/>
		<path class="st1" d="M-214.6,201.6c-13.5,0-24.4,10.9-24.4,24.4c0,13.4,10.9,24.3,24.4,24.3c13.4,0,24.4-10.9,24.4-24.4
			C-190.3,212.5-201.2,201.6-214.6,201.6z M-214.6,245.3c-10.7,0-19.4-8.7-19.4-19.3c0-10.7,8.7-19.3,19.3-19.3
			c10.7,0,19.3,8.7,19.3,19.3C-195.3,236.6-204,245.3-214.6,245.3z"/>
	</g>
</g>
</svg>
