<?xml version="1.0" encoding="utf-8"?>
<!-- Generator: Adobe Illustrator 19.0.0, SVG Export Plug-In . SVG Version: 6.00 Build 0)  -->
<svg version="1.1" id="Ebene_1" xmlns="http://www.w3.org/2000/svg" xmlns:xlink="http://www.w3.org/1999/xlink" x="0px" y="0px"
	 viewBox="0 0 480 158.4" style="enable-background:new 0 0 480 158.4;" xml:space="preserve">
<style type="text/css">
	.st0{fill:#498AB8;}
	.st1{fill:#FFFFFF;}
</style>
<g id="aufblau">
	<g>
		<path class="st0" d="M138.5,109.7h-6.3l-0.1-0.4c-0.9-2.3-1.7-4.5-2.5-6.6c-0.7-2-1.4-3.9-2-5.8h-21.9c-0.7,1.9-1.4,3.8-2.1,5.8
			c-0.7,2.1-1.5,4.3-2.4,6.6l-0.1,0.4h-6l0.3-0.8c1.8-4.8,3.4-9.4,5-13.5c1.6-4.2,3.1-8.1,4.6-11.9c1.5-3.7,3-7.3,4.5-10.8
			c1.5-3.5,3.1-6.9,4.7-10.4l0.2-0.3h4.7l0.2,0.3c1.6,3.4,3.2,6.9,4.7,10.4c1.4,3.4,3,7,4.5,10.8c1.5,3.7,3.1,7.7,4.6,11.9
			c1.5,4.1,3.3,8.7,5.1,13.5L138.5,109.7z M107.6,92h18.2c-1.6-4.3-3.2-8.4-4.7-12.1c-1.4-3.5-2.9-7.1-4.4-10.5
			c-1.5,3.5-3,7-4.4,10.5C110.8,83.6,109.2,87.7,107.6,92z"/>
	</g>
	<g>
		<path class="st0" d="M150.9,109.8h-5.7V63.2l0.4-0.1c1.6-0.5,3.6-0.8,5.8-1c9.8-0.9,16.9,0.3,21.2,3.6c3.4,2.6,5.1,6.3,5.1,11.1
			c0,2.7-0.5,5.1-1.5,7c-1,1.9-2.4,3.5-4.2,4.7c-1.8,1.2-4,2-6.6,2.6c-2.5,0.5-5.5,0.8-8.7,0.8h-5.7V109.8z M150.9,86.7h5.2
			c2.4,0,4.6-0.1,6.6-0.4c1.9-0.3,3.6-0.8,4.9-1.5c1.3-0.7,2.3-1.7,3-3c0.7-1.3,1.1-3,1.1-5c0-1.9-0.4-3.6-1.2-4.8
			c-0.8-1.3-1.8-2.3-3.1-3c-1.3-0.7-2.8-1.3-4.5-1.6c-1.7-0.3-3.5-0.5-5.3-0.5c-1.7,0-3.1,0.1-4.3,0.2c-1,0.1-1.8,0.2-2.5,0.2V86.7z
			"/>
	</g>
	<g>
		<path class="st0" d="M190.9,109.8h-5.7V63.2l0.4-0.1c1.6-0.5,3.6-0.8,5.8-1c9.8-0.9,16.9,0.3,21.2,3.6c3.4,2.6,5.1,6.3,5.1,11.1
			c0,2.7-0.5,5.1-1.5,7c-1,1.9-2.4,3.5-4.2,4.7c-1.8,1.2-4,2-6.6,2.6c-2.5,0.5-5.5,0.8-8.7,0.8h-5.7V109.8z M190.9,86.7h5.2
			c2.4,0,4.6-0.1,6.6-0.4c1.9-0.3,3.6-0.8,4.9-1.5c1.3-0.7,2.3-1.7,3-3c0.7-1.3,1.1-3,1.1-5c0-1.9-0.4-3.6-1.2-4.8
			c-0.8-1.3-1.8-2.3-3.1-3c-1.3-0.7-2.8-1.3-4.5-1.6c-1.7-0.3-3.5-0.5-5.3-0.5c-1.7,0-3.1,0.1-4.3,0.2c-1,0.1-1.8,0.2-2.5,0.2V86.7z
			"/>
	</g>
	<g>
		<path class="st1" d="M259.6,109.8h-6.3l-0.1-0.4c-0.9-2.3-1.7-4.5-2.5-6.6c-0.7-2-1.4-3.9-2-5.8h-21.9c-0.7,1.9-1.4,3.8-2.1,5.8
			c-0.7,2.1-1.5,4.3-2.4,6.6l-0.1,0.4h-6l0.3-0.8c1.8-4.8,3.4-9.4,5-13.5c1.6-4.2,3.1-8.1,4.6-11.9c1.5-3.7,3-7.3,4.5-10.8
			c1.5-3.5,3.1-6.9,4.7-10.4l0.2-0.3h4.7l0.2,0.3c1.6,3.4,3.2,6.9,4.7,10.4c1.5,3.4,3,7.1,4.5,10.8c1.5,3.7,3.1,7.7,4.6,11.9
			c1.5,4.1,3.3,8.7,5.1,13.5L259.6,109.8z M228.7,92h18.2c-1.6-4.3-3.2-8.4-4.7-12.1c-1.5-3.6-2.9-7.1-4.4-10.5
			c-1.5,3.5-3,7-4.4,10.5C231.9,83.6,230.3,87.7,228.7,92z"/>
	</g>
	<g>
		<path class="st1" d="M301.4,109.8h-6.1l-0.2-0.3c-0.9-1.8-2-3.6-3-5.3c-1.1-1.8-2.2-3.5-3.3-5.2c-1.1-1.6-2.2-3.2-3.3-4.6
			l-2.6-3.5c-1.3,0.1-2.7,0.2-4,0.2h-6.9v18.8h-5.7V63.2l0.4-0.1c1.6-0.5,3.6-0.8,5.8-1c2.2-0.2,4.2-0.3,6.1-0.3
			c6.5,0,11.5,1.3,14.8,3.7c3.4,2.5,5.1,6.3,5.1,11.2c0,3.6-1,6.5-2.9,8.6c-1.7,1.9-4,3.3-6.7,4.3c0.6,0.8,1.4,1.8,2.3,3
			c1.1,1.5,2.3,3.2,3.5,5c1.2,1.8,2.4,3.7,3.6,5.7c1.2,2,2.2,3.9,3,5.7L301.4,109.8z M271.8,86h5.7c2.1,0,4.1-0.1,5.9-0.3
			c1.8-0.2,3.4-0.6,4.7-1.3c1.3-0.6,2.3-1.6,3.1-2.8c0.7-1.2,1.1-2.9,1.1-5c0-1.9-0.4-3.6-1.1-4.8c-0.8-1.3-1.7-2.3-3-3
			c-1.2-0.7-2.7-1.3-4.3-1.5c-1.6-0.3-3.4-0.4-5.1-0.4c-1.7,0-3.2,0.1-4.4,0.2c-1,0.1-1.9,0.2-2.7,0.2V86z"/>
	</g>
	<g>
		<path class="st1" d="M338.3,109.8h-29.7V62.1h28v5.1h-22.3v15h19.9v5h-19.9v17.4h24V109.8z"/>
	</g>
	<g>
		<path class="st1" d="M382.9,109.8h-4.7l-0.2-0.3c-0.9-1.6-2-3.4-3.2-5.5c-1.3-2.1-2.8-4.4-4.3-6.7c-1.6-2.4-3.3-4.8-5-7.4
			c-1.7-2.5-3.4-5-5.2-7.4c-1.7-2.4-3.4-4.6-5-6.7c-1.2-1.6-2.3-3-3.4-4.2v38.2h-5.6V62.1h4.4l0.2,0.2c2.3,2.6,4.8,5.5,7.4,8.9
			c2.6,3.3,5.2,6.7,7.7,10.2c2.5,3.5,4.9,6.9,7,10.2c1.7,2.5,3.1,4.8,4.3,6.8V62.1h5.6V109.8z"/>
	</g>
	<g>
		<path class="st1" d="M432.5,109.8h-6.3l-0.1-0.4c-0.9-2.3-1.7-4.5-2.5-6.6c-0.7-2-1.4-3.9-2-5.8h-21.9c-0.7,1.9-1.5,3.9-2.1,5.8
			c-0.7,2.1-1.5,4.3-2.4,6.6l-0.1,0.4h-6l0.3-0.8c1.8-4.8,3.4-9.4,5-13.5c1.6-4.2,3.1-8.1,4.6-11.9c1.5-3.7,3-7.3,4.5-10.8
			c1.5-3.5,3.1-6.9,4.7-10.4l0.2-0.3h4.7l0.2,0.3c1.6,3.4,3.2,6.9,4.7,10.4c1.5,3.4,3,7,4.5,10.8c1.5,3.7,3.1,7.7,4.6,11.9
			c1.5,4.1,3.3,8.7,5.1,13.5L432.5,109.8z M401.6,92h18.2c-1.6-4.3-3.2-8.3-4.7-12.1c-1.4-3.5-2.9-7.1-4.4-10.5
			c-1.5,3.5-3,7-4.4,10.5C404.8,83.6,403.2,87.7,401.6,92z"/>
	</g>
	<g>
		<path class="st0" d="M71.4,62.1c-5.8,0-10.6,4.7-10.6,10.6c0,5.8,4.7,10.6,10.6,10.6c5.8,0,10.6-4.7,10.6-10.6
			C81.9,66.8,77.2,62.1,71.4,62.1z"/>
		<path class="st1" d="M71.4,48.3C57.9,48.3,47,59.2,47,72.7C47,86.1,57.9,97,71.4,97c13.4,0,24.4-10.9,24.4-24.4
			C95.7,59.2,84.8,48.3,71.4,48.3z M71.4,92C60.7,92,52,83.3,52,72.7c0-10.7,8.7-19.3,19.3-19.3c10.7,0,19.3,8.7,19.3,19.3
			C90.7,83.3,82,92,71.4,92z"/>
	</g>
</g>
</svg>
