<?xml version="1.0" encoding="utf-8"?>
<!-- Generator: Adobe Illustrator 19.0.0, SVG Export Plug-In . SVG Version: 6.00 Build 0)  -->
<svg version="1.1" id="Ebene_1" xmlns="http://www.w3.org/2000/svg" xmlns:xlink="http://www.w3.org/1999/xlink" x="0px" y="0px"
	 viewBox="0 0 480 158.4" style="enable-background:new 0 0 480 158.4;" xml:space="preserve">
<style type="text/css">
	.st0{fill:#498AB8;}
	.st1{fill:#2D343E;}
</style>
<g id="aufweiss">
	<g>
		<path class="st0" d="M139.9,110.3h-6.3l-0.1-0.4c-0.9-2.3-1.7-4.6-2.5-6.7c-0.7-2-1.4-3.9-2-5.8h-22.2c-0.7,1.9-1.5,3.9-2.2,5.9
			c-0.8,2.1-1.5,4.4-2.4,6.7l-0.1,0.4h-6l0.3-0.8c1.8-4.9,3.5-9.5,5.1-13.7c1.6-4.2,3.2-8.2,4.7-12c1.5-3.7,3-7.4,4.6-10.9
			c1.5-3.5,3.1-7,4.8-10.5l0.2-0.3h4.8l0.2,0.3c1.7,3.5,3.2,7,4.7,10.5c1.5,3.4,3,7.1,4.5,10.9c1.5,3.8,3.1,7.8,4.7,12
			c1.6,4.2,3.3,8.8,5.2,13.7L139.9,110.3z M108.6,92.4H127c-1.6-4.4-3.2-8.5-4.8-12.2c-1.5-3.6-3-7.1-4.5-10.6
			c-1.5,3.5-3,7.1-4.4,10.7C111.8,83.9,110.2,88,108.6,92.4z"/>
	</g>
	<g>
		<path class="st0" d="M151.8,110.4H146V63.2l0.4-0.1c1.7-0.5,3.6-0.8,5.8-1c9.9-0.9,17.1,0.3,21.4,3.6c3.4,2.6,5.1,6.4,5.1,11.2
			c0,2.7-0.5,5.1-1.5,7.1c-1,2-2.4,3.6-4.3,4.8c-1.8,1.2-4.1,2.1-6.7,2.6c-2.6,0.5-5.5,0.8-8.8,0.8h-5.8V110.4z M151.8,87h5.3
			c2.5,0,4.7-0.1,6.7-0.4c1.9-0.3,3.6-0.8,5-1.6c1.3-0.7,2.4-1.8,3.1-3.1c0.7-1.3,1.1-3,1.1-5.1c0-2-0.4-3.6-1.2-4.9
			c-0.8-1.3-1.8-2.3-3.1-3c-1.3-0.8-2.8-1.3-4.5-1.6c-1.7-0.3-3.5-0.5-5.3-0.5c-1.7,0-3.1,0.1-4.3,0.2c-1,0.1-1.8,0.2-2.6,0.2V87z"
			/>
	</g>
	<g>
		<path class="st0" d="M191.6,110.4h-5.8V63.2l0.4-0.1c1.7-0.5,3.6-0.8,5.8-1c9.9-0.9,17.1,0.3,21.4,3.6c3.4,2.6,5.1,6.4,5.1,11.2
			c0,2.7-0.5,5.1-1.5,7.1c-1,2-2.4,3.6-4.3,4.8c-1.8,1.2-4.1,2.1-6.7,2.6c-2.6,0.5-5.5,0.8-8.8,0.8h-5.8V110.4z M191.6,87h5.3
			c2.5,0,4.7-0.1,6.7-0.4c1.9-0.3,3.6-0.8,5-1.6c1.3-0.7,2.4-1.8,3.1-3.1c0.7-1.3,1.1-3,1.1-5.1c0-2-0.4-3.6-1.2-4.9
			c-0.8-1.3-1.8-2.3-3.1-3c-1.3-0.8-2.8-1.3-4.5-1.6c-1.7-0.3-3.5-0.5-5.3-0.5c-1.7,0-3.1,0.1-4.3,0.2c-1,0.1-1.8,0.2-2.6,0.2V87z"
			/>
	</g>
	<g>
		<path class="st1" d="M260.5,110.4h-6.3L254,110c-0.9-2.3-1.7-4.5-2.5-6.7c-0.7-2-1.4-3.9-2-5.8h-22.2c-0.7,1.9-1.5,3.9-2.2,5.9
			c-0.8,2.1-1.5,4.4-2.4,6.7l-0.1,0.4h-6l0.3-0.8c1.8-4.9,3.5-9.5,5.1-13.7c1.6-4.2,3.2-8.2,4.7-12c1.5-3.7,3-7.4,4.6-10.9
			c1.5-3.5,3.1-7,4.8-10.5l0.2-0.3h4.8l0.2,0.3c1.7,3.5,3.2,7,4.7,10.5c1.5,3.5,3,7.1,4.5,10.9c1.5,3.8,3.1,7.8,4.7,12
			c1.6,4.2,3.3,8.8,5.2,13.7L260.5,110.4z M229.2,92.4h18.4c-1.6-4.3-3.2-8.5-4.8-12.2c-1.5-3.6-3-7.2-4.5-10.6
			c-1.5,3.5-3,7.1-4.4,10.7C232.4,83.9,230.8,88,229.2,92.4z"/>
	</g>
	<g>
		<path class="st1" d="M302,110.4h-6.2l-0.2-0.3c-0.9-1.8-2-3.6-3.1-5.4c-1.1-1.8-2.3-3.6-3.4-5.2c-1.1-1.7-2.3-3.2-3.3-4.7
			l-2.7-3.5c-1.4,0.1-2.7,0.2-4.1,0.2h-7v19h-5.8V63.2l0.4-0.1c1.7-0.5,3.6-0.8,5.8-1c2.2-0.2,4.3-0.3,6.1-0.3
			c6.6,0,11.6,1.3,15,3.8c3.4,2.5,5.2,6.4,5.2,11.3c0,3.7-1,6.6-2.9,8.7c-1.8,1.9-4,3.4-6.8,4.3c0.6,0.8,1.4,1.8,2.3,3
			c1.1,1.5,2.4,3.2,3.6,5.1c1.2,1.8,2.4,3.8,3.6,5.8c1.2,2,2.2,3.9,3,5.8L302,110.4z M272.1,86.3h5.8c2.1,0,4.1-0.1,6-0.3
			c1.8-0.2,3.4-0.6,4.8-1.3c1.3-0.6,2.3-1.6,3.1-2.8c0.8-1.2,1.1-2.9,1.1-5.1c0-2-0.4-3.6-1.1-4.9c-0.8-1.3-1.8-2.3-3-3
			c-1.2-0.8-2.7-1.3-4.3-1.6c-1.7-0.3-3.4-0.4-5.2-0.4c-1.7,0-3.2,0.1-4.5,0.2c-1,0.1-1.9,0.2-2.7,0.3V86.3z"/>
	</g>
	<g>
		<path class="st1" d="M338.1,110.4h-30.1V62.2h28.3v5.2h-22.5v15.2h20.1v5.1h-20.1v17.6h24.3V110.4z"/>
	</g>
	<g>
		<path class="st1" d="M382.3,110.4h-4.8l-0.2-0.3c-0.9-1.6-2-3.5-3.3-5.5c-1.3-2.1-2.8-4.4-4.4-6.8c-1.6-2.4-3.3-4.9-5-7.4
			c-1.7-2.5-3.5-5-5.2-7.5c-1.7-2.4-3.4-4.7-5.1-6.8c-1.2-1.6-2.4-3-3.4-4.2v38.6h-5.7V62.2h4.5l0.2,0.2c2.3,2.6,4.8,5.6,7.4,9
			c2.6,3.3,5.2,6.8,7.8,10.3c2.5,3.5,4.9,7,7.1,10.3c1.7,2.6,3.1,4.9,4.4,6.9V62.2h5.7V110.4z"/>
	</g>
	<g>
		<path class="st1" d="M432,110.4h-6.3l-0.1-0.4c-0.9-2.3-1.7-4.6-2.5-6.7c-0.7-2-1.4-3.9-2-5.8h-22.2c-0.7,1.9-1.5,3.9-2.2,5.9
			c-0.8,2.1-1.5,4.4-2.4,6.7l-0.1,0.4h-6l0.3-0.8c1.8-4.9,3.5-9.5,5.1-13.7c1.6-4.2,3.2-8.2,4.7-12c1.5-3.7,3-7.4,4.6-10.9
			c1.5-3.5,3.1-7,4.8-10.5l0.2-0.3h4.8l0.2,0.3c1.7,3.5,3.2,7,4.7,10.5c1.5,3.4,3,7.1,4.5,10.9c1.5,3.8,3.1,7.8,4.7,12
			c1.5,4.1,3.3,8.8,5.2,13.7L432,110.4z M400.7,92.4h18.4c-1.6-4.3-3.2-8.4-4.8-12.2c-1.5-3.6-3-7.1-4.5-10.6
			c-1.5,3.5-3,7.1-4.4,10.7C403.9,83.9,402.4,88,400.7,92.4z"/>
	</g>
	<g>
		<path class="st0" d="M71.9,62.2c-5.9,0-10.7,4.8-10.7,10.7c0,5.9,4.8,10.7,10.7,10.7c5.9,0,10.7-4.8,10.7-10.7
			C82.6,67,77.9,62.2,71.9,62.2z"/>
		<path class="st1" d="M71.9,48.2c-13.6,0-24.6,11.1-24.6,24.6c0,13.6,11.1,24.6,24.6,24.6c13.6,0,24.6-11.1,24.6-24.6
			C96.6,59.3,85.5,48.2,71.9,48.2z M71.9,92.4c-10.8,0-19.6-8.8-19.6-19.6s8.8-19.6,19.6-19.6c10.8,0,19.6,8.8,19.6,19.6
			S82.7,92.4,71.9,92.4z"/>
	</g>
</g>
</svg>
