<?xml version="1.0" encoding="utf-8"?>
<!-- Generator: Adobe Illustrator 19.1.0, SVG Export Plug-In . SVG Version: 6.00 Build 0)  -->
<svg version="1.1" id="Ebene_1" xmlns="http://www.w3.org/2000/svg" xmlns:xlink="http://www.w3.org/1999/xlink" x="0px" y="0px"
	 viewBox="-305.4 396.8 384.7 62.3" style="enable-background:new -305.4 396.8 384.7 62.3;" xml:space="preserve">
<style type="text/css">
	.st0{fill:#498AB8;}
	.st1{fill:#2D343E;}
</style>
<g id="text">
	<g id="app">
		<g id="a3">
			<path class="st0" d="M-212.8,458.9h-6.3l-0.1-0.4c-0.9-2.3-1.7-4.6-2.5-6.7c-0.7-2-1.4-3.9-2-5.8h-22.2c-0.7,1.9-1.5,3.9-2.2,5.9
				c-0.8,2.1-1.5,4.4-2.4,6.7l-0.1,0.4h-6l0.3-0.8c1.8-4.9,3.5-9.5,5.1-13.7c1.6-4.2,3.2-8.2,4.7-12c1.5-3.7,3-7.4,4.6-10.9
				c1.5-3.5,3.1-7,4.8-10.5l0.2-0.3h4.8l0.2,0.3c1.7,3.5,3.2,7,4.7,10.5c1.5,3.4,3,7.1,4.5,10.9s3.1,7.8,4.7,12
				c1.6,4.2,3.3,8.8,5.2,13.7V458.9z M-244.1,441h18.4c-1.6-4.4-3.2-8.5-4.8-12.2c-1.5-3.6-3-7.1-4.5-10.6c-1.5,3.5-3,7.1-4.4,10.7
				C-240.9,432.5-242.5,436.6-244.1,441z"/>
		</g>
		<g id="p2">
			<path class="st0" d="M-200.9,459h-5.8v-47.2l0.4-0.1c1.7-0.5,3.6-0.8,5.8-1c9.9-0.9,17.1,0.3,21.4,3.6c3.4,2.6,5.1,6.4,5.1,11.2
				c0,2.7-0.5,5.1-1.5,7.1s-2.4,3.6-4.3,4.8c-1.8,1.2-4.1,2.1-6.7,2.6s-5.5,0.8-8.8,0.8h-5.8V459L-200.9,459L-200.9,459z
				 M-200.9,435.6h5.3c2.5,0,4.7-0.1,6.7-0.4c1.9-0.3,3.6-0.8,5-1.6c1.3-0.7,2.4-1.8,3.1-3.1c0.7-1.3,1.1-3,1.1-5.1
				c0-2-0.4-3.6-1.2-4.9c-0.8-1.3-1.8-2.3-3.1-3c-1.3-0.8-2.8-1.3-4.5-1.6c-1.7-0.3-3.5-0.5-5.3-0.5c-1.7,0-3.1,0.1-4.3,0.2
				c-1,0.1-1.8,0.2-2.6,0.2v19.8H-200.9L-200.9,435.6z"/>
		</g>
		<g id="p1">
			<path class="st0" d="M-161.1,459h-5.8v-47.2l0.4-0.1c1.7-0.5,3.6-0.8,5.8-1c9.9-0.9,17.1,0.3,21.4,3.6c3.4,2.6,5.1,6.4,5.1,11.2
				c0,2.7-0.5,5.1-1.5,7.1s-2.4,3.6-4.3,4.8c-1.8,1.2-4.1,2.1-6.7,2.6c-2.6,0.5-5.5,0.8-8.8,0.8h-5.8V459L-161.1,459L-161.1,459z
				 M-161.1,435.6h5.3c2.5,0,4.7-0.1,6.7-0.4c1.9-0.3,3.6-0.8,5-1.6c1.3-0.7,2.4-1.8,3.1-3.1c0.7-1.3,1.1-3,1.1-5.1
				c0-2-0.4-3.6-1.2-4.9s-1.8-2.3-3.1-3c-1.3-0.8-2.8-1.3-4.5-1.6c-1.7-0.3-3.5-0.5-5.3-0.5c-1.7,0-3.1,0.1-4.3,0.2
				c-1,0.1-1.8,0.2-2.6,0.2v19.8H-161.1L-161.1,435.6z"/>
		</g>
	</g>
	<g id="arena">
		<g id="a2">
			<path class="st1" d="M-92.2,459h-6.3l-0.2-0.4c-0.9-2.3-1.7-4.5-2.5-6.7c-0.7-2-1.4-3.9-2-5.8h-22.2c-0.7,1.9-1.5,3.9-2.2,5.9
				c-0.8,2.1-1.5,4.4-2.4,6.7l-0.1,0.4h-6l0.3-0.8c1.8-4.9,3.5-9.5,5.1-13.7c1.6-4.2,3.2-8.2,4.7-12c1.5-3.7,3-7.4,4.6-10.9
				c1.5-3.5,3.1-7,4.8-10.5l0.2-0.3h4.8l0.2,0.3c1.7,3.5,3.2,7,4.7,10.5s3,7.1,4.5,10.9s3.1,7.8,4.7,12c1.6,4.2,3.3,8.8,5.2,13.7
				L-92.2,459z M-123.5,441h18.4c-1.6-4.3-3.2-8.5-4.8-12.2c-1.5-3.6-3-7.2-4.5-10.6c-1.5,3.5-3,7.1-4.4,10.7
				C-120.3,432.5-121.9,436.6-123.5,441z"/>
		</g>
		<g id="r">
			<path class="st1" d="M-50.7,459h-6.2l-0.2-0.3c-0.9-1.8-2-3.6-3.1-5.4c-1.1-1.8-2.3-3.6-3.4-5.2c-1.1-1.7-2.3-3.2-3.3-4.7
				l-2.7-3.5c-1.4,0.1-2.7,0.2-4.1,0.2h-7v19h-5.8v-47.3l0.4-0.1c1.7-0.5,3.6-0.8,5.8-1c2.2-0.2,4.3-0.3,6.1-0.3
				c6.6,0,11.6,1.3,15,3.8s5.2,6.4,5.2,11.3c0,3.7-1,6.6-2.9,8.7c-1.8,1.9-4,3.4-6.8,4.3c0.6,0.8,1.4,1.8,2.3,3
				c1.1,1.5,2.4,3.2,3.6,5.1c1.2,1.8,2.4,3.8,3.6,5.8c1.2,2,2.2,3.9,3,5.8L-50.7,459z M-80.6,434.9h5.8c2.1,0,4.1-0.1,6-0.3
				c1.8-0.2,3.4-0.6,4.8-1.3c1.3-0.6,2.3-1.6,3.1-2.8c0.8-1.2,1.1-2.9,1.1-5.1c0-2-0.4-3.6-1.1-4.9c-0.8-1.3-1.8-2.3-3-3
				c-1.2-0.8-2.7-1.3-4.3-1.6c-1.7-0.3-3.4-0.4-5.2-0.4c-1.7,0-3.2,0.1-4.5,0.2c-1,0.1-1.9,0.2-2.7,0.3V434.9L-80.6,434.9z"/>
		</g>
		<g id="e">
			<path class="st1" d="M-14.6,459h-30.1v-48.2h28.3v5.2h-22.5v15.2h20.1v5.1h-20.1v17.6h24.3V459L-14.6,459z"/>
		</g>
		<g id="n">
			<path class="st1" d="M29.6,459h-4.8l-0.2-0.3c-0.9-1.6-2-3.5-3.3-5.5c-1.3-2.1-2.8-4.4-4.4-6.8c-1.6-2.4-3.3-4.9-5-7.4
				s-3.5-5-5.2-7.5c-1.7-2.4-3.4-4.7-5.1-6.8c-1.2-1.6-2.4-3-3.4-4.2v38.6h-5.7v-48.3H-3l0.2,0.2c2.3,2.6,4.8,5.6,7.4,9
				c2.6,3.3,5.2,6.8,7.8,10.3c2.5,3.5,4.9,7,7.1,10.3c1.7,2.6,3.1,4.9,4.4,6.9v-36.7h5.7V459z"/>
		</g>
		<g id="a1">
			<path class="st1" d="M79.3,459H73l-0.1-0.4c-0.9-2.3-1.7-4.6-2.5-6.7c-0.7-2-1.4-3.9-2-5.8H46.2c-0.7,1.9-1.5,3.9-2.2,5.9
				c-0.8,2.1-1.5,4.4-2.4,6.7l-0.1,0.4h-6l0.3-0.8c1.8-4.9,3.5-9.5,5.1-13.7c1.6-4.2,3.2-8.2,4.7-12c1.5-3.7,3-7.4,4.6-10.9
				c1.5-3.5,3.1-7,4.8-10.5l0.2-0.3H60l0.2,0.3c1.7,3.5,3.2,7,4.7,10.5c1.5,3.4,3,7.1,4.5,10.9s3.1,7.8,4.7,12
				c1.5,4.1,3.3,8.8,5.2,13.7L79.3,459L79.3,459z M48,441h18.4c-1.6-4.3-3.2-8.4-4.8-12.2c-1.5-3.6-3-7.1-4.5-10.6
				c-1.5,3.5-3,7.1-4.4,10.7C51.2,432.5,49.7,436.6,48,441z"/>
		</g>
	</g>
</g>
<g id="ringe">
	<path id="innen" class="st0" d="M-280.8,410.8c-5.9,0-10.7,4.8-10.7,10.7s4.8,10.7,10.7,10.7s10.7-4.8,10.7-10.7
		S-274.8,410.8-280.8,410.8z"/>
	<path id="aussen" class="st1" d="M-280.8,396.8c-13.6,0-24.6,11.1-24.6,24.6c0,13.6,11.1,24.6,24.6,24.6
		c13.6,0,24.6-11.1,24.6-24.6C-256,407.9-267.2,396.8-280.8,396.8z M-280.8,441c-10.8,0-19.6-8.8-19.6-19.6
		c0-10.8,8.8-19.6,19.6-19.6s19.6,8.8,19.6,19.6C-261.1,432.2-270,441-280.8,441z"/>
</g>
</svg>
