<?xml version="1.0" standalone="no"?>
<!DOCTYPE svg PUBLIC "-//W3C//DTD SVG 1.1//EN" "http://www.w3.org/Graphics/SVG/1.1/DTD/svg11.dtd" >
<svg xmlns="http://www.w3.org/2000/svg">
<metadata>Generated by IcoMoon</metadata>
<defs>
<font id="app-arena-website" horiz-adv-x="1024">
<font-face units-per-em="1024" ascent="960" descent="-64" />
<missing-glyph horiz-adv-x="1024" />
<glyph unicode="&#x20;" horiz-adv-x="512" d="" />
<glyph unicode="&#x298;" glyph-name="mouse-click" d="M993.755 337.823c0 0 0 0 0 0-138.262 64.81-280.844 125.3-419.105 190.11l-112.338 51.848c-8.641 4.321-21.603 8.641-30.245 12.962-21.603 8.641-43.207 4.321-56.169-8.641-8.641-8.641-12.962-21.603-12.962-34.565s4.321-21.603 4.321-25.924l254.92-557.367c12.962-25.924 30.245-30.245 47.527-30.245 0 0 0 0 0 0 12.962 0 34.565 8.641 43.207 34.565l77.772 198.751 198.751 77.772c30.245 12.962 34.565 34.565 34.565 47.527 0 8.641-4.321 30.245-30.245 43.207zM756.118 221.165c-8.641-4.321-12.962-8.641-17.283-17.283l-73.451-177.148-220.354 488.236 103.696-47.527c129.62-60.489 259.241-116.658 388.861-177.148l-181.468-69.131zM349.975 234.127c-164.186 21.603-285.165 164.186-285.165 328.371 0 181.468 146.903 332.692 332.692 332.692 164.186 0 306.768-125.3 328.371-289.485 4.321-17.283 17.283-30.245 34.565-25.924s30.245 17.283 25.924 34.565c-25.924 194.43-194.43 345.654-393.181 345.654-216.034 0-393.181-177.148-393.181-397.502 0-194.43 146.903-367.257 341.333-393.181 0 0 4.321 0 4.321 0 17.283 0 30.245 12.962 30.245 25.924 4.321 21.603-8.641 38.886-25.924 38.886zM358.616 441.519c-51.848 12.962-86.414 60.489-86.414 125.3 0 69.131 56.169 125.3 125.3 125.3 60.489 0 112.338-34.565 125.3-86.414 4.321-17.283 21.603-30.245 38.886-25.924s30.245 21.603 25.924 38.886c-21.603 82.093-99.376 133.941-190.11 133.941-103.696 0-190.11-86.414-190.11-190.11 0-90.734 56.169-168.506 133.941-185.789 4.321 0 4.321 0 8.641 0 12.962 0 25.924 8.641 30.245 25.924s-4.321 34.565-21.603 38.886z" />
<glyph unicode="&#x2c4;" glyph-name="chevron-up" d="M712.533 392.533l-174.933 174.933c-17.067 17.067-42.667 17.067-59.733 0l-174.933-174.933c-17.067-17.067-17.067-42.667 0-59.733s42.667-17.067 59.733 0l145.067 145.067 145.067-145.067c17.067-17.067 42.667-17.067 59.733 0s17.067 42.667 0 59.733z" />
<glyph unicode="&#x2039;" glyph-name="chevron-left" d="M567.467 648.533l-174.933-174.933c-17.067-17.067-17.067-42.667 0-59.733l174.933-174.933c17.067-17.067 42.667-17.067 59.733 0s17.067 42.667 0 59.733l-145.067 149.333 145.067 145.067c17.067 17.067 17.067 42.667 0 59.733-17.067 12.8-42.667 12.8-59.733-4.267z" />
<glyph unicode="&#x203a;" glyph-name="chevron-right" d="M456.533 247.467l174.933 174.933c17.067 17.067 17.067 42.667 0 59.733l-174.933 174.933c-17.067 17.067-42.667 17.067-59.733 0s-17.067-42.667 0-59.733l145.067-145.067-145.067-145.067c-17.067-17.067-17.067-42.667 0-59.733s42.667-17.067 59.733 0z" />
<glyph unicode="&#x208b;" glyph-name="minus" d="M875.847 811.847c-100.221 95.864-226.587 148.153-366.026 148.153s-261.447-52.289-361.668-148.153c-200.443-200.443-200.443-522.894 0-723.336 95.864-95.864 226.587-148.153 361.668-148.153s265.804 52.289 361.668 148.153c200.443 196.085 200.443 522.894 4.357 723.336zM827.915 132.085c-82.791-82.791-196.085-130.723-313.736-130.723s-230.945 47.932-313.736 130.723c-174.298 174.298-174.298 457.532 0 631.83 82.791 82.791 196.085 130.723 313.736 130.723s230.945-47.932 313.736-130.723c174.298-174.298 174.298-457.532 0-631.83zM710.264 485.038h-400.885c-21.787 0-43.574-17.43-43.574-43.574s17.43-43.574 43.574-43.574h400.885c21.787 0 43.574 17.43 43.574 43.574s-21.787 43.574-43.574 43.574z" />
<glyph unicode="&#x20dd;" glyph-name="circle" d="M514.179-64c-283.234 0-514.179 230.945-514.179 509.821 0 283.234 230.945 514.179 514.179 514.179s514.179-230.945 514.179-514.179c-4.357-278.877-235.302-509.821-514.179-509.821zM514.179 894.638c-248.374 0-448.817-200.443-448.817-448.817 0-244.017 200.443-444.46 448.817-444.46s444.46 200.443 444.46 444.46c0 248.374-200.443 448.817-444.46 448.817z" />
<glyph unicode="&#x20ee;" glyph-name="log-out" horiz-adv-x="1325" d="M962.996 310.74c-17.43 4.357-34.86 0-43.574-17.43-65.362-169.94-235.302-287.591-413.957-287.591-244.017-4.357-440.102 196.085-440.102 444.46 0 244.017 196.085 444.46 440.102 444.46 178.655 0 348.596-117.651 413.957-287.591 4.357-17.43 26.145-26.145 43.574-17.43 17.43 4.357 26.145 26.145 17.43 43.574-74.077 191.728-270.162 326.809-474.962 326.809-278.877 0-505.464-230.945-505.464-509.821s226.587-514.179 505.464-514.179c204.8 0 400.885 135.081 474.962 331.166 8.715 17.43 0 34.86-17.43 43.574zM1324.664 445.821c0 4.357 0 8.715-4.357 13.072 0 4.357-4.357 4.357-4.357 8.715 0 0 0 0 0 4.357 0 0 0 0 0 0l-191.728 191.728c-13.072 13.072-34.86 13.072-47.932 0s-13.072-34.86 0-47.932l135.081-135.081h-601.328c-17.43 0-34.86-13.072-34.86-34.86s13.072-34.86 34.86-34.86h601.328l-135.081-135.081c-13.072-13.072-13.072-34.86 0-47.932 4.357-4.357 13.072-8.715 21.787-8.715s17.43 4.357 21.787 8.715l191.728 191.728c4.357 4.357 4.357 8.715 8.715 8.715 4.357 13.072 4.357 17.43 4.357 17.43z" />
<glyph unicode="&#x20ef;" glyph-name="log-in" horiz-adv-x="1207" d="M701.549 960c-209.157 0-405.243-135.081-479.319-331.166-4.357-17.43 4.357-34.86 21.787-43.574 17.43-4.357 34.86 0 43.574 17.43 65.362 169.94 235.302 287.591 413.957 287.591 244.017 0 440.102-200.443 440.102-444.46 0-248.374-196.085-448.817-440.102-448.817-178.655 0-348.596 117.651-413.957 287.591-8.715 21.787-26.145 30.502-43.574 21.787-17.43-4.357-26.145-26.145-17.43-43.574 74.077-196.085 270.162-331.166 474.962-331.166 278.877 0 505.464 230.945 505.464 514.179s-226.587 514.179-505.464 514.179zM501.106 280.238c-13.072-13.072-13.072-34.86 0-47.932 4.357-4.357 13.072-8.715 21.787-8.715s17.43 4.357 21.787 8.715l191.728 191.728c4.357 4.357 4.357 8.715 8.715 8.715 4.357 8.715 4.357 17.43 0 26.145 0 4.357-4.357 8.715-8.715 8.715l-191.728 191.728c-13.072 13.072-34.86 13.072-47.932 0s-13.072-34.86 0-47.932l135.081-135.081h-596.97c-21.787 4.357-34.86-8.715-34.86-26.145s13.072-34.86 34.86-34.86h601.328l-135.081-135.081z" />
<glyph unicode="&#x2139;" glyph-name="info-circle" d="M512-64c-281.6 0-512 230.4-512 512s230.4 512 512 512 512-230.4 512-512c0-281.6-230.4-512-512-512zM512 896c-247.467 0-448-200.533-448-448s200.533-448 448-448 448 200.533 448 448c0 247.467-200.533 448-448 448zM571.733 644.267c0-21.333-4.267-34.133-17.067-42.667-8.533-8.533-25.6-12.8-46.933-12.8-17.067 0-34.133 4.267-42.667 17.067s-17.067 25.6-17.067 42.667c0 17.067 4.267 34.133 17.067 42.667s29.867 12.8 46.933 12.8c21.333 0 34.133-4.267 42.667-17.067 12.8-8.533 17.067-21.333 17.067-42.667zM469.333 529.067h85.333l17.067-337.067h-119.467l17.067 337.067z" />
<glyph unicode="&#x2192;" glyph-name="arrow-right" d="M648.533 200.533l226.133 226.133c4.267 4.267 4.267 8.533 8.533 8.533 4.267 8.533 4.267 17.067 0 25.6 0 4.267-4.267 8.533-8.533 8.533l-221.867 221.867c-12.8 12.8-34.133 12.8-46.933 0-4.267-4.267-8.533-12.8-8.533-21.333s4.267-17.067 8.533-21.333l166.4-166.4h-601.6c-17.067 0-34.133-12.8-34.133-34.133s12.8-34.133 34.133-34.133h605.867l-170.667-170.667c-8.533-4.267-8.533-12.8-8.533-21.333s4.267-17.067 8.533-21.333c12.8-12.8 29.867-12.8 42.667 0z" />
<glyph unicode="&#x21e2;" glyph-name="arrow-right-circle" d="M458.667 256c-12.8-12.8-12.8-34.133 0-46.933s34.133-12.8 44.8 0l217.6 219.733c6.4 6.4 8.533 14.933 8.533 23.467s-2.133 17.067-8.533 23.467l-215.467 219.733c-12.8 12.8-34.133 12.8-44.8 0v0c-12.8-12.8-12.8-34.133-2.133-46.933l162.133-164.267h-588.8c-17.067 0-32-14.933-32-32s14.933-32 32-32h588.8l-162.133-164.267zM524.8 960c-234.667 0-430.933-170.667-484.267-384h64c51.2 170.667 219.733 320 420.267 320 241.067 0 435.2-198.4 435.2-441.6s-194.133-454.4-435.2-454.4c-202.667 0-373.333 149.333-422.4 320h-64c49.067-213.333 249.6-384 486.4-384 275.2 0 499.2 234.667 499.2 512s-224 512-499.2 512z" />
<glyph unicode="&#x2295;" glyph-name="plus" horiz-adv-x="1028" d="M879.59 811.214c-201.299 201.299-525.128 201.299-726.427 0-100.65-96.274-153.162-227.556-153.162-363.214s52.513-266.94 148.786-363.214c100.65-100.65 231.932-148.786 363.214-148.786s262.564 48.137 363.214 148.786c96.274 96.274 148.786 223.179 148.786 363.214 4.376 135.658-48.137 266.94-144.41 363.214zM831.453 132.923c-175.043-175.043-459.487-175.043-634.53 0-83.145 83.145-131.282 196.923-131.282 315.077s48.137 231.932 131.282 315.077c87.521 87.521 201.299 131.282 315.077 131.282s231.932-43.761 315.077-131.282c83.145-83.145 131.282-196.923 131.282-315.077 4.376-118.154-43.761-231.932-126.906-315.077zM713.299 487.385h-157.538v157.538c0 21.88-17.504 43.761-43.761 43.761s-43.761-17.504-43.761-43.761v-157.538h-157.538c-21.88 0-43.761-17.504-43.761-43.761v0c0-21.88 17.504-43.761 43.761-43.761h157.538v-157.538c0-21.88 17.504-43.761 43.761-43.761s43.761 17.504 43.761 43.761v157.538h157.538c21.88 0 43.761 17.504 43.761 43.761v0c-4.376 26.256-21.88 43.761-43.761 43.761z" />
<glyph unicode="&#x2297;" glyph-name="close" d="M514.179 960c-283.234 0-514.179-230.945-514.179-514.179s230.945-514.179 514.179-514.179 514.179 230.945 514.179 514.179-235.302 514.179-514.179 514.179zM514.179 1.362c-248.374 0-448.817 200.443-448.817 444.46s200.443 448.817 448.817 448.817 444.46-200.443 444.46-448.817-200.443-444.46-444.46-444.46zM684.119 615.762v0c-17.43 17.43-43.574 17.43-61.004 0l-113.294-113.294-108.936 113.294c-17.43 17.43-43.574 17.43-61.004 0v0c-17.43-17.43-17.43-43.574 0-61.004l113.294-113.294-113.294-113.294c-17.43-17.43-17.43-43.574 0-61.004s43.574-17.43 61.004 0l113.294 113.294 113.294-113.294c17.43-17.43 43.574-17.43 61.004 0s17.43 43.574 0 61.004l-113.294 113.294 113.294 113.294c13.072 17.43 13.072 43.574-4.357 61.004z" />
<glyph unicode="&#x2304;" glyph-name="chevron-down" d="M311.467 503.467l174.933-174.933c17.067-17.067 42.667-17.067 59.733 0l174.933 174.933c17.067 17.067 17.067 42.667 0 59.733s-42.667 17.067-59.733 0l-149.333-145.067-145.067 145.067c-17.067 17.067-42.667 17.067-59.733 0-12.8-17.067-12.8-42.667 4.267-59.733z" />
<glyph unicode="&#x25e8;" glyph-name="grid-two" d="M514.179-64c-283.234 0-514.179 230.945-514.179 509.821 0 283.234 230.945 514.179 514.179 514.179s514.179-230.945 514.179-514.179c-4.357-278.877-235.302-509.821-514.179-509.821zM514.179 894.638c-248.374 0-448.817-200.443-448.817-448.817 0-244.017 200.443-444.46 448.817-444.46s444.46 200.443 444.46 444.46c0 248.374-200.443 448.817-444.46 448.817zM444.46 471.966h-130.723c-26.145 0-43.574 17.43-43.574 43.574v148.153c0 26.145 17.43 43.574 43.574 43.574h130.723c21.787 0 43.574-17.43 43.574-43.574v-148.153c0-26.145-17.43-43.574-43.574-43.574zM705.906 471.966h-130.723c-26.145 0-43.574 17.43-43.574 43.574v148.153c0 26.145 17.43 43.574 43.574 43.574h130.723c26.145 0 43.574-17.43 43.574-43.574v-148.153c0-26.145-17.43-43.574-43.574-43.574zM444.46 188.732h-130.723c-26.145 0-43.574 17.43-43.574 43.574v148.153c0 26.145 17.43 43.574 43.574 43.574h130.723c21.787 0 43.574-17.43 43.574-43.574v-148.153c0-21.787-17.43-43.574-43.574-43.574zM705.906 188.732h-130.723c-26.145 0-43.574 17.43-43.574 43.574v148.153c0 26.145 17.43 43.574 43.574 43.574h130.723c26.145 0 43.574-17.43 43.574-43.574v-148.153c0-21.787-17.43-43.574-43.574-43.574z" />
<glyph unicode="&#x2601;" glyph-name="cloud-upload" horiz-adv-x="1181" d="M919.421 158.23h-135.081c-17.43 0-34.86 13.072-34.86 34.86s13.072 34.86 34.86 34.86h135.081c108.936 0 196.085 87.149 196.085 196.085 0 113.294-117.651 196.085-222.23 196.085-8.715 0-30.502-4.357-82.791-26.145-8.715-4.357-21.787-4.357-30.502 4.357s-13.072 17.43-13.072 30.502c0 8.715 0 17.43 0 21.787 0 139.438-113.294 248.374-248.374 248.374s-257.089-117.651-257.089-252.732c0-8.715-4.357-21.787-8.715-26.145-4.357-8.715-13.072-13.072-21.787-13.072-113.294 0-165.583-95.864-165.583-191.728 0-104.579 87.149-191.728 191.728-191.728h143.796c17.43 0 34.86-13.072 34.86-34.86s-13.072-34.86-34.86-34.86h-143.796c-143.796 0-257.089 113.294-257.089 257.089s78.434 244.017 200.443 257.089c13.072 165.583 148.153 291.949 313.736 291.949s305.021-130.723 313.736-296.306c26.145 8.715 47.932 13.072 65.362 13.072 135.081 0 287.591-113.294 287.591-261.447 0-143.796-117.651-257.089-261.447-257.089zM588.255-64c-17.43 0-34.86 13.072-34.86 34.86v496.749l-130.723-130.723c-13.072-13.072-34.86-13.072-47.932 0s-13.072 34.86 0 47.932l191.728 187.37c8.715 8.715 21.787 13.072 34.86 8.715 8.715-4.357 13.072-8.715 17.43-13.072l183.013-183.013c13.072-13.072 13.072-34.86 0-47.932s-34.86-13.072-47.932 0l-130.723 130.723v-501.106c0-17.43-17.43-30.502-34.86-30.502z" />
<glyph unicode="&#x2605;" glyph-name="star" horiz-adv-x="1068" d="M252.732-64c-17.43 0-30.502 4.357-47.932 13.072-26.145 17.43-34.86 47.932-30.502 78.434l43.574 265.804c0 4.357 0 8.715-4.357 13.072l-191.728 187.37c-21.787 21.787-30.502 52.289-21.787 82.791s34.86 47.932 65.362 52.289l265.804 39.217c4.357 0 8.715 4.357 8.715 8.715l122.009 239.66c13.072 26.145 39.217 43.574 69.719 43.574s56.647-17.43 69.719-43.574l117.651-239.66c0-4.357 4.357-8.715 8.715-8.715l274.519-39.217c30.502-4.357 52.289-26.145 65.362-52.289 8.715-30.502 0-61.004-21.787-82.791l-196.085-187.37c-4.357-4.357-4.357-8.715-4.357-13.072l43.574-265.804c4.357-30.502-8.715-61.004-30.502-78.434-26.145-17.43-56.647-21.787-82.791-4.357l-239.66 126.366c-4.357 0-8.715 0-13.072 0l-239.66-126.366c-4.357-4.357-17.43-8.715-30.502-8.715zM535.966 894.638c-4.357 0-8.715 0-13.072-8.715l-122.009-239.66c-8.715-26.145-30.502-39.217-56.647-43.574l-265.804-39.217c-8.715 0-8.715-4.357-13.072-8.715 0-4.357 0-8.715 4.357-13.072l191.728-187.37c17.43-17.43 26.145-43.574 21.787-69.719l-43.574-265.804c0-8.715 4.357-13.072 4.357-13.072 4.357 0 8.715-4.357 13.072 0l239.66 126.366c21.787 13.072 52.289 13.072 74.077 0l239.66-126.366c8.715-4.357 13.072 0 13.072 0 4.357 0 8.715 4.357 4.357 13.072l-43.574 265.804c-4.357 26.145 4.357 52.289 21.787 69.719l191.728 187.37c4.357 4.357 4.357 8.715 4.357 13.072s-4.357 8.715-13.072 8.715l-265.804 39.217c-26.145 4.357-47.932 21.787-61.004 43.574l-117.651 239.66c0 8.715-8.715 8.715-8.715 8.715z" />
<glyph unicode="&#x2661;" glyph-name="heart" horiz-adv-x="1198" d="M592.613-64c-26.145 0-56.647 4.357-82.791 17.43-148.153 65.362-496.749 261.447-509.821 627.472v17.43c4.357 196.085 165.583 361.668 348.596 361.668 91.506 0 183.013-39.217 248.374-113.294 69.719 74.077 156.868 113.294 248.374 113.294 187.37 0 348.596-165.583 348.596-361.668v-21.787c-13.072-366.026-370.383-557.753-522.894-623.115-21.787-13.072-47.932-17.43-78.434-17.43zM348.596 894.638c-152.511 0-283.234-135.081-283.234-296.306v-17.43c13.072-326.809 335.523-505.464 474.962-570.826 34.86-17.43 74.077-17.43 108.936 0 139.438 61.004 470.604 239.66 483.677 566.468v17.43c-4.357 161.226-135.081 296.306-283.234 296.306-82.791 0-165.583-43.574-222.23-117.651l-30.502-30.502-26.145 34.86c-56.647 74.077-135.081 117.651-222.23 117.651z" />
<glyph unicode="&#x2665;" glyph-name="heart-filled" horiz-adv-x="1210" d="M1210.182 610.909c-4.655 186.182-153.6 349.091-339.782 349.091-107.055 0-200.145-55.855-265.309-139.636-60.509 83.782-158.255 139.636-265.309 139.636-186.182 0-335.127-167.564-339.782-349.091 0 0 0-13.964 0-18.618 13.964-367.709 372.364-567.855 525.964-637.673 46.545-18.618 97.745-18.618 144.291 0 158.255 69.818 521.309 269.964 535.273 637.673 0 0 4.655 18.618 4.655 18.618z" />
<glyph unicode="&#x2691;" glyph-name="flag" d="M936.851 851.064h-87.149c-13.072 61.004-69.719 108.936-139.438 108.936h-566.468c-69.719 0-126.366-47.932-139.438-113.294-4.357-4.357-4.357-8.715-4.357-13.072v-862.774c0-17.43 13.072-34.86 34.86-34.86s34.86 13.072 34.86 34.86v435.745h579.54v-26.145c0-26.145 13.072-47.932 30.502-65.362 0 0 0 0 0 0s0 0 0 0c13.072-13.072 34.86-17.43 52.289-17.43h209.157c47.932 0 87.149 39.217 87.149 87.149v379.098c-4.357 47.932-43.574 87.149-91.506 87.149zM65.362 816.204c0 43.574 34.86 78.434 78.434 78.434h570.826c43.574 0 78.434-34.86 78.434-78.434v0-270.162c0-43.574-34.86-78.434-78.434-78.434h-644.902v348.596zM710.264 402.247h4.357l-8.715-8.715 4.357 8.715zM958.638 380.46c0-13.072-8.715-21.787-21.787-21.787h-178.655l65.362 69.719c0 0 4.357 4.357 4.357 4.357v0c0 0 0 0 0 0 13.072 13.072 21.787 34.86 21.787 56.647v296.306h87.149c13.072 0 21.787-13.072 21.787-21.787v-383.455z" />
<glyph unicode="&#x2699;" glyph-name="cog" d="M989.867 554.667c-8.533 8.533-21.333 12.8-34.133 12.8h-55.467c-4.267 12.8-8.533 29.867-17.067 42.667l38.4 38.4c12.8 12.8 17.067 29.867 17.067 46.933s-8.533 34.133-17.067 46.933l-106.667 106.667c-25.6 25.6-64 25.6-89.6 0l-38.4-38.4h-4.267c-8.533 4.267-17.067 8.533-29.867 12.8 0 0 0 0 0 0v55.467c0 29.867-34.133 81.067-72.533 81.067h-140.8c-38.4 0-72.533-46.933-72.533-81.067v-55.467c-8.533-4.267-17.067-8.533-25.6-12.8v-4.267l-42.667 42.667c-25.6 25.6-64 25.6-89.6 0l-106.667-110.933c-25.6-25.6-25.6-64 0-89.6l38.4-38.4c-8.533-12.8-12.8-25.6-17.067-42.667h-55.467c-12.8 0-25.6-4.267-34.133-12.8-12.8-12.8-12.8-29.867-12.8-46.933v-153.6c0-17.067 0-38.4 17.067-55.467 8.533-8.533 21.333-12.8 34.133-12.8h55.467c4.267-12.8 8.533-21.333 17.067-29.867l-38.4-38.4c-12.8-12.8-17.067-29.867-17.067-42.667 0-17.067 8.533-34.133 17.067-42.667l106.667-106.667c12.8-12.8 29.867-17.067 46.933-17.067s34.133 8.533 46.933 17.067l38.4 38.4 8.533-4.267c8.533-4.267 12.8-8.533 21.333-8.533 0 0 0 0 0 0v-55.467c0-12.8 4.267-25.6 12.8-34.133 8.533-25.6 25.6-25.6 42.667-25.6 4.267 0 4.267 0 8.533 0h98.133c0 0 0 0 0 0s0 0 0 0h51.2c0 0 4.267 0 8.533 0 17.067 0 34.133 0 46.933 17.067 8.533 8.533 12.8 21.333 12.8 34.133v55.467c8.533 4.267 12.8 4.267 21.333 8.533l8.533 4.267 38.4-38.4c25.6-25.6 64-25.6 89.6 0l106.667 106.667c25.6 25.6 25.6 64 0 89.6l-38.4 38.4c4.267 12.8 8.533 21.333 12.8 34.133h55.467c12.8 0 25.6 4.267 34.133 12.8 17.067 17.067 17.067 38.4 17.067 55.467v153.6c0 17.067 0 34.133-12.8 46.933zM938.667 354.133c0-4.267 0-4.267 0 0l-38.4-4.267c-29.867 0-51.2-12.8-59.733-38.4-4.267-12.8-8.533-21.333-12.8-34.133-12.8-25.6-8.533-51.2 12.8-72.533l38.4-38.4-106.667-102.4-38.4 38.4c-17.067 17.067-46.933 25.6-72.533 12.8l-12.8-8.533c-4.267-4.267-12.8-4.267-17.067-8.533-25.6-8.533-38.4-29.867-38.4-59.733v-38.4c0 0 0 0 0 0h-55.467c0 0 0 0 0 0s0 0 0 0h-98.133c0 0 0 0 0 0v38.4c0 29.867-12.8 51.2-38.4 59.733-12.8 4.267-17.067 8.533-25.6 8.533l-12.8 4.267c-25.6 12.8-55.467 8.533-72.533-12.8l-34.133-34.133-106.667 106.667 38.4 38.4c17.067 17.067 25.6 46.933 12.8 72.533-4.267 8.533-8.533 21.333-12.8 29.867-8.533 25.6-29.867 38.4-59.733 38.4h-42.667c0 0 0 4.267 0 4.267v145.067h38.4c25.6 0 51.2 17.067 59.733 46.933 4.267 12.8 8.533 25.6 12.8 34.133 12.8 25.6 8.533 55.467-12.8 72.533l-34.133 42.667 106.667 106.667 38.4-38.4c17.067-17.067 46.933-25.6 72.533-12.8h4.267c4.267 4.267 12.8 8.533 25.6 12.8 25.6 8.533 38.4 29.867 38.4 59.733v55.467c0 4.267 8.533 12.8 12.8 17.067h132.267c4.267-4.267 8.533-12.8 12.8-12.8v-55.467c0-29.867 12.8-51.2 38.4-59.733 8.533-4.267 17.067-8.533 25.6-12.8h4.267c25.6-12.8 51.2-8.533 72.533 12.8l34.133 34.133 106.667-106.667-38.4-38.4c-17.067-17.067-25.6-46.933-12.8-72.533 4.267-12.8 8.533-25.6 12.8-34.133 8.533-25.6 34.133-46.933 59.733-46.933h42.667v-149.333zM512 614.4c-93.867 0-166.4-76.8-166.4-166.4s76.8-166.4 166.4-166.4c17.067 0 34.133 12.8 34.133 34.133 0 17.067-12.8 34.133-34.133 34.133-55.467 0-102.4 46.933-102.4 102.4s46.933 102.4 102.4 102.4 102.4-46.933 102.4-102.4c0-17.067 12.8-34.133 34.133-34.133s34.133 12.8 34.133 34.133c-4.267 89.6-76.8 162.133-170.667 162.133z" />
<glyph unicode="&#x270e;" glyph-name="pencil" d="M993.498 811.847l-122.009 122.009c-34.86 34.86-100.221 34.86-135.081 0l-666.689-666.689c-17.43-17.43-30.502-43.574-34.86-69.719l-34.86-183.013c-4.357-17.43 4.357-39.217 21.787-56.647 13.072-13.072 30.502-21.787 47.932-21.787 4.357 0 4.357 0 8.715 0l183.013 34.86c26.145 4.357 52.289 17.43 69.719 34.86l662.332 666.689c39.217 39.217 39.217 100.221 0 139.438zM771.268 872.851l13.072 13.072c13.072 13.072 30.502 13.072 43.574 0l122.009-122.009c13.072-13.072 13.072-30.502 0-43.574l-13.072-13.072-165.583 165.583zM69.719 1.362c-4.357 4.357-4.357 4.357 0 0l26.145 161.226 130.723-130.723-156.868-30.502zM287.591 62.366l-165.583 165.583 601.328 596.97 165.583-165.583-601.328-596.97z" />
<glyph unicode="&#x2710;" glyph-name="pencil-circle" horiz-adv-x="1020" d="M309.782 417.882l-25.815-129.076c0-17.21 4.303-34.42 17.21-47.328s25.815-17.21 38.723-17.21c4.303 0 4.303 0 8.605 0l129.076 25.815c21.513 4.303 38.723 12.908 51.63 25.815l473.277 468.975c25.815 38.723 25.815 90.353-8.605 124.773l-60.235 60.235c-34.42 34.42-86.050 34.42-124.773 8.605v0l-464.672-464.672c-21.513-17.21-30.118-34.42-34.42-55.933zM882.017 882.555l64.538-60.235c8.605-8.605 12.908-21.513 8.605-30.118l-98.958 98.958c8.605 4.303 21.513 0 25.815-8.605zM365.714 370.555l68.84-68.84-81.748-17.21 12.908 86.050zM804.571 848.134l103.261-103.261-413.042-413.042-103.261 103.261 413.042 413.042zM1006.79 572.773c-4.303 17.21-21.513 25.815-38.723 21.513s-25.815-21.513-21.513-38.723c38.723-154.891-4.303-314.084-116.168-425.95-172.101-172.101-456.067-172.101-632.471 0-172.101 172.101-172.101 456.067 0 632.471 111.866 111.866 271.059 154.891 421.647 116.168 17.21-4.303 34.42 4.303 38.723 21.513s-4.303 34.42-21.513 38.723c-176.403 43.025-357.109-8.605-481.882-133.378-197.916-197.916-197.916-524.908 0-722.824 98.958-98.958 232.336-150.588 361.412-150.588s262.454 51.63 361.412 150.588c120.471 133.378 172.101 318.387 129.076 490.487z" />
<glyph unicode="&#x2714;" glyph-name="check" d="M514.179 960c-283.234 0-514.179-230.945-514.179-514.179s230.945-514.179 514.179-514.179c283.234 0 514.179 230.945 514.179 514.179-4.357 283.234-235.302 514.179-514.179 514.179zM514.179 1.362c-248.374 0-448.817 200.443-448.817 444.46 0 248.374 200.443 448.817 448.817 448.817 244.017 0 444.46-200.443 444.46-448.817 0-244.017-200.443-444.46-444.46-444.46zM697.191 607.047l-252.732-252.732-113.294 113.294c-17.43 17.43-43.574 17.43-61.004 0s-17.43-43.574 0-61.004l143.796-143.796c0 0 0 0 0 0 8.715-8.715 17.43-13.072 30.502-13.072 8.715 0 21.787 4.357 30.502 13.072 0 0 0 0 0 0l283.234 283.234c17.43 17.43 17.43 43.574 0 61.004s-43.574 17.43-61.004 0z" />
<glyph unicode="&#x2b9c;" glyph-name="slider-arrow-left" horiz-adv-x="529" d="M4.763 458.319l496.918 496.918c6.35 6.35 15.876 6.35 22.226 0s6.35-15.876 0-22.226l-485.805-485.805 485.805-484.217c6.35-6.35 6.35-15.876 0-22.226-3.175-3.175-7.938-4.763-11.113-4.763s-7.938 1.588-11.113 4.763l-496.918 495.33c-6.35 6.35-6.35 15.876 0 22.226z" />
<glyph unicode="&#x2b9e;" glyph-name="slider-arrow-right" horiz-adv-x="529" d="M523.907 458.319l-496.918 496.918c-6.35 6.35-15.876 6.35-22.226 0s-6.35-15.876 0-22.226l485.805-485.805-485.805-484.217c-6.35-6.35-6.35-15.876 0-22.226 3.175-3.175 7.938-4.763 11.113-4.763s7.938 1.588 11.113 4.763l496.918 495.33c6.35 6.35 6.35 15.876 0 22.226z" />
<glyph unicode="&#xa81f;" glyph-name="grid-full" d="M509.821-64c-278.877 0-509.821 230.945-509.821 509.821 0 283.234 230.945 514.179 509.821 514.179s514.179-230.945 514.179-514.179c0-278.877-230.945-509.821-514.179-509.821zM509.821 894.638c-244.017 0-444.46-200.443-444.46-448.817 0-244.017 200.443-444.46 444.46-444.46 248.374 0 448.817 200.443 448.817 444.46 0 248.374-200.443 448.817-448.817 448.817zM705.906 467.609h-387.813c-26.145 0-43.574 17.43-43.574 43.574v152.511c0 26.145 17.43 43.574 43.574 43.574h387.813c26.145 0 43.574-17.43 43.574-43.574v-148.153c0-26.145-17.43-47.932-43.574-47.932zM705.906 188.732h-387.813c-26.145 0-43.574 21.787-43.574 43.574v148.153c0 21.787 17.43 43.574 43.574 43.574h387.813c26.145 0 43.574-21.787 43.574-43.574v-148.153c0-21.787-17.43-43.574-43.574-43.574z" />
<glyph unicode="&#xe900;" glyph-name="browser" d="M917.333 908.8h-810.667c-59.733 0-106.667-46.933-106.667-106.667v-708.267c0-59.733 46.933-106.667 106.667-106.667h806.4c59.733 0 106.667 46.933 106.667 106.667v708.267c4.267 59.733-42.667 106.667-102.4 106.667zM106.667 849.067h806.4c25.6 0 51.2-21.333 51.2-51.2v-132.267h-904.533v136.533c0 25.6 21.333 46.933 46.933 46.933zM917.333 46.933h-810.667c-25.6 0-51.2 21.333-51.2 51.2v533.333h904.533v-537.6c4.267-25.6-17.067-46.933-42.667-46.933zM200.533 759.467c0-23.564-19.103-42.667-42.667-42.667s-42.667 19.103-42.667 42.667c0 23.564 19.103 42.667 42.667 42.667s42.667-19.103 42.667-42.667zM320 759.467c0-23.564-19.103-42.667-42.667-42.667s-42.667 19.103-42.667 42.667c0 23.564 19.103 42.667 42.667 42.667s42.667-19.103 42.667-42.667zM439.467 759.467c0-23.564-19.103-42.667-42.667-42.667s-42.667 19.103-42.667 42.667c0 23.564 19.103 42.667 42.667 42.667s42.667-19.103 42.667-42.667z" />
<glyph unicode="&#xe901;" glyph-name="arrow-down" d="M264.533 311.467l226.133-226.133c4.267-4.267 8.533-4.267 8.533-8.533 8.533-4.267 17.067-4.267 25.6 0 4.267 0 8.533 4.267 8.533 8.533l221.867 221.867c12.8 12.8 12.8 34.133 0 46.933-4.267 4.267-12.8 8.533-21.333 8.533s-17.067-4.267-21.333-8.533l-166.4-166.4v601.6c0 17.067-12.8 34.133-34.133 34.133s-29.867-17.067-29.867-34.133v-605.867l-170.667 170.667c-8.533 8.533-17.067 8.533-25.6 8.533s-12.8 0-21.333-8.533c-12.8-12.8-12.8-29.867 0-42.667z" />
<glyph unicode="&#xe902;" glyph-name="arrow-left" d="M375.467 695.467l-226.133-226.133c-4.267-4.267-4.267-8.533-8.533-8.533-4.267-8.533-4.267-17.067 0-25.6 0-4.267 4.267-8.533 8.533-8.533l221.867-221.867c12.8-12.8 34.133-12.8 46.933 0 4.267 4.267 8.533 12.8 8.533 21.333s-4.267 17.067-8.533 21.333l-166.4 166.4h601.6c17.067 0 34.133 12.8 34.133 34.133s-12.8 34.133-34.133 34.133h-605.867l170.667 170.667c8.533 4.267 8.533 12.8 8.533 21.333s0 12.8-8.533 21.333c-12.8 12.8-29.867 12.8-42.667 0z" />
<glyph unicode="&#xe903;" glyph-name="arrow-up" d="M759.467 584.533l-226.133 226.133c-4.267 4.267-8.533 4.267-8.533 8.533-8.533 4.267-17.067 4.267-25.6 0-4.267 0-8.533-4.267-8.533-8.533l-226.133-221.867c-12.8-12.8-12.8-29.867 0-42.667 4.267-4.267 12.8-8.533 21.333-8.533s17.067 4.267 21.333 8.533l166.4 166.4v-605.867c0-17.067 12.8-34.133 34.133-34.133s34.133 12.8 34.133 34.133v605.867l170.667-170.667c4.267-4.267 12.8-8.533 21.333-8.533s17.067 4.267 21.333 8.533c17.067 12.8 17.067 29.867 4.267 42.667z" />
<glyph unicode="&#xe904;" glyph-name="balance-scale" d="M840.987 1.362h-296.306v714.621h252.732l-100.221-322.451c-4.357-17.43 4.357-34.86 21.787-39.217 4.357 0 4.357 0 8.715 0 13.072 0 26.145 8.715 30.502 21.787l82.791 265.804 82.791-265.804c4.357-13.072 17.43-21.787 30.502-21.787 4.357 0 4.357 0 8.715 0 17.43 4.357 26.145 21.787 21.787 39.217l-100.221 322.451h43.574c17.43 0 34.86 13.072 34.86 34.86s-13.072 34.86-34.86 34.86h-387.813v139.438c0 17.43-13.072 34.86-34.86 34.86s-26.145-13.072-26.145-34.86v-143.796h-387.813c-17.43 0-34.86-13.072-34.86-34.86s13.072-34.86 34.86-34.86h43.574l-95.864-318.094c-4.357-17.43 4.357-34.86 21.787-39.217 4.357 0 4.357 0 8.715 0 13.072 0 26.145 8.715 30.502 21.787l82.791 265.804 82.791-265.804c4.357-17.43 17.43-26.145 30.502-26.145 4.357 0 4.357 0 8.715 0 17.43 4.357 26.145 21.787 21.787 39.217l-100.221 326.809h252.732v-714.621h-296.306c-17.43 0-34.86-13.072-34.86-34.86s13.072-34.86 34.86-34.86h657.974c17.43 0 34.86 13.072 34.86 34.86s-17.43 34.86-34.86 34.86zM989.14 323.813h-300.664c-17.43 0-34.86-13.072-34.86-34.86s13.072-34.86 34.86-34.86h8.715c17.43-56.647 74.077-95.864 139.438-95.864 69.719 0 126.366 39.217 139.438 95.864h8.715c17.43 0 34.86 13.072 34.86 34.86s-8.715 34.86-30.502 34.86zM840.987 227.949c-30.502 0-56.647 13.072-69.719 30.502h139.438c-13.072-17.43-39.217-30.502-69.719-30.502zM183.013 162.587c69.719 0 126.366 39.217 139.438 95.864h8.715c17.43 0 34.86 13.072 34.86 34.86s-17.43 30.502-34.86 30.502h-296.306c-17.43 0-34.86-13.072-34.86-34.86s13.072-34.86 34.86-34.86h8.715c13.072-47.932 69.719-91.506 139.438-91.506zM252.732 258.451c-13.072-17.43-39.217-30.502-69.719-30.502s-56.647 13.072-69.719 30.502h139.438z" />
<glyph unicode="&#xe905;" glyph-name="bar-chart" horiz-adv-x="954" d="M361.668 84.153h-135.081c-43.574 0-78.434 34.86-78.434 78.434v479.319c0 43.574 34.86 78.434 78.434 78.434h135.081c43.574 0 78.434-34.86 78.434-78.434v-483.677c-4.357-39.217-39.217-74.077-78.434-74.077zM226.587 654.979c-8.715 0-13.072-4.357-13.072-13.072v-483.677c0-4.357 4.357-13.072 13.072-13.072h135.081c4.357 0 13.072 4.357 13.072 13.072v483.677c-4.357 8.715-8.715 13.072-13.072 13.072h-135.081zM732.051 84.153h-135.081c-43.574 0-78.434 34.86-78.434 78.434v718.979c0 43.574 34.86 78.434 78.434 78.434h135.081c43.574 0 78.434-34.86 78.434-78.434v-723.336c-4.357-39.217-39.217-74.077-78.434-74.077zM596.97 894.638c-4.357 0-13.072-4.357-13.072-13.072v-723.336c0-4.357 4.357-13.072 13.072-13.072h135.081c4.357 0 13.072 4.357 13.072 13.072v723.336c0 4.357-4.357 13.072-13.072 13.072h-135.081zM923.779-64h-888.919c-17.43 0-34.86 13.072-34.86 34.86s13.072 30.502 34.86 30.502h888.919c17.43 0 34.86-13.072 34.86-34.86s-17.43-30.502-34.86-30.502z" />
<glyph unicode="&#xe906;" glyph-name="bell" horiz-adv-x="1386" d="M1032.715 227.949c-26.145 65.362-61.004 204.8-91.506 505.464v17.43c-17.43 122.009-117.651 209.157-248.374 209.157-135.081 0-235.302-87.149-248.374-213.515v-17.43c-34.86-296.306-69.719-435.745-95.864-501.106 0 0 0-4.357 0-4.357s0-4.357 0-4.357c0-26.145 0-65.362 344.238-65.362s344.238 39.217 344.238 65.362c0 0 0 4.357 0 4.357-4.357 0-4.357 0-4.357 4.357zM418.315 232.306c34.86 104.579 61.004 265.804 87.149 492.391v17.43c13.072 95.864 82.791 156.868 183.013 156.868s174.298-61.004 183.013-156.868v-13.072c21.787-222.23 52.289-387.813 87.149-492.391-39.217-8.715-126.366-17.43-270.162-17.43s-230.945 4.357-270.162 13.072zM775.626 97.226h-165.583c-13.072 0-26.145-4.357-34.86-17.43s-13.072-26.145-8.715-39.217c13.072-61.004 65.362-104.579 126.366-104.579s108.936 39.217 126.366 104.579c4.357 13.072 0 30.502-8.715 39.217-13.072 8.715-26.145 17.43-34.86 17.43zM692.834 1.362c-21.787 0-39.217 8.715-52.289 30.502h100.221c-8.715-21.787-26.145-30.502-47.932-30.502zM130.723 659.336c-13.072 13.072-34.86 4.357-43.574-8.715-56.647-100.221-87.149-213.515-87.149-326.809s30.502-226.587 87.149-326.809c4.357-8.715 17.43-17.43 30.502-17.43 4.357 0 13.072 0 17.43 4.357 17.43 8.715 21.787 30.502 13.072 43.574-52.289 87.149-78.434 187.37-78.434 291.949s26.145 204.8 78.434 291.949c4.357 21.787 0 39.217-17.43 47.932zM1298.519 650.621c-8.715 17.43-30.502 21.787-43.574 13.072-17.43-8.715-21.787-30.502-13.072-43.574 52.289-87.149 78.434-191.728 78.434-291.949 0-104.579-26.145-204.8-78.434-291.949-8.715-17.43-4.357-34.86 13.072-43.574 4.357-4.357 8.715-4.357 17.43-4.357 13.072 0 21.787 4.357 30.502 17.43 56.647 100.221 87.149 209.157 87.149 326.809s-34.86 217.872-91.506 318.094zM1098.077 572.187c-17.43-8.715-21.787-30.502-13.072-43.574 34.86-61.004 52.289-130.723 52.289-200.443s-17.43-139.438-52.289-200.443c-8.715-17.43-4.357-34.86 13.072-43.574 4.357-4.357 8.715-4.357 17.43-4.357 13.072 0 21.787 4.357 30.502 17.43 39.217 69.719 61.004 152.511 61.004 235.302s-21.787 165.583-61.004 235.302c-13.072 8.715-30.502 13.072-47.932 4.357zM248.374 323.813c0 69.719 17.43 139.438 52.289 200.443 8.715 17.43 4.357 34.86-13.072 43.574s-34.86 4.357-43.574-13.072c-39.217-69.719-61.004-152.511-61.004-235.302s21.787-165.583 61.004-235.302c4.357-8.715 17.43-17.43 30.502-17.43 4.357 0 13.072 0 17.43 4.357 17.43 8.715 21.787 30.502 13.072 43.574-39.217 69.719-56.647 139.438-56.647 209.157z" />
<glyph unicode="&#xe907;" glyph-name="bolt-o" horiz-adv-x="709" d="M701.261 952.031c-11.953 7.969-27.891 11.953-39.844 0l-533.914-398.444c-7.969-3.984-11.953-11.953-11.953-19.922s3.984-15.938 7.969-23.907l139.455-143.44-258.988-382.506c-7.969-11.953-7.969-27.891 3.984-39.844 3.984-3.984 11.953-7.969 19.922-7.969s11.953 3.984 19.922 7.969l502.039 382.506c7.969 3.984 11.953 11.953 11.953 19.922s0 15.938-3.984 23.907l-103.595 135.471 255.004 410.397c3.984 11.953 3.984 27.891-7.969 35.86zM386.49 517.728c-7.969-11.953-3.984-23.907 0-35.86l99.611-127.502-334.693-255.004 171.331 251.019c7.969 11.953 7.969 27.891-3.984 35.86l-131.486 139.455 378.521 282.895-179.3-290.864z" />
<glyph unicode="&#xe908;" glyph-name="bolt" horiz-adv-x="709" d="M701.261 952.031c-11.953 7.969-27.891 11.953-39.844 0l-533.914-398.444c-7.969-3.984-11.953-11.953-11.953-19.922s3.984-15.938 7.969-23.907l139.455-143.44-258.988-382.506c-7.969-11.953-7.969-27.891 3.984-39.844 3.984-3.984 11.953-7.969 19.922-7.969s11.953 3.984 19.922 7.969l502.039 382.506c7.969 3.984 11.953 11.953 11.953 19.922s0 15.938-3.984 23.907l-103.595 135.471 255.004 410.397c3.984 11.953 3.984 27.891-7.969 35.86z" />
<glyph unicode="&#xe909;" glyph-name="box" horiz-adv-x="1172" d="M1146.009 563.472l-74.077 21.787 47.932 39.217c13.072 8.715 17.43 21.787 17.43 30.502s-4.357 17.43-13.072 26.145l-396.528 274.519c-13.072 8.715-30.502 8.715-39.217 0l-74.077-61.004-78.434 61.004c-8.715 8.715-26.145 8.715-34.86 4.357l-483.677-283.234c-8.715-4.357-17.43-13.072-17.43-26.145 0-8.715 4.357-21.787 13.072-26.145l47.932-39.217-34.86-8.715c-8.715-4.357-21.787-13.072-21.787-26.145s4.357-26.145 13.072-30.502l78.434-56.647v-217.872c0-8.715 4.357-21.787 13.072-26.145l396.528-274.519c0 0 0 0 0 0s0 0 0 0 0 0 0 0c4.357-4.357 8.715-4.357 13.072-4.357s8.715 0 13.072 4.357c0 0 0 0 0 0s0 0 0 0l492.391 274.519c8.715 4.357 17.43 17.43 17.43 30.502v191.728l113.294 65.362c13.072 4.357 17.43 17.43 17.43 30.502s-13.072 21.787-26.145 26.145zM113.294 532.97l13.072 4.357 326.809-226.587-13.072-4.357-326.809 226.587zM610.043 807.489l335.523-235.302-418.315-239.66-335.523 235.302 305.021 174.298 113.294 65.362zM710.264 885.923l339.881-235.302-43.574-34.86-339.881 235.302 43.574 34.86zM514.179 885.923l43.574-34.86-8.715-4.357-413.957-235.302-43.574 34.86 422.672 239.66zM165.583 415.319l248.374-174.298c4.357-4.357 13.072-4.357 17.43-4.357s4.357 0 8.715 0l52.289 13.072v-222.23l-331.166 230.945v156.868zM976.068 267.166l-418.315-239.66v226.587l87.149-26.145c4.357 0 8.715 0 8.715 0 4.357 0 13.072 0 17.43 4.357l305.021 174.298v-139.438zM653.617 288.953l-43.574 13.072 405.243 235.302 43.574-13.072-405.243-235.302z" />
<glyph unicode="&#xe90a;" glyph-name="browser-plus" d="M1024 807.489c0 4.357 0 8.715-4.357 13.072-13.072 78.434-78.434 139.438-161.226 139.438h-692.834c-82.791 0-148.153-61.004-161.226-139.438-4.357-4.357-4.357-8.715-4.357-13.072 0 0 0-4.357 0-4.357 0-4.357 0-4.357 0-8.715v-692.834c0-91.506 74.077-165.583 165.583-165.583h692.834c91.506 0 165.583 74.077 165.583 165.583v692.834c0 4.357 0 4.357 0 8.715 0 0 0 4.357 0 4.357zM165.583 894.638h692.834c39.217 0 74.077-21.787 87.149-56.647h-871.489c21.787 34.86 52.289 56.647 91.506 56.647zM858.417 1.362h-692.834c-56.647 0-100.221 43.574-100.221 100.221v671.047h893.277v-671.047c0-56.647-43.574-100.221-100.221-100.221zM283.234 624.477c-61.004-61.004-95.864-143.796-95.864-230.945s34.86-169.94 95.864-230.945c65.362-61.004 148.153-95.864 230.945-95.864s165.583 30.502 230.945 95.864c61.004 61.004 95.864 143.796 95.864 230.945s-34.86 169.94-95.864 230.945c-130.723 126.366-335.523 126.366-461.889 0zM697.191 210.519c-100.221-100.221-265.804-100.221-370.383 0-47.932 47.932-74.077 113.294-74.077 183.013s26.145 135.081 74.077 183.013c100.221 100.221 265.804 100.221 370.383 0 47.932-47.932 74.077-113.294 74.077-183.013s-26.145-135.081-74.077-183.013zM631.83 419.677h-95.864v95.864c0 13.072-13.072 26.145-26.145 26.145s-26.145-13.072-26.145-26.145v-95.864h-95.864c-13.072 0-26.145-13.072-26.145-26.145s13.072-26.145 26.145-26.145h95.864v-95.864c0-13.072 13.072-26.145 26.145-26.145s26.145 13.072 26.145 26.145v95.864h95.864c13.072 0 26.145 13.072 26.145 26.145s-13.072 26.145-26.145 26.145z" />
<glyph unicode="&#xe90b;" glyph-name="brush" horiz-adv-x="1011" d="M78.434-64c-21.787 0-47.932 4.357-65.362 21.787-8.715 4.357-13.072 13.072-13.072 21.787s4.357 17.43 8.715 26.145c21.787 21.787 78.434 87.149 91.506 139.438 0 8.715 4.357 21.787 4.357 34.86 0 39.217 4.357 91.506 39.217 126.366 69.719 69.719 174.298 82.791 235.302 21.787 56.647-56.647 47.932-161.226-21.787-235.302-34.86-30.502-165.583-156.868-278.877-156.868zM283.234 302.026c-30.502 0-65.362-13.072-91.506-43.574-17.43-17.43-21.787-52.289-21.787-82.791 0-17.43 0-34.86-4.357-52.289-13.072-43.574-43.574-91.506-69.719-122.009 56.647 8.715 148.153 69.719 213.515 139.438 43.574 43.574 56.647 108.936 21.787 143.796-13.072 8.715-30.502 17.43-47.932 17.43zM470.604 280.238c-8.715 0-17.43 4.357-21.787 8.715l-108.936 108.936c-4.357 4.357-8.715 13.072-8.715 26.145 0 8.715 4.357 17.43 8.715 21.787l566.468 505.464c13.072 13.072 30.502 13.072 43.574 0l52.289-52.289c13.072-13.072 13.072-30.502 0-43.574l-505.464-566.468c-8.715-4.357-13.072-8.715-26.145-8.715 0 0 0 0 0 0zM409.6 419.677l61.004-61.004 461.889 518.536-8.715 8.715-514.179-466.247z" />
<glyph unicode="&#xe90c;" glyph-name="comment-chart" horiz-adv-x="1057" d="M875.055 778.473c-214.109 218.764-539.927 242.036-721.455 60.509-125.673-125.673-158.255-325.818-79.127-516.655l-74.473-242.036c0 0 0-4.655 0-4.655s0-4.655 0-4.655c0 0 0 0 0 0 0-4.655 0-4.655 0-9.309 0 0 0-4.655 0-4.655s4.655-4.655 4.655-4.655c0 0 4.655-4.655 4.655-4.655s4.655-4.655 4.655-4.655c0 0 4.655-4.655 4.655-4.655s0 0 0 0 4.655 0 4.655 0c0 0 4.655 0 4.655 0l265.309 9.309c102.4-69.818 218.764-107.055 325.818-107.055 116.364 0 228.073 41.891 307.2 121.018 190.836 176.873 167.564 502.691-51.2 716.8zM884.364 103.564c-134.982-134.982-367.709-134.982-553.891 0v0c-4.655 4.655-13.964 9.309-23.273 9.309l-223.418-4.655 60.509 200.145c4.655 9.309 0 13.964 0 23.273v0c-74.473 167.564-51.2 349.091 60.509 456.145 158.255 158.255 437.527 130.327 623.709-60.509 186.182-186.182 214.109-465.455 55.855-623.709zM400.291 569.018c-18.618 0-32.582-13.964-32.582-37.236v-283.927c0-18.618 13.964-37.236 32.582-37.236s37.236 13.964 37.236 37.236v283.927c0 18.618-18.618 37.236-37.236 37.236zM544.582 499.2c-18.618 0-37.236-13.964-37.236-37.236v-218.764c0-18.618 13.964-37.236 37.236-37.236s37.236 13.964 37.236 37.236v218.764c0 23.273-18.618 37.236-37.236 37.236zM688.873 620.218c-18.618 0-37.236-13.964-37.236-37.236v-339.782c0-18.618 13.964-37.236 37.236-37.236s37.236 13.964 37.236 37.236v344.436c0 18.618-13.964 32.582-37.236 32.582z" />
<glyph unicode="&#xe90d;" glyph-name="digital-chart" horiz-adv-x="1294" d="M1220.085 960h-1141.651c-43.574 0-78.434-34.86-78.434-78.434v-718.979c0-43.574 34.86-78.434 78.434-78.434h540.323v-87.149h-152.511c-17.43 0-34.86-13.072-34.86-34.86s13.072-34.86 34.86-34.86h366.026c17.43 0 34.86 13.072 34.86 34.86s-17.43 39.217-34.86 39.217h-152.511v87.149h540.323c43.574 0 78.434 34.86 78.434 78.434v714.621c-4.357 43.574-34.86 78.434-78.434 78.434zM1228.8 166.945c0-4.357-4.357-13.072-13.072-13.072h-1137.294c-4.357 0-13.072 4.357-13.072 13.072v714.621c0 4.357 4.357 13.072 13.072 13.072h1141.651c4.357 0 13.072-4.357 13.072-13.072v-714.621zM941.209 729.055l-283.234-283.234-108.936 108.936c-13.072 13.072-34.86 13.072-47.932 0l-191.728-191.728c-13.072-13.072-13.072-34.86 0-47.932 4.357-4.357 13.072-8.715 21.787-8.715s17.43 4.357 21.787 8.715l165.583 165.583 108.936-108.936c13.072-13.072 34.86-13.072 47.932 0l305.021 305.021c13.072 13.072 13.072 34.86 0 47.932s-30.502 17.43-39.217 4.357z" />
<glyph unicode="&#xe90e;" glyph-name="download" horiz-adv-x="902" d="M610.043 798.774c-17.43 4.357-34.86 0-43.574-17.43-4.357-17.43 0-34.86 17.43-43.574 148.153-56.647 248.374-204.8 248.374-357.311 0-209.157-174.298-379.098-383.455-379.098s-383.455 169.94-383.455 379.098c0 156.868 100.221 300.664 248.374 357.311 17.43 4.357 26.145 26.145 17.43 43.574-4.357 17.43-26.145 26.145-39.217 17.43-174.298-65.362-291.949-235.302-291.949-418.315 0-244.017 200.443-444.46 448.817-444.46s448.817 200.443 448.817 444.46c4.357 183.013-117.651 352.953-287.591 418.315zM309.379 524.255c-13.072 13.072-34.86 13.072-47.932 0s-13.072-34.86 0-47.932l165.583-165.583c0 0 0 0 0 0s4.357 0 4.357-4.357c0 0 4.357 0 4.357 0 4.357 0 8.715-4.357 13.072-4.357s8.715 0 13.072 4.357c4.357 0 4.357 4.357 4.357 4.357s4.357 0 4.357 4.357l165.583 165.583c13.072 13.072 13.072 34.86 0 47.932s-34.86 13.072-47.932 0l-108.936-108.936v505.464c0 17.43-13.072 34.86-34.86 34.86s-26.145-13.072-26.145-34.86v-514.179l-108.936 113.294z" />
<glyph unicode="&#xe90f;" glyph-name="calendar" d="M993.498 829.277h-209.157v95.864c0 21.787-13.072 34.86-30.502 34.86s-34.86-13.072-34.86-34.86v-95.864h-413.957v95.864c0 21.787-13.072 34.86-30.502 34.86s-34.86-13.072-34.86-34.86v-95.864h-204.8c-21.787 0-34.86-13.072-34.86-34.86v-827.915c0-17.43 13.072-34.86 34.86-34.86h958.638c17.43 0 34.86 13.072 34.86 34.86v827.915c-4.357 21.787-17.43 34.86-34.86 34.86zM65.362 763.915h174.298v-56.647c0-17.43 13.072-34.86 34.86-34.86s30.502 17.43 30.502 34.86v56.647h413.957v-56.647c0-17.43 13.072-34.86 34.86-34.86s30.502 17.43 30.502 34.86v56.647h174.298v-196.085h-893.277v196.085zM958.638 1.362h-893.277v501.106h893.277v-501.106zM305.021 254.094c0-19.252-15.607-34.86-34.86-34.86s-34.86 15.607-34.86 34.86c0 19.252 15.607 34.86 34.86 34.86s34.86-15.607 34.86-34.86zM544.681 254.094c0-19.252-15.607-34.86-34.86-34.86s-34.86 15.607-34.86 34.86c0 19.252 15.607 34.86 34.86 34.86s34.86-15.607 34.86-34.86zM784.34 254.094c0-19.252-15.607-34.86-34.86-34.86s-34.86 15.607-34.86 34.86c0 19.252 15.607 34.86 34.86 34.86s34.86-15.607 34.86-34.86z" />
<glyph unicode="&#xe910;" glyph-name="caret-down" d="M305.021 506.826l178.655-178.655c17.43-17.43 43.574-17.43 61.004 0l178.655 178.655c17.43 17.43 17.43 43.574 0 61.004-8.715 8.715-21.787 13.072-30.502 13.072 0 0 0 0-4.357 0h-348.596c0 0 0 0-4.357 0-8.715 0-21.787-4.357-30.502-13.072-17.43-17.43-17.43-43.574 0-61.004z" />
<glyph unicode="&#xe911;" glyph-name="caret-left" d="M570.826 654.979l-178.655-178.655c-17.43-17.43-17.43-43.574 0-61.004l178.655-178.655c17.43-17.43 43.574-17.43 61.004 0 8.715 8.715 13.072 21.787 13.072 30.502 0 0 0 0 0 4.357v348.596c0 0 0 0 0 4.357 0 13.072-4.357 21.787-13.072 30.502-17.43 17.43-43.574 17.43-61.004 0z" />
<glyph unicode="&#xe912;" glyph-name="caret-right" d="M453.174 241.021l178.655 178.655c17.43 17.43 17.43 43.574 0 61.004l-178.655 174.298c-17.43 17.43-43.574 17.43-61.004 0-8.715-8.715-8.715-21.787-8.715-30.502 0 0 0 0 0-4.357v-344.238c0 0 0 0 0-4.357 0-13.072 4.357-21.787 13.072-30.502 13.072-17.43 39.217-17.43 56.647 0z" />
<glyph unicode="&#xe913;" glyph-name="caret-up" d="M718.979 389.174l-178.655 178.655c-17.43 17.43-43.574 17.43-61.004 0l-174.298-178.655c-17.43-17.43-17.43-43.574 0-61.004 8.715-8.715 21.787-13.072 30.502-13.072 0 0 0 0 4.357 0h344.238c0 0 0 0 4.357 0 13.072 0 21.787 4.357 30.502 13.072 17.43 17.43 17.43 43.574 0 61.004z" />
<glyph unicode="&#xe914;" glyph-name="circle-o-notch" horiz-adv-x="1055" d="M701.549 960c-17.43 4.357-34.86-4.357-43.574-21.787-4.357-17.43 4.357-34.86 21.787-43.574 183.013-65.362 305.021-239.66 305.021-435.745 0-252.732-204.8-461.889-461.889-461.889-252.732 4.357-457.532 209.157-457.532 466.247 0 196.085 122.009 370.383 305.021 435.745 17.43 4.357 26.145 26.145 21.787 43.574-8.715 13.072-26.145 21.787-43.574 17.43-209.157-78.434-348.596-274.519-348.596-496.749 0-291.949 235.302-527.251 527.251-527.251s527.251 235.302 527.251 527.251c0 222.23-143.796 418.315-352.953 496.749z" />
<glyph unicode="&#xe915;" glyph-name="clipboard" horiz-adv-x="850" d="M775.626 837.991h-165.583v30.502c0 17.43-13.072 34.86-34.86 34.86h-69.719c-8.715 34.86-43.574 56.647-78.434 56.647s-69.719-21.787-82.791-56.647h-74.077c-17.43 0-34.86-13.072-34.86-34.86v-30.502h-165.583c-39.217 0-69.719-30.502-69.719-69.719v-762.553c0-39.217 30.502-69.719 69.719-69.719h705.906c39.217 0 74.077 30.502 74.077 69.719v762.553c0 39.217-30.502 69.719-74.077 69.719zM305.021 837.991h65.362c17.43 0 34.86 13.072 34.86 34.86 0 13.072 8.715 26.145 26.145 26.145s26.145-13.072 26.145-26.145c0-17.43 13.072-34.86 34.86-34.86h65.362v-82.791h-252.732v82.791zM784.34 5.719c0-4.357-4.357-4.357-8.715-4.357h-705.906c-4.357 0-4.357 4.357-4.357 4.357v762.553c0 4.357 4.357 4.357 4.357 4.357h165.583v-52.289c0-17.43 13.072-34.86 34.86-34.86h309.379c17.43 0 34.86 13.072 34.86 34.86v52.289h165.583c4.357 0 8.715-4.357 8.715-4.357v-762.553zM623.115 572.187h-392.17c-17.43 0-34.86-13.072-34.86-34.86s13.072-34.86 34.86-34.86h392.17c17.43 0 34.86 13.072 34.86 34.86s-17.43 34.86-34.86 34.86zM623.115 397.889h-392.17c-17.43 0-34.86-13.072-34.86-34.86s13.072-34.86 34.86-34.86h392.17c17.43 0 34.86 13.072 34.86 34.86s-17.43 34.86-34.86 34.86zM623.115 219.234h-392.17c-17.43 0-34.86-13.072-34.86-34.86s13.072-34.86 34.86-34.86h392.17c17.43 0 34.86 13.072 34.86 34.86s-17.43 34.86-34.86 34.86z" />
<glyph unicode="&#xe916;" glyph-name="cog-star" horiz-adv-x="1007" d="M949.923 249.736l-91.506 13.072-43.574 87.149c-8.715 17.43-26.145 30.502-43.574 30.502s-34.86-13.072-43.574-30.502l-43.574-87.149-91.506-13.072c-17.43-4.357-34.86-17.43-39.217-34.86s0-39.217 13.072-52.289l69.719-69.719-17.43-100.221c-4.357-17.43 4.357-39.217 21.787-47.932 17.43-13.072 34.86-13.072 52.289-4.357l82.791 43.574 82.791-43.574c8.715-4.357 17.43-4.357 21.787-4.357 8.715 0 21.787 4.357 26.145 8.715 17.43 13.072 21.787 30.502 21.787 47.932l-17.43 100.221 69.719 69.719c13.072 13.072 17.43 34.86 13.072 52.289-8.715 17.43-26.145 30.502-43.574 34.86zM858.417 136.443c-13.072-13.072-17.43-26.145-13.072-43.574l13.072-78.434-65.362 34.86c-8.715 4.357-17.43 4.357-21.787 4.357-8.715 0-17.43 0-21.787-4.357 0 0 0 0 0 0l-65.362-34.86 13.072 74.077c4.357 17.43-4.357 30.502-13.072 43.574l-52.289 56.647 74.077 13.072c17.43 4.357 30.502 13.072 39.217 26.145l30.502 65.362 30.502-65.362c8.715-13.072 21.787-26.145 39.217-26.145l74.077-13.072-61.004-52.289zM928.136 572.187h-52.289c-4.357 13.072-8.715 26.145-17.43 39.217l39.217 43.574c13.072 13.072 17.43 26.145 17.43 43.574s-4.357 30.502-17.43 43.574l-104.579 104.579c-13.072 13.072-26.145 17.43-43.574 17.43s-30.502-4.357-43.574-17.43l-39.217-39.217c-13.072 4.357-26.145 8.715-39.217 13.072h-4.357v61.004c0 30.502-17.43 78.434-56.647 78.434h-152.511c-39.217 0-69.719-47.932-69.719-78.434v-56.647c-13.072-4.357-21.787-8.715-30.502-13.072v-4.357l-39.217 43.574c-26.145 21.787-65.362 21.787-87.149 0l-108.936-108.936c-26.145-26.145-26.145-65.362 0-87.149l39.217-39.217c-4.357-13.072-13.072-26.145-13.072-43.574h-56.647c-13.072 0-26.145-4.357-34.86-8.715-13.072-17.43-13.072-34.86-13.072-47.932v-152.511c0-17.43 0-39.217 17.43-52.289 8.715-8.715 21.787-13.072 30.502-13.072h56.647c4.357-13.072 8.715-21.787 17.43-30.502l-39.217-39.217c-13.072-13.072-17.43-26.145-17.43-43.574s4.357-30.502 17.43-43.574l104.579-104.579c26.145-26.145 65.362-26.145 87.149 0l39.217 39.217 8.715-4.357c8.715-4.357 13.072-8.715 21.787-8.715 0 0 0 0 0 0v-61.004c0-13.072 4.357-21.787 13.072-30.502 13.072-13.072 30.502-13.072 47.932-13.072 0 0 4.357 0 4.357 0h52.289c17.43 0 30.502 13.072 30.502 30.502s-13.072 30.502-30.502 30.502h-52.289c0 0 0 0 0 0v39.217c0 30.502-13.072 52.289-39.217 61.004-8.715 4.357-13.072 4.357-17.43 8.715l-13.072 4.357c-26.145 13.072-52.289 8.715-69.719-13.072l-34.86-39.217-104.579 104.579 34.86 34.86c17.43 17.43 21.787 47.932 13.072 74.077-4.357 8.715-8.715 17.43-13.072 30.502-8.715 26.145-30.502 39.217-61.004 39.217h-39.217c0 0 0 4.357 0 4.357v143.796h39.217c26.145 0 47.932 17.43 61.004 43.574 0 13.072 4.357 26.145 8.715 34.86 13.072 26.145 8.715 52.289-13.072 69.719l-34.86 39.217 104.579 104.579 39.217-39.217c17.43-17.43 43.574-21.787 65.362-8.715h4.357c8.715 4.357 17.43 8.715 26.145 13.072 26.145 8.715 39.217 30.502 39.217 56.647v52.289c0 4.357 8.715 13.072 8.715 17.43h135.081c0-4.357 4.357-8.715 4.357-13.072v-56.647c0-26.145 17.43-47.932 47.932-61.004 8.715-4.357 21.787-8.715 30.502-13.072 26.145-13.072 52.289-8.715 69.719 13.072l34.86 39.217 117.651-104.579-39.217-39.217c-17.43-17.43-21.787-47.932-13.072-74.077 4.357-13.072 8.715-21.787 13.072-34.86 8.715-26.145 34.86-43.574 61.004-43.574h56.647c4.357 0 8.715 0 13.072-4.357v-52.289c0-17.43 13.072-30.502 30.502-30.502s30.502 13.072 30.502 30.502v61.004c0 43.574-43.574 61.004-78.434 61.004zM488.034 341.243c-56.647 0-100.221 43.574-100.221 100.221s43.574 100.221 100.221 100.221 100.221-43.574 100.221-100.221c0-17.43 13.072-30.502 30.502-30.502s30.502 13.072 30.502 30.502c0 91.506-74.077 165.583-165.583 165.583s-165.583-74.077-165.583-165.583c0-91.506 74.077-165.583 165.583-165.583 17.43 0 30.502 13.072 30.502 30.502s-8.715 34.86-26.145 34.86z" />
<glyph unicode="&#xe917;" glyph-name="colors" d="M840.987 951.285c-13.072 8.715-30.502 8.715-43.574 0-4.357-4.357-108.936-91.506-156.868-222.23-4.357-17.43 0-34.86 17.43-43.574s34.86 0 43.574 17.43c30.502 82.791 87.149 143.796 117.651 178.655 43.574-43.574 139.438-156.868 139.438-287.591 0-82.791-61.004-152.511-139.438-152.511-8.715 0-17.43 0-26.145 4.357-17.43 4.357-34.86-8.715-39.217-26.145s8.715-34.86 26.145-39.217c13.072-4.357 26.145-4.357 43.574-4.357 113.294 0 204.8 95.864 204.8 217.872-4.357 196.085-183.013 352.953-187.37 357.311zM535.966 733.413c-13.072 8.715-30.502 8.715-43.574 0-4.357-4.357-108.936-91.506-156.868-222.23-4.357-17.43 0-34.86 17.43-43.574s34.86 0 43.574 17.43c30.502 82.791 87.149 143.796 117.651 178.655 43.574-43.574 139.438-156.868 139.438-287.591 0-82.791-61.004-152.511-139.438-152.511-8.715 0-17.43 0-26.145 4.357-17.43 4.357-34.86-8.715-39.217-26.145s8.715-34.86 26.145-39.217c13.072-4.357 26.145-4.357 43.574-4.357 113.294 0 204.8 95.864 204.8 217.872 0 200.443-178.655 352.953-187.37 357.311zM226.587 515.54c-13.072 8.715-30.502 8.715-43.574 0-4.357-8.715-183.013-161.226-183.013-361.668 0-122.009 91.506-217.872 204.8-217.872s204.8 95.864 204.8 217.872c4.357 200.443-174.298 352.953-183.013 361.668zM204.8 1.362c-78.434 0-139.438 69.719-139.438 152.511 0 130.723 95.864 244.017 139.438 287.591 43.574-43.574 139.438-156.868 139.438-287.591 4.357-82.791-61.004-152.511-139.438-152.511z" />
<glyph unicode="&#xe918;" glyph-name="comment-text" horiz-adv-x="1054" d="M876.475 777.763c-216.949 216.949-538.034 242.983-720.271 60.746-125.831-125.831-156.203-325.424-78.102-516.339l-69.424-238.644c0 0 0-4.339 0-4.339v-4.339c0 0 0-4.339 0-4.339s0 0 0-4.339v-4.339c0-4.339 0-8.678 4.339-17.356 0 0 0 0 0 0s4.339-4.339 4.339-4.339c0 0 4.339-4.339 4.339-4.339s0 0 0 0c4.339-4.339 8.678-4.339 13.017-8.678h4.339c0 0 4.339 0 4.339 0s0 0 4.339 0h4.339c0 0 4.339 0 4.339 0l260.339 8.678c104.136-69.424 216.949-108.475 325.424-108.475 117.153 0 225.627 39.051 308.068 121.492 164.881 190.915 138.847 516.339-73.763 728.949zM885.153 105.22c-134.508-134.508-364.475-134.508-551.051-4.339-4.339 4.339-13.017 8.678-26.034 8.678l-225.627-8.678 60.746 208.271c4.339 8.678 0 17.356-4.339 26.034-69.424 169.22-43.39 347.119 65.085 455.593 156.203 156.203 433.898 130.169 624.814-60.746 186.576-186.576 212.61-468.61 56.407-624.814zM776.678 612.881h-442.576c-17.356 0-30.373-17.356-30.373-34.712s13.017-34.712 34.712-34.712h442.576c17.356 0 34.712 13.017 34.712 34.712s-21.695 34.712-39.051 34.712zM776.678 465.356h-442.576c-17.356 0-34.712-13.017-34.712-34.712s13.017-34.712 34.712-34.712h442.576c17.356 0 34.712 13.017 34.712 34.712s-17.356 34.712-34.712 34.712zM585.763 317.831h-251.661c-17.356 0-34.712-13.017-34.712-34.712s13.017-34.712 34.712-34.712h251.661c17.356 0 34.712 13.017 34.712 34.712s-17.356 34.712-34.712 34.712z" />
<glyph unicode="&#xe919;" glyph-name="comment" horiz-adv-x="1054" d="M1054.373 408.949c-13.017 134.508-73.763 264.678-177.898 368.814s-234.305 169.22-373.153 182.237c-138.847 13.017-260.339-30.373-351.458-121.492-125.831-125.831-156.203-325.424-78.102-516.339l-69.424-238.644c0 0 0-4.339 0-4.339v-4.339c0 0 0-4.339 0-4.339s0 0 0-4.339v-4.339c0-4.339 0-8.678 4.339-17.356 0 0 0 0 0 0s4.339-4.339 4.339-4.339c0 0 4.339-4.339 4.339-4.339s0 0 0 0c4.339-4.339 8.678-4.339 13.017-8.678h4.339c0 0 4.339 0 4.339 0s0 0 4.339 0h4.339c0 0 4.339 0 4.339 0l260.339 8.678c104.136-69.424 216.949-108.475 325.424-108.475 117.153 0 225.627 39.051 308.068 121.492 78.102 99.797 121.492 221.288 108.475 360.136zM885.153 105.22c-134.508-134.508-364.475-134.508-551.051-4.339-4.339 4.339-13.017 8.678-26.034 8.678l-225.627-8.678 60.746 208.271c4.339 8.678 0 17.356-4.339 26.034-69.424 169.22-43.39 347.119 65.085 455.593 156.203 156.203 433.898 130.169 624.814-60.746 186.576-186.576 212.61-468.61 56.407-624.814z" />
<glyph unicode="&#xe91a;" glyph-name="crop" d="M993.498 262.809h-230.945v400.885c0 17.43-13.072 34.86-34.86 34.86h-400.885v226.587c0 21.787-13.072 34.86-30.502 34.86s-34.86-13.072-34.86-34.86v-226.587h-226.587c-21.787 0-34.86-13.072-34.86-34.86s13.072-34.86 34.86-34.86h226.587v-405.243c0-17.43 13.072-34.86 34.86-34.86h400.885v-230.945c0-17.43 13.072-34.86 34.86-34.86s34.86 13.072 34.86 34.86v230.945h230.945c17.43 0 34.86 13.072 34.86 34.86s-21.787 39.217-39.217 39.217zM326.809 262.809v370.383h370.383v-370.383h-370.383z" />
<glyph unicode="&#xe91b;" glyph-name="css" horiz-adv-x="1234" d="M189.046 555.651v257.313c0 36.759 31.508 68.267 73.518 68.267 21.005 0 42.010 15.754 42.010 42.010s-15.754 36.759-42.010 36.759c-84.021 0-152.287-68.267-152.287-147.036v-252.062c0-42.010-31.508-73.518-68.267-73.518-26.256 0-42.010-15.754-42.010-42.010s15.754-42.010 42.010-42.010c42.010 0 73.518-31.508 73.518-68.267v-252.062c0-84.021 68.267-147.036 152.287-147.036 21.005 0 42.010 15.754 42.010 42.010s-21.005 36.759-47.262 36.759c-42.010 0-73.518 31.508-73.518 68.267v252.062c0 42.010-21.005 84.021-47.262 110.277 31.508 31.508 47.262 68.267 47.262 110.277zM1197.292 487.385c-42.010 0-73.518 31.508-73.518 68.267v257.313c0 84.021-68.267 147.036-152.287 147.036-21.005 0-42.010-15.754-42.010-42.010s15.754-42.010 42.010-42.010c42.010 0 73.518-31.508 73.518-68.267v-252.062c0-42.010 21.005-84.021 47.262-110.277-31.508-26.256-47.262-68.267-47.262-110.277v-252.062c0-36.759-31.508-68.267-73.518-68.267-21.005 0-42.010-15.754-42.010-42.010s15.754-42.010 42.010-42.010c84.021 0 152.287 68.267 152.287 147.036v252.062c0 36.759 31.508 68.267 73.518 68.267 21.005 0 42.010 15.754 42.010 42.010s-21.005 47.262-42.010 47.262zM855.959 445.374c0-23.202-18.809-42.010-42.010-42.010s-42.010 18.809-42.010 42.010c0 23.202 18.809 42.010 42.010 42.010s42.010-18.809 42.010-42.010zM462.113 445.374c0-23.202-18.809-42.010-42.010-42.010s-42.010 18.809-42.010 42.010c0 23.202 18.809 42.010 42.010 42.010s42.010-18.809 42.010-42.010zM661.662 445.374c0-23.202-18.809-42.010-42.010-42.010s-42.010 18.809-42.010 42.010c0 23.202 18.809 42.010 42.010 42.010s42.010-18.809 42.010-42.010z" />
<glyph unicode="&#xe91c;" glyph-name="customer" d="M976.068 912.068c-26.145 13.072-61.004 8.715-82.791-13.072l-139.438-126.366c-4.357-4.357-8.715-4.357-13.072 0l-183.013 165.583c-30.502 26.145-74.077 26.145-104.579 0l-174.298-165.583c-4.357-4.357-8.715-4.357-13.072 0l-139.438 126.366c-21.787 21.787-52.289 26.145-78.434 13.072-30.502-13.072-47.932-39.217-47.932-69.719v-518.536c0-43.574 34.86-78.434 78.434-78.434h871.489c43.574 0 78.434 34.86 78.434 78.434v518.536c-4.357 30.502-21.787 56.647-52.289 69.719zM958.638 323.813c0-4.357-4.357-13.072-13.072-13.072h-871.489c-4.357 0-13.072 4.357-13.072 13.072v518.536c0 8.715 4.357 8.715 8.715 8.715 0 0 4.357 0 4.357 0s4.357 0 8.715-4.357l139.438-126.366c26.145-21.787 74.077-21.787 100.221 4.357l183.013 165.583c4.357 4.357 8.715 4.357 13.072 0l183.013-165.583c30.502-26.145 74.077-26.145 104.579 0l139.438 126.366c4.357 4.357 8.715 4.357 13.072 0 4.357 0 8.715-4.357 8.715-8.715v-518.536zM949.923 180.017h-871.489c-43.574 0-78.434-34.86-78.434-78.434v-91.506c0-43.574 34.86-78.434 78.434-78.434h871.489c43.574 0 78.434 34.86 78.434 78.434v91.506c-4.357 43.574-39.217 78.434-78.434 78.434zM958.638 10.077c0-4.357-4.357-13.072-13.072-13.072h-871.489c-4.357 0-13.072 4.357-13.072 13.072v91.506c0 4.357 4.357 13.072 13.072 13.072h871.489c4.357 0 13.072-4.357 13.072-13.072v-91.506z" />
<glyph unicode="&#xe91d;" glyph-name="desktop" horiz-adv-x="1294" d="M1220.085 960h-1141.651c-43.574 0-78.434-34.86-78.434-78.434v-718.979c0-43.574 34.86-78.434 78.434-78.434h540.323v-87.149h-152.511c-17.43 0-34.86-13.072-34.86-34.86s13.072-34.86 34.86-34.86h366.026c17.43 0 34.86 13.072 34.86 34.86s-17.43 39.217-34.86 39.217h-152.511v87.149h540.323c43.574 0 78.434 34.86 78.434 78.434v714.621c-4.357 43.574-34.86 78.434-78.434 78.434zM1228.8 166.945c0-4.357-4.357-13.072-13.072-13.072h-1137.294c-4.357 0-13.072 4.357-13.072 13.072v714.621c0 4.357 4.357 13.072 13.072 13.072h1141.651c4.357 0 13.072-4.357 13.072-13.072v-714.621z" />
<glyph unicode="&#xe91e;" glyph-name="domain" horiz-adv-x="1011" d="M675.404 607.047c-183.013 0-335.523-148.153-335.523-335.523 0-183.013 152.511-335.523 335.523-335.523s335.523 152.511 335.523 335.523c0 183.013-152.511 335.523-335.523 335.523zM675.404 1.362c-30.502 0-69.719 56.647-87.149 148.153 26.145 4.357 56.647 4.357 87.149 4.357s61.004-4.357 87.149-4.357c-17.43-91.506-56.647-148.153-87.149-148.153zM675.404 219.234c-34.86 0-65.362-4.357-95.864-8.715 0 17.43-4.357 39.217-4.357 56.647 0 21.787 0 39.217 4.357 56.647 30.502-4.357 61.004-4.357 91.506-4.357 34.86 0 69.719 4.357 104.579 8.715 0-17.43 4.357-39.217 4.357-61.004s0-39.217-4.357-56.647c-34.86 8.715-65.362 8.715-100.221 8.715zM405.243 271.523c0 34.86 8.715 69.719 21.787 100.221 26.145-13.072 56.647-21.787 87.149-30.502 0-21.787-4.357-43.574-4.357-69.719s0-47.932 4.357-69.719c-34.86-8.715-61.004-21.787-87.149-34.86-13.072 30.502-21.787 65.362-21.787 104.579zM675.404 541.685c30.502 0 65.362-56.647 87.149-143.796-30.502-4.357-61.004-8.715-95.864-8.715-26.145 0-56.647 0-78.434 4.357 17.43 91.506 56.647 148.153 87.149 148.153zM836.63 345.6c30.502 8.715 61.004 21.787 87.149 34.86 13.072-34.86 21.787-69.719 21.787-108.936 0-34.86-8.715-74.077-21.787-104.579-26.145 13.072-52.289 26.145-87.149 34.86 4.357 21.787 4.357 47.932 4.357 69.719 0 26.145 0 47.932-4.357 74.077zM888.919 432.749c-17.43-8.715-39.217-17.43-61.004-26.145-8.715 39.217-21.787 74.077-34.86 104.579 39.217-17.43 69.719-43.574 95.864-78.434zM562.111 515.54c-17.43-30.502-26.145-65.362-34.86-108.936-26.145 4.357-47.932 13.072-65.362 21.787 21.787 39.217 56.647 65.362 100.221 87.149zM457.532 110.298c17.43 8.715 39.217 17.43 65.362 26.145 8.715-39.217 21.787-78.434 34.86-108.936-39.217 17.43-74.077 47.932-100.221 82.791zM793.055 27.506c17.43 30.502 26.145 65.362 34.86 108.936 26.145-8.715 47.932-13.072 65.362-26.145-26.145-34.86-61.004-65.362-100.221-82.791zM248.374 428.391h-161.226c-13.072 0-21.787 8.715-21.787 21.787v305.021h527.251v-43.574c0-17.43 13.072-34.86 34.86-34.86s34.86 13.072 34.86 34.86v161.226c0 47.932-39.217 87.149-87.149 87.149h-488.034c-47.932 0-87.149-39.217-87.149-87.149v-422.672c0-47.932 39.217-87.149 87.149-87.149h161.226c17.43 0 34.86 13.072 34.86 34.86s-17.43 30.502-34.86 30.502zM87.149 894.638h483.677c13.072 0 21.787-8.715 21.787-21.787v-52.289h-527.251v52.289c0 13.072 8.715 21.787 21.787 21.787zM139.438 855.421c0-14.439-11.705-26.145-26.145-26.145s-26.145 11.705-26.145 26.145c0 14.439 11.705 26.145 26.145 26.145s26.145-11.705 26.145-26.145zM213.515 855.421c0-14.439-11.705-26.145-26.145-26.145s-26.145 11.705-26.145 26.145c0 14.439 11.705 26.145 26.145 26.145s26.145-11.705 26.145-26.145zM283.234 855.421c0-14.439-11.705-26.145-26.145-26.145s-26.145 11.705-26.145 26.145c0 14.439 11.705 26.145 26.145 26.145s26.145-11.705 26.145-26.145z" />
<glyph unicode="&#xe91f;" glyph-name="menu-circle" d="M283.966 546.958h296.874c17.21 0 34.42 12.908 34.42 34.42s-12.908 34.42-34.42 34.42h-296.874c-17.21 0-34.42-12.908-34.42-34.42s17.21-34.42 34.42-34.42zM740.034 482.42h-456.067c-17.21 0-34.42-12.908-34.42-34.42s12.908-34.42 34.42-34.42h456.067c17.21 0 34.42 12.908 34.42 34.42s-17.21 34.42-34.42 34.42zM740.034 349.042h-456.067c-17.21 0-34.42-12.908-34.42-34.42s12.908-34.42 34.42-34.42h456.067c17.21 0 34.42 12.908 34.42 34.42s-17.21 34.42-34.42 34.42zM512 960c-283.966 0-512-228.034-512-512s228.034-512 512-512c283.966 0 512 228.034 512 512s-232.336 512-512 512zM512 0.538c-245.244 0-447.462 202.218-447.462 447.462s202.218 447.462 447.462 447.462 447.462-202.218 447.462-447.462-202.218-447.462-447.462-447.462z" />
<glyph unicode="&#xe920;" glyph-name="dot-circle-o" d="M514.179 960c-283.234 0-514.179-230.945-514.179-514.179s230.945-514.179 514.179-514.179c283.234 0 514.179 230.945 514.179 514.179-4.357 283.234-235.302 514.179-514.179 514.179zM514.179 1.362c-248.374 0-448.817 200.443-448.817 444.46 0 248.374 200.443 448.817 448.817 448.817 244.017 0 444.46-200.443 444.46-448.817 0-244.017-200.443-444.46-444.46-444.46zM618.757 450.179c0-57.757-46.821-104.579-104.579-104.579s-104.579 46.821-104.579 104.579c0 57.757 46.821 104.579 104.579 104.579s104.579-46.821 104.579-104.579z" />
<glyph unicode="&#xe921;" glyph-name="ellipsis" horiz-adv-x="1194" d="M1198.298 445.821c0-55.351-44.871-100.221-100.221-100.221s-100.221 44.871-100.221 100.221c0 55.351 44.871 100.221 100.221 100.221s100.221-44.871 100.221-100.221zM200.443 445.821c0-55.351-44.871-100.221-100.221-100.221s-100.221 44.871-100.221 100.221c0 55.351 44.871 100.221 100.221 100.221s100.221-44.871 100.221-100.221zM697.191 445.821c0-55.351-44.871-100.221-100.221-100.221s-100.221 44.871-100.221 100.221c0 55.351 44.871 100.221 100.221 100.221s100.221-44.871 100.221-100.221z" />
<glyph unicode="&#xe922;" glyph-name="facebook-app" d="M331.166 97.226c0 65.362 0 130.723 0 196.085-21.787 0-43.574 0-65.362 0 0 26.145 0 52.289 0 78.434 21.787 0 43.574 0 65.362 0 0 4.357 0 8.715 0 8.715 0 21.787 0 43.574 0 65.362 4.357 52.289 39.217 82.791 87.149 87.149 21.787 0 43.574 0 69.719 0 0-26.145 0-47.932 0-69.719-8.715 0-13.072 0-21.787 0s-21.787 0-30.502 0c-17.43-4.357-26.145-8.715-26.145-26.145 0-21.787 0-39.217 0-61.004 26.145 0 47.932 0 74.077 0 0-13.072-4.357-26.145-4.357-39.217 0-8.715-4.357-21.787-4.357-30.502 0-4.357-4.357-8.715-8.715-8.715-17.43 0-34.86 0-47.932 0-4.357 0-4.357 0-8.715 0 0-65.362 0-130.723 0-196.085-26.145-4.357-52.289-4.357-78.434-4.357zM379.098-64c-209.157 0-379.098 169.94-379.098 379.098s169.94 379.098 379.098 379.098 379.098-169.94 379.098-379.098-169.94-379.098-379.098-379.098zM379.098 628.834c-174.298 0-313.736-139.438-313.736-313.736s139.438-313.736 313.736-313.736 313.736 139.438 313.736 313.736-139.438 313.736-313.736 313.736zM949.923 310.74h-82.791c-17.43 0-34.86 13.072-34.86 34.86s13.072 34.86 34.86 34.86h82.791c4.357 0 13.072 4.357 13.072 13.072v488.034c0 4.357-4.357 13.072-13.072 13.072h-501.106c-4.357 0-13.072-4.357-13.072-13.072v-87.149c0-17.43-13.072-34.86-34.86-34.86s-26.145 17.43-26.145 34.86v87.149c0 43.574 34.86 78.434 78.434 78.434h496.749c43.574 0 78.434-34.86 78.434-78.434v-496.749c-4.357-43.574-39.217-74.077-78.434-74.077z" />
<glyph unicode="&#xe923;" glyph-name="facebook-apps" d="M418.315 528.613c-52.289-4.357-82.791-34.86-87.149-87.149 0-21.787 0-43.574 0-65.362 0-4.357 0-4.357 0-8.715-21.787 0-43.574 0-65.362 0 0-26.145 0-52.289 0-78.434 21.787 0 43.574 0 65.362 0 0-65.362 0-130.723 0-196.085 26.145 0 52.289 0 78.434 0 0 65.362 0 130.723 0 196.085 4.357 0 8.715 0 8.715 0 17.43 0 34.86 0 47.932 0 4.357 0 8.715 0 8.715 8.715s4.357 21.787 4.357 30.502c0 13.072 4.357 26.145 4.357 39.217-26.145 0-52.289 0-74.077 0 0 21.787 0 39.217 0 61.004 0 17.43 8.715 21.787 26.145 26.145 8.715 0 21.787 0 30.502 0s13.072 0 21.787 0c0 21.787 0 47.932 0 69.719-21.787 4.357-47.932 8.715-69.719 4.357zM379.098 694.196c-209.157 0-379.098-169.94-379.098-379.098s169.94-379.098 379.098-379.098 379.098 169.94 379.098 379.098c0 209.157-169.94 379.098-379.098 379.098zM379.098 1.362c-174.298 0-313.736 139.438-313.736 313.736s139.438 313.736 313.736 313.736c174.298 0 313.736-139.438 313.736-313.736s-139.438-313.736-313.736-313.736zM949.923 960h-501.106c-43.574 0-78.434-34.86-78.434-78.434v-87.149c0-17.43 13.072-34.86 34.86-34.86s34.86 13.072 34.86 34.86v87.149c0 4.357 4.357 13.072 13.072 13.072h496.749c4.357 0 13.072-4.357 13.072-13.072v-496.749c0-4.357-4.357-13.072-13.072-13.072h-82.791c-17.43 0-34.86-13.072-34.86-34.86s13.072-34.86 34.86-34.86h82.791c43.574 0 78.434 34.86 78.434 78.434v501.106c-4.357 43.574-39.217 78.434-78.434 78.434z" />
<glyph unicode="&#xe924;" glyph-name="play-circle" d="M722.824 456.605c0 0-4.303 0 0 0-4.303 4.303-4.303 8.605-4.303 8.605s0 0 0 0 0 0 0 0c-4.303 4.303-4.303 4.303-8.605 8.605 0 0 0 0 0 0l-271.059 159.193c-17.21 12.908-38.723 8.605-47.328-4.303-4.303-8.605-4.303-12.908-4.303-21.513 0 0 0 0 0-4.303v-314.084c0 0 0 0 0-4.303s0-12.908 4.303-17.21c8.605-17.21 30.118-21.513 47.328-12.908l271.059 159.193c0 0 0 0 0 0 4.303 0 4.303 4.303 8.605 8.605 0 0 0 0 0 0s0 0 0 0 0 4.303 4.303 8.605c0 0 0 4.303 0 4.303 0 4.303 0 4.303 0 8.605 0 8.605 0 8.605 0 12.908zM451.765 551.261l172.101-103.261-172.101-103.261v206.521zM512 960c-283.966 0-512-228.034-512-512s228.034-512 512-512c283.966 0 512 228.034 512 512s-232.336 512-512 512zM512 0.538c-245.244 0-447.462 202.218-447.462 447.462s202.218 447.462 447.462 447.462 447.462-202.218 447.462-447.462-202.218-447.462-447.462-447.462z" />
<glyph unicode="&#xe925;" glyph-name="facebook" horiz-adv-x="531" d="M158.255-64c0 153.6 0 311.855 0 465.455-51.2 0-102.4 0-158.255 0 0 60.509 0 121.018 0 181.527 51.2 0 102.4 0 153.6 0 0 9.309 0 13.964 0 23.273 0 51.2 0 97.745 4.655 148.945 9.309 121.018 88.436 200.145 209.455 204.8 51.2 4.655 107.055 0 162.909-4.655 0-55.855 0-111.709 0-167.564-18.618 0-32.582 0-51.2 0-23.273 0-46.545 0-69.818-4.655-41.891 0-60.509-13.964-60.509-55.855-4.655-46.545 0-93.091 0-144.291 60.509 0 116.364 0 176.873 0-4.655-27.927-9.309-55.855-13.964-88.436-4.655-23.273-9.309-51.2-9.309-74.473 0-13.964-4.655-18.618-18.618-18.618-37.236 0-79.127 0-116.364 0-9.309 0-13.964 0-23.273 0 0-158.255 0-311.855 0-465.455-60.509 0-125.673 0-186.182 0z" />
<glyph unicode="&#xe926;" glyph-name="flag-checkered" d="M901.991 872.851h-65.362c-21.787 52.289-74.077 87.149-130.723 87.149h-566.468c-74.077 0-139.438-65.362-139.438-143.796v0-849.702c0-17.43 13.072-34.86 34.86-34.86s34.86 13.072 34.86 34.86v448.817h583.898c0-47.932 39.217-87.149 87.149-87.149h165.583c65.362 0 122.009 52.289 122.009 122.009v305.021c-4.357 65.362-56.647 117.651-126.366 117.651zM958.638 750.843v-87.149h-108.936v143.796h56.647c26.145 0 52.289-26.145 52.289-56.647zM65.362 816.204c0 43.574 34.86 78.434 78.434 78.434h566.468c43.574 0 78.434-34.86 78.434-78.434v-65.362l-723.336 4.357v61.004zM65.362 624.477l718.979-4.357v-65.362c0-43.574-34.86-78.434-78.434-78.434h-640.545v148.153zM901.991 393.532h-130.723l56.647 74.077c13.072 17.43 21.787 43.574 21.787 69.719h108.936v-87.149c0-30.502-26.145-56.647-56.647-56.647z" />
<glyph unicode="&#xe927;" glyph-name="floppy" d="M1002.213 746.485l-191.728 191.728c-17.43 13.072-34.86 21.787-56.647 21.787h-679.762c-39.217 0-74.077-34.86-74.077-78.434v-871.489c0-43.574 34.86-78.434 78.434-78.434h871.489c43.574 0 78.434 34.86 78.434 78.434v679.762c-4.357 21.787-13.072 39.217-26.145 56.647zM653.617 894.638v-143.796c0-4.357-4.357-8.715-8.715-8.715h-305.021c-8.715 0-13.072 4.357-13.072 8.715v143.796h326.809zM958.638 10.077c0-4.357-4.357-13.072-13.072-13.072h-871.489c-4.357 0-13.072 4.357-13.072 13.072v871.489c0 4.357 4.357 13.072 13.072 13.072h187.37v-143.796c0-43.574 34.86-78.434 78.434-78.434h305.021c43.574 0 78.434 34.86 78.434 78.434v143.796h34.86c4.357 0 4.357 0 8.715-4.357l187.37-191.728c4.357 0 4.357-4.357 4.357-8.715v-679.762zM775.626 567.83h-566.468c-43.574 0-78.434-34.86-78.434-78.434v-305.021c0-43.574 34.86-78.434 78.434-78.434h566.468c43.574 0 78.434 34.86 78.434 78.434v305.021c-4.357 43.574-39.217 78.434-78.434 78.434zM784.34 184.374c0-4.357-4.357-13.072-13.072-13.072h-566.468c-4.357 0-13.072 4.357-13.072 13.072v305.021c0 4.357 4.357 13.072 13.072 13.072h566.468c4.357 0 13.072-4.357 13.072-13.072v-305.021zM688.477 363.030h-392.17c-21.787 0-34.86-13.072-34.86-30.502s13.072-34.86 34.86-34.86h392.17c17.43 0 34.86 13.072 34.86 34.86s-17.43 30.502-34.86 30.502z" />
<glyph unicode="&#xe928;" glyph-name="gallery" horiz-adv-x="985" d="M910.222 478.632h-166.291v170.667c0 39.385-26.256 70.017-65.641 70.017h-175.043v161.915c0 56.889-30.632 78.769-61.265 78.769h-380.718c-30.632 0-61.265-21.88-61.265-78.769v-380.718c0-48.137 21.88-83.145 61.265-83.145h179.419v-153.162c0-13.128 0-30.632 4.376-43.761 8.752-39.385 39.385-43.761 48.137-43.761h148.786v-166.291c0-39.385 35.009-74.393 74.393-74.393h393.846c39.385 0 74.393 35.009 74.393 74.393v393.846c0 39.385-35.009 74.393-74.393 74.393zM65.641 478.632c0 4.376-4.376 13.128-4.376 21.88v380.718c0 8.752 0 17.504 0 17.504h376.342c0-4.376 0-8.752 0-17.504v-161.915h-144.41c-30.632 0-43.761-17.504-48.137-30.632-4.376-8.752-4.376-21.88-4.376-39.385v-170.667h-175.043zM301.949 237.949c0 8.752 0 21.88 0 30.632v385.094c0 4.376 0 4.376 0 8.752h371.966c4.376 0 8.752 0 8.752-8.752v-175.043h-166.291c-39.385 0-74.393-35.009-74.393-74.393v-166.291h-140.034zM923.35 10.393c0-8.752-4.376-13.128-13.128-13.128h-393.846c-8.752 0-13.128 4.376-13.128 13.128v393.846c0 8.752 4.376 13.128 13.128 13.128h393.846c8.752 0 13.128-4.376 13.128-13.128v-393.846z" />
<glyph unicode="&#xe929;" glyph-name="github" horiz-adv-x="1052" d="M619.055 201.309c37.236 4.655 69.818 9.309 102.4 23.273 93.091 37.236 130.327 111.709 134.982 204.8 4.655 60.509-4.655 116.364-46.545 162.909-4.655 4.655-4.655 13.964-4.655 23.273 13.964 37.236 9.309 74.473-4.655 111.709-4.655 13.964-13.964 18.618-27.927 13.964-41.891-9.309-74.473-23.273-111.709-46.545-9.309-4.655-18.618-9.309-27.927-4.655-79.127 18.618-158.255 18.618-237.382 0-9.309-4.655-18.618 0-23.273 4.655-32.582 23.273-69.818 37.236-111.709 46.545-4.655 4.655-13.964 0-18.618-13.964-9.309-37.236-13.964-74.473 0-111.709 4.655-9.309-4.655-18.618-9.309-27.927-65.164-88.436-55.855-242.036 23.273-316.509 41.891-37.236 88.436-55.855 144.291-65.164 9.309 0 18.618-4.655 27.927-4.655-13.964-18.618-23.273-37.236-27.927-60.509 0-9.309-4.655-13.964-9.309-13.964-51.2-18.618-102.4-13.964-134.982 37.236-13.964 23.273-27.927 41.891-51.2 51.2-13.964 9.309-27.927 9.309-46.545 9.309-9.309 0-13.964-9.309-4.655-13.964 4.655-4.655 9.309-9.309 13.964-13.964 27.927-13.964 46.545-37.236 55.855-65.164 9.309-51.2 46.545-74.473 102.4-74.473 18.618 0 37.236 0 55.855 4.655 13.964 4.655 13.964 0 13.964-13.964 0-23.273 0-51.2 0-74.473 0-32.582-13.964-41.891-41.891-27.927-204.8 65.164-344.436 251.345-353.745 465.455-13.964 246.691 153.6 465.455 377.018 530.618 218.764 65.164 460.8-27.927 586.473-218.764 158.255-246.691 93.091-567.855-153.6-730.764-32.582-23.273-74.473-41.891-111.709-55.855-27.927-9.309-41.891 0-41.891 32.582 0 41.891 0 88.436 0 130.327 0 37.236-4.655 74.473-37.236 102.4zM339.782 94.255c-4.655 0-9.309 0-9.309 9.309 0 4.655 4.655 9.309 9.309 9.309s9.309 0 9.309-9.309c0-4.655-4.655-9.309-9.309-9.309zM269.964 126.836c0-4.655 0-9.309-4.655-9.309s-13.964 4.655-13.964 13.964c0 4.655 4.655 9.309 9.309 4.655 4.655 0 9.309 0 9.309-9.309zM390.982 108.218c0-4.655-4.655-9.309-9.309-9.309s-9.309 0-9.309 4.655c0 4.655 4.655 9.309 9.309 9.309 0 4.655 4.655 0 9.309-4.655zM237.382 150.109c-4.655 4.655-9.309 4.655-9.309 13.964 0 4.655 4.655 4.655 4.655 4.655 4.655 0 9.309-4.655 9.309-13.964 0 0 0-4.655-4.655-4.655zM297.891 103.564c-4.655 0-13.964 0-13.964 9.309 0 4.655 4.655 4.655 9.309 4.655s9.309 0 13.964-9.309c0-4.655-4.655-4.655-9.309-4.655zM223.418 187.345c0-4.655 0-4.655-4.655-4.655s-9.309 4.655-9.309 9.309c0 4.655 0 4.655 4.655 4.655 0 0 4.655-4.655 9.309-9.309z" />
<glyph unicode="&#xe92a;" glyph-name="sort-amount-asc" d="M740.034 284.504h-456.067c-17.21 0-34.42 12.908-34.42 34.42s12.908 34.42 34.42 34.42h456.067c17.21 0 34.42-12.908 34.42-34.42s-17.21-34.42-34.42-34.42zM623.866 417.882h-339.899c-17.21 0-34.42 12.908-34.42 34.42s12.908 34.42 34.42 34.42h339.899c17.21 0 34.42-12.908 34.42-34.42s-17.21-34.42-34.42-34.42zM490.487 546.958h-206.521c-17.21 0-34.42 12.908-34.42 34.42s12.908 34.42 34.42 34.42h206.521c17.21 0 34.42-12.908 34.42-34.42s-12.908-34.42-34.42-34.42zM512-64c-283.966 0-512 232.336-512 512 0 283.966 228.034 512 512 512s512-228.034 512-512c0-279.664-232.336-512-512-512zM512 895.462c-245.244 0-447.462-202.218-447.462-447.462s202.218-447.462 447.462-447.462 447.462 202.218 447.462 447.462-202.218 447.462-447.462 447.462z" />
<glyph unicode="&#xe92b;" glyph-name="sort-amount-desc" d="M740.034 546.958h-456.067c-17.21 0-34.42 12.908-34.42 34.42s12.908 34.42 34.42 34.42h456.067c17.21 0 34.42-12.908 34.42-34.42s-17.21-34.42-34.42-34.42zM623.866 417.882h-339.899c-17.21 0-34.42 12.908-34.42 34.42s12.908 34.42 34.42 34.42h339.899c17.21 0 34.42-12.908 34.42-34.42s-17.21-34.42-34.42-34.42zM490.487 284.504h-206.521c-17.21 0-34.42 12.908-34.42 34.42s12.908 34.42 34.42 34.42h206.521c17.21 0 34.42-12.908 34.42-34.42s-12.908-34.42-34.42-34.42zM512-64c-283.966 0-512 232.336-512 512 0 283.966 228.034 512 512 512s512-228.034 512-512c0-279.664-232.336-512-512-512zM512 895.462c-245.244 0-447.462-202.218-447.462-447.462s202.218-447.462 447.462-447.462 447.462 202.218 447.462 447.462-202.218 447.462-447.462 447.462z" />
<glyph unicode="&#xe92c;" glyph-name="globe-filled" horiz-adv-x="1043" d="M519.014 277.333c-65.461 0-130.922-4.676-187.032-14.027 32.731-191.708 112.219-313.279 191.708-313.279 74.813 0 158.977 121.571 191.708 313.279-65.461 9.352-130.922 14.027-196.384 14.027zM981.918 207.196c37.406 70.137 60.785 154.301 60.785 238.466 0 88.84-23.379 173.005-60.785 247.817-51.434-42.082-126.247-74.813-215.087-93.516 4.676-46.758 9.352-98.192 9.352-149.626s-4.676-102.868-9.352-149.626c84.164-23.379 163.653-56.11 215.087-93.516zM752.804 646.721c84.164 18.703 154.301 51.434 201.059 88.84-79.489 116.895-205.735 201.059-350.685 224.438 70.137-51.434 126.247-168.329 149.626-313.279zM724.749 445.662c0 51.434-4.676 98.192-9.352 140.274-65.461-14.027-135.598-18.703-205.735-18.703-65.461 0-126.247 4.676-187.032 18.703-4.676-46.758-4.676-88.84-4.676-140.274 0-46.758 4.676-93.516 9.352-135.598 60.785 9.352 126.247 18.703 196.384 18.703 65.461 0 135.598-4.676 196.384-18.703 0 42.082 4.676 88.84 4.676 135.598zM285.224 253.954c-84.164-18.703-154.301-46.758-205.735-84.164 79.489-121.571 205.735-210.411 355.361-233.79-70.137 51.434-126.247 168.329-149.626 317.954zM757.479 253.954c-28.055-149.626-79.489-266.521-149.626-317.954 149.626 23.379 275.872 112.219 355.361 233.79-51.434 32.731-126.247 60.785-205.735 84.164zM509.662 613.991c70.137 0 135.598 4.676 201.059 18.703-32.731 191.708-112.219 308.603-187.032 308.603s-158.977-121.571-191.708-313.279c56.11-9.352 116.895-14.027 177.68-14.027zM280.548 300.712c-4.676 46.758-9.352 98.192-9.352 144.95 0 51.434 4.676 98.192 9.352 144.95-93.516 23.379-168.329 51.434-224.438 88.84-37.406-70.137-56.11-149.626-56.11-233.79s23.379-168.329 56.11-238.466c56.11 42.082 130.922 70.137 224.438 93.516zM285.224 637.37c23.379 154.301 79.489 271.196 149.626 322.63-154.301-23.379-280.548-116.895-360.037-243.142 51.434-32.731 126.247-60.785 210.411-79.489z" />
<glyph unicode="&#xe92d;" glyph-name="globe" d="M512 960c-283.966 0-512-228.034-512-512s228.034-512 512-512 512 228.034 512 512c0 283.966-232.336 512-512 512zM512 0.538c-64.538 0-133.378 103.261-163.496 266.756 51.63 8.605 103.261 12.908 159.193 12.908s111.866-4.303 163.496-12.908c-25.815-159.193-94.655-266.756-159.193-266.756zM512 349.042c-60.235 0-116.168-4.303-172.101-12.908-4.303 34.42-4.303 73.143-4.303 116.168 0 38.723 4.303 77.445 4.303 111.866 51.63-8.605 103.261-12.908 159.193-12.908 64.538 0 124.773 4.303 180.706 17.21 8.605-38.723 8.605-77.445 8.605-120.471 0-38.723-4.303-77.445-4.303-116.168-55.933 12.908-111.866 17.21-172.101 17.21zM512 895.462c64.538 0 133.378-103.261 163.496-266.756-55.933-8.605-116.168-12.908-176.403-12.908-51.63 0-103.261 4.303-150.588 12.908 30.118 163.496 98.958 266.756 163.496 266.756zM744.336 577.076c64.538 17.21 120.471 38.723 167.798 68.84 30.118-60.235 47.328-124.773 47.328-197.916 0-68.84-17.21-133.378-43.025-193.613-47.328 25.815-103.261 47.328-167.798 64.538 4.303 38.723 8.605 81.748 8.605 129.076-4.303 47.328-8.605 90.353-12.908 129.076zM877.714 701.849c-38.723-25.815-86.050-43.025-141.983-60.235-17.21 94.655-47.328 176.403-90.353 232.336 98.958-30.118 176.403-90.353 232.336-172.101zM374.319 873.95c-38.723-55.933-68.84-137.681-90.353-236.639-55.933 12.908-107.563 30.118-146.286 55.933 55.933 86.050 137.681 150.588 236.639 180.706zM107.563 637.311c47.328-25.815 103.261-47.328 172.101-60.235-4.303-38.723-8.605-81.748-8.605-124.773s4.303-86.050 8.605-124.773c-64.538-17.21-124.773-38.723-167.798-64.538-25.815 55.933-43.025 120.471-43.025 189.311-4.303 64.538 12.908 124.773 38.723 185.008zM137.681 202.756c38.723 21.513 90.353 43.025 146.286 55.933 17.21-94.655 47.328-176.403 90.353-236.639-94.655 34.42-180.706 94.655-236.639 180.706zM645.378 22.050c38.723 55.933 73.143 137.681 90.353 232.336 55.933-12.908 107.563-34.42 146.286-55.933-55.933-81.748-137.681-146.286-236.639-176.403z" />
<glyph unicode="&#xe92e;" glyph-name="upload" horiz-adv-x="797" d="M540.323 698.553c-17.43 4.357-34.86 0-43.574-17.43-4.357-17.43 0-34.86 17.43-43.574 126.366-47.932 213.515-174.298 213.515-309.379 0-178.655-148.153-326.809-331.166-326.809s-331.166 148.153-331.166 326.809c0 135.081 87.149 261.447 213.515 309.379 17.43 4.357 26.145 26.145 17.43 43.574-4.357 17.43-21.787 26.145-39.217 17.43-152.511-56.647-257.089-209.157-257.089-370.383 0-217.872 178.655-392.17 396.528-392.17s396.528 174.298 396.528 392.17c4.357 161.226-104.579 313.736-252.732 370.383zM252.732 750.843c8.715 0 17.43 4.357 21.787 8.715l87.149 87.149v-440.102c0-17.43 13.072-34.86 34.86-34.86s34.86 13.072 34.86 34.86v440.102l87.149-87.149c4.357-4.357 13.072-8.715 21.787-8.715s17.43 4.357 21.787 8.715c13.072 13.072 13.072 34.86 0 47.932l-139.438 143.796c-4.357 0-8.715 4.357-13.072 4.357 0 0 0 0 0 0-8.715 4.357-17.43 4.357-26.145 0 0 0-4.357-4.357-4.357-4.357s-4.357 0-4.357-4.357c0 0 0 0 0 0l-143.796-139.438c-13.072-13.072-13.072-34.86 0-47.932 4.357-4.357 13.072-8.715 21.787-8.715z" />
<glyph unicode="&#xe92f;" glyph-name="google-plus" horiz-adv-x="1005" d="M856.436 829.673c-46.545-46.545-93.091-88.436-134.982-125.673-41.891 23.273-79.127 46.545-121.018 60.509-228.073 60.509-446.836-139.636-400.291-372.364 27.927-134.982 121.018-232.727 260.655-260.655 125.673-23.273 260.655 23.273 325.818 153.6 9.309 18.618 13.964 37.236 23.273 60.509-97.745 0-195.491 0-293.236 0 0 60.509 0 116.364 0 172.218 158.255 0 321.164 0 479.418 0 37.236-204.8-46.545-484.073-335.127-563.2-209.455-51.2-395.636 0-539.927 167.564s-158.255 418.909-37.236 605.091c116.364 172.218 279.273 246.691 484.073 232.727 111.709-9.309 204.8-55.855 288.582-130.327z" />
<glyph unicode="&#xe930;" glyph-name="graduation-cap" horiz-adv-x="1325" d="M1254.945 755.2l-492.391 187.37c-65.362 26.145-135.081 26.145-200.443 0l-492.391-187.37c-39.217-13.072-65.362-52.289-69.719-95.864s17.43-82.791 56.647-104.579l169.94-95.864 8.715-4.357v-305.021c0-69.719 183.013-213.515 427.030-213.515s427.030 139.438 427.030 209.157v309.379l178.655 100.221c39.217 21.787 61.004 61.004 56.647 104.579s-30.502 82.791-69.719 95.864zM1024 149.515c-8.715-30.502-152.511-148.153-361.668-148.153-213.515 0-352.953 122.009-361.668 148.153v270.162l222.23-126.366c87.149-47.932 196.085-47.932 278.877 0l222.23 126.366v-270.162zM1237.515 611.404l-466.247-261.447c-65.362-34.86-148.153-34.86-213.515 0l-270.162 152.511-196.085 108.936c-17.43 8.715-26.145 26.145-26.145 43.574s13.072 34.86 30.502 39.217l492.391 187.37c47.932 17.43 104.579 17.43 152.511 0l492.391-187.37c17.43-4.357 26.145-21.787 30.502-39.217 0-17.43-13.072-34.86-26.145-43.574z" />
<glyph unicode="&#xe931;" glyph-name="users" horiz-adv-x="1625" d="M803.856 322.666c-159.909 0-289.564 129.655-289.564 289.564s129.655 289.564 289.564 289.564 289.564-129.655 289.564-289.564c0-159.909-129.655-289.564-289.564-289.564zM803.856 836.967c-125.334 0-224.736-99.402-224.736-224.736s99.402-224.736 224.736-224.736 224.736 99.402 224.736 224.736-99.402 224.736-224.736 224.736zM488.36-57.656c-4.321 0-8.644 0-12.965 4.321-17.288 8.644-21.609 25.931-12.965 43.218 77.793 155.587 203.127 250.668 345.748 250.668 138.299 0 267.955-95.081 345.748-250.668 8.644-17.288 0-34.575-12.965-43.218-17.288-8.644-34.575 0-43.218 12.965-64.828 133.978-172.874 211.771-285.242 211.771s-220.415-77.793-285.242-211.771c-12.965-8.644-25.931-17.288-38.897-17.288zM350.061 378.851c-159.909 0-289.564 129.655-289.564 289.564s129.655 289.564 289.564 289.564c64.828 0 125.334-21.609 177.196-60.506 12.965-12.965 17.288-30.253 4.321-47.54-12.965-12.965-30.253-17.288-47.54-4.321-38.897 30.253-86.437 47.54-138.299 47.54-125.334 0-224.736-99.402-224.736-224.736s99.402-224.736 224.736-224.736c30.253 0 60.506 4.321 86.437 17.288 17.288 8.644 34.575 0 43.218-17.288s0-34.575-17.288-43.218c-30.253-12.965-69.149-21.609-108.046-21.609zM34.565-1.472c-4.321 0-8.644 0-12.965 4.321-17.288 8.644-21.609 25.931-12.965 43.218 77.793 155.587 203.127 250.668 345.748 250.668 64.828 0 129.655-21.609 190.162-60.506 12.965-8.644 17.288-30.253 8.644-43.218s-30.253-17.288-43.218-8.644c-47.54 34.575-99.402 47.54-151.265 47.54-112.369 0-220.415-77.793-285.242-211.771-12.965-17.288-25.931-21.609-38.897-21.609zM1270.615 378.851c-38.897 0-77.793 8.644-112.369 21.609-17.288 8.644-25.931 25.931-17.288 43.218s25.931 25.931 43.218 17.288c25.931-12.965 56.184-17.288 86.437-17.288 125.334 0 224.736 99.402 224.736 224.736s-99.402 224.736-224.736 224.736c-51.862 0-99.402-17.288-138.299-47.54-12.965-12.965-34.575-8.644-47.54 4.321s-8.644 34.575 4.321 47.54c51.862 38.897 112.369 60.506 181.518 60.506 159.909 0 289.564-129.655 289.564-289.564s-129.655-289.564-289.564-289.564zM1581.789-1.472c-12.965 0-21.609 8.644-30.253 17.288-64.828 133.978-172.874 211.771-285.242 211.771-51.862 0-103.725-17.288-151.265-47.54-12.965-8.644-34.575-4.321-43.218 8.644s-4.321 34.575 8.644 43.218c56.184 38.897 121.012 60.506 190.162 60.506 138.299 0 267.955-95.081 345.748-250.668 8.644-17.288 0-34.575-12.965-43.218-8.644 0-12.965 0-21.609 0z" />
<glyph unicode="&#xe932;" glyph-name="html" horiz-adv-x="1292" d="M1281.313 476.882l-278.318 278.318c-15.754 15.754-42.010 15.754-57.764 0s-15.754-42.010 0-57.764l252.062-252.062-252.062-246.81c-15.754-15.754-15.754-42.010 0-57.764 5.251-5.251 15.754-10.503 26.256-10.503s21.005 5.251 26.256 10.503l278.318 278.318c5.251 5.251 10.503 15.754 10.503 26.256s0 21.005-5.251 31.508zM346.585 755.2c-15.754 15.754-42.010 15.754-57.764 0l-278.318-278.318c-5.251-10.503-10.503-21.005-10.503-31.508s5.251-21.005 10.503-26.256l278.318-278.318c5.251-5.251 15.754-10.503 26.256-10.503s21.005 5.251 26.256 10.503c15.754 15.754 15.754 42.010 0 57.764l-246.81 246.81 252.062 252.062c15.754 15.754 15.754 42.010 0 57.764zM787.692 960c-21.005 5.251-42.010-5.251-47.262-26.256l-262.564-945.231c-5.251-26.256 5.251-47.262 26.256-52.513 5.251 0 5.251 0 10.503 0 15.754 0 31.508 10.503 36.759 31.508l262.564 945.231c5.251 21.005-5.251 42.010-26.256 47.262z" />
<glyph unicode="&#xe933;" glyph-name="image" d="M906.349 960h-784.34c-69.719 0-122.009-52.289-122.009-122.009v-784.34c0-65.362 52.289-122.009 122.009-122.009h784.34c65.362 0 122.009 52.289 122.009 122.009v784.34c-4.357 69.719-56.647 122.009-122.009 122.009zM122.009 894.638h784.34c30.502 0 56.647-26.145 56.647-56.647v-705.906l-235.302 235.302c-13.072 13.072-34.86 13.072-47.932 0l-156.868-148.153-204.8 204.8c-13.072 13.072-34.86 13.072-47.932 0l-204.8-204.8v618.757c0 30.502 26.145 56.647 56.647 56.647zM65.362 53.651v69.719l226.587 226.587 204.8-204.8c0 0 0 0 0 0s0 0 0 0l148.153-148.153h-522.894c-30.502 4.357-56.647 30.502-56.647 56.647zM906.349 1.362h-165.583l-174.298 169.94 130.723 130.723 257.089-257.089c-4.357-26.145-26.145-43.574-47.932-43.574zM601.328 528.613c65.362 0 122.009 52.289 122.009 122.009s-52.289 122.009-122.009 122.009-122.009-61.004-122.009-126.366 52.289-117.651 122.009-117.651zM601.328 702.911c30.502 0 56.647-26.145 56.647-56.647s-26.145-56.647-56.647-56.647-56.647 26.145-56.647 56.647 26.145 56.647 56.647 56.647z" />
<glyph unicode="&#xe934;" glyph-name="key" d="M705.906 528.613c-30.502 0-56.647 13.072-78.434 34.86s-34.86 47.932-34.86 78.434c0 30.502 13.072 56.647 34.86 78.434 43.574 43.574 117.651 43.574 156.868 0 21.787-21.787 34.86-47.932 34.86-78.434s-13.072-61.004-34.86-82.791c-21.787-21.787-52.289-30.502-78.434-30.502zM705.906 685.481c-13.072 0-26.145-4.357-34.86-13.072s-13.072-21.787-13.072-34.86c0-13.072 4.357-26.145 13.072-34.86 17.43-17.43 47.932-17.43 65.362 0 8.715 8.715 13.072 21.787 13.072 34.86s-4.357 26.145-13.072 34.86c-8.715 8.715-21.787 13.072-30.502 13.072zM230.945-64c0 0 0 0 0 0l-196.085 4.357c-17.43 0-30.502 13.072-30.502 30.502l-4.357 200.443c0 8.715 4.357 17.43 8.715 21.787l383.455 383.455c-21.787 104.579 13.072 213.515 87.149 291.949 61.004 56.647 139.438 91.506 226.587 91.506s165.583-34.86 226.587-91.506c61.004-61.004 95.864-139.438 95.864-226.587s-34.86-165.583-95.864-226.587c-74.077-74.077-187.37-108.936-291.949-87.149l-21.787-21.787c-4.357-4.357-13.072-8.715-21.787-8.715h-69.719v-52.289c0-17.43-13.072-34.86-34.86-34.86h-52.289v-52.289c0-17.43-13.072-34.86-34.86-34.86h-52.289v-52.289c0-17.43-13.072-34.86-34.86-34.86h-52.289v-65.362c0-8.715-4.357-17.43-8.715-21.787-8.715-8.715-17.43-13.072-26.145-13.072zM69.719 5.719l130.723-4.357v65.362c0 17.43 13.072 34.86 34.86 34.86h52.289v52.289c0 17.43 13.072 34.86 34.86 34.86h52.289v52.289c0 17.43 13.072 34.86 34.86 34.86h52.289v52.289c0 17.43 13.072 34.86 34.86 34.86h91.506l26.145 26.145c8.715 8.715 21.787 13.072 30.502 8.715 87.149-21.787 183.013 0 244.017 65.362 47.932 47.932 74.077 113.294 74.077 178.655s-26.145 130.723-74.077 178.655c-47.932 47.932-113.294 74.077-178.655 74.077s-130.723-26.145-178.655-74.077c-65.362-65.362-87.149-156.868-65.362-244.017 4.357-13.072 0-21.787-8.715-30.502l-383.455-383.455-4.357-156.868z" />
<glyph unicode="&#xe935;" glyph-name="lightbulb" horiz-adv-x="1028" d="M888.919 859.779c-165.583 143.796-427.030 130.723-575.183-34.86-56.647-61.004-91.506-139.438-100.221-222.23-8.715-61.004-17.43-117.651-30.502-169.94l-4.357-4.357c-30.502-30.502-43.574-65.362-43.574-108.936 0-30.502 8.715-61.004 26.145-87.149-30.502 21.787-74.077 21.787-108.936 4.357-39.217-21.787-56.647-65.362-43.574-108.936 0-4.357 4.357-13.072 4.357-13.072-13.072-43.574 0-95.864 34.86-130.723 30.502-34.86 82.791-52.289 126.366-39.217 4.357-4.357 8.715-4.357 17.43-4.357 8.715-4.357 17.43-4.357 26.145-4.357 34.86 0 65.362 17.43 82.791 47.932 21.787 34.86 17.43 78.434-4.357 108.936 26.145-17.43 56.647-26.145 82.791-26.145 39.217 0 78.434 13.072 108.936 43.574 0 0 4.357 4.357 4.357 4.357 61.004 13.072 122.009 26.145 174.298 30.502 91.506 13.072 174.298 52.289 239.66 117.651 78.434 78.434 122.009 187.37 117.651 300.664 0 117.651-52.289 222.23-135.081 296.306zM244.017 18.791c-8.715-13.072-21.787-17.43-34.86-13.072 0 0-4.357 0-4.357 0-8.715 4.357-17.43 4.357-26.145 4.357-4.357 0-13.072 0-17.43 0-21.787-4.357-47.932 0-65.362 17.43s-26.145 43.574-17.43 65.362c4.357 13.072 4.357 30.502-4.357 43.574 0 0 0 4.357 0 4.357-4.357 13.072 0 26.145 13.072 34.86s30.502 8.715 43.574-4.357l113.294-113.294c4.357-8.715 8.715-26.145 0-39.217zM858.417 310.74c-56.647-56.647-126.366-87.149-200.443-95.864-52.289-4.357-117.651-17.43-178.655-30.502-13.072-4.357-26.145-8.715-34.86-21.787-34.86-34.86-91.506-34.86-126.366 0l-95.864 95.864c-17.43 17.43-26.145 39.217-26.145 61.004s8.715 43.574 30.502 65.362c8.715 8.715 17.43 21.787 17.43 34.86 13.072 56.647 26.145 113.294 30.502 178.655 8.715 69.719 39.217 135.081 82.791 187.37 65.362 74.077 161.226 113.294 257.089 113.294 82.791 0 161.226-26.145 226.587-82.791 74.077-69.719 117.651-156.868 117.651-252.732v0c4.357-95.864-30.502-187.37-100.221-252.732z" />
<glyph unicode="&#xe936;" glyph-name="like-plus" horiz-adv-x="1198" d="M1198.298 593.974c0 0 0 0 0 0 0 4.357 0 4.357 0 4.357 0 4.357 0 4.357 0 8.715-8.715 191.728-165.583 352.953-348.596 352.953-91.506 0-183.013-39.217-248.374-113.294-69.719 74.077-156.868 113.294-248.374 113.294-187.37 0-344.238-161.226-352.953-352.953 0-4.357 0-4.357 0-8.715 0 0 0 0 0-4.357 0 0 0 0 0-4.357s0-8.715 0-13.072c13.072-366.026 361.668-557.753 514.179-627.472 26.145-13.072 52.289-17.43 82.791-17.43 26.145 0 56.647 4.357 78.434 17.43 34.86 13.072 65.362 30.502 95.864 47.932 34.86-13.072 69.719-21.787 108.936-21.787 174.298 0 313.736 143.796 313.736 313.736 0 47.932-8.715 91.506-30.502 130.723 17.43 47.932 26.145 100.221 26.145 152.511 8.715 13.072 8.715 17.43 8.715 21.787zM880.204 44.936c-139.438 0-248.374 113.294-248.374 248.374 0 139.438 113.294 248.374 248.374 248.374 139.438 0 248.374-113.294 248.374-248.374 4.357-135.081-108.936-248.374-248.374-248.374zM880.204 611.404c-174.298 0-313.736-143.796-313.736-313.736 0-108.936 52.289-200.443 135.081-257.089-17.43-8.715-34.86-17.43-52.289-26.145-34.86-13.072-74.077-13.072-108.936 0-139.438 61.004-461.889 239.66-474.962 566.468 0 4.357 0 4.357 0 8.715 0 0 0 0 0 4.357 0 0 0 4.357 0 4.357 4.357 161.226 135.081 296.306 283.234 296.306 82.791 0 165.583-43.574 222.23-117.651 13.072-17.43 39.217-17.43 52.289 0 56.647 74.077 135.081 117.651 222.23 117.651 152.511 0 283.234-135.081 283.234-296.306 0 0 0-4.357 0-4.357s0-4.357 0-4.357 0-4.357 0-8.715c0-26.145-4.357-52.289-8.715-78.434-56.647 65.362-143.796 108.936-239.66 108.936zM1019.643 328.17h-104.579v104.579c0 17.43-13.072 34.86-34.86 34.86s-34.86-13.072-34.86-34.86v-104.579h-104.579c-17.43 0-34.86-13.072-34.86-34.86s13.072-34.86 34.86-34.86h104.579v-104.579c0-17.43 13.072-34.86 34.86-34.86s34.86 13.072 34.86 34.86v108.936h104.579c17.43 0 34.86 13.072 34.86 34.86s-17.43 30.502-34.86 30.502z" />
<glyph unicode="&#xe937;" glyph-name="link" d="M488.034 363.030c-13.072-13.072-13.072-34.86 0-47.932 21.787-21.787 26.145-52.289 13.072-65.362l-239.66-239.66c-13.072-13.072-43.574-8.715-65.362 13.072l-108.936 108.936c-13.072 13.072-21.787 30.502-21.787 43.574 0 4.357 0 13.072 8.715 21.787l239.66 239.66c13.072 13.072 43.574 8.715 65.362-13.072 13.072-13.072 34.86-13.072 47.932 0s13.072 34.86 0 47.932c-47.932 47.932-117.651 52.289-156.868 13.072l-244.017-244.017c-17.43-17.43-26.145-39.217-26.145-65.362 0-30.502 13.072-65.362 39.217-91.506l108.936-108.936c26.145-26.145 61.004-39.217 91.506-39.217 26.145 0 47.932 8.715 65.362 26.145l244.017 244.017c39.217 39.217 34.86 108.936-13.072 156.868-13.072 13.072-34.86 13.072-47.932 0zM984.783 811.847l-108.936 108.936c-47.932 47.932-117.651 52.289-156.868 13.072l-244.017-244.017c-39.217-39.217-34.86-108.936 13.072-156.868 13.072-13.072 34.86-13.072 47.932 0s13.072 34.86 0 47.932c-21.787 21.787-26.145 52.289-13.072 65.362l244.017 244.017c13.072 13.072 43.574 8.715 65.362-13.072l108.936-108.936c17.43-21.787 21.787-52.289 8.715-69.719l-244.017-244.017c-13.072-13.072-43.574-8.715-65.362 13.072-13.072 13.072-34.86 13.072-47.932 0s-13.072-34.86 0-47.932c26.145-26.145 61.004-39.217 91.506-39.217 26.145 0 47.932 8.715 65.362 26.145l248.374 248.374c39.217 39.217 34.86 108.936-13.072 156.868zM265.804 201.804c4.357-4.357 13.072-8.715 21.787-8.715s17.43 4.357 21.787 8.715l448.817 448.817c13.072 13.072 13.072 34.86 0 47.932s-34.86 13.072-47.932 0l-444.46-453.174c-13.072-13.072-13.072-30.502 0-43.574z" />
<glyph unicode="&#xe938;" glyph-name="list" horiz-adv-x="1234" d="M1192.041 644.923h-892.718c-21.005 0-36.759-15.754-36.759-42.010s15.754-42.010 42.010-42.010h892.718c21.005 0 42.010 15.754 42.010 42.010s-21.005 42.010-47.262 42.010zM94.523 644.923h-52.513c-26.256 0-42.010-15.754-42.010-42.010s15.754-42.010 42.010-42.010h52.513c21.005 0 42.010 15.754 42.010 42.010s-21.005 42.010-42.010 42.010zM1192.041 14.769h-892.718c-21.005 0-36.759-15.754-36.759-42.010s15.754-42.010 42.010-42.010h892.718c21.005 0 42.010 15.754 42.010 42.010s-21.005 42.010-47.262 42.010zM94.523 14.769h-52.513c-26.256 0-42.010-15.754-42.010-42.010s15.754-42.010 42.010-42.010h52.513c21.005 0 42.010 15.754 42.010 42.010s-21.005 42.010-42.010 42.010zM1192.041 329.846h-892.718c-21.005 0-36.759-15.754-36.759-42.010s15.754-42.010 42.010-42.010h892.718c21.005 0 42.010 15.754 42.010 42.010s-21.005 42.010-47.262 42.010zM94.523 329.846h-52.513c-26.256 0-42.010-15.754-42.010-42.010s15.754-42.010 42.010-42.010h52.513c21.005 0 42.010 15.754 42.010 42.010s-21.005 42.010-42.010 42.010zM304.574 881.231h892.718c21.005 0 42.010 15.754 42.010 42.010s-21.005 36.759-47.262 36.759h-892.718c-21.005 0-36.759-15.754-36.759-42.010s15.754-36.759 42.010-36.759zM94.523 960h-52.513c-26.256 0-42.010-15.754-42.010-42.010s15.754-42.010 42.010-42.010h52.513c21.005 0 42.010 15.754 42.010 42.010s-21.005 42.010-42.010 42.010z" />
<glyph unicode="&#xe939;" glyph-name="mail" horiz-adv-x="1424" d="M1320.899 960h-1211.834c-60.592 0-109.065-48.473-109.065-109.065v-811.929c0-60.592 48.473-109.065 109.065-109.065h1211.834c60.592 0 109.065 48.473 109.065 109.065v811.929c-6.059 60.592-54.533 109.065-109.065 109.065zM1278.485 869.112l-545.325-381.728c-12.118-6.059-24.237-6.059-36.355 0l-545.325 381.728h1127.006zM1320.899 26.888h-1211.834c-6.059 0-18.178 6.059-18.178 18.178v751.337l551.385-387.787c18.178-12.118 42.414-24.237 66.651-24.237s48.473 6.059 66.651 24.237l557.444 387.787v-757.396c0-6.059-6.059-12.118-12.118-12.118z" />
<glyph unicode="&#xe93a;" glyph-name="mobile-check" d="M466.247 960h-344.238c-69.719 0-122.009-52.289-122.009-122.009v-784.34c0-65.362 52.289-122.009 122.009-122.009h344.238c65.362 0 122.009 52.289 122.009 122.009v784.34c-4.357 69.719-56.647 122.009-122.009 122.009zM518.536 53.651c0-30.502-26.145-56.647-56.647-56.647h-339.881c-30.502 0-56.647 26.145-56.647 56.647v784.34c0 30.502 26.145 56.647 56.647 56.647h344.238c30.502 0 56.647-26.145 56.647-56.647v-784.34zM949.923 519.898h-291.949c-17.43 0-34.86-13.072-34.86-34.86s13.072-34.86 34.86-34.86h291.949c4.357 0 8.715-4.357 8.715-8.715v-440.102c0-4.357-4.357-8.715-8.715-8.715h-291.949c-17.43 0-34.86-13.072-34.86-34.86s13.072-34.86 34.86-34.86h291.949c39.217 0 74.077 30.502 74.077 74.077v448.817c0 43.574-30.502 74.077-74.077 74.077zM413.957 563.472l-165.583-165.583-78.434 78.434c-13.072 13.072-34.86 13.072-47.932 0s-13.072-34.86 0-47.932l100.221-100.221c4.357-4.357 13.072-8.715 21.787-8.715s17.43 4.357 21.787 8.715l187.37 187.37c13.072 13.072 13.072 34.86 0 47.932s-26.145 13.072-39.217 0z" />
<glyph unicode="&#xe93b;" glyph-name="mobile" horiz-adv-x="588" d="M335.523 132.085c0-24.066-19.509-43.574-43.574-43.574s-43.574 19.509-43.574 43.574c0 24.066 19.509 43.574 43.574 43.574s43.574-19.509 43.574-43.574zM514.179 960h-435.745c-43.574 0-78.434-34.86-78.434-74.077v-871.489c0-43.574 34.86-78.434 78.434-78.434h435.745c43.574 0 78.434 34.86 78.434 78.434v871.489c-4.357 39.217-39.217 74.077-78.434 74.077zM522.894 14.434c0-4.357-4.357-13.072-13.072-13.072h-435.745c-4.357 0-13.072 4.357-13.072 13.072v871.489c0 4.357 4.357 13.072 13.072 13.072h435.745c4.357 0 13.072-4.357 13.072-13.072v-871.489z" />
<glyph unicode="&#xe93c;" glyph-name="multi-select" d="M387.813 960h-309.379c-43.574 0-78.434-34.86-78.434-78.434v-309.379c0-43.574 34.86-78.434 78.434-78.434h309.379c43.574 0 78.434 34.86 78.434 78.434v309.379c-4.357 43.574-39.217 78.434-78.434 78.434zM396.528 572.187c0-4.357-4.357-8.715-8.715-8.715h-309.379c-8.715 0-13.072 4.357-13.072 8.715v309.379c0 4.357 4.357 13.072 13.072 13.072h309.379c4.357 0 13.072-4.357 13.072-13.072v-309.379zM318.094 837.991h-174.298c-13.072 0-21.787-8.715-21.787-21.787v-174.298c0-13.072 8.715-21.787 21.787-21.787h174.298c13.072 0 21.787 8.715 21.787 21.787v174.298c0 8.715-8.715 21.787-21.787 21.787zM949.923 960h-309.379c-43.574 0-78.434-34.86-78.434-78.434v-309.379c0-43.574 34.86-78.434 78.434-78.434h309.379c43.574 0 78.434 34.86 78.434 78.434v309.379c-4.357 43.574-39.217 78.434-78.434 78.434zM958.638 572.187c0-4.357-4.357-13.072-13.072-13.072h-309.379c-4.357 0-13.072 4.357-13.072 13.072v309.379c0 4.357 4.357 13.072 13.072 13.072h309.379c4.357 0 13.072-4.357 13.072-13.072v-309.379zM880.204 837.991h-174.298c-13.072 0-21.787-8.715-21.787-21.787v-174.298c0-13.072 8.715-21.787 21.787-21.787h174.298c13.072 0 21.787 8.715 21.787 21.787v174.298c0 8.715-13.072 21.787-21.787 21.787zM387.813 397.889h-309.379c-43.574 0-78.434-34.86-78.434-78.434v-309.379c0-43.574 34.86-78.434 78.434-78.434h309.379c43.574 0 78.434 34.86 78.434 78.434v309.379c-4.357 43.574-39.217 78.434-78.434 78.434zM396.528 10.077c0-4.357-4.357-8.715-8.715-8.715h-309.379c-4.357 0-13.072 4.357-13.072 13.072v309.379c0 4.357 4.357 13.072 13.072 13.072h309.379c4.357 0 13.072-4.357 13.072-13.072v-313.736zM318.094 275.881h-174.298c-13.072 0-21.787-8.715-21.787-21.787v-174.298c0-13.072 8.715-21.787 21.787-21.787h174.298c13.072 0 21.787 8.715 21.787 21.787v174.298c0 13.072-8.715 21.787-21.787 21.787zM949.923 397.889h-309.379c-43.574 0-78.434-34.86-78.434-78.434v-309.379c0-43.574 34.86-78.434 78.434-78.434h309.379c43.574 0 78.434 34.86 78.434 78.434v309.379c-4.357 43.574-39.217 78.434-78.434 78.434zM958.638 10.077c0-4.357-4.357-13.072-13.072-13.072h-309.379c-4.357 0-13.072 4.357-13.072 13.072v309.379c0 4.357 4.357 13.072 13.072 13.072h309.379c4.357 0 13.072-4.357 13.072-13.072v-309.379z" />
<glyph unicode="&#xe93d;" glyph-name="newsletter" d="M989.14 668.051c0 0 0 0 0 0l-65.362 43.574v74.077c0 52.289-43.574 91.506-91.506 91.506h-156.868l-91.506 61.004c-43.574 30.502-100.221 30.502-143.796 0l-91.506-61.004h-156.868c-52.289 0-91.506-43.574-91.506-91.506v-74.077l-65.362-43.574c0 0 0 0-4.357 0-17.43-17.43-30.502-39.217-30.502-65.362v-583.898c0-43.574 34.86-78.434 78.434-78.434h862.774c43.574 0 78.434 34.86 78.434 78.434v583.898c4.357 26.145-8.715 47.932-30.502 65.362zM474.962 885.923c21.787 13.072 47.932 13.072 69.719 0l8.715-4.357h-87.149l8.715 4.357zM191.728 811.847h640.545c13.072 0 26.145-13.072 26.145-26.145v-178.655l-309.379-209.157c-21.787-13.072-47.932-13.072-69.719 0l-313.736 209.157v178.655c0 13.072 13.072 26.145 26.145 26.145zM945.566 1.362h-867.132c-8.715 0-13.072 8.715-13.072 13.072v579.54l374.74-252.732c21.787-13.072 47.932-21.787 69.719-21.787s47.932 8.715 69.719 21.787l379.098 252.732v-579.54c0-4.357-4.357-13.072-13.072-13.072zM300.664 659.336h422.672c17.43 0 34.86 13.072 34.86 34.86s-17.43 30.502-34.86 30.502h-422.672c-17.43 0-34.86-13.072-34.86-34.86s17.43-30.502 34.86-30.502zM636.187 589.617h-248.374c-17.43 0-34.86-13.072-34.86-34.86s17.43-30.502 34.86-30.502h248.374c17.43 0 34.86 13.072 34.86 34.86s-17.43 30.502-34.86 30.502z" />
<glyph unicode="&#xe93e;" glyph-name="paper-plane-o" d="M392.17 328.17l-26.145-30.502c-13.072-13.072-13.072-34.86 0-47.932 4.357-4.357 13.072-8.715 21.787-8.715s17.43 4.357 21.787 8.715l26.145 30.502c13.072 13.072 13.072 34.86 0 47.932s-34.86 13.072-43.574 0zM1024 929.498c0 0 0 4.357 0 0 0 4.357 0 4.357 0 8.715 0 0 0 0 0 0s0 4.357 0 4.357c0 0 0 0 0 0s0 4.357-4.357 4.357c0 0 0 4.357-4.357 4.357 0 0 0 0 0 0s0 0 0 0 0 0 0 0-4.357 0-4.357 4.357c0 0-4.357 4.357-4.357 4.357s0 0 0 0 0 0 0 0-4.357 0-4.357 0c0 0-4.357 0-4.357 0s0 0 0 0 0 0-4.357 0c0 0-4.357 0-4.357 0s0 0-4.357 0c0 0 0 0-4.357 0 0 0 0 0-4.357 0l-945.566-618.757c-21.787-13.072-34.86-43.574-26.145-69.719 4.357-26.145 26.145-47.932 52.289-52.289v0l248.374-43.574 39.217-196.085c8.715-26.145 26.145-43.574 52.289-47.932 4.357 0 4.357 0 8.715 0 21.787 0 39.217 8.715 52.289 30.502l78.434 135.081 265.804-117.651c8.715-4.357 17.43-4.357 26.145-4.357s17.43 4.357 30.502 8.715c17.43 8.715 30.502 26.145 34.86 47.932l139.438 893.277c-8.715 0-8.715 0-8.715 4.357 0-4.357 0 0 0 0zM400.885 5.719l-39.217 196.085c-8.715 21.787-26.145 43.574-52.289 47.932l-248.374 43.574 727.694 461.889-335.523-361.668c-13.072-13.072-13.072-34.86 0-47.932 4.357-4.357 13.072-8.715 21.787-8.715s17.43 4.357 21.787 8.715l296.306 322.451-309.379-514.179c0-4.357 0-4.357-4.357-8.715l-78.434-139.438zM819.2 40.579l-257.089 113.294 370.383 614.4-113.294-727.694z" />
</font>
</defs>
</svg>
